# Blender 5.2.2 LTS
# www.blender.org
mtllib CoinPile_Small.mtl
o CoinPile_Small
v 0.600000 0.000000 0.000000
v 0.485410 0.000000 -0.352671
v 0.185410 0.000000 -0.570634
v -0.185410 0.000000 -0.570634
v -0.485410 0.000000 -0.352671
v -0.600000 0.000000 -0.000000
v -0.485410 0.000000 0.352671
v -0.185410 0.000000 0.570634
v 0.185410 0.000000 0.570634
v 0.485410 0.000000 0.352671
v 0.400000 0.233233 0.000000
v 0.323607 0.235066 -0.235114
v 0.123607 0.248058 -0.380423
v -0.123607 0.242403 -0.380423
v -0.323607 0.245697 -0.235114
v -0.400000 0.254371 -0.000000
v -0.323607 0.235025 0.235114
v -0.123607 0.238919 0.380423
v 0.123607 0.250411 0.380423
v 0.323607 0.244822 0.235114
v 0.200000 0.337150 0.000000
v 0.161803 0.349311 -0.117557
v 0.061803 0.338933 -0.190211
v -0.061803 0.338930 -0.190211
v -0.161803 0.343104 -0.117557
v -0.200000 0.337995 -0.000000
v -0.161803 0.336857 0.117557
v -0.061803 0.352087 0.190211
v 0.061803 0.341340 0.190211
v 0.161803 0.357608 0.117557
v 0.000000 0.380000 0.000000
v -0.113985 0.338675 -0.113324
v 0.039798 0.323830 -0.309870
v -0.132730 0.249448 -0.346105
v -0.294278 0.227334 -0.245980
v -0.350212 0.270442 -0.068146
v -0.267768 0.353520 0.083223
v -0.095240 0.427902 0.119458
v 0.066308 0.450017 0.019333
v 0.122242 0.406908 -0.158501
v 0.020680 0.377433 -0.328877
v -0.151848 0.303050 -0.365112
v -0.313396 0.280936 -0.264987
v -0.369330 0.324045 -0.087153
v -0.286886 0.407123 0.064216
v -0.114358 0.481505 0.100451
v 0.047190 0.503619 0.000326
v 0.103124 0.460511 -0.177508
v -0.133103 0.392278 -0.132330
v -0.058781 0.154051 -0.470634
v 0.187205 0.181034 -0.435096
v 0.145593 0.108785 -0.607317
v -0.015738 0.063052 -0.699472
v -0.202283 0.070625 -0.657576
v -0.304767 0.127068 -0.506173
v -0.263155 0.199317 -0.333951
v -0.101824 0.245050 -0.241797
v 0.084721 0.237477 -0.283693
v 0.184382 0.236541 -0.457700
v 0.142770 0.164292 -0.629921
v -0.018561 0.118559 -0.722076
v -0.205106 0.126132 -0.680180
v -0.307590 0.182575 -0.528777
v -0.265978 0.254824 -0.356555
v -0.104647 0.300557 -0.264401
v 0.081898 0.292984 -0.306297
v -0.061604 0.209558 -0.493238
v 0.005052 0.318713 -0.222551
v -0.210356 0.314997 -0.095722
v -0.057545 0.311847 0.019388
v 0.131935 0.312720 -0.007226
v 0.247088 0.317103 -0.159975
v 0.220460 0.322430 -0.349380
v 0.067648 0.325579 -0.464490
v -0.121832 0.324707 -0.437876
v -0.236985 0.320324 -0.285127
v -0.210395 0.374973 -0.094030
v -0.057583 0.371823 0.021081
v 0.131897 0.372696 -0.005534
v 0.247050 0.377079 -0.158283
v 0.220421 0.382406 -0.347688
v 0.067610 0.385555 -0.462798
v -0.121870 0.384683 -0.436183
v -0.237023 0.380300 -0.283435
v 0.005013 0.378689 -0.220859
v -0.392962 0.207395 -0.134748
v -0.627067 0.119706 -0.132446
v -0.564412 0.165785 0.042377
v -0.401324 0.236238 0.113442
v -0.233337 0.289795 0.039120
v -0.158856 0.295084 -0.137051
v -0.221511 0.249005 -0.311873
v -0.384599 0.178552 -0.382938
v -0.552586 0.124995 -0.308617
v -0.648024 0.175466 -0.139632
v -0.585369 0.221545 0.035191
v -0.422281 0.291998 0.106256
v -0.254294 0.345555 0.031934
v -0.179813 0.350844 -0.144237
v -0.242467 0.304765 -0.319059
v -0.405556 0.234312 -0.390124
v -0.573543 0.180755 -0.315803
v -0.413918 0.263155 -0.141934
v -0.282019 0.249919 -0.219173
v -0.399051 0.315831 -0.008319
v -0.266880 0.443483 -0.061680
v -0.143576 0.457747 -0.207297
v -0.101371 0.350269 -0.359871
v -0.164986 0.184007 -0.430026
v -0.297158 0.056355 -0.376665
v -0.420461 0.042091 -0.231048
v -0.462667 0.149569 -0.078474
v -0.440368 0.345188 -0.040429
v -0.308197 0.472840 -0.093790
v -0.184893 0.487105 -0.239407
v -0.142688 0.379627 -0.391981
v -0.206303 0.213365 -0.462136
v -0.338475 0.085713 -0.408775
v -0.461778 0.071448 -0.263158
v -0.503984 0.178926 -0.110584
v -0.323336 0.279277 -0.251282
v 0.121990 0.127327 -0.484078
v -0.014631 0.005724 -0.654512
v -0.119736 0.124806 -0.547815
v -0.083241 0.245364 -0.403782
v 0.073475 0.296778 -0.306786
v 0.258611 0.248930 -0.313645
v 0.363716 0.129849 -0.420342
v 0.327221 0.009290 -0.564375
v 0.170505 -0.042124 -0.661371
v -0.004692 0.049834 -0.693951
v -0.109797 0.168916 -0.587255
v -0.073302 0.289475 -0.443222
v 0.083414 0.340889 -0.346226
v 0.268550 0.293041 -0.353085
v 0.373655 0.173959 -0.459782
v 0.337160 0.053401 -0.603814
v 0.180444 0.001986 -0.700811
v 0.131929 0.171438 -0.523518
v 0.119471 0.100015 -0.508073
v -0.058675 0.014233 -0.661063
v -0.127946 0.130948 -0.526190
v -0.052284 0.229543 -0.380704
v 0.123989 0.252262 -0.309830
v 0.297616 0.185797 -0.355084
v 0.366887 0.069082 -0.489957
v 0.291225 -0.029513 -0.635442
v 0.114952 -0.052232 -0.706317
v -0.050140 0.061241 -0.697359
v -0.119411 0.177956 -0.562486
v -0.043749 0.276551 -0.417000
v 0.132524 0.299270 -0.346126
v 0.306150 0.232805 -0.391380
v 0.375422 0.116090 -0.526253
v 0.299760 0.017495 -0.671738
v 0.123487 -0.005224 -0.742612
v 0.128005 0.147023 -0.544369
v 0.319776 0.249327 -0.161118
v 0.543458 0.176445 -0.245704
v 0.413962 0.192590 -0.385640
v 0.229294 0.241970 -0.394054
v 0.097628 0.295660 -0.266017
v 0.096094 0.322208 -0.076533
v 0.225589 0.306064 0.063403
v 0.410258 0.256684 0.071817
v 0.541923 0.202994 -0.056219
v 0.559158 0.233812 -0.253615
v 0.429662 0.249956 -0.393550
v 0.244994 0.299336 -0.401964
v 0.113329 0.353026 -0.273928
v 0.111794 0.379575 -0.084443
v 0.241290 0.363431 0.055492
v 0.425958 0.314051 0.063906
v 0.557623 0.260361 -0.064130
v 0.335476 0.306694 -0.169029
v -0.337500 0.252873 -0.102187
v -0.270311 0.244002 -0.342826
v -0.380342 0.095937 -0.292018
v -0.465277 0.039803 -0.130009
v -0.475362 0.108482 0.048297
v -0.404689 0.261744 0.138452
v -0.294657 0.409809 0.087644
v -0.209722 0.465943 -0.074365
v -0.199637 0.397263 -0.252671
v -0.319296 0.275315 -0.357657
v -0.429327 0.127250 -0.306849
v -0.514262 0.071116 -0.144841
v -0.524347 0.139795 0.033465
v -0.453674 0.293057 0.123620
v -0.343642 0.441122 0.072812
v -0.258707 0.497256 -0.089196
v -0.248622 0.428576 -0.267502
v -0.386485 0.284186 -0.117019
v -0.249580 0.249345 0.256722
v -0.110999 0.345363 0.072125
v -0.290789 0.309224 0.017523
v -0.446438 0.238009 0.103040
v -0.486771 0.173434 0.278582
v -0.388160 0.153326 0.441318
v -0.208371 0.189465 0.495921
v -0.052722 0.260681 0.410404
v -0.012389 0.325256 0.234862
v -0.127174 0.400695 0.088763
v -0.306964 0.364556 0.034160
v -0.462613 0.293340 0.119677
v -0.502946 0.228765 0.295219
v -0.404335 0.208658 0.457956
v -0.224546 0.244797 0.512559
v -0.068897 0.316012 0.427042
v -0.028564 0.380587 0.251500
v -0.265755 0.304676 0.273360
v -0.017883 0.298987 0.268728
v -0.139094 0.461552 0.122508
v -0.257942 0.343475 0.214945
v -0.236166 0.199337 0.338888
v -0.086523 0.113573 0.421732
v 0.103328 0.136421 0.414948
v 0.222176 0.254498 0.322511
v 0.200400 0.398636 0.198568
v 0.050758 0.484401 0.115724
v -0.142132 0.500357 0.168169
v -0.260980 0.382280 0.260607
v -0.239205 0.238142 0.384549
v -0.089562 0.152377 0.467393
v 0.100289 0.175226 0.460609
v 0.219137 0.293303 0.368172
v 0.197362 0.437441 0.244230
v 0.047719 0.523205 0.161386
v -0.020922 0.337791 0.314389
v -0.522817 0.000000 0.406325
v -0.424484 0.000000 0.176475
v -0.615813 0.000000 0.174265
v -0.752666 0.000000 0.307992
v -0.754876 0.000000 0.499321
v -0.621149 0.000000 0.636174
v -0.429820 0.000000 0.638384
v -0.292967 0.000000 0.504657
v -0.290757 0.000000 0.313328
v -0.424484 0.060000 0.176475
v -0.615813 0.060000 0.174265
v -0.752666 0.060000 0.307992
v -0.754876 0.060000 0.499321
v -0.621149 0.060000 0.636174
v -0.429820 0.060000 0.638384
v -0.292967 0.060000 0.504657
v -0.290757 0.060000 0.313328
v -0.522817 0.060000 0.406325
v -0.025553 0.000000 -0.693512
v -0.272773 0.000000 -0.656332
v -0.174074 0.000000 -0.492411
v 0.011627 0.000000 -0.446292
v 0.175548 0.000000 -0.544992
v 0.221667 0.000000 -0.730692
v 0.122967 0.000000 -0.894613
v -0.062733 0.000000 -0.940732
v -0.226654 0.000000 -0.842033
v -0.272773 0.060000 -0.656332
v -0.174074 0.060000 -0.492411
v 0.011627 0.060000 -0.446292
v 0.175548 0.060000 -0.544992
v 0.221667 0.060000 -0.730692
v 0.122967 0.060000 -0.894613
v -0.062733 0.060000 -0.940732
v -0.226654 0.060000 -0.842033
v -0.025553 0.060000 -0.693512
v -0.529937 0.000000 0.375251
v -0.446762 0.000000 0.139493
v -0.637830 0.000000 0.149732
v -0.765695 0.000000 0.292076
v -0.755457 0.000000 0.483144
v -0.613112 0.000000 0.611010
v -0.422045 0.000000 0.600771
v -0.294179 0.000000 0.458426
v -0.304417 0.000000 0.267359
v -0.446762 0.060000 0.139493
v -0.637830 0.060000 0.149732
v -0.765695 0.060000 0.292076
v -0.755457 0.060000 0.483144
v -0.613112 0.060000 0.611010
v -0.422045 0.060000 0.600771
v -0.294179 0.060000 0.458426
v -0.304417 0.060000 0.267359
v -0.529937 0.060000 0.375251
v -0.680256 0.000000 -0.083408
v -0.811394 0.000000 0.129437
v -0.622480 0.000000 0.159825
v -0.467411 0.000000 0.047730
v -0.437024 0.000000 -0.141184
v -0.549119 0.000000 -0.296253
v -0.738033 0.000000 -0.326640
v -0.893101 0.000000 -0.214545
v -0.923489 0.000000 -0.025632
v -0.811394 0.060000 0.129437
v -0.622480 0.060000 0.159825
v -0.467411 0.060000 0.047730
v -0.437024 0.060000 -0.141184
v -0.549119 0.060000 -0.296253
v -0.738033 0.060000 -0.326640
v -0.893101 0.060000 -0.214545
v -0.923489 0.060000 -0.025632
v -0.680256 0.060000 -0.083408
vn 0.7370 0.6320 -0.2395
vn 0.4569 0.6290 -0.6289
vn -0.0139 0.6063 -0.7951
vn -0.4624 0.6173 -0.6365
vn -0.7520 0.6122 -0.2444
vn -0.7516 0.5910 0.2929
vn -0.4569 0.6291 0.6289
vn -0.0000 0.6228 0.7823
vn 0.4800 0.6027 0.6375
vn 0.7628 0.6088 0.2179
vn 0.4564 0.8784 -0.1415
vn 0.2544 0.8448 -0.4708
vn -0.0000 0.9023 -0.4311
vn -0.2545 0.8932 -0.3706
vn -0.4534 0.8846 -0.1089
vn -0.3823 0.9144 0.1331
vn -0.2866 0.8834 0.3708
vn 0.0736 0.8464 0.5275
vn 0.2731 0.8994 0.3412
vn 0.5541 0.8317 0.0353
vn 0.2094 0.9773 0.0331
vn 0.0421 0.9793 -0.1978
vn -0.0000 0.9775 -0.2110
vn -0.0912 0.9791 -0.1818
vn -0.2055 0.9784 -0.0242
vn -0.2049 0.9758 0.0760
vn -0.2044 0.9759 0.0768
vn 0.0853 0.9814 0.1717
vn -0.0119 0.9791 0.2029
vn 0.2084 0.9728 -0.1016
vn 0.3186 -0.8934 0.3168
vn 0.2923 -0.2253 -0.9294
vn -0.4309 -0.4342 -0.7911
vn -0.9017 -0.3887 -0.1894
vn -0.8443 -0.1156 0.5233
vn -0.2923 0.2253 0.9294
vn 0.4309 0.4342 0.7911
vn 0.9017 0.3887 0.1894
vn 0.8443 0.1156 -0.5233
vn -0.3186 0.8934 -0.3168
vn 0.0471 -0.9251 0.3767
vn 0.9749 -0.0396 -0.2190
vn 0.5356 -0.2950 -0.7913
vn -0.2175 -0.3776 -0.9001
vn -0.8432 -0.2390 -0.4816
vn -0.9749 0.0396 0.2190
vn -0.5356 0.2950 0.7913
vn 0.2175 0.3776 0.9001
vn 0.8432 0.2390 0.4816
vn -0.0471 0.9251 -0.3767
vn 0.0006 -0.9996 -0.0282
vn -0.6018 -0.0229 0.7983
vn 0.1392 -0.0278 0.9899
vn 0.7986 -0.0165 0.6016
vn 0.9903 0.0046 -0.1391
vn 0.6018 0.0229 -0.7983
vn -0.1392 0.0278 -0.9899
vn -0.7986 0.0165 -0.6016
vn -0.9903 -0.0046 0.1391
vn -0.0006 0.9996 0.0282
vn 0.3493 -0.9293 0.1198
vn -0.8779 -0.2799 0.3884
vn -0.3893 -0.0276 0.9207
vn 0.3274 0.2408 0.9137
vn 0.8523 0.3682 0.3714
vn 0.8779 0.2799 -0.3884
vn 0.3893 0.0276 -0.9207
vn -0.3274 -0.2408 -0.9137
vn -0.8523 -0.3682 -0.3714
vn -0.3493 0.9293 -0.1198
vn 0.6886 -0.4893 0.5352
vn -0.2206 0.5617 0.7974
vn 0.3325 0.8689 0.3666
vn 0.6908 0.6671 -0.2789
vn 0.6444 0.0746 -0.7610
vn 0.2206 -0.5617 -0.7974
vn -0.3325 -0.8689 -0.3666
vn -0.6908 -0.6671 0.2789
vn -0.6444 -0.0746 0.7610
vn -0.6886 0.4893 -0.5352
vn -0.1657 -0.7352 0.6573
vn -0.8190 -0.2687 -0.5069
vn -0.9676 0.2501 0.0358
vn -0.5493 0.6223 0.5576
vn 0.1907 0.6301 0.7528
vn 0.8190 0.2687 0.5069
vn 0.9676 -0.2501 -0.0358
vn 0.5493 -0.6223 -0.5576
vn -0.1907 -0.6301 -0.7528
vn 0.1657 0.7352 -0.6573
vn 0.1656 0.7352 -0.6573
vn -0.1422 -0.7835 0.6049
vn -0.9212 -0.1187 -0.3704
vn -0.9074 0.3474 0.2365
vn -0.3620 0.6100 0.7049
vn 0.3954 0.5153 0.7603
vn 0.9212 0.1187 0.3704
vn 0.9074 -0.3474 -0.2365
vn 0.3620 -0.6100 -0.7049
vn -0.3954 -0.5153 -0.7603
vn 0.1422 0.7835 -0.6049
vn -0.2617 -0.9561 0.1318
vn 0.6881 -0.2806 -0.6692
vn 0.0080 -0.1387 -0.9903
vn -0.6768 0.0844 -0.7313
vn -0.9651 0.2581 -0.0440
vn -0.6881 0.2806 0.6691
vn -0.0080 0.1388 0.9903
vn 0.6768 -0.0844 0.7313
vn 0.9651 -0.2581 0.0440
vn 0.2617 0.9561 -0.1318
vn 0.8164 -0.5219 0.2472
vn 0.0527 -0.3589 -0.9319
vn -0.3694 -0.8010 -0.4712
vn -0.5751 -0.7738 0.2655
vn -0.4439 -0.2934 0.8467
vn -0.0527 0.3589 0.9319
vn 0.3694 0.8010 0.4712
vn 0.5751 0.7738 -0.2655
vn 0.4439 0.2934 -0.8467
vn -0.8164 0.5219 -0.2472
vn 0.2696 -0.9222 -0.2773
vn 0.2108 0.3375 -0.9174
vn -0.5154 0.1051 -0.8505
vn -0.9396 -0.1889 -0.2854
vn -0.8135 -0.3722 0.4469
vn -0.2108 -0.3375 0.9174
vn 0.5154 -0.1051 0.8505
vn 0.9396 0.1889 0.2854
vn 0.8135 0.3722 -0.4469
vn -0.2696 0.9222 0.2773
vn 0.0506 -0.6467 -0.7610
vn -0.7821 0.4482 -0.4330
vn -0.9922 -0.1194 0.0355
vn -0.6211 -0.6171 0.4831
vn 0.1138 -0.7533 0.6478
vn 0.7821 -0.4482 0.4330
vn 0.9922 0.1194 -0.0355
vn 0.6211 0.6171 -0.4831
vn -0.1138 0.7533 -0.6478
vn -0.0506 0.6467 0.7610
vn -0.0000 -1.0000 -0.0000
vn 0.0116 -0.0000 -0.9999
vn -0.6989 -0.0000 -0.7152
vn -0.9999 -0.0000 -0.0116
vn -0.7152 -0.0000 0.6989
vn -0.0116 -0.0000 0.9999
vn 0.6989 -0.0000 0.7152
vn 0.9999 -0.0000 0.0116
vn 0.7152 -0.0000 -0.6989
vn -0.0000 1.0000 -0.0000
vn -0.8567 -0.0000 0.5158
vn -0.2410 -0.0000 0.9705
vn 0.5158 -0.0000 0.8567
vn 0.9705 -0.0000 0.2410
vn 0.8567 -0.0000 -0.5158
vn 0.2410 -0.0000 -0.9705
vn -0.5158 -0.0000 -0.8567
vn -0.9705 -0.0000 -0.2410
vn -0.0535 -0.0000 -0.9986
vn -0.7439 -0.0000 -0.6683
vn -0.9986 -0.0000 0.0535
vn -0.6683 -0.0000 0.7439
vn 0.0535 -0.0000 0.9986
vn 0.7439 -0.0000 0.6683
vn 0.9986 -0.0000 -0.0535
vn 0.6683 -0.0000 -0.7439
vn -0.1588 -0.0000 0.9873
vn 0.5858 -0.0000 0.8104
vn 0.9873 -0.0000 0.1588
vn 0.8104 -0.0000 -0.5858
vn 0.1588 -0.0000 -0.9873
vn -0.5858 -0.0000 -0.8104
vn -0.9873 -0.0000 -0.1588
vn -0.8104 -0.0000 0.5858
vn 0.7413 0.6283 -0.2360
vn 0.4941 0.6032 -0.6261
vn -0.0000 0.6173 -0.7867
vn -0.4588 0.6109 -0.6453
vn -0.7573 0.5955 -0.2680
vn -0.7393 0.6291 0.2402
vn -0.4685 0.6213 0.6281
vn -0.0279 0.6003 0.7993
vn 0.4642 0.6135 0.6389
vn 0.7370 0.6320 0.2395
vn 0.5323 0.8422 -0.0858
vn 0.2985 0.8953 -0.3308
vn -0.0205 0.8942 -0.4471
vn -0.2481 0.8857 -0.3924
vn -0.3810 0.9111 -0.1574
vn -0.4095 0.8887 0.2062
vn -0.3971 0.8397 0.3705
vn -0.0417 0.8961 0.4419
vn 0.2241 0.8388 0.4963
vn 0.4585 0.8824 0.1055
vn -0.5493 0.6224 0.5576
vn 0.5493 -0.6224 -0.5576
vn 0.0080 -0.1388 -0.9903
vn -0.6881 0.2806 0.6692
vt 0.320973 0.025000
vt 0.319179 0.100000
vt 0.275000 0.070110
vt 0.275000 0.063020
vt 0.350000 0.051107
vt 0.328234 0.100000
vt 0.314547 0.100000
vt 0.323033 0.025000
vt 0.350000 0.058030
vt 0.025000 0.041135
vt 0.100000 0.064462
vt 0.056081 0.100000
vt 0.100000 0.068709
vt 0.025000 0.070017
vt 0.054454 0.025000
vt 0.315404 0.025000
vt 0.300305 0.100000
vt 0.275000 0.064584
vt 0.069291 0.100000
vt 0.045965 0.025000
vt 0.100000 0.040034
vt 0.185526 0.100000
vt 0.177539 0.025000
vt 0.225000 0.049605
vt 0.350000 0.063213
vt 0.275000 0.050151
vt 0.309733 0.025000
vt 0.025000 0.080690
vt 0.100000 0.062025
vt 0.078180 0.100000
vt 0.100000 0.090178
vt 0.025000 0.066670
vt 0.072540 0.025000
vt 0.225000 0.025000
vt 0.150000 0.072241
vt 0.153800 0.034429
vt 0.225000 0.050485
vt 0.150000 0.049527
vt 0.172125 0.025000
vt 0.275000 0.100000
vt 0.319197 0.025000
vt 0.350000 0.086395
vt 0.335694 0.100000
vt 0.319109 0.025000
vt 0.350000 0.040942
vt 0.055183 0.100000
vt 0.085885 0.025000
vt 0.100000 0.058071
vt 0.160827 0.025000
vt 0.217594 0.090323
vt 0.150000 0.100000
vt 0.150000 0.073450
vt 0.225000 0.074408
vt 0.204487 0.100000
vt 0.181104 0.100000
vt 0.150000 0.040164
vt 0.167680 0.025000
vt 0.179919 0.100000
vt 0.150000 0.084424
vt 0.079686 0.025000
vt 0.100000 0.083408
vt 0.025000 0.100000
vt 0.100000 0.025000
vt 0.093515 0.100000
vt 0.025000 0.044220
vt 0.225000 0.063214
vt 0.189465 0.100000
vt 0.150000 0.025000
vt 0.350000 0.092658
vt 0.292698 0.025000
vt 0.081562 0.100000
vt 0.025000 0.078694
vt 0.295483 0.100000
vt 0.275000 0.041592
vt 0.350000 0.025000
vt 0.033157 0.025000
vt 0.100000 0.080780
vt 0.025000 0.061786
vt 0.061151 0.025000
vt 0.100000 0.100000
vt 0.025000 0.032342
vt 0.083259 0.100000
vt 0.293037 0.025000
vt 0.350000 0.046306
vt 0.054214 0.100000
vt 0.025000 0.037751
vt 0.086283 0.025000
vt 0.025000 0.085280
vt 0.025000 0.025000
vt 0.100000 0.070786
vt 0.037751 0.100000
vt 0.025000 0.038717
vt 0.085280 0.100000
vt 0.070786 0.025000
vt 0.100000 0.087249
vt 0.038717 0.100000
vt 0.100000 0.039720
vt 0.025000 0.054214
vt 0.087249 0.025000
vt 0.100000 0.086283
vt 0.039720 0.025000
vt 0.150000 0.056920
vt 0.225000 0.068080
vt 0.216213 0.100000
vt 0.150000 0.050708
vt 0.225000 0.074292
vt 0.213103 0.100000
vt 0.225000 0.089846
vt 0.150000 0.035154
vt 0.178930 0.025000
vt 0.179992 0.025000
vt 0.195008 0.100000
vt 0.150000 0.034644
vt 0.225000 0.056920
vt 0.150000 0.068080
vt 0.216213 0.025000
vt 0.225000 0.050708
vt 0.150000 0.074292
vt 0.213103 0.025000
vt 0.196070 0.025000
vt 0.178930 0.100000
vt 0.150000 0.089846
vt 0.195008 0.025000
vt 0.179992 0.100000
vt 0.150000 0.090356
vt 0.475000 0.037751
vt 0.445786 0.100000
vt 0.400000 0.025000
vt 0.475000 0.085280
vt 0.400000 0.100000
vt 0.413717 0.025000
vt 0.462249 0.100000
vt 0.400000 0.070786
vt 0.475000 0.025000
vt 0.414720 0.100000
vt 0.475000 0.038717
vt 0.400000 0.087249
vt 0.429214 0.025000
vt 0.475000 0.100000
vt 0.400000 0.039720
vt 0.461283 0.100000
vt 0.412751 0.025000
vt 0.475000 0.054214
vt 0.460280 0.025000
vt 0.400000 0.086283
vt 0.025000 0.081967
vt 0.057831 0.025000
vt 0.100000 0.045028
vt 0.036103 0.100000
vt 0.081967 0.100000
vt 0.025000 0.067169
vt 0.045028 0.025000
vt 0.100000 0.088897
vt 0.100000 0.043033
vt 0.067169 0.100000
vt 0.025000 0.079972
vt 0.088897 0.025000
vt 0.043033 0.025000
vt 0.100000 0.057831
vt 0.079972 0.100000
vt 0.025000 0.036103
vt 0.150000 0.091103
vt 0.225000 0.033897
vt 0.181662 0.100000
vt 0.212769 0.100000
vt 0.162231 0.025000
vt 0.225000 0.074847
vt 0.206509 0.100000
vt 0.168491 0.025000
vt 0.225000 0.082671
vt 0.225000 0.089750
vt 0.150000 0.035250
vt 0.178736 0.025000
vt 0.225000 0.091103
vt 0.150000 0.033897
vt 0.181662 0.025000
vt 0.225000 0.050153
vt 0.150000 0.074847
vt 0.212769 0.025000
vt 0.168491 0.100000
vt 0.206509 0.025000
vt 0.225000 0.042329
vt 0.196264 0.025000
vt 0.178736 0.100000
vt 0.150000 0.089750
vt 0.317169 0.025000
vt 0.350000 0.081967
vt 0.338897 0.100000
vt 0.275000 0.045028
vt 0.350000 0.067169
vt 0.293033 0.100000
vt 0.275000 0.025000
vt 0.350000 0.100000
vt 0.275000 0.088897
vt 0.329972 0.025000
vt 0.307831 0.100000
vt 0.275000 0.043033
vt 0.286103 0.025000
vt 0.350000 0.079972
vt 0.275000 0.057831
vt 0.331967 0.025000
vt 0.350000 0.036103
vt 0.295028 0.100000
vt 0.025000 0.075204
vt 0.091760 0.025000
vt 0.046809 0.025000
vt 0.100000 0.060694
vt 0.075204 0.100000
vt 0.025000 0.033240
vt 0.025000 0.078191
vt 0.060694 0.025000
vt 0.100000 0.049796
vt 0.033240 0.100000
vt 0.078191 0.100000
vt 0.025000 0.064306
vt 0.049796 0.025000
vt 0.100000 0.091760
vt 0.100000 0.046809
vt 0.064306 0.100000
vt 0.165264 0.100000
vt 0.209736 0.025000
vt 0.225000 0.045841
vt 0.167705 0.100000
vt 0.207295 0.025000
vt 0.225000 0.043104
vt 0.210652 0.025000
vt 0.164348 0.100000
vt 0.150000 0.077979
vt 0.207982 0.025000
vt 0.167018 0.100000
vt 0.150000 0.081179
vt 0.150000 0.045841
vt 0.225000 0.079159
vt 0.209736 0.100000
vt 0.150000 0.043104
vt 0.225000 0.081896
vt 0.207295 0.100000
vt 0.225000 0.077979
vt 0.150000 0.047021
vt 0.164348 0.025000
vt 0.225000 0.081179
vt 0.150000 0.043821
vt 0.167018 0.025000
vt 0.283240 0.025000
vt 0.350000 0.075204
vt 0.275000 0.060694
vt 0.328191 0.025000
vt 0.350000 0.033240
vt 0.299796 0.100000
vt 0.314306 0.025000
vt 0.350000 0.078191
vt 0.341760 0.100000
vt 0.275000 0.049796
vt 0.350000 0.064306
vt 0.296809 0.100000
vt 0.275000 0.091760
vt 0.325204 0.025000
vt 0.310694 0.100000
vt 0.275000 0.046809
vt 0.025000 0.026792
vt 0.078935 0.100000
vt 0.077131 0.025000
vt 0.100000 0.098226
vt 0.026792 0.100000
vt 0.100000 0.046065
vt 0.025000 0.047869
vt 0.098226 0.025000
vt 0.100000 0.098208
vt 0.046065 0.025000
vt 0.047869 0.100000
vt 0.025000 0.026774
vt 0.098208 0.025000
vt 0.025000 0.078935
vt 0.100000 0.077131
vt 0.026774 0.100000
vt 0.173175 0.025000
vt 0.201825 0.100000
vt 0.150000 0.038519
vt 0.157960 0.100000
vt 0.217040 0.025000
vt 0.225000 0.058975
vt 0.225000 0.055101
vt 0.150000 0.069899
vt 0.215407 0.025000
vt 0.205724 0.025000
vt 0.169276 0.100000
vt 0.150000 0.083400
vt 0.201825 0.025000
vt 0.173175 0.100000
vt 0.150000 0.086481
vt 0.150000 0.058975
vt 0.225000 0.066025
vt 0.217040 0.100000
vt 0.215407 0.100000
vt 0.159593 0.025000
vt 0.225000 0.069899
vt 0.225000 0.083400
vt 0.150000 0.041600
vt 0.169276 0.025000
vt 0.296065 0.100000
vt 0.350000 0.026792
vt 0.275000 0.098226
vt 0.297869 0.025000
vt 0.275000 0.046065
vt 0.348208 0.100000
vt 0.276774 0.025000
vt 0.350000 0.047869
vt 0.328935 0.025000
vt 0.275000 0.098208
vt 0.350000 0.026774
vt 0.327131 0.100000
vt 0.350000 0.078935
vt 0.276792 0.025000
vt 0.348226 0.100000
vt 0.275000 0.077131
vt 0.088363 0.025000
vt 0.025000 0.084128
vt 0.100000 0.071938
vt 0.035934 0.100000
vt 0.025000 0.036637
vt 0.084128 0.100000
vt 0.071938 0.025000
vt 0.100000 0.089066
vt 0.036637 0.100000
vt 0.100000 0.040872
vt 0.025000 0.053062
vt 0.089066 0.025000
vt 0.100000 0.088363
vt 0.040872 0.025000
vt 0.053062 0.100000
vt 0.025000 0.035934
vt 0.225000 0.095492
vt 0.150000 0.029508
vt 0.224531 0.025000
vt 0.152176 0.025000
vt 0.222824 0.100000
vt 0.150000 0.082520
vt 0.150000 0.025785
vt 0.225000 0.099215
vt 0.157288 0.100000
vt 0.159372 0.100000
vt 0.215628 0.025000
vt 0.225000 0.055583
vt 0.224531 0.100000
vt 0.150469 0.025000
vt 0.225000 0.029508
vt 0.150000 0.042480
vt 0.225000 0.082520
vt 0.152176 0.100000
vt 0.225000 0.025785
vt 0.150000 0.099215
vt 0.157288 0.025000
vt 0.150000 0.055583
vt 0.225000 0.069417
vt 0.215628 0.100000
vt 0.475000 0.084128
vt 0.411637 0.025000
vt 0.464066 0.100000
vt 0.400000 0.071938
vt 0.415872 0.100000
vt 0.475000 0.036637
vt 0.400000 0.089066
vt 0.428062 0.025000
vt 0.400000 0.040872
vt 0.463363 0.100000
vt 0.410934 0.025000
vt 0.475000 0.053062
vt 0.459128 0.025000
vt 0.400000 0.088363
vt 0.475000 0.035934
vt 0.446938 0.100000
vt 0.061932 0.025000
vt 0.100000 0.099611
vt 0.100000 0.055675
vt 0.056455 0.100000
vt 0.025000 0.063068
vt 0.099611 0.025000
vt 0.055675 0.025000
vt 0.100000 0.068545
vt 0.063068 0.100000
vt 0.025000 0.025389
vt 0.025000 0.069325
vt 0.068545 0.025000
vt 0.100000 0.061932
vt 0.025389 0.100000
vt 0.069325 0.100000
vt 0.025000 0.056455
vt 0.225000 0.098480
vt 0.150000 0.026520
vt 0.211964 0.025000
vt 0.225000 0.098699
vt 0.150000 0.026301
vt 0.213585 0.025000
vt 0.190636 0.025000
vt 0.184364 0.100000
vt 0.150000 0.092188
vt 0.180101 0.100000
vt 0.194899 0.025000
vt 0.225000 0.034593
vt 0.163036 0.025000
vt 0.211964 0.100000
vt 0.150000 0.098480
vt 0.150000 0.098699
vt 0.225000 0.026301
vt 0.213585 0.100000
vt 0.184364 0.025000
vt 0.190636 0.100000
vt 0.150000 0.032812
vt 0.194899 0.100000
vt 0.180101 0.025000
vt 0.225000 0.090407
vt 0.400000 0.099611
vt 0.438068 0.025000
vt 0.443545 0.100000
vt 0.400000 0.055675
vt 0.400389 0.025000
vt 0.475000 0.063068
vt 0.400000 0.068545
vt 0.444325 0.025000
vt 0.475000 0.025389
vt 0.436932 0.100000
vt 0.431455 0.025000
vt 0.475000 0.069325
vt 0.474611 0.100000
vt 0.400000 0.061932
vt 0.475000 0.056455
vt 0.430675 0.100000
vt 0.038469 0.025000
vt 0.100000 0.085142
vt 0.100000 0.037537
vt 0.070924 0.100000
vt 0.025000 0.086531
vt 0.085142 0.025000
vt 0.037537 0.025000
vt 0.100000 0.054076
vt 0.086531 0.100000
vt 0.025000 0.039858
vt 0.025000 0.087463
vt 0.054076 0.025000
vt 0.100000 0.038469
vt 0.039858 0.100000
vt 0.087463 0.100000
vt 0.025000 0.070924
vt 0.202337 0.025000
vt 0.172663 0.100000
vt 0.150000 0.028063
vt 0.201855 0.025000
vt 0.173145 0.100000
vt 0.150000 0.028153
vt 0.171138 0.100000
vt 0.203862 0.025000
vt 0.225000 0.040026
vt 0.178521 0.100000
vt 0.196479 0.025000
vt 0.225000 0.035358
vt 0.172663 0.025000
vt 0.202337 0.100000
vt 0.150000 0.096937
vt 0.173145 0.025000
vt 0.201855 0.100000
vt 0.150000 0.096847
vt 0.150000 0.040027
vt 0.225000 0.084973
vt 0.203862 0.100000
vt 0.150000 0.035358
vt 0.225000 0.089642
vt 0.196479 0.100000
vt 0.275000 0.085142
vt 0.336531 0.025000
vt 0.304076 0.100000
vt 0.275000 0.037537
vt 0.289858 0.025000
vt 0.350000 0.086531
vt 0.275000 0.054076
vt 0.337463 0.025000
vt 0.350000 0.039858
vt 0.288469 0.100000
vt 0.320924 0.025000
vt 0.350000 0.087463
vt 0.335142 0.100000
vt 0.275000 0.038469
vt 0.350000 0.070924
vt 0.287537 0.100000
vt 0.100000 0.063719
vt 0.025832 0.025000
vt 0.068102 0.100000
vt 0.025000 0.055224
vt 0.063719 0.025000
vt 0.025000 0.099168
vt 0.100000 0.056898
vt 0.055224 0.100000
vt 0.025000 0.061281
vt 0.099168 0.100000
vt 0.056898 0.025000
vt 0.100000 0.069776
vt 0.061281 0.100000
vt 0.100000 0.025832
vt 0.025000 0.068102
vt 0.069776 0.025000
vt 0.150000 0.078590
vt 0.225000 0.046410
vt 0.164813 0.100000
vt 0.198314 0.100000
vt 0.176686 0.025000
vt 0.225000 0.088666
vt 0.150000 0.038765
vt 0.225000 0.086235
vt 0.202177 0.100000
vt 0.172535 0.025000
vt 0.202465 0.100000
vt 0.150000 0.038971
vt 0.225000 0.078590
vt 0.150000 0.046410
vt 0.164813 0.025000
vt 0.176686 0.100000
vt 0.198314 0.025000
vt 0.225000 0.036334
vt 0.172823 0.100000
vt 0.202177 0.025000
vt 0.225000 0.038765
vt 0.202465 0.025000
vt 0.172535 0.100000
vt 0.150000 0.086029
vt 0.224168 0.025000
vt 0.225000 0.100000
vt 0.150000 0.063719
vt 0.225000 0.055224
vt 0.181898 0.100000
vt 0.225000 0.099168
vt 0.186281 0.025000
vt 0.194776 0.100000
vt 0.150000 0.056898
vt 0.150832 0.100000
vt 0.225000 0.061281
vt 0.150000 0.069776
vt 0.193102 0.025000
vt 0.150000 0.025832
vt 0.188719 0.100000
vt 0.180224 0.025000
vt 0.225000 0.068102
vt 0.026850 0.100000
vt 0.100000 0.046035
vt 0.025000 0.047899
vt 0.098168 0.025000
vt 0.100000 0.098150
vt 0.046035 0.025000
vt 0.047899 0.100000
vt 0.025000 0.026832
vt 0.098150 0.025000
vt 0.025000 0.078965
vt 0.100000 0.077101
vt 0.026832 0.100000
vt 0.025000 0.026850
vt 0.078965 0.100000
vt 0.077101 0.025000
vt 0.100000 0.098168
vt 0.225000 0.075894
vt 0.150000 0.049106
vt 0.221662 0.025000
vt 0.150000 0.066028
vt 0.225000 0.058972
vt 0.157961 0.100000
vt 0.209562 0.025000
vt 0.165438 0.100000
vt 0.150000 0.079373
vt 0.150000 0.061973
vt 0.225000 0.063027
vt 0.218112 0.100000
vt 0.150000 0.075894
vt 0.225000 0.049106
vt 0.221662 0.100000
vt 0.225000 0.066028
vt 0.150000 0.058972
vt 0.157961 0.025000
vt 0.165438 0.025000
vt 0.209562 0.100000
vt 0.150000 0.045627
vt 0.225000 0.061973
vt 0.150000 0.063027
vt 0.218112 0.025000
vt 0.400000 0.046035
vt 0.473150 0.100000
vt 0.401832 0.025000
vt 0.475000 0.047899
vt 0.453965 0.025000
vt 0.400000 0.098150
vt 0.475000 0.026832
vt 0.452101 0.100000
vt 0.475000 0.078965
vt 0.401850 0.025000
vt 0.473168 0.100000
vt 0.400000 0.077101
vt 0.421035 0.100000
vt 0.475000 0.026850
vt 0.400000 0.098168
vt 0.422899 0.025000
vt 0.053929 0.100000
vt 0.025000 0.037308
vt 0.086795 0.025000
vt 0.025000 0.084995
vt 0.100000 0.071071
vt 0.037308 0.100000
vt 0.025000 0.038205
vt 0.084995 0.100000
vt 0.071071 0.025000
vt 0.100000 0.087692
vt 0.038205 0.100000
vt 0.100000 0.040005
vt 0.025000 0.053929
vt 0.087692 0.025000
vt 0.100000 0.086795
vt 0.040005 0.025000
vt 0.150000 0.049926
vt 0.225000 0.075074
vt 0.212629 0.100000
vt 0.150000 0.059391
vt 0.225000 0.065609
vt 0.217198 0.100000
vt 0.225000 0.070494
vt 0.150000 0.054506
vt 0.159874 0.025000
vt 0.225000 0.074848
vt 0.150000 0.050152
vt 0.162232 0.025000
vt 0.162371 0.100000
vt 0.212629 0.025000
vt 0.225000 0.049926
vt 0.157802 0.100000
vt 0.217198 0.025000
vt 0.225000 0.059391
vt 0.215126 0.025000
vt 0.159874 0.100000
vt 0.150000 0.070494
vt 0.212768 0.025000
vt 0.162232 0.100000
vt 0.150000 0.074848
vt 0.475000 0.037308
vt 0.446071 0.100000
vt 0.475000 0.084995
vt 0.413205 0.025000
vt 0.462692 0.100000
vt 0.400000 0.071071
vt 0.415005 0.100000
vt 0.475000 0.038205
vt 0.400000 0.087692
vt 0.428929 0.025000
vt 0.400000 0.040005
vt 0.461795 0.100000
vt 0.412308 0.025000
vt 0.475000 0.053929
vt 0.459995 0.025000
vt 0.400000 0.086795
vt 0.062204 0.100000
vt 0.100000 0.025203
vt 0.025000 0.068731
vt 0.069138 0.025000
vt 0.100000 0.062796
vt 0.025203 0.025000
vt 0.068731 0.100000
vt 0.025000 0.055862
vt 0.062796 0.025000
vt 0.025000 0.099797
vt 0.100000 0.056269
vt 0.055862 0.100000
vt 0.025000 0.062204
vt 0.099797 0.100000
vt 0.056269 0.025000
vt 0.100000 0.069138
vt 0.222826 0.025000
vt 0.152174 0.100000
vt 0.150000 0.042465
vt 0.223277 0.025000
vt 0.151723 0.100000
vt 0.150000 0.039472
vt 0.150000 0.027507
vt 0.225000 0.097493
vt 0.150254 0.100000
vt 0.150000 0.039164
vt 0.225000 0.085836
vt 0.202730 0.100000
vt 0.225000 0.042465
vt 0.150000 0.082535
vt 0.152174 0.025000
vt 0.151723 0.025000
vt 0.223277 0.100000
vt 0.150000 0.085528
vt 0.225000 0.027507
vt 0.150000 0.097493
vt 0.150254 0.025000
vt 0.172270 0.100000
vt 0.202730 0.025000
vt 0.225000 0.039164
vt 0.275000 0.025203
vt 0.312796 0.100000
vt 0.305862 0.025000
vt 0.350000 0.068731
vt 0.349797 0.025000
vt 0.275000 0.062796
vt 0.350000 0.055862
vt 0.306269 0.100000
vt 0.350000 0.099797
vt 0.312204 0.025000
vt 0.319138 0.100000
vt 0.275000 0.056269
vt 0.275203 0.100000
vt 0.350000 0.062204
vt 0.275000 0.069138
vt 0.318731 0.025000
vt 0.068220 0.100000
vt 0.025000 0.055345
vt 0.063546 0.025000
vt 0.025000 0.099286
vt 0.100000 0.056780
vt 0.055345 0.100000
vt 0.025000 0.061454
vt 0.099286 0.100000
vt 0.056780 0.025000
vt 0.100000 0.069655
vt 0.061454 0.100000
vt 0.100000 0.025714
vt 0.025000 0.068220
vt 0.069655 0.025000
vt 0.100000 0.063546
vt 0.025714 0.025000
vt 0.150000 0.042905
vt 0.225000 0.082095
vt 0.207097 0.100000
vt 0.150000 0.047860
vt 0.225000 0.077140
vt 0.211261 0.100000
vt 0.225000 0.082095
vt 0.167903 0.025000
vt 0.163739 0.025000
vt 0.167903 0.100000
vt 0.207097 0.025000
vt 0.225000 0.042905
vt 0.163739 0.100000
vt 0.211261 0.025000
vt 0.225000 0.047860
vt 0.207097 0.025000
vt 0.167903 0.100000
vt 0.150000 0.082095
vt 0.150000 0.077140
vt 0.225000 0.055345
vt 0.181780 0.100000
vt 0.225000 0.099286
vt 0.186454 0.025000
vt 0.194655 0.100000
vt 0.150000 0.056780
vt 0.150714 0.100000
vt 0.225000 0.061454
vt 0.150000 0.069655
vt 0.193220 0.025000
vt 0.150000 0.025714
vt 0.188546 0.100000
vt 0.180345 0.025000
vt 0.225000 0.068220
vt 0.224286 0.025000
vt 0.150000 0.063546
vt 0.025000 0.040016
vt 0.086009 0.100000
vt 0.070057 0.025000
vt 0.100000 0.086134
vt 0.040016 0.100000
vt 0.100000 0.038991
vt 0.025000 0.054943
vt 0.086134 0.025000
vt 0.100000 0.084984
vt 0.038991 0.025000
vt 0.054943 0.100000
vt 0.025000 0.038866
vt 0.084984 0.025000
vt 0.025000 0.086009
vt 0.100000 0.070057
vt 0.038866 0.100000
vt 0.225000 0.079904
vt 0.150000 0.045096
vt 0.165881 0.025000
vt 0.167499 0.100000
vt 0.207501 0.025000
vt 0.225000 0.043315
vt 0.165881 0.100000
vt 0.209119 0.025000
vt 0.225000 0.045096
vt 0.150000 0.081685
vt 0.150000 0.079904
vt 0.150000 0.043315
vt 0.225000 0.081685
vt 0.207501 0.100000
vt 0.209119 0.100000
vt 0.150000 0.043315
vt 0.167499 0.025000
vt 0.288991 0.100000
vt 0.350000 0.040016
vt 0.275000 0.086134
vt 0.304943 0.025000
vt 0.275000 0.038991
vt 0.334984 0.100000
vt 0.288866 0.025000
vt 0.350000 0.054943
vt 0.336009 0.025000
vt 0.275000 0.084984
vt 0.350000 0.038866
vt 0.320057 0.100000
vt 0.350000 0.086009
vt 0.290016 0.025000
vt 0.336134 0.100000
vt 0.275000 0.070057
vt 0.072339 0.100000
vt 0.025000 0.059323
vt 0.057649 0.025000
vt 0.100000 0.096743
vt 0.100000 0.052661
vt 0.059323 0.100000
vt 0.025000 0.067351
vt 0.096743 0.025000
vt 0.052661 0.025000
vt 0.100000 0.065677
vt 0.067351 0.100000
vt 0.025000 0.028257
vt 0.025000 0.072339
vt 0.065677 0.025000
vt 0.100000 0.057649
vt 0.028257 0.100000
vt 0.150000 0.042923
vt 0.225000 0.082077
vt 0.207116 0.100000
vt 0.225000 0.077761
vt 0.150000 0.047239
vt 0.164186 0.025000
vt 0.150000 0.042923
vt 0.167884 0.025000
vt 0.164186 0.100000
vt 0.210814 0.025000
vt 0.225000 0.047239
vt 0.167884 0.100000
vt 0.207116 0.025000
vt 0.225000 0.042923
vt 0.150000 0.077761
vt 0.150000 0.082077
vt 0.150000 0.047239
vt 0.210814 0.100000
vt 0.225000 0.059323
vt 0.177661 0.100000
vt 0.150000 0.096743
vt 0.192351 0.025000
vt 0.190677 0.100000
vt 0.150000 0.052661
vt 0.153257 0.025000
vt 0.225000 0.067351
vt 0.150000 0.065677
vt 0.197339 0.025000
vt 0.225000 0.028257
vt 0.182649 0.100000
vt 0.184323 0.025000
vt 0.225000 0.072339
vt 0.221743 0.100000
vt 0.150000 0.057649
vt 0.065436 0.025000
vt 0.100000 0.079642
vt 0.047938 0.100000
vt 0.100000 0.034370
vt 0.025000 0.059564
vt 0.079641 0.025000
vt 0.100000 0.077062
vt 0.034370 0.025000
vt 0.059564 0.100000
vt 0.025000 0.045358
vt 0.077062 0.025000
vt 0.025000 0.090630
vt 0.100000 0.065436
vt 0.045358 0.100000
vt 0.025000 0.047938
vt 0.090630 0.100000
vt 0.167730 0.100000
vt 0.207270 0.025000
vt 0.225000 0.043079
vt 0.165198 0.100000
vt 0.209802 0.025000
vt 0.225000 0.045924
vt 0.150000 0.081921
vt 0.150000 0.079076
vt 0.150000 0.043079
vt 0.225000 0.081921
vt 0.207270 0.100000
vt 0.150000 0.045924
vt 0.225000 0.079076
vt 0.209802 0.100000
vt 0.225000 0.081921
vt 0.167730 0.025000
vt 0.150000 0.045924
vt 0.165198 0.025000
vt 0.150000 0.079642
vt 0.184564 0.025000
vt 0.150000 0.034370
vt 0.202062 0.100000
vt 0.170359 0.025000
vt 0.225000 0.059564
vt 0.215630 0.025000
vt 0.150000 0.077062
vt 0.225000 0.045358
vt 0.190436 0.100000
vt 0.225000 0.090630
vt 0.172938 0.025000
vt 0.204642 0.100000
vt 0.150000 0.065436
vt 0.159370 0.100000
vt 0.225000 0.047938
vt 0.350000 0.070103
vt 0.315530 0.025000
vt 0.275000 0.049739
vt 0.079693 0.025000
vt 0.054546 0.100000
vt 0.350000 0.080266
vt 0.025000 0.064728
vt 0.150000 0.057627
vt 0.297240 0.100000
vt 0.059797 0.025000
vt 0.037360 0.100000
vt 0.212439 0.100000
vt 0.181233 0.100000
vt 0.281620 0.031456
vt 0.275000 0.066165
vt 0.025000 0.034563
vt 0.225000 0.052938
vt 0.194118 0.025000
vt 0.219263 0.095103
vt 0.225000 0.059201
vt 0.158787 0.025000
vt 0.161897 0.025000
vt 0.196070 0.100000
vt 0.225000 0.090356
vt 0.158787 0.100000
vt 0.161897 0.100000
vt 0.225000 0.035154
vt 0.225000 0.034644
vt 0.193338 0.025000
vt 0.150000 0.050153
vt 0.150000 0.042329
vt 0.196264 0.100000
vt 0.193338 0.100000
vt 0.162231 0.100000
vt 0.150000 0.082671
vt 0.225000 0.035250
vt 0.150000 0.079159
vt 0.150000 0.081896
vt 0.225000 0.047021
vt 0.225000 0.043821
vt 0.165264 0.025000
vt 0.167705 0.025000
vt 0.210652 0.100000
vt 0.207982 0.100000
vt 0.225000 0.086481
vt 0.150000 0.066025
vt 0.159593 0.100000
vt 0.225000 0.041600
vt 0.225000 0.038519
vt 0.157960 0.025000
vt 0.150000 0.055101
vt 0.205724 0.100000
vt 0.150469 0.100000
vt 0.225000 0.042480
vt 0.217712 0.025000
vt 0.150000 0.069417
vt 0.150000 0.095492
vt 0.222824 0.025000
vt 0.217712 0.100000
vt 0.159372 0.025000
vt 0.163036 0.100000
vt 0.161415 0.100000
vt 0.225000 0.032812
vt 0.150000 0.090407
vt 0.225000 0.026520
vt 0.161415 0.025000
vt 0.225000 0.092188
vt 0.150000 0.034593
vt 0.225000 0.096937
vt 0.225000 0.096847
vt 0.150000 0.084973
vt 0.150000 0.089642
vt 0.225000 0.028063
vt 0.225000 0.028153
vt 0.171138 0.025000
vt 0.178521 0.025000
vt 0.210187 0.025000
vt 0.150000 0.036334
vt 0.172823 0.025000
vt 0.225000 0.086029
vt 0.210187 0.100000
vt 0.150000 0.088666
vt 0.150000 0.086235
vt 0.225000 0.038971
vt 0.153338 0.100000
vt 0.217039 0.025000
vt 0.225000 0.045627
vt 0.156888 0.025000
vt 0.153338 0.025000
vt 0.217039 0.100000
vt 0.225000 0.079373
vt 0.156888 0.100000
vt 0.162371 0.025000
vt 0.157802 0.025000
vt 0.215126 0.100000
vt 0.212768 0.100000
vt 0.150000 0.075074
vt 0.150000 0.065609
vt 0.225000 0.054506
vt 0.225000 0.050152
vt 0.225000 0.082535
vt 0.225000 0.085528
vt 0.224746 0.025000
vt 0.172270 0.025000
vt 0.222826 0.100000
vt 0.225000 0.039472
vt 0.224746 0.100000
vt 0.150000 0.085836
vt 0.150000 0.082095
vt 0.150000 0.077140
vt 0.225000 0.042905
vt 0.225000 0.047860
vt 0.150000 0.079904
vt 0.225000 0.043315
vt 0.225000 0.045096
vt 0.150000 0.077761
vt 0.150000 0.081921
s 0
usemtl HoardAtlas
f 2/1/1 11/2/1 1/3/1
f 3/4/2 12/5/2 2/6/2
f 3/7/3 14/8/3 13/9/3
f 5/10/4 14/11/4 4/12/4
f 6/13/5 15/14/5 5/15/5
f 6/16/6 17/17/6 16/18/6
f 8/19/7 17/20/7 7/21/7
f 9/22/8 18/23/8 8/24/8
f 9/25/9 20/26/9 19/27/9
f 10/28/10 11/29/10 20/30/10
f 12/31/11 21/32/11 11/33/11
f 12/34/12 23/35/12 22/36/12
f 13/37/13 24/38/13 23/39/13
f 15/40/14 24/41/14 14/42/14
f 15/43/15 26/44/15 25/45/15
f 16/46/16 27/47/16 26/48/16
f 18/49/17 27/50/17 17/51/17
f 18/52/18 29/53/18 28/54/18
f 20/34/19 29/55/19 19/56/19
f 20/57/20 21/58/20 30/59/20
f 21/60/21 22/61/21 31/62/21
f 22/63/22 23/64/22 31/65/22
f 23/66/23 24/67/23 31/68/23
f 24/69/24 25/40/24 31/70/24
f 25/71/25 26/72/25 31/63/25
f 26/73/26 27/74/26 31/75/26
f 27/62/27 28/76/27 31/77/27
f 28/78/28 29/79/28 31/80/28
f 29/81/29 30/63/29 31/82/29
f 30/83/30 21/84/30 31/40/30
f 32/63/31 34/85/31 33/86/31
f 32/87/31 35/80/31 34/88/31
f 32/89/31 36/90/31 35/91/31
f 32/92/31 37/63/31 36/93/31
f 32/62/31 38/94/31 37/95/31
f 32/96/31 39/89/31 38/97/31
f 32/80/31 40/98/31 39/99/31
f 32/100/31 33/62/31 40/101/31
f 34/102/32 41/103/32 33/104/32
f 35/105/33 42/106/33 34/107/33
f 36/108/34 43/109/34 35/110/34
f 36/111/35 45/112/35 44/113/35
f 37/114/36 46/115/36 45/116/36
f 38/117/37 47/118/37 46/119/37
f 40/120/38 47/121/38 39/122/38
f 33/123/39 48/124/39 40/125/39
f 41/126/40 42/127/40 49/128/40
f 42/129/40 43/130/40 49/131/40
f 43/132/40 44/133/40 49/134/40
f 44/135/40 45/128/40 49/136/40
f 45/137/40 46/138/40 49/139/40
f 46/140/40 47/134/40 49/141/40
f 47/142/40 48/143/40 49/130/40
f 48/144/40 41/139/40 49/145/40
f 50/80/41 52/146/41 51/147/41
f 50/148/41 53/149/41 52/89/41
f 50/63/41 54/150/41 53/151/41
f 50/152/41 55/153/41 54/62/41
f 50/89/41 56/154/41 55/155/41
f 50/156/41 57/157/41 56/80/41
f 50/62/41 58/158/41 57/159/41
f 50/160/41 51/161/41 58/63/41
f 51/162/42 60/163/42 59/164/42
f 52/165/43 61/166/43 60/167/43
f 53/168/44 62/169/44 61/170/44
f 55/171/45 62/172/45 54/173/45
f 56/174/46 63/175/46 55/176/46
f 56/177/47 65/178/47 64/179/47
f 58/180/48 65/181/48 57/182/48
f 51/183/49 66/184/49 58/185/49
f 59/186/50 60/187/50 67/40/50
f 60/75/50 61/188/50 67/189/50
f 61/190/50 62/191/50 67/192/50
f 62/193/50 63/194/50 67/195/50
f 63/196/50 64/197/50 67/75/50
f 64/40/50 65/198/50 67/199/50
f 65/200/50 66/201/50 67/193/50
f 66/192/50 59/202/50 67/203/50
f 68/204/51 70/205/51 69/80/51
f 68/62/51 71/206/51 70/207/51
f 68/208/51 72/209/51 71/63/51
f 68/80/51 73/210/51 72/211/51
f 68/212/51 74/213/51 73/89/51
f 68/63/51 75/214/51 74/215/51
f 68/216/51 76/217/51 75/62/51
f 68/89/51 69/218/51 76/219/51
f 70/220/52 77/221/52 69/222/52
f 71/223/53 78/224/53 70/225/53
f 72/226/54 79/227/54 71/228/54
f 73/229/55 80/230/55 72/231/55
f 74/232/56 81/233/56 73/234/56
f 75/235/57 82/236/57 74/237/57
f 76/238/58 83/239/58 75/240/58
f 69/241/59 84/242/59 76/243/59
f 77/40/60 78/244/60 85/245/60
f 78/246/60 79/247/60 85/193/60
f 79/192/60 80/248/60 85/249/60
f 80/250/60 81/251/60 85/40/60
f 81/75/60 82/252/60 85/253/60
f 82/254/60 83/255/60 85/192/60
f 83/193/60 84/256/60 85/257/60
f 84/258/60 77/259/60 85/75/60
f 86/260/61 88/63/61 87/261/61
f 86/62/61 89/262/61 88/263/61
f 86/264/61 90/89/61 89/265/61
f 86/80/61 91/266/61 90/267/61
f 86/268/61 92/62/61 91/269/61
f 86/63/61 93/270/61 92/271/61
f 86/272/61 94/80/61 93/273/61
f 86/89/61 87/274/61 94/275/61
f 87/276/62 96/277/62 95/278/62
f 89/279/63 96/280/63 88/281/63
f 89/282/64 98/283/64 97/284/64
f 91/285/65 98/286/65 90/287/65
f 92/288/66 99/289/66 91/290/66
f 93/291/67 100/292/67 92/293/67
f 93/294/68 102/295/68 101/296/68
f 87/297/69 102/298/69 94/299/69
f 95/300/70 96/192/70 103/301/70
f 96/302/70 97/303/70 103/193/70
f 97/304/70 98/75/70 103/305/70
f 98/306/70 99/307/70 103/40/70
f 99/308/70 100/193/70 103/309/70
f 100/310/70 101/311/70 103/192/70
f 101/312/70 102/40/70 103/313/70
f 102/314/70 95/315/70 103/75/70
f 104/316/71 106/80/71 105/317/71
f 104/89/71 107/318/71 106/319/71
f 104/320/71 108/63/71 107/321/71
f 104/62/71 109/322/71 108/323/71
f 104/324/71 110/89/71 109/325/71
f 104/80/71 111/326/71 110/327/71
f 104/328/71 112/62/71 111/329/71
f 104/63/71 105/330/71 112/331/71
f 105/332/72 114/333/72 113/334/72
f 106/335/73 115/336/73 114/337/73
f 108/338/74 115/339/74 107/340/74
f 109/341/75 116/342/75 108/343/75
f 109/344/76 118/345/76 117/346/76
f 110/347/77 119/348/77 118/349/77
f 111/350/78 120/351/78 119/352/78
f 105/353/79 120/354/79 112/355/79
f 113/356/80 114/130/80 121/357/80
f 114/358/80 115/359/80 121/134/80
f 115/360/80 116/128/80 121/361/80
f 116/362/80 117/363/80 121/139/80
f 117/364/80 118/134/80 121/365/80
f 118/366/80 119/367/80 121/130/80
f 119/368/80 120/139/80 121/369/80
f 120/370/80 113/371/80 121/128/80
f 122/372/81 124/373/81 123/62/81
f 122/89/81 125/374/81 124/375/81
f 122/376/81 126/377/81 125/80/81
f 122/62/81 127/378/81 126/379/81
f 122/380/81 128/381/81 127/63/81
f 122/80/81 129/382/81 128/383/81
f 122/384/81 130/385/81 129/89/81
f 122/63/81 123/386/81 130/387/81
f 124/388/82 131/389/82 123/390/82
f 125/391/83 132/392/83 124/393/83
f 126/394/84 133/395/84 125/396/84
f 127/397/85 134/398/85 126/399/85
f 128/400/86 135/401/86 127/402/86
f 128/403/87 137/404/87 136/405/87
f 129/406/88 138/407/88 137/408/88
f 130/409/89 131/410/89 138/411/89
f 131/139/90 132/412/90 139/413/90
f 132/414/90 133/415/90 139/134/90
f 133/130/90 134/416/90 139/417/90
f 134/418/91 135/419/91 139/139/91
f 135/128/90 136/420/90 139/421/90
f 136/422/90 137/423/90 139/130/90
f 137/134/90 138/424/90 139/425/90
f 138/426/90 131/427/90 139/128/90
f 140/428/92 142/429/92 141/62/92
f 140/89/92 143/430/92 142/431/92
f 140/432/92 144/433/92 143/80/92
f 140/62/92 145/434/92 144/435/92
f 140/436/92 146/437/92 145/63/92
f 140/80/92 147/438/92 146/439/92
f 140/440/92 148/441/92 147/89/92
f 140/63/92 141/442/92 148/443/92
f 141/444/93 150/445/93 149/446/93
f 142/447/94 151/448/94 150/449/94
f 144/450/95 151/451/95 143/452/95
f 145/453/96 152/454/96 144/455/96
f 146/456/97 153/457/97 145/458/97
f 147/459/98 154/460/98 146/461/98
f 148/462/99 155/463/99 147/464/99
f 141/465/100 156/466/100 148/467/100
f 149/193/101 150/468/101 157/469/101
f 150/470/101 151/471/101 157/75/101
f 151/40/101 152/472/101 157/473/101
f 152/474/101 153/475/101 157/193/101
f 153/192/101 154/476/101 157/477/101
f 154/478/101 155/479/101 157/40/101
f 155/75/101 156/480/101 157/481/101
f 156/482/101 149/483/101 157/192/101
f 158/484/102 160/62/102 159/485/102
f 158/63/102 161/486/102 160/487/102
f 158/488/102 162/80/102 161/489/102
f 158/89/102 163/490/102 162/491/102
f 158/492/102 164/63/102 163/493/102
f 158/62/102 165/494/102 164/495/102
f 158/496/102 166/89/102 165/497/102
f 158/80/102 159/498/102 166/499/102
f 159/500/103 168/501/103 167/502/103
f 160/503/104 169/504/104 168/505/104
f 162/506/105 169/507/105 161/508/105
f 162/509/106 171/510/106 170/511/106
f 164/512/107 171/513/107 163/514/107
f 165/515/108 172/516/108 164/517/108
f 166/518/109 173/519/109 165/520/109
f 159/521/110 174/522/110 166/523/110
f 167/524/111 168/525/111 175/526/111
f 168/527/111 169/528/111 175/68/111
f 169/529/111 170/51/111 175/530/111
f 170/531/111 171/532/111 175/34/111
f 171/533/111 172/68/111 175/534/111
f 172/535/111 173/536/111 175/525/111
f 173/537/111 174/34/111 175/538/111
f 174/539/111 167/540/111 175/51/111
f 176/541/112 178/89/112 177/542/112
f 176/80/112 179/543/112 178/544/112
f 176/545/112 180/62/112 179/546/112
f 176/63/112 181/547/112 180/548/112
f 176/549/112 182/80/112 181/550/112
f 176/89/112 183/551/112 182/552/112
f 176/553/112 184/63/112 183/554/112
f 176/62/112 177/555/112 184/556/112
f 177/557/113 186/558/113 185/559/113
f 178/560/114 187/561/114 186/562/114
f 180/563/115 187/564/115 179/565/115
f 181/566/116 188/567/116 180/568/116
f 182/569/117 189/570/117 181/571/117
f 183/572/118 190/573/118 182/574/118
f 183/575/119 192/576/119 191/577/119
f 184/578/120 185/579/120 192/580/120
f 185/581/121 186/134/121 193/582/121
f 186/583/121 187/584/121 193/130/121
f 187/585/121 188/139/121 193/586/121
f 188/587/121 189/588/121 193/128/121
f 189/589/121 190/130/121 193/590/121
f 190/591/121 191/592/121 193/134/121
f 191/593/121 192/128/121 193/594/121
f 192/595/121 185/596/121 193/139/121
f 194/63/122 196/597/122 195/598/122
f 194/599/122 197/80/122 196/600/122
f 194/89/122 198/601/122 197/602/122
f 194/603/122 199/63/122 198/604/122
f 194/62/122 200/605/122 199/606/122
f 194/607/122 201/89/122 200/608/122
f 194/80/122 202/609/122 201/610/122
f 194/611/122 195/62/122 202/612/122
f 196/613/123 203/614/123 195/615/123
f 197/616/124 204/617/124 196/618/124
f 198/619/125 205/620/125 197/621/125
f 199/622/126 206/623/126 198/624/126
f 200/625/127 207/626/127 199/627/127
f 201/628/128 208/629/128 200/630/128
f 202/631/129 209/632/129 201/633/129
f 195/634/130 210/635/130 202/636/130
f 203/637/131 204/638/131 211/128/131
f 204/639/131 205/130/131 211/640/131
f 205/641/131 206/642/131 211/134/131
f 206/643/131 207/128/131 211/644/131
f 207/645/131 208/646/131 211/139/131
f 208/647/131 209/134/131 211/648/131
f 209/649/131 210/650/131 211/130/131
f 210/651/131 203/139/131 211/652/131
f 212/653/132 214/89/132 213/654/132
f 212/80/132 215/655/132 214/656/132
f 212/657/132 216/62/132 215/658/132
f 212/63/132 217/659/132 216/660/132
f 212/661/132 218/80/132 217/662/132
f 212/89/132 219/663/132 218/664/132
f 212/665/132 220/63/132 219/666/132
f 212/62/132 213/667/132 220/668/132
f 214/669/133 221/670/133 213/671/133
f 215/672/134 222/673/134 214/674/134
f 215/675/135 224/676/135 223/677/135
f 217/678/136 224/679/136 216/680/136
f 218/681/137 225/682/137 217/683/137
f 218/684/138 227/685/138 226/686/138
f 220/687/139 227/688/139 219/689/139
f 213/690/140 228/691/140 220/692/140
f 221/693/141 222/75/141 229/694/141
f 222/695/141 223/696/141 229/40/141
f 223/697/141 224/193/141 229/698/141
f 224/699/141 225/700/141 229/192/141
f 225/701/141 226/40/141 229/702/141
f 226/703/141 227/704/141 229/75/141
f 227/705/141 228/192/141 229/706/141
f 228/707/141 221/708/141 229/193/141
f 230/63/142 232/709/142 231/710/142
f 230/711/142 233/80/142 232/712/142
f 230/89/142 234/713/142 233/714/142
f 230/715/142 235/63/142 234/716/142
f 230/62/142 236/717/142 235/718/142
f 230/719/142 237/89/142 236/720/142
f 230/80/142 238/721/142 237/722/142
f 230/723/142 231/62/142 238/724/142
f 232/725/143 239/726/143 231/727/143
f 233/728/144 240/729/144 232/730/144
f 234/731/145 241/725/145 233/732/145
f 235/729/146 242/728/146 234/733/146
f 236/734/147 243/735/147 235/736/147
f 237/737/148 244/738/148 236/739/148
f 238/740/149 245/741/149 237/742/149
f 231/738/150 246/737/150 238/743/150
f 239/744/151 240/745/151 247/68/151
f 240/746/151 241/51/151 247/747/151
f 241/748/151 242/749/151 247/34/151
f 242/750/151 243/68/151 247/751/151
f 243/752/151 244/753/151 247/525/151
f 244/754/151 245/34/151 247/755/151
f 245/756/151 246/757/151 247/51/151
f 246/758/151 239/525/151 247/759/151
f 248/760/142 250/63/142 249/761/142
f 248/62/142 251/762/142 250/763/142
f 248/764/142 252/89/142 251/765/142
f 248/80/142 253/766/142 252/767/142
f 248/768/142 254/62/142 253/769/142
f 248/63/142 255/770/142 254/771/142
f 248/772/142 256/80/142 255/773/142
f 248/89/142 249/774/142 256/775/142
f 250/776/152 257/777/152 249/778/152
f 251/779/153 258/780/153 250/781/153
f 252/782/154 259/783/154 251/784/154
f 253/780/155 260/779/155 252/785/155
f 254/783/156 261/782/156 253/786/156
f 255/787/157 262/788/157 254/789/157
f 256/777/158 263/776/158 255/790/158
f 249/788/159 264/791/159 256/792/159
f 257/793/151 258/192/151 265/794/151
f 258/795/151 259/796/151 265/193/151
f 259/797/151 260/75/151 265/798/151
f 260/799/151 261/800/151 265/40/151
f 261/801/151 262/193/151 265/802/151
f 262/803/151 263/804/151 265/192/151
f 263/805/151 264/40/151 265/806/151
f 264/807/151 257/808/151 265/75/151
f 266/63/142 268/809/142 267/810/142
f 266/811/142 269/812/142 268/62/142
f 266/89/142 270/813/142 269/814/142
f 266/815/142 271/816/142 270/80/142
f 266/62/142 272/817/142 271/818/142
f 266/819/142 273/820/142 272/63/142
f 266/80/142 274/821/142 273/822/142
f 266/823/142 267/824/142 274/89/142
f 268/825/160 275/826/160 267/827/160
f 269/828/161 276/829/161 268/830/161
f 270/826/162 277/831/162 269/832/162
f 271/833/163 278/834/163 270/835/163
f 272/836/164 279/837/164 271/838/164
f 273/834/165 280/833/165 272/839/165
f 274/837/166 281/836/166 273/840/166
f 267/841/167 282/828/167 274/842/167
f 275/843/151 276/844/151 283/68/151
f 276/525/151 277/845/151 283/846/151
f 277/847/151 278/848/151 283/34/151
f 278/51/151 279/849/151 283/850/151
f 279/851/151 280/852/151 283/525/151
f 280/68/151 281/853/151 283/854/151
f 281/855/151 282/856/151 283/51/151
f 282/34/151 275/857/151 283/858/151
f 284/62/142 286/859/142 285/860/142
f 284/861/142 287/89/142 286/862/142
f 284/80/142 288/863/142 287/864/142
f 284/865/142 289/62/142 288/866/142
f 284/63/142 290/867/142 289/868/142
f 284/869/142 291/80/142 290/870/142
f 284/89/142 292/871/142 291/872/142
f 284/873/142 285/63/142 292/874/142
f 286/875/168 293/876/168 285/877/168
f 287/878/169 294/879/169 286/880/169
f 288/876/170 295/875/170 287/881/170
f 289/879/171 296/878/171 288/882/171
f 290/883/172 297/884/172 289/885/172
f 291/886/173 298/887/173 290/888/173
f 292/889/174 299/883/174 291/890/174
f 285/887/175 300/891/175 292/892/175
f 293/893/151 294/894/151 301/525/151
f 294/895/151 295/34/151 301/896/151
f 295/897/151 296/898/151 301/51/151
f 296/899/151 297/525/151 301/900/151
f 297/901/151 298/902/151 301/68/151
f 298/903/151 299/51/151 301/904/151
f 299/905/151 300/906/151 301/34/151
f 300/907/151 293/68/151 301/908/151
f 2/1/176 12/909/176 11/2/176
f 3/4/177 13/910/177 12/5/177
f 3/7/178 4/911/178 14/8/178
f 5/10/179 15/912/179 14/11/179
f 6/13/180 16/913/180 15/14/180
f 6/16/181 7/914/181 17/17/181
f 8/19/182 18/915/182 17/20/182
f 9/22/183 19/916/183 18/23/183
f 9/25/184 10/917/184 20/26/184
f 10/28/185 1/918/185 11/29/185
f 12/31/186 22/919/186 21/32/186
f 12/34/187 13/920/187 23/35/187
f 13/37/188 14/921/188 24/38/188
f 15/40/189 25/922/189 24/41/189
f 15/43/190 16/923/190 26/44/190
f 16/46/191 17/924/191 27/47/191
f 18/49/192 28/925/192 27/50/192
f 18/52/193 19/926/193 29/53/193
f 20/34/194 30/927/194 29/55/194
f 20/57/195 11/928/195 21/58/195
f 34/102/32 42/929/32 41/103/32
f 35/105/33 43/930/33 42/106/33
f 36/108/34 44/931/34 43/109/34
f 36/111/35 37/932/35 45/112/35
f 37/114/36 38/933/36 46/115/36
f 38/117/37 39/934/37 47/118/37
f 40/120/38 48/935/38 47/121/38
f 33/123/39 41/936/39 48/124/39
f 51/162/42 52/937/42 60/163/42
f 52/165/43 53/938/43 61/166/43
f 53/168/44 54/939/44 62/169/44
f 55/171/45 63/940/45 62/172/45
f 56/174/46 64/941/46 63/175/46
f 56/177/47 57/942/47 65/178/47
f 58/180/48 66/943/48 65/181/48
f 51/183/49 59/944/49 66/184/49
f 70/220/52 78/945/52 77/221/52
f 71/223/53 79/946/53 78/224/53
f 72/226/54 80/947/54 79/227/54
f 73/229/55 81/948/55 80/230/55
f 74/232/56 82/949/56 81/233/56
f 75/235/57 83/950/57 82/236/57
f 76/238/58 84/951/58 83/239/58
f 69/241/59 77/952/59 84/242/59
f 87/276/62 88/953/62 96/277/62
f 89/279/63 97/954/63 96/280/63
f 89/282/64 90/955/64 98/283/64
f 91/285/65 99/956/65 98/286/65
f 92/288/66 100/957/66 99/289/66
f 93/291/67 101/958/67 100/292/67
f 93/294/68 94/959/68 102/295/68
f 87/297/69 95/960/69 102/298/69
f 105/332/72 106/961/72 114/333/72
f 106/335/73 107/962/73 115/336/73
f 108/338/74 116/963/74 115/339/74
f 109/341/75 117/964/75 116/342/75
f 109/344/76 110/965/76 118/345/76
f 110/347/77 111/966/77 119/348/77
f 111/350/78 112/967/78 120/351/78
f 105/353/79 113/968/79 120/354/79
f 124/388/82 132/969/82 131/389/82
f 125/391/83 133/970/83 132/392/83
f 126/394/196 134/971/196 133/395/196
f 127/397/85 135/972/85 134/398/85
f 128/400/86 136/973/86 135/401/86
f 128/403/87 129/974/87 137/404/87
f 129/406/197 130/975/197 138/407/197
f 130/409/89 123/976/89 131/410/89
f 141/444/93 142/977/93 150/445/93
f 142/447/94 143/978/94 151/448/94
f 144/450/95 152/979/95 151/451/95
f 145/453/96 153/980/96 152/454/96
f 146/456/97 154/981/97 153/457/97
f 147/459/98 155/982/98 154/460/98
f 148/462/99 156/983/99 155/463/99
f 141/465/100 149/984/100 156/466/100
f 159/500/103 160/985/103 168/501/103
f 160/503/198 161/986/198 169/504/198
f 162/506/105 170/987/105 169/507/105
f 162/509/106 163/988/106 171/510/106
f 164/512/199 172/989/199 171/513/199
f 165/515/108 173/990/108 172/516/108
f 166/518/109 174/991/109 173/519/109
f 159/521/110 167/992/110 174/522/110
f 177/557/113 178/993/113 186/558/113
f 178/560/114 179/994/114 187/561/114
f 180/563/115 188/995/115 187/564/115
f 181/566/116 189/996/116 188/567/116
f 182/569/117 190/997/117 189/570/117
f 183/572/118 191/998/118 190/573/118
f 183/575/119 184/999/119 192/576/119
f 184/578/120 177/1000/120 185/579/120
f 196/613/123 204/1001/123 203/614/123
f 197/616/124 205/1002/124 204/617/124
f 198/619/125 206/1003/125 205/620/125
f 199/622/126 207/1004/126 206/623/126
f 200/625/127 208/1005/127 207/626/127
f 201/628/128 209/1006/128 208/629/128
f 202/631/129 210/1007/129 209/632/129
f 195/634/130 203/1008/130 210/635/130
f 214/669/133 222/1009/133 221/670/133
f 215/672/134 223/1010/134 222/673/134
f 215/675/135 216/1011/135 224/676/135
f 217/678/136 225/1012/136 224/679/136
f 218/681/137 226/1013/137 225/682/137
f 218/684/138 219/1014/138 227/685/138
f 220/687/139 228/1015/139 227/688/139
f 213/690/140 221/1016/140 228/691/140
f 232/725/143 240/732/143 239/726/143
f 233/728/144 241/733/144 240/729/144
f 234/731/145 242/727/145 241/725/145
f 235/729/146 243/730/146 242/728/146
f 236/734/147 244/1017/147 243/735/147
f 237/737/148 245/1018/148 244/738/148
f 238/740/149 246/1019/149 245/741/149
f 231/738/150 239/1020/150 246/737/150
f 250/776/152 258/790/152 257/777/152
f 251/779/153 259/785/153 258/780/153
f 252/782/154 260/1021/154 259/783/154
f 253/780/155 261/1022/155 260/779/155
f 254/783/156 262/1023/156 261/782/156
f 255/787/157 263/792/157 262/788/157
f 256/777/158 264/778/158 263/776/158
f 249/788/159 257/789/159 264/791/159
f 268/825/160 276/832/160 275/826/160
f 269/828/161 277/842/161 276/829/161
f 270/826/162 278/827/162 277/831/162
f 271/833/163 279/1024/163 278/834/163
f 272/836/164 280/840/164 279/837/164
f 273/834/165 281/835/165 280/833/165
f 274/837/166 282/838/166 281/836/166
f 267/841/167 275/830/167 282/828/167
f 286/875/168 294/1025/168 293/876/168
f 287/878/169 295/882/169 294/879/169
f 288/876/170 296/877/170 295/875/170
f 289/879/171 297/880/171 296/878/171
f 290/883/172 298/890/172 297/884/172
f 291/886/173 299/892/173 298/887/173
f 292/889/174 300/885/174 299/883/174
f 285/887/175 293/888/175 300/891/175
