# Blender 5.2.2 LTS
# www.blender.org
mtllib Goblet_Jewelled.mtl
o Goblet_Jewelled
v 0.000000 0.000000 0.000000
v 0.266296 0.000000 -0.086525
v 0.164580 0.000000 -0.226525
v 0.000000 0.000000 -0.280000
v -0.164580 0.000000 -0.226525
v -0.266296 0.000000 -0.086525
v -0.266296 0.000000 0.086525
v -0.164580 0.000000 0.226525
v -0.000000 0.000000 0.280000
v 0.164580 0.000000 0.226525
v 0.266296 0.000000 0.086525
v 0.266296 0.050000 -0.086525
v 0.164580 0.050000 -0.226525
v 0.000000 0.050000 -0.280000
v -0.164580 0.050000 -0.226525
v -0.266296 0.050000 -0.086525
v -0.266296 0.050000 0.086525
v -0.164580 0.050000 0.226525
v -0.000000 0.050000 0.280000
v 0.164580 0.050000 0.226525
v 0.266296 0.050000 0.086525
v 0.190211 0.090000 -0.061803
v 0.117557 0.090000 -0.161803
v 0.000000 0.090000 -0.200000
v -0.117557 0.090000 -0.161803
v -0.190211 0.090000 -0.061803
v -0.190211 0.090000 0.061803
v -0.117557 0.090000 0.161803
v -0.000000 0.090000 0.200000
v 0.117557 0.090000 0.161803
v 0.190211 0.090000 0.061803
v 0.066574 0.140000 -0.021631
v 0.041145 0.140000 -0.056631
v 0.000000 0.140000 -0.070000
v -0.041145 0.140000 -0.056631
v -0.066574 0.140000 -0.021631
v -0.066574 0.140000 0.021631
v -0.041145 0.140000 0.056631
v -0.000000 0.140000 0.070000
v 0.041145 0.140000 0.056631
v 0.066574 0.140000 0.021631
v 0.057063 0.320000 -0.018541
v 0.035267 0.320000 -0.048541
v 0.000000 0.320000 -0.060000
v -0.035267 0.320000 -0.048541
v -0.057063 0.320000 -0.018541
v -0.057063 0.320000 0.018541
v -0.035267 0.320000 0.048541
v -0.000000 0.320000 0.060000
v 0.035267 0.320000 0.048541
v 0.057063 0.320000 0.018541
v 0.104616 0.370000 -0.033992
v 0.064656 0.370000 -0.088992
v 0.000000 0.370000 -0.110000
v -0.064656 0.370000 -0.088992
v -0.104616 0.370000 -0.033992
v -0.104616 0.370000 0.033992
v -0.064656 0.370000 0.088992
v -0.000000 0.370000 0.110000
v 0.064656 0.370000 0.088992
v 0.104616 0.370000 0.033992
v 0.104616 0.420000 -0.033992
v 0.064656 0.420000 -0.088992
v 0.000000 0.420000 -0.110000
v -0.064656 0.420000 -0.088992
v -0.104616 0.420000 -0.033992
v -0.104616 0.420000 0.033992
v -0.064656 0.420000 0.088992
v -0.000000 0.420000 0.110000
v 0.064656 0.420000 0.088992
v 0.104616 0.420000 0.033992
v 0.057063 0.470000 -0.018541
v 0.035267 0.470000 -0.048541
v 0.000000 0.470000 -0.060000
v -0.035267 0.470000 -0.048541
v -0.057063 0.470000 -0.018541
v -0.057063 0.470000 0.018541
v -0.035267 0.470000 0.048541
v -0.000000 0.470000 0.060000
v 0.035267 0.470000 0.048541
v 0.057063 0.470000 0.018541
v 0.085595 0.560000 -0.027812
v 0.052901 0.560000 -0.072812
v 0.000000 0.560000 -0.090000
v -0.052901 0.560000 -0.072812
v -0.085595 0.560000 -0.027812
v -0.085595 0.560000 0.027812
v -0.052901 0.560000 0.072812
v -0.000000 0.560000 0.090000
v 0.052901 0.560000 0.072812
v 0.085595 0.560000 0.027812
v 0.256785 0.680000 -0.083435
v 0.158702 0.680000 -0.218435
v 0.000000 0.680000 -0.270000
v -0.158702 0.680000 -0.218435
v -0.256785 0.680000 -0.083435
v -0.256785 0.680000 0.083435
v -0.158702 0.680000 0.218435
v -0.000000 0.680000 0.270000
v 0.158702 0.680000 0.218435
v 0.256785 0.680000 0.083435
v 0.313849 0.950000 -0.101976
v 0.193969 0.950000 -0.266976
v 0.000000 0.950000 -0.330000
v -0.193969 0.950000 -0.266976
v -0.313849 0.950000 -0.101976
v -0.313849 0.950000 0.101976
v -0.193969 0.950000 0.266976
v -0.000000 0.950000 0.330000
v 0.193969 0.950000 0.266976
v 0.313849 0.950000 0.101976
v 0.313849 1.000000 -0.101976
v 0.193969 1.000000 -0.266976
v 0.000000 1.000000 -0.330000
v -0.193969 1.000000 -0.266976
v -0.313849 1.000000 -0.101976
v -0.313849 1.000000 0.101976
v -0.193969 1.000000 0.266976
v -0.000000 1.000000 0.330000
v 0.193969 1.000000 0.266976
v 0.313849 1.000000 0.101976
v 0.285317 1.000000 -0.092705
v 0.176336 1.000000 -0.242705
v 0.000000 1.000000 -0.300000
v -0.176336 1.000000 -0.242705
v -0.285317 1.000000 -0.092705
v -0.285317 1.000000 0.092705
v -0.176336 1.000000 0.242705
v -0.000000 1.000000 0.300000
v 0.176336 1.000000 0.242705
v 0.285317 1.000000 0.092705
v 0.271051 0.880000 -0.088070
v 0.167519 0.880000 -0.230570
v 0.000000 0.880000 -0.285000
v -0.167519 0.880000 -0.230570
v -0.271051 0.880000 -0.088070
v -0.271051 0.880000 0.088070
v -0.167519 0.880000 0.230570
v -0.000000 0.880000 0.285000
v 0.167519 0.880000 0.230570
v 0.271051 0.880000 0.088070
v 0.000000 0.880000 0.000000
v 0.321129 0.810947 -0.026197
v 0.303351 0.799403 -0.055000
v 0.324410 0.825712 -0.000000
v 0.313684 0.845901 -0.027500
v 0.321129 0.810947 0.026197
v 0.313684 0.845901 0.027500
v 0.314566 0.781417 0.026197
v 0.303351 0.799403 0.055000
v 0.311285 0.766652 0.000000
v 0.293018 0.752906 0.027500
v 0.314566 0.781417 -0.026197
v 0.293018 0.752906 -0.027500
v 0.260399 0.808948 -0.000000
v 0.074319 0.810947 -0.313507
v 0.041433 0.799403 -0.305500
v 0.100248 0.825712 -0.308532
v 0.070780 0.845901 -0.306829
v 0.124149 0.810947 -0.297316
v 0.123088 0.845901 -0.289833
v 0.122121 0.781417 -0.291075
v 0.146049 0.799403 -0.271508
v 0.096192 0.766652 -0.296050
v 0.116702 0.752906 -0.270179
v 0.072291 0.781417 -0.307266
v 0.064394 0.752906 -0.287175
v 0.080468 0.808948 -0.247654
v -0.275197 0.810947 -0.167561
v -0.277744 0.799403 -0.133809
v -0.262453 0.825712 -0.190683
v -0.269940 0.845901 -0.162131
v -0.244400 0.810947 -0.209949
v -0.237611 0.845901 -0.206627
v -0.239091 0.781417 -0.206092
v -0.213088 0.799403 -0.222801
v -0.251835 0.766652 -0.182969
v -0.220893 0.752906 -0.194480
v -0.269888 0.781417 -0.163704
v -0.253221 0.752906 -0.149984
v -0.210667 0.808948 -0.153059
v -0.244400 0.810947 0.209949
v -0.213088 0.799403 0.222801
v -0.262453 0.825712 0.190683
v -0.237612 0.845901 0.206627
v -0.275197 0.810947 0.167561
v -0.269940 0.845901 0.162131
v -0.269888 0.781417 0.163704
v -0.277744 0.799403 0.133809
v -0.251835 0.766652 0.182969
v -0.253221 0.752906 0.149984
v -0.239091 0.781417 0.206092
v -0.220893 0.752906 0.194480
v -0.210667 0.808948 0.153059
v 0.124149 0.810947 0.297316
v 0.146049 0.799403 0.271508
v 0.100248 0.825712 0.308532
v 0.123088 0.845901 0.289833
v 0.074319 0.810947 0.313507
v 0.070780 0.845901 0.306829
v 0.072291 0.781417 0.307266
v 0.041433 0.799403 0.305500
v 0.096192 0.766652 0.296050
v 0.064394 0.752906 0.287175
v 0.122121 0.781417 0.291075
v 0.116702 0.752906 0.270179
v 0.080468 0.808948 0.247654
vn -0.0000 -1.0000 -0.0000
vn 0.8090 -0.0000 -0.5878
vn 0.3090 -0.0000 -0.9511
vn -0.3090 -0.0000 -0.9511
vn -0.8090 -0.0000 -0.5878
vn -1.0000 -0.0000 -0.0000
vn -0.8090 -0.0000 0.5878
vn -0.3090 -0.0000 0.9511
vn 0.3090 -0.0000 0.9511
vn 0.8090 -0.0000 0.5878
vn 1.0000 -0.0000 -0.0000
vn 0.3765 0.8851 -0.2735
vn 0.1438 0.8851 -0.4426
vn -0.1438 0.8851 -0.4426
vn -0.3765 0.8851 -0.2735
vn -0.4653 0.8851 -0.0000
vn -0.3765 0.8851 0.2735
vn -0.1438 0.8851 0.4426
vn 0.1438 0.8851 0.4426
vn 0.3765 0.8851 0.2735
vn 0.4653 0.8851 -0.0000
vn 0.3033 0.9271 -0.2204
vn 0.1159 0.9271 -0.3566
vn -0.1159 0.9271 -0.3566
vn -0.3033 0.9271 -0.2204
vn -0.3749 0.9271 -0.0000
vn -0.3033 0.9271 0.2204
vn -0.1159 0.9271 0.3566
vn 0.1159 0.9271 0.3566
vn 0.3033 0.9271 0.2204
vn 0.3749 0.9271 -0.0000
vn 0.8079 0.0528 -0.5870
vn 0.3086 0.0528 -0.9497
vn -0.3086 0.0528 -0.9497
vn -0.8079 0.0528 -0.5870
vn -0.9986 0.0528 -0.0000
vn -0.8079 0.0528 0.5870
vn -0.3086 0.0528 0.9497
vn 0.3086 0.0528 0.9497
vn 0.8079 0.0528 0.5870
vn 0.9986 0.0528 -0.0000
vn 0.5862 -0.6892 -0.4259
vn 0.2239 -0.6892 -0.6892
vn -0.2239 -0.6892 -0.6892
vn -0.5862 -0.6892 -0.4259
vn -0.7246 -0.6892 -0.0000
vn -0.5862 -0.6892 0.4259
vn -0.2239 -0.6892 0.6892
vn 0.2239 -0.6892 0.6892
vn 0.5862 -0.6892 0.4259
vn 0.7246 -0.6892 -0.0000
vn 0.5862 0.6892 -0.4259
vn 0.2239 0.6892 -0.6892
vn -0.2239 0.6892 -0.6892
vn -0.5862 0.6892 -0.4259
vn -0.7246 0.6892 -0.0000
vn -0.5862 0.6892 0.4259
vn -0.2239 0.6892 0.6892
vn 0.2239 0.6892 0.6892
vn 0.5862 0.6892 0.4259
vn 0.7246 0.6892 -0.0000
vn 0.7712 -0.3022 -0.5603
vn 0.2946 -0.3022 -0.9066
vn -0.2946 -0.3022 -0.9066
vn -0.7712 -0.3022 -0.5603
vn -0.9532 -0.3022 -0.0000
vn -0.7712 -0.3022 0.5603
vn -0.2946 -0.3022 0.9066
vn 0.2946 -0.3022 0.9066
vn 0.7712 -0.3022 0.5603
vn 0.9532 -0.3022 -0.0000
vn 0.4644 -0.8189 -0.3374
vn 0.1774 -0.8189 -0.5459
vn -0.1774 -0.8189 -0.5459
vn -0.4644 -0.8189 -0.3374
vn -0.5740 -0.8189 -0.0000
vn -0.4644 -0.8189 0.3374
vn -0.1774 -0.8189 0.5459
vn 0.1774 -0.8189 0.5459
vn 0.4644 -0.8189 0.3374
vn 0.5740 -0.8189 -0.0000
vn 0.7915 -0.2068 -0.5751
vn 0.3023 -0.2068 -0.9305
vn -0.3023 -0.2068 -0.9305
vn -0.7915 -0.2068 -0.5751
vn -0.9784 -0.2068 -0.0000
vn -0.7915 -0.2068 0.5751
vn -0.3023 -0.2068 0.9305
vn 0.3023 -0.2068 0.9305
vn 0.7915 -0.2068 0.5751
vn 0.9784 -0.2068 -0.0000
vn -0.0000 1.0000 -0.0000
vn -0.8034 0.1181 0.5837
vn -0.3069 0.1181 0.9444
vn 0.3069 0.1181 0.9444
vn 0.8034 0.1181 0.5837
vn 0.9930 0.1181 -0.0000
vn 0.8034 0.1181 -0.5837
vn 0.3069 0.1181 -0.9444
vn -0.3069 0.1181 -0.9444
vn -0.8034 0.1181 -0.5837
vn -0.9930 0.1181 -0.0000
vn 0.9537 0.1946 -0.2291
vn 0.8127 0.1521 -0.5625
vn -0.6435 0.4905 -0.5876
vn -0.5699 0.8217 -0.0000
vn 0.8831 0.4692 -0.0000
vn 0.9762 -0.2169 -0.0000
vn 0.9537 0.1946 0.2291
vn 0.8677 -0.1928 -0.4583
vn 0.6717 -0.4820 -0.5625
vn -0.7907 -0.1718 -0.5876
vn -0.7907 -0.1718 0.5876
vn -0.6435 0.4905 0.5876
vn -0.8643 -0.5030 -0.0000
vn 0.8127 0.1521 0.5625
vn 0.7816 -0.5802 -0.2291
vn 0.8677 -0.1928 0.4583
vn 0.6717 -0.4820 0.5625
vn 0.7816 -0.5802 0.2291
vn 0.6013 -0.7990 -0.0000
vn -0.3274 -0.4820 -0.8127
vn 0.0236 -0.5802 -0.8141
vn 0.1858 -0.7990 -0.5719
vn -0.2671 -0.5030 0.8220
vn -0.8032 -0.1718 0.5704
vn -0.7577 0.4905 0.4304
vn -0.2839 0.1521 -0.9467
vn -0.1677 -0.1928 -0.9668
vn 0.3017 -0.2169 -0.9284
vn 0.4594 -0.5802 -0.6725
vn 0.7426 -0.4820 -0.4650
vn 0.3146 -0.1718 0.9336
vn 0.3600 0.4905 0.7936
vn -0.1761 0.8217 0.5420
vn 0.2729 0.4692 -0.8399
vn 0.0768 0.1946 -0.9779
vn 0.7039 -0.1928 -0.6836
vn 0.7861 0.1521 -0.5990
vn 0.5126 0.1946 -0.8363
vn -0.8741 -0.4820 0.0603
vn 0.2943 -0.1719 0.9402
vn 0.1752 0.4905 0.8536
vn -0.9881 0.1521 -0.0226
vn -0.9713 -0.1928 -0.1393
vn -0.7898 -0.2169 -0.5738
vn -0.7670 -0.5802 -0.2740
vn -0.4864 -0.7990 -0.3534
vn 0.6992 -0.5030 0.5080
vn 0.8660 0.4905 -0.0972
vn 0.4610 0.8217 0.3350
vn 0.9851 -0.1718 -0.0107
vn -0.7144 0.4692 -0.5191
vn -0.9063 0.1946 -0.3752
vn -0.4976 -0.5802 -0.6448
vn -0.4326 -0.1928 -0.8807
vn -0.2128 -0.4820 -0.8499
vn -0.3268 0.1521 -0.9328
vn -0.6369 0.1946 -0.7460
vn -0.2128 -0.4820 0.8499
vn 0.9851 -0.1718 0.0107
vn 0.8660 0.4905 0.0972
vn -0.3268 0.1521 0.9328
vn -0.4326 -0.1928 0.8807
vn -0.7898 -0.2169 0.5738
vn -0.4976 -0.5802 0.6448
vn -0.4864 -0.7990 0.3534
vn 0.6992 -0.5030 -0.5080
vn 0.1752 0.4905 -0.8536
vn 0.4610 0.8217 -0.3350
vn 0.2943 -0.1718 -0.9402
vn -0.7144 0.4692 0.5191
vn -0.6369 0.1946 0.7460
vn -0.9063 0.1946 0.3752
vn -0.9881 0.1521 0.0226
vn -0.9713 -0.1928 0.1393
vn -0.7670 -0.5802 0.2740
vn -0.8741 -0.4820 -0.0603
vn -0.8032 -0.1718 -0.5704
vn -0.2671 -0.5030 -0.8220
vn 0.1858 -0.7990 0.5719
vn 0.0236 -0.5802 0.8141
vn -0.3274 -0.4820 0.8127
vn -0.1677 -0.1928 0.9668
vn -0.2839 0.1521 0.9467
vn -0.7577 0.4905 -0.4304
vn -0.1761 0.8217 -0.5420
vn 0.3600 0.4905 -0.7936
vn 0.3146 -0.1718 -0.9336
vn 0.7426 -0.4820 0.4650
vn 0.4594 -0.5802 0.6725
vn 0.3017 -0.2169 0.9284
vn 0.0768 0.1946 0.9779
vn 0.2729 0.4692 0.8399
vn 0.5126 0.1946 0.8363
vn 0.7861 0.1521 0.5990
vn 0.7039 -0.1928 0.6836
vt 0.100000 0.080780
vt 0.025000 0.100000
vt 0.032342 0.025000
vt 0.100000 0.025000
vt 0.046306 0.100000
vt 0.025000 0.041592
vt 0.083408 0.100000
vt 0.025000 0.078694
vt 0.044220 0.025000
vt 0.100000 0.092658
vt 0.025000 0.025000
vt 0.100000 0.063214
vt 0.063214 0.100000
vt 0.025000 0.044220
vt 0.092658 0.100000
vt 0.078694 0.025000
vt 0.100000 0.083408
vt 0.041592 0.025000
vt 0.100000 0.046306
vt 0.080780 0.100000
vt 0.025000 0.032342
vt 0.100000 0.100000
vt 0.025000 0.061786
vt 0.061786 0.025000
vt 0.085790 0.025000
vt 0.039210 0.100000
vt 0.025000 0.080263
vt 0.025000 0.042476
vt 0.100000 0.082524
vt 0.083833 0.100000
vt 0.100000 0.080263
vt 0.025000 0.044737
vt 0.039210 0.025000
vt 0.100000 0.083188
vt 0.025000 0.041812
vt 0.041812 0.025000
vt 0.041167 0.100000
vt 0.083833 0.025000
vt 0.100000 0.042476
vt 0.083188 0.025000
vt 0.041812 0.100000
vt 0.025000 0.083188
vt 0.207956 0.025000
vt 0.162174 0.094508
vt 0.150000 0.040937
vt 0.225000 0.030630
vt 0.150000 0.074550
vt 0.177353 0.025000
vt 0.159388 0.100000
vt 0.196866 0.025000
vt 0.225000 0.056396
vt 0.150000 0.079356
vt 0.220952 0.039745
vt 0.225000 0.100000
vt 0.150000 0.042166
vt 0.225000 0.066310
vt 0.202879 0.100000
vt 0.167044 0.100000
vt 0.212826 0.030492
vt 0.225000 0.084063
vt 0.150000 0.094370
vt 0.225000 0.050450
vt 0.197647 0.100000
vt 0.215612 0.025000
vt 0.178134 0.100000
vt 0.150000 0.068604
vt 0.225000 0.045644
vt 0.154048 0.085255
vt 0.150000 0.025000
vt 0.225000 0.082834
vt 0.150000 0.058690
vt 0.172121 0.025000
vt 0.350000 0.100000
vt 0.275000 0.061257
vt 0.340652 0.025000
vt 0.324655 0.100000
vt 0.283871 0.025000
vt 0.350000 0.036690
vt 0.290852 0.100000
vt 0.295702 0.025000
vt 0.350000 0.071570
vt 0.275000 0.089271
vt 0.339450 0.028755
vt 0.275000 0.055230
vt 0.350000 0.040669
vt 0.315787 0.100000
vt 0.275000 0.025000
vt 0.350000 0.063743
vt 0.284348 0.100000
vt 0.300345 0.025000
vt 0.341129 0.100000
vt 0.275000 0.088310
vt 0.334148 0.025000
vt 0.329298 0.100000
vt 0.275000 0.053430
vt 0.350000 0.035729
vt 0.285550 0.096245
vt 0.350000 0.069770
vt 0.275000 0.084331
vt 0.309213 0.025000
vt 0.167847 0.025000
vt 0.209702 0.100000
vt 0.150000 0.037036
vt 0.150000 0.086046
vt 0.225000 0.036961
vt 0.165519 0.100000
vt 0.150000 0.085665
vt 0.225000 0.037287
vt 0.165113 0.100000
vt 0.225000 0.037036
vt 0.150000 0.089683
vt 0.207153 0.025000
vt 0.225000 0.039737
vt 0.150000 0.087368
vt 0.210297 0.025000
vt 0.225000 0.037687
vt 0.150000 0.089126
vt 0.208002 0.025000
vt 0.209887 0.100000
vt 0.162954 0.025000
vt 0.225000 0.085665
vt 0.209481 0.100000
vt 0.163302 0.025000
vt 0.225000 0.086046
vt 0.166998 0.025000
vt 0.210430 0.100000
vt 0.150000 0.037687
vt 0.164703 0.025000
vt 0.212397 0.100000
vt 0.150000 0.039737
vt 0.345938 0.091263
vt 0.282447 0.025000
vt 0.350000 0.050354
vt 0.275000 0.068979
vt 0.350000 0.081871
vt 0.290383 0.100000
vt 0.275000 0.076931
vt 0.350000 0.067294
vt 0.297698 0.100000
vt 0.315665 0.025000
vt 0.275447 0.100000
vt 0.275000 0.032884
vt 0.350000 0.052124
vt 0.275000 0.050272
vt 0.331178 0.025000
vt 0.279062 0.033737
vt 0.342553 0.100000
vt 0.275000 0.074646
vt 0.327302 0.100000
vt 0.316614 0.025000
vt 0.350000 0.076931
vt 0.334617 0.100000
vt 0.303202 0.025000
vt 0.350000 0.068979
vt 0.309335 0.100000
vt 0.349553 0.025000
vt 0.350000 0.092116
vt 0.293822 0.025000
vt 0.315492 0.100000
vt 0.275000 0.052124
vt 0.447022 0.025000
vt 0.427978 0.100000
vt 0.400000 0.064286
vt 0.400000 0.057706
vt 0.475000 0.067294
vt 0.444131 0.100000
vt 0.475000 0.064286
vt 0.400000 0.060714
vt 0.427978 0.025000
vt 0.475000 0.068216
vt 0.400000 0.056784
vt 0.431784 0.025000
vt 0.430869 0.100000
vt 0.444131 0.025000
vt 0.475000 0.057706
vt 0.443216 0.025000
vt 0.431784 0.100000
vt 0.400000 0.068216
vt 0.342553 0.025000
vt 0.279062 0.091263
vt 0.275000 0.050354
vt 0.275000 0.057706
vt 0.350000 0.048069
vt 0.316614 0.100000
vt 0.275000 0.043129
vt 0.350000 0.056021
vt 0.303202 0.100000
vt 0.275000 0.085546
vt 0.350000 0.032884
vt 0.349553 0.100000
vt 0.315492 0.025000
vt 0.293822 0.100000
vt 0.275000 0.072876
vt 0.282447 0.100000
vt 0.345938 0.033737
vt 0.350000 0.074646
vt 0.321798 0.100000
vt 0.290383 0.025000
vt 0.350000 0.043129
vt 0.308386 0.100000
vt 0.297698 0.025000
vt 0.350000 0.057706
vt 0.350000 0.039454
vt 0.275000 0.092116
vt 0.275447 0.025000
vt 0.275000 0.074728
vt 0.350000 0.072876
vt 0.331178 0.100000
vt 0.169203 0.025000
vt 0.196196 0.100000
vt 0.150000 0.045320
vt 0.150000 0.078885
vt 0.225000 0.056673
vt 0.168445 0.100000
vt 0.150000 0.081490
vt 0.225000 0.052764
vt 0.171046 0.100000
vt 0.225000 0.045320
vt 0.150000 0.069520
vt 0.205797 0.025000
vt 0.225000 0.045397
vt 0.150000 0.069405
vt 0.205872 0.025000
vt 0.225000 0.040596
vt 0.150000 0.076606
vt 0.200582 0.025000
vt 0.203954 0.100000
vt 0.181569 0.025000
vt 0.225000 0.081490
vt 0.206555 0.100000
vt 0.177668 0.025000
vt 0.225000 0.078885
vt 0.174418 0.025000
vt 0.188372 0.100000
vt 0.150000 0.040596
vt 0.169128 0.025000
vt 0.196308 0.100000
vt 0.150000 0.045397
vt 0.097579 0.087186
vt 0.032263 0.025000
vt 0.100000 0.062186
vt 0.100000 0.046019
vt 0.025000 0.036942
vt 0.093187 0.025000
vt 0.082714 0.025000
vt 0.076859 0.100000
vt 0.025000 0.072016
vt 0.056826 0.025000
vt 0.031826 0.028499
vt 0.036381 0.025000
vt 0.065857 0.100000
vt 0.025000 0.039771
vt 0.027421 0.037814
vt 0.092737 0.100000
vt 0.025000 0.062814
vt 0.025000 0.078981
vt 0.100000 0.088058
vt 0.031813 0.100000
vt 0.042286 0.100000
vt 0.048141 0.025000
vt 0.100000 0.052984
vt 0.068174 0.100000
vt 0.093174 0.096501
vt 0.088619 0.100000
vt 0.059143 0.025000
vt 0.100000 0.085229
vt 0.178063 0.025000
vt 0.190701 0.100000
vt 0.150000 0.051199
vt 0.150000 0.072236
vt 0.225000 0.058934
vt 0.176492 0.100000
vt 0.150000 0.074346
vt 0.225000 0.056355
vt 0.178624 0.100000
vt 0.225000 0.051199
vt 0.150000 0.067978
vt 0.196937 0.025000
vt 0.225000 0.052481
vt 0.150000 0.066412
vt 0.198228 0.025000
vt 0.225000 0.047324
vt 0.150000 0.072715
vt 0.192776 0.025000
vt 0.196376 0.100000
vt 0.184985 0.025000
vt 0.225000 0.074346
vt 0.198508 0.100000
vt 0.182379 0.025000
vt 0.225000 0.072236
vt 0.182224 0.025000
vt 0.185616 0.100000
vt 0.150000 0.047324
vt 0.176772 0.025000
vt 0.192278 0.100000
vt 0.150000 0.052481
vt 0.462587 0.025000
vt 0.412413 0.100000
vt 0.400000 0.082558
vt 0.400000 0.040371
vt 0.475000 0.084629
vt 0.460819 0.100000
vt 0.475000 0.082558
vt 0.400000 0.042442
vt 0.412413 0.025000
vt 0.475000 0.085233
vt 0.400000 0.039767
vt 0.414767 0.025000
vt 0.414181 0.100000
vt 0.460819 0.025000
vt 0.475000 0.040371
vt 0.460233 0.025000
vt 0.414767 0.100000
vt 0.400000 0.085233
vt 0.275000 0.030071
vt 0.309190 0.025000
vt 0.350000 0.026888
vt 0.275000 0.091465
vt 0.330473 0.025000
vt 0.276888 0.100000
vt 0.341465 0.025000
vt 0.350000 0.038980
vt 0.275000 0.059190
vt 0.348253 0.062100
vt 0.275000 0.031472
vt 0.350000 0.087298
vt 0.343528 0.100000
vt 0.350000 0.094929
vt 0.315810 0.100000
vt 0.275000 0.098112
vt 0.350000 0.033535
vt 0.294527 0.100000
vt 0.348112 0.025000
vt 0.283535 0.100000
vt 0.275000 0.086020
vt 0.350000 0.065810
vt 0.276747 0.062900
vt 0.350000 0.093528
vt 0.275000 0.037702
vt 0.281472 0.025000
vt 0.025000 0.056372
vt 0.100000 0.066446
vt 0.073515 0.100000
vt 0.071210 0.025000
vt 0.056101 0.100000
vt 0.025000 0.070998
vt 0.072555 0.025000
vt 0.054823 0.100000
vt 0.025000 0.069629
vt 0.051485 0.100000
vt 0.071090 0.025000
vt 0.100000 0.056372
vt 0.054026 0.100000
vt 0.068675 0.025000
vt 0.100000 0.053767
vt 0.049026 0.100000
vt 0.073426 0.025000
vt 0.100000 0.059037
vt 0.100000 0.069629
vt 0.025000 0.057602
vt 0.052445 0.025000
vt 0.100000 0.070998
vt 0.025000 0.056302
vt 0.053790 0.025000
vt 0.025000 0.059037
vt 0.100000 0.063915
vt 0.075974 0.100000
vt 0.025000 0.053767
vt 0.100000 0.068921
vt 0.070974 0.100000
vt 0.092658 0.650000
vt 0.100000 0.725000
vt 0.025000 0.705780
vt 0.100000 0.666592
vt 0.078694 0.725000
vt 0.025000 0.650000
vt 0.100000 0.703694
vt 0.041592 0.725000
vt 0.025000 0.717658
vt 0.080780 0.650000
vt 0.061786 0.725000
vt 0.025000 0.688214
vt 0.100000 0.650000
vt 0.032342 0.725000
vt 0.100000 0.669220
vt 0.025000 0.708408
vt 0.046306 0.650000
vt 0.025000 0.671306
vt 0.083408 0.650000
vt 0.100000 0.657342
vt 0.044220 0.725000
vt 0.063214 0.650000
vt 0.100000 0.686786
vt 0.025000 0.725000
vt 0.400000 0.475000
vt 0.418431 0.400000
vt 0.475000 0.461614
vt 0.525000 0.440893
vt 0.582635 0.400000
vt 0.600000 0.475000
vt 0.292714 0.400000
vt 0.350000 0.465420
vt 0.275000 0.475000
vt 0.311235 0.400000
vt 0.350000 0.451062
vt 0.525000 0.475000
vt 0.527199 0.409970
vt 0.600000 0.400000
vt 0.525000 0.400000
vt 0.600000 0.431418
vt 0.574095 0.475000
vt 0.460944 0.475000
vt 0.400000 0.417980
vt 0.475000 0.400000
vt 0.556978 0.475000
vt 0.600000 0.445964
vt 0.525000 0.455745
vt 0.579068 0.400000
vt 0.400000 0.420107
vt 0.441102 0.475000
vt 0.550383 0.475000
vt 0.600000 0.447790
vt 0.350000 0.400000
vt 0.339247 0.475000
vt 0.275000 0.417055
vt 0.344077 0.475000
vt 0.275000 0.428929
vt 0.350000 0.452894
vt 0.276461 0.400000
vt 0.309767 0.400000
vt 0.350000 0.449376
vt 0.525000 0.435702
vt 0.571700 0.400000
vt 0.540321 0.416365
vt 0.409805 0.400000
vt 0.475000 0.454212
vt 0.426868 0.400000
vt 0.475000 0.447334
vt 0.566532 0.475000
vt 0.600000 0.427577
vt 0.400000 0.425183
vt 0.464984 0.475000
vt 0.525000 0.412591
vt 0.526485 0.475000
vt 0.955550 0.400000
vt 0.975000 0.452742
vt 0.900000 0.475000
vt 0.847867 0.400000
vt 0.850000 0.475000
vt 0.775000 0.439983
vt 0.900000 0.450192
vt 0.925689 0.400000
vt 0.975000 0.475000
vt 0.678113 0.475000
vt 0.650000 0.400000
vt 0.725000 0.432485
vt 0.723546 0.475000
vt 0.650000 0.422110
vt 0.725000 0.400000
vt 0.725000 0.475000
vt 0.650000 0.450268
vt 0.689449 0.400000
vt 0.975000 0.400000
vt 0.944928 0.475000
vt 0.900000 0.433415
vt 0.850000 0.432772
vt 0.796403 0.475000
vt 0.775000 0.400000
vt 0.945297 0.400000
vt 0.900000 0.426673
vt 0.914851 0.458197
vt 0.900000 0.400000
vt 0.850000 0.424443
vt 0.778988 0.475000
vt 0.975000 0.412644
vt 0.973434 0.475000
vt 0.650000 0.461061
vt 0.708861 0.400000
vt 0.675952 0.475000
vt 0.650000 0.405658
vt 0.702381 0.475000
vt 0.650000 0.400477
vt 0.908661 0.471200
vt 0.775000 0.458138
vt 0.834301 0.400000
vt 0.960149 0.416803
vt 0.975000 0.448327
vt 0.929703 0.475000
vt 0.850000 0.446511
vt 0.775000 0.475000
vt 0.801030 0.400000
vt 0.950376 0.400000
vt 0.900000 0.425210
vt 0.798735 0.475000
vt 0.850000 0.405141
vt 0.275000 0.542701
vt 0.350000 0.525000
vt 0.285035 0.600000
vt 0.100000 0.600000
vt 0.025000 0.585756
vt 0.084948 0.525000
vt 0.025000 0.600000
vt 0.037478 0.525000
vt 0.100000 0.555158
vt 0.275000 0.600000
vt 0.304974 0.525000
vt 0.350000 0.566244
vt 0.150000 0.565214
vt 0.205941 0.525000
vt 0.225000 0.600000
vt 0.308722 0.600000
vt 0.275000 0.525000
vt 0.350000 0.571710
vt 0.333139 0.539788
vt 0.350000 0.600000
vt 0.154152 0.525000
vt 0.225000 0.567401
vt 0.150000 0.600000
vt 0.318679 0.600000
vt 0.275000 0.553880
vt 0.081720 0.525000
vt 0.025000 0.559240
vt 0.067626 0.525000
vt 0.100000 0.584283
vt 0.025000 0.588665
vt 0.079543 0.525000
vt 0.025000 0.525000
vt 0.100000 0.538987
vt 0.041059 0.600000
vt 0.275000 0.531533
vt 0.334263 0.525000
vt 0.150000 0.525000
vt 0.225000 0.537860
vt 0.171358 0.600000
vt 0.291861 0.585212
vt 0.275000 0.553290
vt 0.316278 0.525000
vt 0.191306 0.600000
vt 0.150000 0.528245
vt 0.225000 0.525000
vt 0.186201 0.525000
vt 0.150000 0.585970
vt 0.350000 0.537873
vt 0.294177 0.525000
vt 0.275000 0.554743
vt 0.315446 0.600000
vt 0.170251 0.600000
vt 0.225000 0.535633
vt 0.705823 0.525000
vt 0.725000 0.600000
vt 0.650000 0.537873
vt 0.400000 0.525000
vt 0.475000 0.539656
vt 0.414811 0.600000
vt 0.475000 0.525000
vt 0.470801 0.600000
vt 0.400000 0.574876
vt 0.650000 0.525000
vt 0.725000 0.554743
vt 0.684554 0.600000
vt 0.563800 0.525000
vt 0.600000 0.585970
vt 0.525000 0.600000
vt 0.702698 0.600000
vt 0.725000 0.540927
vt 0.650000 0.584073
vt 0.672302 0.525000
vt 0.703370 0.532963
vt 0.600000 0.528245
vt 0.558694 0.600000
vt 0.525000 0.525000
vt 0.725000 0.566445
vt 0.650000 0.600000
vt 0.669818 0.525000
vt 0.434442 0.525000
vt 0.475000 0.600000
vt 0.400000 0.581451
vt 0.400000 0.555158
vt 0.462522 0.525000
vt 0.407846 0.600000
vt 0.475000 0.550992
vt 0.400000 0.600000
vt 0.415052 0.525000
vt 0.475000 0.585756
vt 0.725000 0.539097
vt 0.721179 0.600000
vt 0.600000 0.525000
vt 0.579749 0.600000
vt 0.525000 0.535633
vt 0.671630 0.592037
vt 0.600000 0.600000
vt 0.525000 0.583444
vt 0.583729 0.525000
vt 0.685058 0.525000
vt 0.725000 0.570404
vt 0.600000 0.544717
vt 0.559230 0.600000
vt 0.571209 0.525000
vt 0.525000 0.592777
vt 0.650000 0.578852
vt 0.725000 0.525000
vt 0.702015 0.600000
vt 0.337845 0.475000
vt 0.275000 0.419115
vt 0.321887 0.475000
vt 0.275000 0.432485
vt 0.525000 0.409886
vt 0.582379 0.400000
vt 0.402133 0.400000
vt 0.475000 0.439983
vt 0.525000 0.452742
vt 0.544450 0.400000
vt 0.453597 0.475000
vt 0.400000 0.432772
vt 0.555072 0.475000
vt 0.600000 0.433415
vt 0.297204 0.475000
vt 0.275000 0.400000
vt 0.350000 0.437685
vt 0.275000 0.431232
vt 0.335924 0.400000
vt 0.350000 0.475000
vt 0.350000 0.405658
vt 0.324048 0.475000
vt 0.350000 0.461061
vt 0.291139 0.400000
vt 0.600000 0.472600
vt 0.538191 0.475000
vt 0.400000 0.424443
vt 0.471012 0.475000
vt 0.585149 0.458197
vt 0.554703 0.400000
vt 0.600000 0.426673
vt 0.570297 0.475000
vt 0.525000 0.448327
vt 0.539851 0.416803
vt 0.415699 0.400000
vt 0.475000 0.458138
vt 0.591339 0.471200
vt 0.451265 0.475000
vt 0.400000 0.405141
vt 0.525000 0.443216
vt 0.572895 0.400000
vt 0.428749 0.475000
vt 0.400000 0.403174
vt 0.100000 0.044737
vt 0.041167 0.025000
vt 0.085790 0.100000
vt 0.083188 0.100000
vt 0.025000 0.082524
vt 0.100000 0.041812
vt 0.186706 0.100000
vt 0.150000 0.056145
vt 0.167381 0.025000
vt 0.187229 0.025000
vt 0.188294 0.025000
vt 0.225000 0.068855
vt 0.207619 0.100000
vt 0.187771 0.100000
vt 0.278272 0.087507
vt 0.275000 0.047158
vt 0.275000 0.034950
vt 0.313200 0.025000
vt 0.335725 0.025000
vt 0.346728 0.037493
vt 0.350000 0.077842
vt 0.350000 0.090050
vt 0.311800 0.100000
vt 0.289275 0.100000
vt 0.225000 0.089683
vt 0.211698 0.025000
vt 0.212046 0.025000
vt 0.165298 0.100000
vt 0.162603 0.100000
vt 0.164570 0.100000
vt 0.150000 0.037287
vt 0.150000 0.036961
vt 0.225000 0.089126
vt 0.225000 0.087368
vt 0.275000 0.100000
vt 0.321798 0.025000
vt 0.308386 0.025000
vt 0.350000 0.085546
vt 0.309508 0.100000
vt 0.350000 0.025000
vt 0.275000 0.067294
vt 0.275000 0.081871
vt 0.275000 0.039454
vt 0.350000 0.050272
vt 0.475000 0.060714
vt 0.430869 0.025000
vt 0.447022 0.100000
vt 0.443216 0.100000
vt 0.400000 0.067294
vt 0.475000 0.056784
vt 0.327302 0.025000
vt 0.334617 0.025000
vt 0.309335 0.025000
vt 0.350000 0.074728
vt 0.275000 0.056021
vt 0.275000 0.048069
vt 0.315665 0.100000
vt 0.309508 0.025000
vt 0.225000 0.069520
vt 0.197332 0.025000
vt 0.193431 0.025000
vt 0.178804 0.100000
vt 0.178692 0.100000
vt 0.186628 0.100000
vt 0.150000 0.052764
vt 0.150000 0.056673
vt 0.225000 0.076606
vt 0.225000 0.069405
vt 0.045439 0.100000
vt 0.100000 0.034328
vt 0.100000 0.089502
vt 0.100000 0.055688
vt 0.079561 0.025000
vt 0.025000 0.090672
vt 0.025000 0.035498
vt 0.025000 0.069312
vt 0.225000 0.067978
vt 0.192621 0.025000
vt 0.190015 0.025000
vt 0.184299 0.100000
vt 0.182722 0.100000
vt 0.189384 0.100000
vt 0.150000 0.056355
vt 0.150000 0.058934
vt 0.225000 0.072715
vt 0.225000 0.066412
vt 0.475000 0.042442
vt 0.414181 0.025000
vt 0.462587 0.100000
vt 0.460233 0.100000
vt 0.400000 0.084629
vt 0.475000 0.039767
vt 0.312100 0.098253
vt 0.288980 0.100000
vt 0.275000 0.080473
vt 0.280071 0.025000
vt 0.287702 0.025000
vt 0.312900 0.026747
vt 0.336020 0.025000
vt 0.350000 0.044527
vt 0.344929 0.100000
vt 0.337298 0.100000
vt 0.053910 0.025000
vt 0.100000 0.056302
vt 0.100000 0.057602
vt 0.025000 0.066446
vt 0.025000 0.068921
vt 0.025000 0.063915
vt 0.070177 0.100000
vt 0.068899 0.100000
vt 0.051574 0.025000
vt 0.056325 0.025000
s 0
usemtl HoardAtlas
f 1/1/1 3/2/1 2/3/1
f 1/4/1 4/5/1 3/6/1
f 1/4/1 5/7/1 4/8/1
f 1/9/1 6/10/1 5/2/1
f 1/11/1 7/12/1 6/13/1
f 1/14/1 8/4/1 7/15/1
f 1/2/1 9/16/1 8/17/1
f 1/2/1 10/18/1 9/19/1
f 1/20/1 11/21/1 10/4/1
f 1/22/1 2/23/1 11/24/1
f 3/25/2 12/26/2 2/27/2
f 4/28/3 13/29/3 3/30/3
f 5/28/4 14/29/4 4/30/4
f 6/31/5 15/32/5 5/33/5
f 7/34/6 16/35/6 6/36/6
f 8/31/7 17/32/7 7/33/7
f 9/37/8 18/38/8 8/39/8
f 10/37/9 19/38/9 9/39/9
f 11/25/10 20/26/10 10/27/10
f 2/40/11 21/41/11 11/42/11
f 12/43/12 23/44/12 22/45/12
f 13/46/13 24/47/13 23/48/13
f 15/49/14 24/50/14 14/51/14
f 16/52/15 25/53/15 15/54/15
f 17/55/16 26/56/16 16/57/16
f 17/58/17 28/59/17 27/60/17
f 18/61/18 29/62/18 28/63/18
f 20/64/19 29/65/19 19/66/19
f 21/67/20 30/68/20 20/69/20
f 12/70/21 31/71/21 21/72/21
f 23/73/22 32/74/22 22/75/22
f 24/76/23 33/77/23 23/78/23
f 25/79/24 34/80/24 24/81/24
f 26/82/25 35/83/25 25/73/25
f 27/84/26 36/85/26 26/86/26
f 28/87/27 37/88/27 27/89/27
f 29/90/28 38/91/28 28/92/28
f 30/93/29 39/94/29 29/95/29
f 31/96/30 40/97/30 30/87/30
f 22/98/31 41/99/31 31/100/31
f 33/101/32 42/102/32 32/103/32
f 34/104/33 43/105/33 33/106/33
f 35/107/34 44/108/34 34/109/34
f 36/110/35 45/111/35 35/112/35
f 37/113/36 46/114/36 36/115/36
f 38/116/37 47/117/37 37/118/37
f 39/119/38 48/120/38 38/121/38
f 40/122/39 49/123/39 39/124/39
f 41/125/40 50/126/40 40/127/40
f 32/128/41 51/129/41 41/130/41
f 43/131/42 52/132/42 42/133/42
f 44/134/43 53/135/43 43/136/43
f 45/137/44 54/138/44 44/139/44
f 46/140/45 55/141/45 45/142/45
f 47/143/46 56/144/46 46/145/46
f 48/146/47 57/147/47 47/148/47
f 49/149/48 58/150/48 48/151/48
f 50/152/49 59/153/49 49/154/49
f 51/155/50 60/156/50 50/157/50
f 42/158/51 61/159/51 51/160/51
f 53/161/2 62/162/2 52/163/2
f 54/164/3 63/165/3 53/166/3
f 55/164/4 64/165/4 54/166/4
f 56/167/5 65/168/5 55/169/5
f 57/170/6 66/171/6 56/172/6
f 58/167/7 67/168/7 57/169/7
f 59/173/8 68/174/8 58/175/8
f 60/173/9 69/174/9 59/175/9
f 61/161/10 70/162/10 60/163/10
f 52/176/11 71/177/11 61/178/11
f 62/179/52 73/180/52 72/181/52
f 64/182/53 73/183/53 63/184/53
f 65/185/54 74/186/54 64/187/54
f 66/188/55 75/189/55 65/190/55
f 66/191/56 77/192/56 76/193/56
f 67/194/57 78/195/57 77/196/57
f 69/197/58 78/198/58 68/199/58
f 70/200/59 79/201/59 69/202/59
f 71/203/60 80/204/60 70/205/60
f 71/206/61 72/207/61 81/208/61
f 73/209/62 82/210/62 72/211/62
f 74/212/63 83/213/63 73/214/63
f 75/215/64 84/216/64 74/217/64
f 76/218/65 85/219/65 75/220/65
f 77/221/66 86/222/66 76/223/66
f 78/224/67 87/225/67 77/226/67
f 79/227/68 88/228/68 78/229/68
f 80/230/69 89/231/69 79/232/69
f 81/233/70 90/234/70 80/235/70
f 72/236/71 91/237/71 81/238/71
f 83/239/72 92/240/72 82/241/72
f 84/242/73 93/243/73 83/244/73
f 84/245/74 95/246/74 94/247/74
f 86/248/75 95/2/75 85/249/75
f 87/250/76 96/251/76 86/252/76
f 88/253/77 97/254/77 87/255/77
f 89/256/78 98/257/78 88/258/78
f 89/259/79 100/260/79 99/261/79
f 91/262/80 100/4/80 90/263/80
f 82/264/81 101/265/81 91/266/81
f 93/267/82 102/268/82 92/269/82
f 94/270/83 103/271/83 93/272/83
f 95/273/84 104/274/84 94/275/84
f 96/276/85 105/277/85 95/278/85
f 97/279/86 106/280/86 96/281/86
f 98/282/87 107/283/87 97/284/87
f 99/285/88 108/286/88 98/287/88
f 100/288/89 109/289/89 99/290/89
f 101/291/90 110/292/90 100/293/90
f 92/294/91 111/295/91 101/296/91
f 103/297/2 112/298/2 102/299/2
f 104/300/3 113/301/3 103/302/3
f 105/300/4 114/301/4 104/302/4
f 106/303/5 115/304/5 105/305/5
f 107/306/6 116/307/6 106/308/6
f 108/303/7 117/304/7 107/305/7
f 109/309/8 118/310/8 108/311/8
f 110/309/9 119/310/9 109/311/9
f 111/297/10 120/298/10 110/299/10
f 102/312/11 121/313/11 111/314/11
f 113/73/92 122/315/92 112/316/92
f 113/317/92 124/318/92 123/319/92
f 115/320/92 124/321/92 114/322/92
f 116/323/92 125/324/92 115/73/92
f 117/325/92 126/326/92 116/327/92
f 118/87/92 127/328/92 117/329/92
f 118/330/92 129/331/92 128/332/92
f 120/333/92 129/334/92 119/335/92
f 121/336/92 130/337/92 120/87/92
f 112/338/92 131/339/92 121/340/92
f 123/341/93 132/342/93 122/343/93
f 124/344/94 133/345/94 123/346/94
f 125/347/95 134/348/95 124/349/95
f 126/350/96 135/351/96 125/352/96
f 127/353/97 136/354/97 126/355/97
f 128/356/98 137/357/98 127/358/98
f 129/359/99 138/360/99 128/361/99
f 130/362/100 139/363/100 129/364/100
f 131/365/101 140/366/101 130/367/101
f 122/368/102 141/369/102 131/370/102
f 132/371/92 133/372/92 142/373/92
f 133/374/92 134/375/92 142/376/92
f 134/377/92 135/378/92 142/376/92
f 135/372/92 136/379/92 142/380/92
f 136/381/92 137/382/92 142/383/92
f 137/384/92 138/376/92 142/385/92
f 138/386/92 139/387/92 142/372/92
f 139/388/92 140/389/92 142/372/92
f 140/376/92 141/390/92 142/391/92
f 141/392/92 132/393/92 142/394/92
f 145/395/103 143/396/103 146/397/103
f 143/398/104 144/399/104 146/400/104
f 144/401/105 155/402/105 146/403/105
f 155/403/106 148/404/106 146/405/106
f 148/406/107 145/407/107 146/408/107
f 153/409/108 143/410/108 145/411/108
f 148/412/109 147/413/109 145/414/109
f 147/415/108 149/409/108 145/416/108
f 149/417/108 153/418/108 145/400/108
f 153/419/110 144/414/110 143/420/110
f 153/421/111 154/409/111 144/422/111
f 154/423/112 155/424/112 144/425/112
f 152/423/113 150/426/113 155/427/113
f 150/428/114 148/403/114 155/429/114
f 154/430/115 152/431/115 155/403/115
f 150/432/116 147/433/116 148/400/116
f 149/406/108 151/434/108 153/408/108
f 151/395/117 154/435/117 153/436/117
f 150/395/118 149/437/118 147/438/118
f 150/439/119 152/409/119 149/440/119
f 152/441/120 151/414/120 149/442/120
f 151/443/121 152/408/121 154/444/121
f 157/445/122 166/446/122 167/447/122
f 166/448/123 164/449/123 167/450/123
f 164/451/124 165/452/124 167/453/124
f 165/454/125 168/455/125 167/456/125
f 168/457/126 157/458/126 167/459/126
f 168/460/127 159/461/127 157/462/127
f 159/463/128 156/464/128 157/465/128
f 156/466/129 166/467/129 157/468/129
f 156/469/130 162/453/130 166/470/130
f 162/453/130 164/471/130 166/472/130
f 162/473/131 165/474/131 164/468/131
f 162/475/132 163/476/132 165/472/132
f 163/477/133 168/478/133 165/460/133
f 163/479/134 161/480/134 168/459/134
f 161/459/135 159/481/135 168/482/135
f 161/453/136 158/483/136 159/472/136
f 158/449/137 156/484/137 159/485/137
f 158/486/130 160/453/130 156/472/130
f 160/487/130 162/488/130 156/472/130
f 160/489/138 163/490/138 162/491/138
f 160/492/139 161/453/139 163/493/139
f 160/494/140 158/468/140 161/495/140
f 179/496/141 180/497/141 170/498/141
f 180/499/142 181/500/142 170/501/142
f 181/502/143 172/503/143 170/504/143
f 172/505/144 169/506/144 170/507/144
f 169/508/145 179/509/145 170/510/145
f 169/511/146 175/512/146 179/513/146
f 175/512/146 177/514/146 179/515/146
f 177/516/147 180/517/147 179/518/147
f 177/519/148 178/520/148 180/497/148
f 178/521/149 181/499/149 180/522/149
f 176/523/150 174/524/150 181/502/150
f 174/499/151 172/525/151 181/526/151
f 178/527/152 176/528/152 181/529/152
f 174/530/153 171/531/153 172/515/153
f 171/532/154 169/533/154 172/534/154
f 171/535/146 173/512/146 169/515/146
f 173/536/146 175/537/146 169/515/146
f 178/538/155 177/539/155 175/540/155
f 173/541/156 176/510/156 175/542/156
f 176/543/157 178/505/157 175/544/157
f 173/545/158 174/497/158 176/546/158
f 173/547/159 171/532/159 174/548/159
f 192/549/160 193/550/160 183/551/160
f 193/552/161 194/553/161 183/554/161
f 194/555/162 185/556/162 183/557/162
f 185/558/163 182/559/163 183/560/163
f 182/561/164 192/562/164 183/563/164
f 182/564/165 186/558/165 192/565/165
f 186/566/165 188/567/165 192/550/165
f 188/558/165 190/568/165 192/550/165
f 190/569/166 193/570/166 192/571/166
f 190/572/167 191/573/167 193/574/167
f 191/575/168 194/576/168 193/577/168
f 189/578/169 187/579/169 194/576/169
f 187/580/170 185/552/170 194/581/170
f 191/582/171 189/583/171 194/584/171
f 187/558/172 184/585/172 185/586/172
f 184/587/173 182/588/173 185/589/173
f 184/590/165 186/558/165 182/550/165
f 184/591/174 187/592/174 186/593/174
f 187/573/175 189/594/175 186/595/175
f 189/571/176 188/596/176 186/597/176
f 191/598/177 190/591/177 188/599/177
f 189/600/178 191/601/178 188/602/178
f 202/603/179 207/604/179 204/423/179
f 207/423/180 206/605/180 204/606/180
f 206/607/181 203/608/181 204/400/181
f 203/395/182 201/609/182 204/610/182
f 201/611/183 202/612/183 204/400/183
f 201/613/184 199/614/184 202/414/184
f 199/615/185 200/409/185 202/616/185
f 200/617/186 207/618/186 202/619/186
f 200/620/187 198/621/187 207/622/187
f 198/623/188 196/624/188 207/618/188
f 196/625/189 206/403/189 207/626/189
f 196/627/190 205/628/190 206/409/190
f 205/629/191 203/414/191 206/630/191
f 205/406/192 201/408/192 203/631/192
f 205/406/192 199/632/192 201/633/192
f 205/634/192 195/635/192 199/408/192
f 195/406/192 197/636/192 199/408/192
f 197/395/193 200/637/193 199/638/193
f 197/639/194 198/406/194 200/408/194
f 197/414/195 195/640/195 198/641/195
f 195/642/196 196/643/196 198/400/196
f 195/644/197 205/645/197 196/414/197
f 3/25/2 13/646/2 12/26/2
f 4/28/3 14/647/3 13/29/3
f 5/28/4 15/647/4 14/29/4
f 6/31/5 16/648/5 15/32/5
f 7/34/6 17/649/6 16/35/6
f 8/31/7 18/648/7 17/32/7
f 9/37/8 19/650/8 18/38/8
f 10/37/9 20/650/9 19/38/9
f 11/25/10 21/646/10 20/26/10
f 2/40/11 12/651/11 21/41/11
f 12/43/12 13/54/12 23/44/12
f 13/46/13 14/652/13 24/47/13
f 15/49/14 25/653/14 24/50/14
f 16/52/15 26/654/15 25/53/15
f 17/55/16 27/655/16 26/56/16
f 17/58/17 18/69/17 28/59/17
f 18/61/18 19/656/18 29/62/18
f 20/64/19 30/657/19 29/65/19
f 21/67/20 31/658/20 30/68/20
f 12/70/21 22/659/21 31/71/21
f 23/73/22 33/660/22 32/74/22
f 24/76/23 34/661/23 33/77/23
f 25/79/24 35/662/24 34/80/24
f 26/82/25 36/663/25 35/83/25
f 27/84/26 37/664/26 36/85/26
f 28/87/27 38/665/27 37/88/27
f 29/90/28 39/666/28 38/91/28
f 30/93/29 40/667/29 39/94/29
f 31/96/30 41/668/30 40/97/30
f 22/98/31 32/669/31 41/99/31
f 33/101/32 43/670/32 42/102/32
f 34/104/33 44/671/33 43/105/33
f 35/107/34 45/672/34 44/108/34
f 36/110/35 46/673/35 45/111/35
f 37/113/36 47/674/36 46/114/36
f 38/116/37 48/675/37 47/117/37
f 39/119/38 49/676/38 48/120/38
f 40/122/39 50/677/39 49/123/39
f 41/125/40 51/678/40 50/126/40
f 32/128/41 42/679/41 51/129/41
f 43/131/42 53/680/42 52/132/42
f 44/134/43 54/681/43 53/135/43
f 45/137/44 55/682/44 54/138/44
f 46/140/45 56/683/45 55/141/45
f 47/143/46 57/684/46 56/144/46
f 48/146/47 58/685/47 57/147/47
f 49/149/48 59/686/48 58/150/48
f 50/152/49 60/687/49 59/153/49
f 51/155/50 61/688/50 60/156/50
f 42/158/51 52/689/51 61/159/51
f 53/161/2 63/690/2 62/162/2
f 54/164/3 64/691/3 63/165/3
f 55/164/4 65/691/4 64/165/4
f 56/167/5 66/692/5 65/168/5
f 57/170/6 67/693/6 66/171/6
f 58/167/7 68/692/7 67/168/7
f 59/173/8 69/694/8 68/174/8
f 60/173/9 70/694/9 69/174/9
f 61/161/10 71/690/10 70/162/10
f 52/176/11 62/695/11 71/177/11
f 62/179/52 63/73/52 73/180/52
f 64/182/53 74/696/53 73/183/53
f 65/185/54 75/697/54 74/186/54
f 66/188/55 76/698/55 75/189/55
f 66/191/56 67/699/56 77/192/56
f 67/194/57 68/87/57 78/195/57
f 69/197/58 79/700/58 78/198/58
f 70/200/59 80/701/59 79/201/59
f 71/203/60 81/702/60 80/204/60
f 71/206/61 62/703/61 72/207/61
f 73/209/62 83/704/62 82/210/62
f 74/212/63 84/705/63 83/213/63
f 75/215/64 85/706/64 84/216/64
f 76/218/65 86/707/65 85/219/65
f 77/221/66 87/708/66 86/222/66
f 78/224/67 88/709/67 87/225/67
f 79/227/68 89/710/68 88/228/68
f 80/230/69 90/711/69 89/231/69
f 81/233/70 91/712/70 90/234/70
f 72/236/71 82/713/71 91/237/71
f 83/239/72 93/2/72 92/240/72
f 84/242/73 94/714/73 93/243/73
f 84/245/74 85/715/74 95/246/74
f 86/248/75 96/716/75 95/2/75
f 87/250/76 97/717/76 96/251/76
f 88/253/77 98/4/77 97/254/77
f 89/256/78 99/718/78 98/257/78
f 89/259/79 90/719/79 100/260/79
f 91/262/80 101/720/80 100/4/80
f 82/264/81 92/721/81 101/265/81
f 93/267/82 103/722/82 102/268/82
f 94/270/83 104/723/83 103/271/83
f 95/273/84 105/724/84 104/274/84
f 96/276/85 106/725/85 105/277/85
f 97/279/86 107/726/86 106/280/86
f 98/282/87 108/727/87 107/283/87
f 99/285/88 109/728/88 108/286/88
f 100/288/89 110/729/89 109/289/89
f 101/291/90 111/730/90 110/292/90
f 92/294/91 102/731/91 111/295/91
f 103/297/2 113/732/2 112/298/2
f 104/300/3 114/733/3 113/301/3
f 105/300/4 115/733/4 114/301/4
f 106/303/5 116/734/5 115/304/5
f 107/306/6 117/735/6 116/307/6
f 108/303/7 118/734/7 117/304/7
f 109/309/8 119/736/8 118/310/8
f 110/309/9 120/736/9 119/310/9
f 111/297/10 121/732/10 120/298/10
f 102/312/11 112/737/11 121/313/11
f 113/73/92 123/738/92 122/315/92
f 113/317/92 114/739/92 124/318/92
f 115/320/92 125/740/92 124/321/92
f 116/323/92 126/741/92 125/324/92
f 117/325/92 127/742/92 126/326/92
f 118/87/92 128/743/92 127/328/92
f 118/330/92 119/744/92 129/331/92
f 120/333/92 130/745/92 129/334/92
f 121/336/92 131/746/92 130/337/92
f 112/338/92 122/747/92 131/339/92
f 123/341/93 133/748/93 132/342/93
f 124/344/94 134/749/94 133/345/94
f 125/347/95 135/750/95 134/348/95
f 126/350/96 136/751/96 135/351/96
f 127/353/97 137/752/97 136/354/97
f 128/356/98 138/753/98 137/357/98
f 129/359/99 139/754/99 138/360/99
f 130/362/100 140/755/100 139/363/100
f 131/365/101 141/756/101 140/366/101
f 122/368/102 132/757/102 141/369/102
