# Blender 5.2.2 LTS
# www.blender.org
mtllib Chest_Lid.mtl
o Chest_Lid
v -1.500000 0.025000 0.000000
v -1.500000 0.025000 -2.000000
v -1.500000 0.120000 0.000000
v -1.500000 0.430000 -0.133975
v -1.500000 0.656936 -0.500000
v -1.500000 0.740000 -1.000000
v -1.500000 0.656936 -1.500000
v -1.500000 0.430000 -1.866025
v -1.500000 0.120000 -2.000000
v 1.500000 0.025000 0.000000
v 1.500000 0.025000 -2.000000
v 1.500000 0.120000 0.000000
v 1.500000 0.430000 -0.133975
v 1.500000 0.656936 -0.500000
v 1.500000 0.740000 -1.000000
v 1.500000 0.656936 -1.500000
v 1.500000 0.430000 -1.866025
v 1.500000 0.120000 -2.000000
v -1.530000 -0.010000 0.035000
v -1.530000 -0.010000 -2.035000
v -1.530000 0.120000 0.035000
v -1.530000 0.447500 -0.103664
v -1.530000 0.687247 -0.482500
v -1.530000 0.775000 -1.000000
v -1.530000 0.687247 -1.517500
v -1.530000 0.447500 -1.896336
v -1.530000 0.120000 -2.035000
v -1.400000 -0.010000 0.035000
v -1.400000 -0.010000 -2.035000
v -1.400000 0.120000 0.035000
v -1.400000 0.447500 -0.103664
v -1.400000 0.687247 -0.482500
v -1.400000 0.775000 -1.000000
v -1.400000 0.687247 -1.517500
v -1.400000 0.447500 -1.896336
v -1.400000 0.120000 -2.035000
v 1.400000 -0.010000 0.035000
v 1.400000 -0.010000 -2.035000
v 1.400000 0.120000 0.035000
v 1.400000 0.447500 -0.103664
v 1.400000 0.687247 -0.482500
v 1.400000 0.775000 -1.000000
v 1.400000 0.687247 -1.517500
v 1.400000 0.447500 -1.896336
v 1.400000 0.120000 -2.035000
v 1.530000 -0.010000 0.035000
v 1.530000 -0.010000 -2.035000
v 1.530000 0.120000 0.035000
v 1.530000 0.447500 -0.103664
v 1.530000 0.687247 -0.482500
v 1.530000 0.775000 -1.000000
v 1.530000 0.687247 -1.517500
v 1.530000 0.447500 -1.896336
v 1.530000 0.120000 -2.035000
v -0.940000 -0.005000 0.030000
v -0.940000 -0.005000 -2.030000
v -0.940000 0.120000 0.030000
v -0.940000 0.445000 -0.107994
v -0.940000 0.682917 -0.485000
v -0.940000 0.770000 -1.000000
v -0.940000 0.682917 -1.515000
v -0.940000 0.445000 -1.892006
v -0.940000 0.120000 -2.030000
v -0.760000 -0.005000 0.030000
v -0.760000 -0.005000 -2.030000
v -0.760000 0.120000 0.030000
v -0.760000 0.445000 -0.107994
v -0.760000 0.682917 -0.485000
v -0.760000 0.770000 -1.000000
v -0.760000 0.682917 -1.515000
v -0.760000 0.445000 -1.892006
v -0.760000 0.120000 -2.030000
v 0.760000 -0.005000 0.030000
v 0.760000 -0.005000 -2.030000
v 0.760000 0.120000 0.030000
v 0.760000 0.445000 -0.107994
v 0.760000 0.682917 -0.485000
v 0.760000 0.770000 -1.000000
v 0.760000 0.682917 -1.515000
v 0.760000 0.445000 -1.892006
v 0.760000 0.120000 -2.030000
v 0.940000 -0.005000 0.030000
v 0.940000 -0.005000 -2.030000
v 0.940000 0.120000 0.030000
v 0.940000 0.445000 -0.107994
v 0.940000 0.682917 -0.485000
v 0.940000 0.770000 -1.000000
v 0.940000 0.682917 -1.515000
v 0.940000 0.445000 -1.892006
v 0.940000 0.120000 -2.030000
v -1.500000 0.000000 -2.000000
v -1.500000 0.140000 -2.000000
v -1.500000 0.000000 -2.035000
v -1.500000 0.140000 -2.035000
v 1.500000 0.000000 -2.000000
v 1.500000 0.140000 -2.000000
v 1.500000 0.000000 -2.035000
v 1.500000 0.140000 -2.035000
v -0.120000 -0.160000 -2.035000
v -0.120000 0.300000 -2.035000
v -0.120000 -0.160000 -2.075000
v -0.120000 0.300000 -2.075000
v 0.120000 -0.160000 -2.035000
v 0.120000 0.300000 -2.035000
v 0.120000 -0.160000 -2.075000
v 0.120000 0.300000 -2.075000
v 0.061921 0.811600 -1.035750
v 0.130000 0.776500 -1.000000
v 0.000000 0.811600 -1.071500
v 0.065000 0.776500 -1.112583
v -0.061921 0.811600 -1.035750
v -0.065000 0.776500 -1.112583
v -0.061921 0.811600 -0.964250
v -0.130000 0.776500 -1.000000
v -0.000000 0.811600 -0.928500
v -0.065000 0.776500 -0.887417
v 0.061921 0.811600 -0.964250
v 0.065000 0.776500 -0.887417
v 0.000000 0.672500 -1.000000
vn -0.0000 -0.0000 -1.0000
vn -0.0000 0.3967 -0.9179
vn 1.0000 -0.0000 -0.0000
vn -0.0000 -1.0000 -0.0000
vn -1.0000 -0.0000 -0.0000
vn -0.0000 0.8499 -0.5269
vn -0.0000 -0.0000 1.0000
vn -0.0000 0.9865 -0.1639
vn -0.0000 0.3967 0.9179
vn -0.0000 0.9865 0.1639
vn -0.0000 0.8499 0.5269
vn -0.0000 0.9859 -0.1672
vn -0.0000 0.9859 0.1672
vn -0.0000 0.8450 -0.5348
vn -0.0000 0.8450 0.5348
vn -0.0000 0.3899 -0.9209
vn -0.0000 0.3899 0.9209
vn -0.0000 0.9860 -0.1667
vn -0.0000 0.9860 0.1667
vn -0.0000 0.8457 -0.5337
vn -0.0000 0.8457 0.5337
vn -0.0000 0.3908 -0.9205
vn -0.0000 0.3908 0.9205
vn -0.0000 1.0000 -0.0000
vn 0.2291 0.8888 -0.3969
vn 0.5625 0.7603 -0.3248
vn 0.5876 -0.7346 -0.3393
vn -0.0000 -0.7346 -0.6786
vn -0.0000 0.7603 -0.6496
vn -0.2291 0.8888 -0.3969
vn 0.4583 0.8888 -0.0000
vn 0.5625 0.7603 0.3248
vn 0.5876 -0.7346 0.3393
vn -0.5876 -0.7346 0.3393
vn -0.5876 -0.7346 -0.3393
vn -0.0000 -0.7346 0.6786
vn -0.5625 0.7603 -0.3248
vn -0.4583 0.8888 -0.0000
vn 0.2291 0.8888 0.3969
vn -0.0000 0.7603 0.6496
vn -0.2291 0.8888 0.3969
vn -0.5625 0.7603 0.3248
vt 0.350000 0.350000
vt 0.275000 0.277302
vt 0.277375 0.275000
vt 0.347625 0.350000
vt 0.275000 0.275000
vt 0.350000 0.347698
vt 0.400000 0.282750
vt 0.408193 0.275000
vt 0.475000 0.350000
vt 0.400000 0.275000
vt 0.475000 0.342250
vt 0.466807 0.350000
vt 0.225000 0.275000
vt 0.206239 0.312816
vt 0.150000 0.350000
vt 0.188390 0.330370
vt 0.175676 0.343977
vt 0.165302 0.350000
vt 0.150000 0.342378
vt 0.153137 0.350000
vt 0.150000 0.345421
vt 0.225000 0.295212
vt 0.216049 0.275000
vt 0.225000 0.350000
vt 0.150000 0.275000
vt 0.176289 0.288220
vt 0.525000 0.275000
vt 0.600000 0.320000
vt 0.550000 0.350000
vt 0.575000 0.275000
vt 0.600000 0.350000
vt 0.525000 0.305000
vt 0.225000 0.346599
vt 0.221437 0.350000
vt 0.225000 0.344187
vt 0.207521 0.350000
vt 0.194561 0.345407
vt 0.174624 0.335332
vt 0.173733 0.275000
vt 0.150000 0.324502
vt 0.188490 0.350000
vt 0.150000 0.310711
vt 0.198711 0.288220
vt 0.287668 0.350000
vt 0.275000 0.341844
vt 0.350000 0.275000
vt 0.275000 0.350000
vt 0.337332 0.275000
vt 0.350000 0.283156
vt 0.347698 0.275000
vt 0.350000 0.277375
vt 0.275000 0.347625
vt 0.277302 0.350000
vt 0.412845 0.350000
vt 0.400000 0.339286
vt 0.475000 0.275000
vt 0.400000 0.350000
vt 0.462155 0.275000
vt 0.475000 0.285714
vt 0.466807 0.275000
vt 0.475000 0.282750
vt 0.400000 0.342250
vt 0.408193 0.350000
vt 0.285838 0.350000
vt 0.275000 0.340849
vt 0.350000 0.284151
vt 0.339162 0.275000
vt 0.350000 0.081159
vt 0.335280 0.100000
vt 0.275000 0.025000
vt 0.350000 0.100000
vt 0.275000 0.043841
vt 0.289720 0.025000
vt 0.275000 0.040058
vt 0.293314 0.025000
vt 0.331686 0.100000
vt 0.350000 0.084942
vt 0.225000 0.044758
vt 0.182231 0.100000
vt 0.150000 0.025000
vt 0.225000 0.100000
vt 0.158026 0.079243
vt 0.194013 0.100000
vt 0.150000 0.094008
vt 0.225000 0.025000
vt 0.150000 0.100000
vt 0.215104 0.025000
vt 0.225000 0.029334
vt 0.212937 0.025000
vt 0.225000 0.041494
vt 0.216115 0.053056
vt 0.193859 0.068859
vt 0.350000 0.074263
vt 0.335240 0.100000
vt 0.275000 0.050737
vt 0.289760 0.025000
vt 0.205242 0.100000
vt 0.150000 0.057231
vt 0.170757 0.033026
vt 0.150000 0.069013
vt 0.155992 0.025000
vt 0.225000 0.090104
vt 0.220666 0.100000
vt 0.225000 0.087937
vt 0.208506 0.100000
vt 0.196944 0.091115
vt 0.181141 0.068859
vt 0.275000 0.044161
vt 0.293377 0.025000
vt 0.331623 0.100000
vt 0.350000 0.080839
vt 0.175245 0.100000
vt 0.150000 0.078689
vt 0.199755 0.025000
vt 0.225000 0.046311
vt 0.225000 0.078689
vt 0.199755 0.100000
vt 0.175245 0.025000
vt 0.150000 0.046311
vt 0.225000 0.100000
vt 0.150000 0.062500
vt 0.150000 0.025000
vt 0.225000 0.062500
vt 0.225000 0.062500
vt 0.150000 0.100000
vt 0.225000 0.025000
vt 0.150000 0.062500
vt 0.095290 0.025000
vt 0.100000 0.029432
vt 0.025000 0.100000
vt 0.100000 0.025000
vt 0.029710 0.100000
vt 0.025000 0.095568
vt 0.350000 0.073786
vt 0.330979 0.100000
vt 0.275000 0.051214
vt 0.294021 0.025000
vt 0.275000 0.044424
vt 0.300485 0.025000
vt 0.324515 0.100000
vt 0.350000 0.080576
vt 0.225000 0.044217
vt 0.182214 0.100000
vt 0.157794 0.079217
vt 0.193796 0.100000
vt 0.150000 0.094192
vt 0.215454 0.025000
vt 0.225000 0.029199
vt 0.213003 0.025000
vt 0.225000 0.041473
vt 0.216077 0.053037
vt 0.193841 0.068841
vt 0.350000 0.064192
vt 0.330909 0.100000
vt 0.275000 0.060808
vt 0.294091 0.025000
vt 0.205783 0.100000
vt 0.150000 0.057214
vt 0.170783 0.032794
vt 0.150000 0.068796
vt 0.155808 0.025000
vt 0.225000 0.090454
vt 0.220801 0.100000
vt 0.225000 0.088003
vt 0.208527 0.100000
vt 0.196963 0.091077
vt 0.181159 0.068841
vt 0.275000 0.049237
vt 0.300610 0.025000
vt 0.324390 0.100000
vt 0.350000 0.075763
vt 0.185194 0.100000
vt 0.150000 0.073267
vt 0.189806 0.025000
vt 0.225000 0.051733
vt 0.225000 0.073267
vt 0.189806 0.100000
vt 0.185194 0.025000
vt 0.150000 0.051733
vt 0.150000 0.055738
vt 0.202083 0.025000
vt 0.172917 0.100000
vt 0.225000 0.069262
vt 0.172917 0.025000
vt 0.225000 0.055738
vt 0.202083 0.100000
vt 0.150000 0.069262
vt 0.093447 0.025000
vt 0.100000 0.031027
vt 0.031553 0.100000
vt 0.025000 0.093973
vt 0.100000 0.100000
vt 0.025000 0.025865
vt 0.025875 0.025000
vt 0.099125 0.100000
vt 0.025000 0.025000
vt 0.100000 0.099135
vt 0.153500 0.100000
vt 0.150000 0.096656
vt 0.221500 0.025000
vt 0.225000 0.028344
vt 0.168750 0.100000
vt 0.150000 0.085000
vt 0.206250 0.025000
vt 0.225000 0.040000
vt 0.225000 0.096656
vt 0.221500 0.100000
vt 0.153500 0.025000
vt 0.150000 0.028344
vt 0.225000 0.085000
vt 0.206250 0.100000
vt 0.168750 0.025000
vt 0.150000 0.040000
vt 0.349125 0.025000
vt 0.350000 0.025865
vt 0.275000 0.100000
vt 0.350000 0.025000
vt 0.275875 0.100000
vt 0.275000 0.099135
vt 0.025000 0.031000
vt 0.031522 0.025000
vt 0.093478 0.100000
vt 0.100000 0.094000
vt 0.314130 0.100000
vt 0.275000 0.074286
vt 0.310870 0.025000
vt 0.350000 0.050714
vt 0.037500 0.100000
vt 0.025000 0.089286
vt 0.087500 0.025000
vt 0.100000 0.035714
vt 0.100000 0.074286
vt 0.060870 0.100000
vt 0.064130 0.025000
vt 0.025000 0.050714
vt 0.100000 0.089286
vt 0.087500 0.100000
vt 0.037500 0.025000
vt 0.025000 0.035714
vt 0.093478 0.025000
vt 0.100000 0.031000
vt 0.031522 0.100000
vt 0.025000 0.094000
vt 0.400000 0.475000
vt 0.415006 0.400000
vt 0.475000 0.456635
vt 0.525000 0.443851
vt 0.570476 0.400000
vt 0.600000 0.475000
vt 0.286556 0.400000
vt 0.350000 0.454904
vt 0.275000 0.475000
vt 0.350000 0.400000
vt 0.310629 0.475000
vt 0.275000 0.420096
vt 0.528346 0.475000
vt 0.525000 0.413798
vt 0.600000 0.400000
vt 0.461721 0.475000
vt 0.400000 0.418503
vt 0.475000 0.400000
vt 0.525000 0.443301
vt 0.552452 0.400000
vt 0.559808 0.475000
vt 0.525000 0.410048
vt 0.525000 0.475000
vt 0.556699 0.400000
vt 0.600000 0.427452
vt 0.584151 0.459151
vt 0.400000 0.423353
vt 0.443982 0.475000
vt 0.551513 0.475000
vt 0.525000 0.400000
vt 0.600000 0.444658
vt 0.344755 0.475000
vt 0.338444 0.475000
vt 0.280245 0.400000
vt 0.314371 0.400000
vt 0.525000 0.430342
vt 0.573487 0.400000
vt 0.431018 0.400000
vt 0.475000 0.451647
vt 0.413279 0.400000
vt 0.475000 0.456497
vt 0.600000 0.461202
vt 0.596654 0.400000
vt 0.459994 0.475000
vt 0.400000 0.418365
vt 0.600000 0.431149
vt 0.554524 0.475000
s 0
usemtl HoardAtlas
f 11/1/1 2/2/1 9/3/1
f 11/4/1 9/5/1 18/6/1
f 9/7/2 8/8/2 17/9/2
f 9/10/2 17/11/2 18/12/2
f 17/13/3 16/14/3 15/15/3
f 17/13/3 15/16/3 14/15/3
f 17/13/3 14/17/3 13/15/3
f 17/13/3 13/18/3 12/19/3
f 17/13/3 12/20/3 10/21/3
f 17/22/3 10/15/3 11/23/3
f 17/24/3 11/25/3 18/26/3
f 10/27/4 1/28/4 2/29/4
f 10/30/4 2/31/4 11/32/4
f 2/25/5 1/33/5 3/34/5
f 2/25/5 3/35/5 4/36/5
f 2/25/5 4/24/5 5/37/5
f 2/25/5 5/24/5 6/38/5
f 2/39/5 6/24/5 7/40/5
f 2/13/5 7/41/5 8/42/5
f 2/13/5 8/15/5 9/43/5
f 8/44/6 7/45/6 16/46/6
f 8/47/6 16/48/6 17/49/6
f 12/47/7 3/50/7 1/51/7
f 12/52/7 1/46/7 10/53/7
f 7/54/8 6/55/8 15/56/8
f 7/57/8 15/58/8 16/59/8
f 13/57/9 4/60/9 3/61/9
f 13/62/9 3/56/9 12/63/9
f 6/54/10 5/55/10 14/56/10
f 6/57/10 14/58/10 15/59/10
f 14/46/11 5/64/11 4/65/11
f 14/66/11 4/47/11 13/67/11
f 34/68/12 25/69/12 24/70/12
f 34/71/12 24/72/12 33/73/12
f 24/71/13 23/74/13 32/75/13
f 24/76/13 32/70/13 33/77/13
f 32/78/3 31/79/3 30/80/3
f 32/81/3 30/82/3 28/80/3
f 32/83/3 28/84/3 29/85/3
f 32/86/3 29/87/3 36/88/3
f 32/86/3 36/89/3 35/90/3
f 32/86/3 35/85/3 34/91/3
f 32/86/3 34/85/3 33/92/3
f 35/93/14 26/94/14 25/70/14
f 35/71/14 25/95/14 34/96/14
f 25/97/5 26/98/5 27/85/5
f 25/86/5 27/99/5 20/85/5
f 25/100/5 20/101/5 19/81/5
f 25/80/5 19/102/5 21/103/5
f 25/80/5 21/104/5 22/105/5
f 25/80/5 22/81/5 23/106/5
f 25/80/5 23/81/5 24/107/5
f 23/71/15 22/108/15 31/109/15
f 23/110/15 31/70/15 32/111/15
f 36/112/16 27/113/16 26/85/16
f 36/86/16 26/114/16 35/115/16
f 22/80/17 21/116/17 30/117/17
f 22/118/17 30/81/17 31/119/17
f 29/120/1 20/121/1 27/85/1
f 29/86/1 27/122/1 36/123/1
f 21/80/7 19/124/7 28/125/7
f 21/126/7 28/81/7 30/127/7
f 28/128/4 19/129/4 20/130/4
f 28/131/4 20/132/4 29/133/4
f 52/68/12 43/69/12 42/70/12
f 52/71/12 42/72/12 51/73/12
f 42/71/13 41/74/13 50/75/13
f 42/76/13 50/70/13 51/77/13
f 50/78/3 49/79/3 48/80/3
f 50/81/3 48/82/3 46/80/3
f 50/83/3 46/84/3 47/85/3
f 50/86/3 47/87/3 54/88/3
f 50/86/3 54/89/3 53/90/3
f 50/86/3 53/85/3 52/91/3
f 50/86/3 52/85/3 51/92/3
f 53/93/14 44/94/14 43/70/14
f 53/71/14 43/95/14 52/96/14
f 43/97/5 44/98/5 45/85/5
f 43/86/5 45/99/5 38/85/5
f 43/100/5 38/101/5 37/81/5
f 43/80/5 37/102/5 39/103/5
f 43/80/5 39/104/5 40/105/5
f 43/80/5 40/81/5 41/106/5
f 43/80/5 41/81/5 42/107/5
f 41/71/15 40/108/15 49/109/15
f 41/110/15 49/70/15 50/111/15
f 54/112/16 45/113/16 44/85/16
f 54/86/16 44/114/16 53/115/16
f 40/80/17 39/116/17 48/117/17
f 40/118/17 48/81/17 49/119/17
f 47/120/1 38/121/1 45/85/1
f 47/86/1 45/122/1 54/123/1
f 39/80/7 37/124/7 46/125/7
f 39/126/7 46/81/7 48/127/7
f 46/128/4 37/129/4 38/130/4
f 46/131/4 38/132/4 47/133/4
f 70/134/18 61/135/18 60/70/18
f 70/71/18 60/136/18 69/137/18
f 60/71/19 59/138/19 68/139/19
f 60/140/19 68/70/19 69/141/19
f 68/142/3 67/143/3 66/80/3
f 68/81/3 66/144/3 64/80/3
f 68/145/3 64/146/3 65/85/3
f 68/86/3 65/147/3 72/148/3
f 68/86/3 72/149/3 71/150/3
f 68/86/3 71/85/3 70/151/3
f 68/86/3 70/85/3 69/152/3
f 71/153/20 62/154/20 61/70/20
f 71/71/20 61/155/20 70/156/20
f 61/157/5 62/158/5 63/85/5
f 61/86/5 63/159/5 56/85/5
f 61/160/5 56/161/5 55/81/5
f 61/80/5 55/162/5 57/163/5
f 61/80/5 57/164/5 58/165/5
f 61/80/5 58/81/5 59/166/5
f 61/80/5 59/81/5 60/167/5
f 59/71/21 58/168/21 67/169/21
f 59/170/21 67/70/21 68/171/21
f 72/172/22 63/173/22 62/85/22
f 72/86/22 62/174/22 71/175/22
f 58/80/23 57/176/23 66/177/23
f 58/178/23 66/81/23 67/179/23
f 65/81/1 56/180/1 63/181/1
f 65/182/1 63/80/1 72/183/1
f 57/184/7 55/185/7 64/86/7
f 57/85/7 64/186/7 66/187/7
f 64/188/4 55/189/4 56/130/4
f 64/131/4 56/190/4 65/191/4
f 88/134/18 79/135/18 78/70/18
f 88/71/18 78/136/18 87/137/18
f 78/71/19 77/138/19 86/139/19
f 78/140/19 86/70/19 87/141/19
f 86/142/3 85/143/3 84/80/3
f 86/81/3 84/144/3 82/80/3
f 86/145/3 82/146/3 83/85/3
f 86/86/3 83/147/3 90/148/3
f 86/86/3 90/149/3 89/150/3
f 86/86/3 89/85/3 88/151/3
f 86/86/3 88/85/3 87/152/3
f 89/153/20 80/154/20 79/70/20
f 89/71/20 79/155/20 88/156/20
f 79/157/5 80/158/5 81/85/5
f 79/86/5 81/159/5 74/85/5
f 79/160/5 74/161/5 73/81/5
f 79/80/5 73/162/5 75/163/5
f 79/80/5 75/164/5 76/165/5
f 79/80/5 76/81/5 77/166/5
f 79/80/5 77/81/5 78/167/5
f 77/71/21 76/168/21 85/169/21
f 77/170/21 85/70/21 86/171/21
f 90/172/22 81/173/22 80/85/22
f 90/86/22 80/174/22 89/175/22
f 76/80/23 75/176/23 84/177/23
f 76/178/23 84/81/23 85/179/23
f 83/81/1 74/180/1 81/181/1
f 83/182/1 81/80/1 90/183/1
f 75/184/7 73/185/7 82/86/7
f 75/85/7 82/186/7 84/187/7
f 82/188/4 73/189/4 74/130/4
f 82/131/4 74/190/4 83/191/4
f 93/192/4 97/193/4 95/194/4
f 93/195/4 95/196/4 91/197/4
f 95/198/7 96/199/7 92/85/7
f 95/86/7 92/200/7 91/201/7
f 92/202/5 94/203/5 93/85/5
f 92/86/5 93/204/5 91/205/5
f 94/80/1 98/206/1 97/207/1
f 94/208/1 97/81/1 93/209/1
f 97/80/3 98/210/3 96/211/3
f 97/212/3 96/81/3 95/213/3
f 96/214/24 98/215/24 94/216/24
f 96/217/24 94/218/24 92/219/24
f 104/192/3 103/220/3 105/221/3
f 104/222/3 105/196/3 106/223/3
f 105/224/1 101/225/1 102/217/1
f 105/216/1 102/226/1 106/227/1
f 102/228/24 100/229/24 104/131/24
f 102/130/24 104/230/24 106/231/24
f 100/196/7 99/232/7 103/233/7
f 100/234/7 103/192/7 104/235/7
f 103/196/4 99/236/4 101/237/4
f 103/238/4 101/192/4 105/239/4
f 101/240/5 99/241/5 100/130/5
f 101/131/5 100/242/5 102/243/5
f 109/244/25 107/245/25 110/246/25
f 107/247/26 108/248/26 110/249/26
f 108/250/27 119/251/27 110/252/27
f 119/253/28 112/254/28 110/255/28
f 112/256/29 109/257/29 110/258/29
f 112/259/30 111/260/30 109/261/30
f 111/249/24 113/262/24 115/263/24
f 111/264/24 115/265/24 117/258/24
f 111/266/24 117/267/24 107/268/24
f 111/266/24 107/258/24 109/269/24
f 117/270/31 108/261/31 107/271/31
f 117/272/32 118/273/32 108/274/32
f 118/253/33 119/275/33 108/255/33
f 116/253/34 114/276/34 119/255/34
f 114/251/35 112/252/35 119/277/35
f 118/278/36 116/251/36 119/252/36
f 114/279/37 111/280/37 112/249/37
f 114/244/38 113/281/38 111/282/38
f 115/244/39 118/283/39 117/284/39
f 115/285/40 116/266/40 118/286/40
f 115/261/41 113/287/41 116/288/41
f 113/289/42 114/290/42 116/273/42
