# Blender 5.2.2 LTS
# www.blender.org
mtllib Chest_Base.mtl
o Chest_Base
v -1.500000 0.000000 -0.860000
v -1.500000 0.430000 -0.860000
v -1.500000 0.000000 -1.000000
v -1.500000 0.430000 -1.000000
v 1.500000 0.000000 -0.860000
v 1.500000 0.430000 -0.860000
v 1.500000 0.000000 -1.000000
v 1.500000 0.430000 -1.000000
v -1.500000 0.000000 1.000000
v -1.500000 0.430000 1.000000
v -1.500000 0.000000 0.860000
v -1.500000 0.430000 0.860000
v 1.500000 0.000000 1.000000
v 1.500000 0.430000 1.000000
v 1.500000 0.000000 0.860000
v 1.500000 0.430000 0.860000
v 1.360000 0.000000 0.860000
v 1.360000 0.430000 0.860000
v 1.360000 0.000000 -0.860000
v 1.360000 0.430000 -0.860000
v 1.500000 0.000000 0.860000
v 1.500000 0.430000 0.860000
v 1.500000 0.000000 -0.860000
v 1.500000 0.430000 -0.860000
v -1.500000 0.000000 0.860000
v -1.500000 0.430000 0.860000
v -1.500000 0.000000 -0.860000
v -1.500000 0.430000 -0.860000
v -1.360000 0.000000 0.860000
v -1.360000 0.430000 0.860000
v -1.360000 0.000000 -0.860000
v -1.360000 0.430000 -0.860000
v -1.500000 0.430000 -0.860000
v -1.500000 0.870000 -0.860000
v -1.500000 0.430000 -0.982000
v -1.500000 0.870000 -0.982000
v 1.500000 0.430000 -0.860000
v 1.500000 0.870000 -0.860000
v 1.500000 0.430000 -0.982000
v 1.500000 0.870000 -0.982000
v -1.500000 0.430000 0.982000
v -1.500000 0.870000 0.982000
v -1.500000 0.430000 0.860000
v -1.500000 0.870000 0.860000
v 1.500000 0.430000 0.982000
v 1.500000 0.870000 0.982000
v 1.500000 0.430000 0.860000
v 1.500000 0.870000 0.860000
v 1.360000 0.430000 0.860000
v 1.360000 0.870000 0.860000
v 1.360000 0.430000 -0.860000
v 1.360000 0.870000 -0.860000
v 1.482000 0.430000 0.860000
v 1.482000 0.870000 0.860000
v 1.482000 0.430000 -0.860000
v 1.482000 0.870000 -0.860000
v -1.482000 0.430000 0.860000
v -1.482000 0.870000 0.860000
v -1.482000 0.430000 -0.860000
v -1.482000 0.870000 -0.860000
v -1.360000 0.430000 0.860000
v -1.360000 0.870000 0.860000
v -1.360000 0.430000 -0.860000
v -1.360000 0.870000 -0.860000
v -1.500000 0.870000 -0.860000
v -1.500000 1.300000 -0.860000
v -1.500000 0.870000 -1.000000
v -1.500000 1.300000 -1.000000
v 1.500000 0.870000 -0.860000
v 1.500000 1.300000 -0.860000
v 1.500000 0.870000 -1.000000
v 1.500000 1.300000 -1.000000
v -1.500000 0.870000 1.000000
v -1.500000 1.300000 1.000000
v -1.500000 0.870000 0.860000
v -1.500000 1.300000 0.860000
v 1.500000 0.870000 1.000000
v 1.500000 1.300000 1.000000
v 1.500000 0.870000 0.860000
v 1.500000 1.300000 0.860000
v 1.360000 0.870000 0.860000
v 1.360000 1.300000 0.860000
v 1.360000 0.870000 -0.860000
v 1.360000 1.300000 -0.860000
v 1.500000 0.870000 0.860000
v 1.500000 1.300000 0.860000
v 1.500000 0.870000 -0.860000
v 1.500000 1.300000 -0.860000
v -1.500000 0.870000 0.860000
v -1.500000 1.300000 0.860000
v -1.500000 0.870000 -0.860000
v -1.500000 1.300000 -0.860000
v -1.360000 0.870000 0.860000
v -1.360000 1.300000 0.860000
v -1.360000 0.870000 -0.860000
v -1.360000 1.300000 -0.860000
v -1.360000 0.000000 0.860000
v -1.360000 0.120000 0.860000
v -1.360000 0.000000 -0.860000
v -1.360000 0.120000 -0.860000
v 1.360000 0.000000 0.860000
v 1.360000 0.120000 0.860000
v 1.360000 0.000000 -0.860000
v 1.360000 0.120000 -0.860000
v -1.360000 0.120000 0.860000
v -1.360000 1.000000 0.860000
v -1.360000 0.120000 -0.860000
v -1.360000 1.000000 -0.860000
v 1.360000 0.120000 0.860000
v 1.360000 1.000000 0.860000
v 1.360000 0.120000 -0.860000
v 1.360000 1.000000 -0.860000
v -1.033970 0.985000 0.434113
v -1.163836 1.002560 0.221213
v -1.276854 0.989868 0.375088
v -1.247593 0.974325 0.563540
v -1.093195 0.965034 0.676175
v -0.904104 0.967440 0.647013
v -0.791087 0.980132 0.493138
v -0.820347 0.995675 0.304687
v -0.974745 1.004966 0.192052
v -1.163836 1.062357 0.226145
v -1.276854 1.049665 0.380021
v -1.247593 1.034122 0.568472
v -1.093195 1.024831 0.681107
v -0.904104 1.027237 0.651946
v -0.791087 1.039929 0.498070
v -0.820347 1.055472 0.309619
v -0.974745 1.064762 0.196984
v -1.033970 1.044797 0.439045
v 0.074650 0.985000 -0.236892
v -0.136660 0.948494 -0.108379
v 0.019698 0.918357 -0.002287
v 0.208247 0.927259 -0.033624
v 0.318536 0.969984 -0.184031
v 0.285960 1.021506 -0.365404
v 0.129601 1.051643 -0.471496
v -0.058947 1.042741 -0.440159
v -0.169236 1.000016 -0.289752
v -0.136660 1.006211 -0.091984
v 0.019698 0.976074 0.014108
v 0.208247 0.984975 -0.017228
v 0.318536 1.027701 -0.167636
v 0.285960 1.079222 -0.349009
v 0.129601 1.109359 -0.455100
v -0.058947 1.100458 -0.423764
v -0.169236 1.057732 -0.273357
v 0.074650 1.042717 -0.220496
v -0.770454 0.985000 -0.039941
v -0.545265 0.980644 0.068553
v -0.534442 0.988308 -0.122329
v -0.661872 0.994033 -0.264949
v -0.852907 0.994467 -0.275763
v -0.995642 0.989356 -0.148435
v -1.006465 0.981692 0.042446
v -0.879035 0.975967 0.185067
v -0.688000 0.975533 0.195880
v -0.545265 1.040596 0.070960
v -0.534442 1.048259 -0.119922
v -0.661872 1.053985 -0.262542
v -0.852907 1.054419 -0.273356
v -0.995642 1.049307 -0.146028
v -1.006465 1.041644 0.044853
v -0.879035 1.035919 0.187473
v -0.688000 1.035484 0.198287
v -0.770454 1.044952 -0.037534
v -1.016823 0.985000 -0.492578
v -0.998919 0.966432 -0.243912
v -0.827840 0.972813 -0.329370
v -0.767465 0.986333 -0.510433
v -0.853161 0.999072 -0.681036
v -1.034727 1.003568 -0.741244
v -1.205806 0.997187 -0.655786
v -1.266181 0.983667 -0.474724
v -1.180485 0.970928 -0.304120
v -0.998919 1.026265 -0.239445
v -0.827840 1.032647 -0.324902
v -0.767465 1.046167 -0.505965
v -0.853161 1.058906 -0.676569
v -1.034727 1.063401 -0.736776
v -1.205806 1.057020 -0.651318
v -1.266181 1.043500 -0.470256
v -1.180485 1.030761 -0.299652
v -1.016823 1.044833 -0.488110
v 0.205336 0.985000 0.283849
v 0.429503 1.003942 0.392892
v 0.442106 0.971265 0.204783
v 0.316012 0.946633 0.062990
v 0.125086 0.944476 0.050573
v -0.018831 0.966057 0.174806
v -0.031434 0.998735 0.362915
v 0.094660 1.023367 0.504708
v 0.285586 1.025524 0.517125
v 0.429503 1.063057 0.382623
v 0.442106 1.030380 0.194514
v 0.316012 1.005748 0.052721
v 0.125086 1.003591 0.040304
v -0.018831 1.025172 0.164537
v -0.031434 1.057850 0.352646
v 0.094660 1.082482 0.494439
v 0.285586 1.084639 0.506856
v 0.205336 1.044115 0.273580
v -0.950685 0.985000 0.358523
v -1.093982 0.928289 0.555373
v -0.907156 0.916848 0.595083
v -0.745829 0.945330 0.496219
v -0.704504 0.997050 0.316695
v -0.807389 1.041711 0.161673
v -0.994215 1.053152 0.121963
v -1.155542 1.024670 0.220827
v -1.196867 0.972950 0.400351
v -1.093982 0.985944 0.571983
v -0.907156 0.974503 0.611693
v -0.745829 1.002985 0.512829
v -0.704504 1.054706 0.333305
v -0.807389 1.099367 0.178283
v -0.994215 1.110807 0.138573
v -1.155542 1.082325 0.237437
v -1.196867 1.030605 0.416961
v -0.950685 1.042655 0.375133
v 0.498297 0.985000 -0.412558
v 0.625689 1.009913 -0.198898
v 0.740481 0.992183 -0.350952
v 0.713405 0.970246 -0.539093
v 0.560321 0.956952 -0.653113
v 0.370905 0.960087 -0.626218
v 0.256113 0.977817 -0.474165
v 0.283190 0.999754 -0.286023
v 0.436273 1.013049 -0.172004
v 0.625689 1.069509 -0.205847
v 0.740481 1.051780 -0.357901
v 0.713405 1.029842 -0.546042
v 0.560321 1.016548 -0.660061
v 0.370905 1.019684 -0.633167
v 0.256113 1.037413 -0.481114
v 0.283190 1.059350 -0.292972
v 0.436273 1.072645 -0.178953
v 0.498297 1.044596 -0.419507
v -0.649119 0.985000 -0.157792
v -0.861689 0.956843 -0.029257
v -0.706386 0.932926 0.079924
v -0.517536 0.939513 0.049855
v -0.405766 0.972746 -0.101851
v -0.436549 1.013157 -0.286326
v -0.591852 1.037074 -0.395508
v -0.780701 1.030487 -0.365438
v -0.892471 0.997254 -0.213732
v -0.861689 1.015454 -0.016418
v -0.706386 0.991537 0.092763
v -0.517536 0.998124 0.062694
v -0.405766 1.031356 -0.089012
v -0.436549 1.071767 -0.273487
v -0.591852 1.095684 -0.382668
v -0.780701 1.089097 -0.352599
v -0.892471 1.055864 -0.200893
v -0.649119 1.043610 -0.144953
v 0.152425 0.985000 0.020357
v 0.398736 0.989942 0.062856
v 0.356847 0.968376 -0.122594
v 0.195210 0.956547 -0.224306
v 0.008510 0.961386 -0.182697
v -0.093887 0.980058 -0.022142
v -0.051998 1.001624 0.163308
v 0.109639 1.013453 0.265020
v 0.296339 1.008614 0.223411
v 0.398736 1.049541 0.055925
v 0.356847 1.027974 -0.129525
v 0.195210 1.016146 -0.231236
v 0.008510 1.020984 -0.189628
v -0.093887 1.039656 -0.029073
v -0.051998 1.061223 0.156377
v 0.109639 1.073051 0.258089
v 0.296339 1.068212 0.216480
v 0.152425 1.044598 0.013426
v 1.046233 0.985000 -0.324629
v 1.160755 0.952068 -0.104856
v 1.284350 0.973714 -0.249312
v 1.268459 1.001971 -0.437887
v 1.122391 1.020287 -0.560117
v 0.931711 1.017932 -0.544402
v 0.808115 0.996286 -0.399947
v 0.824006 0.968029 -0.211372
v 0.970074 0.949713 -0.089141
v 1.160755 1.011405 -0.095965
v 1.284350 1.033051 -0.240420
v 1.268459 1.061309 -0.428995
v 1.122391 1.079625 -0.551226
v 0.931711 1.077270 -0.535511
v 0.808115 1.055624 -0.391055
v 0.824006 1.027366 -0.202480
v 0.970074 1.009050 -0.080249
v 1.046233 1.044338 -0.315738
v 0.656582 1.051492 0.127627
v 0.708951 1.034736 0.162332
v 0.608951 1.042674 0.101579
v 0.658951 1.006966 0.080303
v 0.561320 1.051492 0.127627
v 0.558951 1.006966 0.080303
v 0.561320 1.069128 0.179723
v 0.508951 1.034736 0.162332
v 0.608951 1.077946 0.205770
v 0.558951 1.062505 0.244362
v 0.656582 1.069128 0.179723
v 0.658951 1.062505 0.244362
v 0.608951 0.958960 0.187985
v -0.800605 1.058313 -0.266395
v -0.748236 1.034961 -0.235737
v -0.848236 1.054877 -0.293680
v -0.798236 1.024141 -0.321661
v -0.895868 1.058313 -0.266395
v -0.898236 1.024141 -0.321661
v -0.895868 1.065185 -0.211826
v -0.948236 1.034961 -0.235737
v -0.848236 1.068621 -0.184542
v -0.898236 1.045781 -0.149813
v -0.800605 1.065185 -0.211826
v -0.798236 1.045781 -0.149813
v -0.848236 0.955588 -0.225742
v 0.870273 1.055390 -0.169357
v 0.922642 1.034885 -0.136726
v 0.822642 1.049518 -0.196223
v 0.872642 1.016393 -0.221332
v 0.775011 1.055390 -0.169357
v 0.772642 1.016393 -0.221332
v 0.775011 1.067134 -0.115626
v 0.722642 1.034885 -0.136726
v 0.822642 1.073006 -0.088760
v 0.772642 1.053377 -0.052121
v 0.870273 1.067134 -0.115626
v 0.872642 1.053377 -0.052121
v 0.822642 0.956730 -0.119644
v -1.530000 0.000000 1.030000
v -1.530000 1.310000 1.030000
v -1.530000 0.000000 0.830000
v -1.530000 1.310000 0.830000
v -1.330000 0.000000 1.030000
v -1.330000 1.310000 1.030000
v -1.330000 0.000000 0.830000
v -1.330000 1.310000 0.830000
v -1.530000 0.000000 -0.830000
v -1.530000 1.310000 -0.830000
v -1.530000 0.000000 -1.030000
v -1.530000 1.310000 -1.030000
v -1.330000 0.000000 -0.830000
v -1.330000 1.310000 -0.830000
v -1.330000 0.000000 -1.030000
v -1.330000 1.310000 -1.030000
v 1.330000 0.000000 1.030000
v 1.330000 1.310000 1.030000
v 1.330000 0.000000 0.830000
v 1.330000 1.310000 0.830000
v 1.530000 0.000000 1.030000
v 1.530000 1.310000 1.030000
v 1.530000 0.000000 0.830000
v 1.530000 1.310000 0.830000
v 1.330000 0.000000 -0.830000
v 1.330000 1.310000 -0.830000
v 1.330000 0.000000 -1.030000
v 1.330000 1.310000 -1.030000
v 1.530000 0.000000 -0.830000
v 1.530000 1.310000 -0.830000
v 1.530000 0.000000 -1.030000
v 1.530000 1.310000 -1.030000
v -0.940000 0.000000 -0.980000
v -0.940000 1.300000 -0.980000
v -0.940000 0.000000 -1.030000
v -0.940000 1.300000 -1.030000
v -0.760000 0.000000 -0.980000
v -0.760000 1.300000 -0.980000
v -0.760000 0.000000 -1.030000
v -0.760000 1.300000 -1.030000
v -0.940000 0.000000 1.030000
v -0.940000 1.300000 1.030000
v -0.940000 0.000000 0.980000
v -0.940000 1.300000 0.980000
v -0.760000 0.000000 1.030000
v -0.760000 1.300000 1.030000
v -0.760000 0.000000 0.980000
v -0.760000 1.300000 0.980000
v -0.970000 1.200000 1.070000
v -0.970000 1.350000 1.070000
v -0.970000 1.200000 0.990000
v -0.970000 1.350000 0.990000
v -0.730000 1.200000 1.070000
v -0.730000 1.350000 1.070000
v -0.730000 1.200000 0.990000
v -0.730000 1.350000 0.990000
v 0.760000 0.000000 -0.980000
v 0.760000 1.300000 -0.980000
v 0.760000 0.000000 -1.030000
v 0.760000 1.300000 -1.030000
v 0.940000 0.000000 -0.980000
v 0.940000 1.300000 -0.980000
v 0.940000 0.000000 -1.030000
v 0.940000 1.300000 -1.030000
v 0.760000 0.000000 1.030000
v 0.760000 1.300000 1.030000
v 0.760000 0.000000 0.980000
v 0.760000 1.300000 0.980000
v 0.940000 0.000000 1.030000
v 0.940000 1.300000 1.030000
v 0.940000 0.000000 0.980000
v 0.940000 1.300000 0.980000
v 0.730000 1.200000 1.070000
v 0.730000 1.350000 1.070000
v 0.730000 1.200000 0.990000
v 0.730000 1.350000 0.990000
v 0.970000 1.200000 1.070000
v 0.970000 1.350000 1.070000
v 0.970000 1.200000 0.990000
v 0.970000 1.350000 0.990000
v -1.330000 1.220000 -0.860000
v -1.330000 1.315000 -0.860000
v -1.330000 1.220000 -1.022000
v -1.330000 1.315000 -1.022000
v 1.330000 1.220000 -0.860000
v 1.330000 1.315000 -0.860000
v 1.330000 1.220000 -1.022000
v 1.330000 1.315000 -1.022000
v -1.330000 1.220000 1.022000
v -1.330000 1.315000 1.022000
v -1.330000 1.220000 0.860000
v -1.330000 1.315000 0.860000
v 1.330000 1.220000 1.022000
v 1.330000 1.315000 1.022000
v 1.330000 1.220000 0.860000
v 1.330000 1.315000 0.860000
v 1.360000 1.220000 0.830000
v 1.360000 1.315000 0.830000
v 1.360000 1.220000 -0.830000
v 1.360000 1.315000 -0.830000
v 1.522000 1.220000 0.830000
v 1.522000 1.315000 0.830000
v 1.522000 1.220000 -0.830000
v 1.522000 1.315000 -0.830000
v -1.522000 1.220000 0.830000
v -1.522000 1.315000 0.830000
v -1.522000 1.220000 -0.830000
v -1.522000 1.315000 -0.830000
v -1.360000 1.220000 0.830000
v -1.360000 1.315000 0.830000
v -1.360000 1.220000 -0.830000
v -1.360000 1.315000 -0.830000
v -0.190000 0.780000 -1.000000
v -0.190000 1.200000 -1.000000
v -0.190000 0.780000 -1.045000
v -0.190000 1.200000 -1.045000
v 0.190000 0.780000 -1.000000
v 0.190000 1.200000 -1.000000
v 0.190000 0.780000 -1.045000
v 0.190000 1.200000 -1.045000
v -0.035000 0.900000 -1.045000
v -0.035000 1.040000 -1.045000
v -0.035000 0.900000 -1.055000
v -0.035000 1.040000 -1.055000
v 0.035000 0.900000 -1.045000
v 0.035000 1.040000 -1.045000
v 0.035000 0.900000 -1.055000
v 0.035000 1.040000 -1.055000
vn -0.0000 -1.0000 -0.0000
vn -0.0000 -0.0000 1.0000
vn -1.0000 -0.0000 -0.0000
vn -0.0000 -0.0000 -1.0000
vn 1.0000 -0.0000 -0.0000
vn -0.0000 1.0000 -0.0000
vn -0.0000 -0.9966 -0.0822
vn -0.8069 0.0486 -0.5887
vn -0.9882 -0.0126 0.1524
vn -0.5907 -0.0663 0.8042
vn 0.1529 -0.0812 0.9849
vn 0.8069 -0.0486 0.5887
vn 0.9882 0.0126 -0.1524
vn 0.5907 0.0663 -0.8042
vn -0.1529 0.0812 -0.9849
vn -0.0000 0.9966 0.0822
vn -0.0000 -0.9619 -0.2733
vn -0.5764 -0.2233 0.7861
vn 0.1703 -0.2693 0.9479
vn 0.8172 -0.1575 0.5545
vn 0.9854 0.0465 -0.1638
vn 0.5764 0.2233 -0.7861
vn -0.1703 0.2693 -0.9479
vn -0.8172 0.1575 -0.5545
vn -0.9854 -0.0465 0.1638
vn -0.0000 0.9619 0.2733
vn -0.0000 -0.9992 -0.0401
vn 0.9984 -0.0023 0.0565
vn 0.7460 0.0267 -0.6654
vn 0.0566 0.0400 -0.9976
vn -0.6660 0.0299 -0.7454
vn -0.9984 0.0023 -0.0565
vn -0.7460 -0.0267 0.6654
vn -0.0566 -0.0400 0.9976
vn 0.6660 -0.0299 0.7454
vn -0.0000 0.9992 0.0401
vn -0.0000 -0.9972 -0.0745
vn 0.4479 -0.0666 0.8916
vn 0.9489 -0.0235 0.3147
vn 0.8941 0.0333 -0.4466
vn 0.3155 0.0707 -0.9463
vn -0.4479 0.0666 -0.8916
vn -0.9489 0.0235 -0.3147
vn -0.8941 -0.0333 0.4466
vn -0.3155 -0.0707 0.9463
vn -0.0000 0.9972 0.0745
vn -0.0000 -0.9852 0.1712
vn 0.9978 0.0113 0.0649
vn 0.7521 -0.1128 -0.6493
vn 0.0659 -0.1708 -0.9831
vn -0.6590 -0.1287 -0.7410
vn -0.9978 -0.0113 -0.0649
vn -0.7521 0.1128 0.6493
vn -0.0659 0.1708 0.9831
vn 0.6590 0.1287 0.7410
vn -0.0000 0.9852 -0.1712
vn -0.0000 -0.9609 -0.2768
vn -0.2160 -0.2703 0.9382
vn 0.5377 -0.2334 0.8102
vn 0.9764 -0.0598 0.2075
vn 0.8431 0.1489 -0.5167
vn 0.2160 0.2703 -0.9382
vn -0.5377 0.2334 -0.8102
vn -0.9764 0.0598 -0.2075
vn -0.8431 -0.1489 0.5167
vn -0.0000 0.9609 0.2768
vn -0.0000 -0.9933 0.1158
vn 0.8001 0.0695 0.5959
vn 0.9899 -0.0164 -0.1406
vn 0.5999 -0.0927 -0.7947
vn -0.1415 -0.1146 -0.9833
vn -0.8001 -0.0695 -0.5959
vn -0.9899 0.0164 0.1406
vn -0.5999 0.0927 0.7947
vn 0.1415 0.1146 0.9833
vn -0.0000 0.9933 -0.1158
vn -0.0000 -0.9768 -0.2140
vn -0.5841 -0.1737 0.7929
vn 0.1609 -0.2112 0.9641
vn 0.8117 -0.1250 0.5706
vn 0.9870 0.0344 -0.1572
vn 0.5841 0.1737 -0.7929
vn -0.1609 0.2112 -0.9641
vn -0.8117 0.1250 -0.5706
vn -0.9870 -0.0344 0.1571
vn -0.0000 0.9768 0.2140
vn -0.0000 -0.9933 0.1155
vn 0.9757 -0.0253 -0.2175
vn 0.5352 -0.0976 -0.8391
vn -0.2189 -0.1127 -0.9692
vn -0.8448 -0.0618 -0.5316
vn -0.9757 0.0253 0.2175
vn -0.5352 0.0976 0.8391
vn 0.2189 0.1127 0.9692
vn 0.8448 0.0618 0.5316
vn -0.0000 0.9933 -0.1155
vn -0.0000 -0.9890 -0.1482
vn 0.7634 -0.0957 0.6388
vn 0.9965 0.0123 -0.0821
vn 0.6459 0.1131 -0.7550
vn -0.0830 0.1477 -0.9855
vn -0.7634 0.0957 -0.6388
vn -0.9965 -0.0123 0.0821
vn -0.6459 -0.1131 0.7550
vn 0.0830 -0.1477 0.9855
vn -0.0000 0.9890 0.1482
vn 0.2291 0.7146 -0.6609
vn 0.5625 0.6160 -0.5514
vn 0.5876 -0.8046 -0.0858
vn -0.0000 -0.9133 -0.4072
vn -0.0000 0.5119 -0.8591
vn -0.2291 0.7146 -0.6609
vn -0.0000 0.9472 -0.3207
vn 0.4583 0.8419 -0.2850
vn 0.5625 0.8243 0.0638
vn 0.5876 -0.5870 0.5569
vn -0.5876 -0.5870 0.5569
vn -0.5876 -0.8046 -0.0858
vn -0.0000 -0.4782 0.8783
vn -0.5625 0.6160 -0.5514
vn -0.4583 0.8419 -0.2850
vn -0.2291 0.9691 0.0909
vn -0.0000 0.9284 0.3715
vn 0.2291 0.9691 0.0909
vn -0.5625 0.8243 0.0638
vn 0.2291 0.8323 -0.5048
vn 0.5625 0.7138 -0.4172
vn 0.5876 -0.7712 -0.2448
vn -0.0000 -0.8136 -0.5815
vn -0.0000 0.6732 -0.7395
vn -0.2291 0.8323 -0.5048
vn -0.0000 0.9922 -0.1249
vn 0.4583 0.8819 -0.1110
vn 0.5625 0.7949 0.2272
vn 0.5876 -0.6864 0.4284
vn -0.5876 -0.6864 0.4284
vn -0.5876 -0.7712 -0.2448
vn -0.0000 -0.6440 0.7650
vn -0.5625 0.7138 -0.4172
vn -0.4583 0.8819 -0.1110
vn -0.2291 0.9314 0.2827
vn -0.0000 0.8355 0.5495
vn 0.2291 0.9314 0.2827
vn -0.5625 0.7949 0.2272
vn 0.2291 0.7836 -0.5775
vn 0.5625 0.6734 -0.4796
vn 0.5876 -0.7901 -0.1746
vn -0.0000 -0.8625 -0.5061
vn -0.0000 0.6041 -0.7969
vn -0.0000 0.9769 -0.2135
vn -0.2291 0.7836 -0.5775
vn 0.4583 0.8683 -0.1898
vn 0.5625 0.8121 0.1549
vn 0.5876 -0.6452 0.4883
vn -0.5876 -0.6452 0.4883
vn -0.5876 -0.7901 -0.1746
vn -0.0000 -0.5727 0.8197
vn -0.5625 0.6734 -0.4796
vn 0.2291 0.9531 0.1979
vn -0.4583 0.8683 -0.1898
vn -0.5625 0.8121 0.1550
vn -0.2291 0.9531 0.1979
vn -0.0000 0.8815 0.4722
vn -0.1702 0.2693 -0.9479
vn -0.1415 -0.1147 -0.9833
vn -0.9870 -0.0344 0.1572
vt 0.225000 0.350000
vt 0.150000 0.278344
vt 0.153500 0.275000
vt 0.221500 0.350000
vt 0.150000 0.275000
vt 0.225000 0.346656
vt 0.535750 0.350000
vt 0.525000 0.340598
vt 0.600000 0.275000
vt 0.525000 0.350000
vt 0.589250 0.275000
vt 0.600000 0.284402
vt 0.174419 0.350000
vt 0.150000 0.331579
vt 0.225000 0.275000
vt 0.150000 0.350000
vt 0.200581 0.275000
vt 0.225000 0.293421
vt 0.275000 0.275000
vt 0.350000 0.340598
vt 0.339250 0.350000
vt 0.285750 0.275000
vt 0.350000 0.350000
vt 0.275000 0.284402
vt 0.225000 0.331579
vt 0.200581 0.350000
vt 0.174419 0.275000
vt 0.150000 0.293421
vt 0.471500 0.275000
vt 0.475000 0.278344
vt 0.400000 0.350000
vt 0.475000 0.275000
vt 0.403500 0.350000
vt 0.400000 0.346656
vt 0.285750 0.350000
vt 0.275000 0.340598
vt 0.350000 0.275000
vt 0.275000 0.350000
vt 0.339250 0.275000
vt 0.350000 0.284402
vt 0.525000 0.275000
vt 0.600000 0.340598
vt 0.589250 0.350000
vt 0.535750 0.275000
vt 0.600000 0.350000
vt 0.525000 0.284402
vt 0.475000 0.350000
vt 0.400000 0.280645
vt 0.406105 0.275000
vt 0.468895 0.350000
vt 0.400000 0.275000
vt 0.475000 0.344355
vt 0.293750 0.350000
vt 0.275000 0.335000
vt 0.331250 0.275000
vt 0.350000 0.290000
vt 0.600000 0.335000
vt 0.581250 0.350000
vt 0.543750 0.275000
vt 0.525000 0.290000
vt 0.218895 0.275000
vt 0.225000 0.280645
vt 0.156105 0.350000
vt 0.150000 0.344355
vt 0.543750 0.350000
vt 0.525000 0.335000
vt 0.581250 0.275000
vt 0.600000 0.290000
vt 0.350000 0.335000
vt 0.331250 0.350000
vt 0.293750 0.275000
vt 0.275000 0.290000
vt 0.150000 0.277931
vt 0.153050 0.275000
vt 0.221950 0.350000
vt 0.225000 0.347069
vt 0.536000 0.350000
vt 0.525000 0.340407
vt 0.589000 0.275000
vt 0.600000 0.284593
vt 0.170795 0.350000
vt 0.150000 0.333719
vt 0.204205 0.275000
vt 0.225000 0.291281
vt 0.475000 0.340407
vt 0.464000 0.350000
vt 0.411000 0.275000
vt 0.400000 0.284593
vt 0.225000 0.333719
vt 0.204205 0.350000
vt 0.170795 0.275000
vt 0.150000 0.291281
vt 0.471950 0.275000
vt 0.475000 0.277931
vt 0.403050 0.350000
vt 0.400000 0.347069
vt 0.411000 0.350000
vt 0.400000 0.340407
vt 0.464000 0.275000
vt 0.475000 0.284593
vt 0.600000 0.340407
vt 0.589000 0.350000
vt 0.536000 0.275000
vt 0.525000 0.284593
vt 0.400000 0.279967
vt 0.405320 0.275000
vt 0.469680 0.350000
vt 0.475000 0.345033
vt 0.419186 0.350000
vt 0.400000 0.334722
vt 0.455814 0.275000
vt 0.475000 0.290278
vt 0.170795 0.350000
vt 0.204205 0.275000
vt 0.600000 0.334722
vt 0.580814 0.350000
vt 0.544186 0.275000
vt 0.525000 0.290278
vt 0.204205 0.350000
vt 0.170795 0.275000
vt 0.219680 0.275000
vt 0.225000 0.279967
vt 0.155320 0.350000
vt 0.150000 0.345033
vt 0.544186 0.350000
vt 0.525000 0.334722
vt 0.580814 0.275000
vt 0.600000 0.290278
vt 0.475000 0.334722
vt 0.455814 0.350000
vt 0.419186 0.275000
vt 0.400000 0.290278
vt 0.525000 0.278169
vt 0.528309 0.275000
vt 0.596691 0.350000
vt 0.600000 0.346831
vt 0.572426 0.350000
vt 0.525000 0.320946
vt 0.552574 0.275000
vt 0.600000 0.304054
vt 0.530233 0.350000
vt 0.525000 0.345109
vt 0.594767 0.275000
vt 0.600000 0.279891
vt 0.600000 0.320946
vt 0.552574 0.350000
vt 0.572426 0.275000
vt 0.525000 0.304054
vt 0.600000 0.345109
vt 0.594767 0.350000
vt 0.530233 0.275000
vt 0.525000 0.279891
vt 0.596691 0.275000
vt 0.600000 0.278169
vt 0.528309 0.350000
vt 0.525000 0.346831
vt 0.100000 0.100000
vt 0.025000 0.043333
vt 0.049265 0.025000
vt 0.075735 0.100000
vt 0.025000 0.025000
vt 0.100000 0.081667
vt 0.197426 0.100000
vt 0.150000 0.070946
vt 0.225000 0.025000
vt 0.150000 0.100000
vt 0.177574 0.025000
vt 0.225000 0.054054
vt 0.063372 0.100000
vt 0.025000 0.074615
vt 0.100000 0.025000
vt 0.025000 0.100000
vt 0.061628 0.025000
vt 0.100000 0.050385
vt 0.100000 0.070946
vt 0.052574 0.100000
vt 0.072426 0.025000
vt 0.025000 0.054054
vt 0.100000 0.074615
vt 0.061628 0.100000
vt 0.063372 0.025000
vt 0.025000 0.050385
vt 0.075735 0.025000
vt 0.100000 0.043333
vt 0.049265 0.100000
vt 0.025000 0.081667
vt 0.048648 0.025000
vt 0.100000 0.091060
vt 0.100000 0.045916
vt 0.065006 0.100000
vt 0.025000 0.076352
vt 0.091060 0.025000
vt 0.045916 0.025000
vt 0.100000 0.059994
vt 0.076352 0.100000
vt 0.025000 0.033940
vt 0.025000 0.079084
vt 0.059994 0.025000
vt 0.100000 0.048648
vt 0.033940 0.100000
vt 0.079084 0.100000
vt 0.025000 0.065006
vt 0.163245 0.025000
vt 0.211755 0.100000
vt 0.150000 0.048576
vt 0.225000 0.079571
vt 0.150000 0.045429
vt 0.165602 0.025000
vt 0.225000 0.045067
vt 0.150000 0.079933
vt 0.209094 0.025000
vt 0.225000 0.043195
vt 0.150000 0.081805
vt 0.207384 0.025000
vt 0.211755 0.025000
vt 0.163245 0.100000
vt 0.150000 0.076424
vt 0.150000 0.079571
vt 0.225000 0.045429
vt 0.165602 0.100000
vt 0.150000 0.045067
vt 0.225000 0.079933
vt 0.209094 0.100000
vt 0.150000 0.043195
vt 0.225000 0.081805
vt 0.207384 0.100000
vt 0.350000 0.100000
vt 0.275000 0.091060
vt 0.326352 0.025000
vt 0.309994 0.100000
vt 0.275000 0.045916
vt 0.350000 0.025000
vt 0.275000 0.100000
vt 0.283940 0.025000
vt 0.350000 0.076352
vt 0.275000 0.059994
vt 0.329084 0.025000
vt 0.275000 0.025000
vt 0.350000 0.033940
vt 0.298648 0.100000
vt 0.315006 0.025000
vt 0.350000 0.079084
vt 0.341060 0.100000
vt 0.275000 0.048648
vt 0.350000 0.065006
vt 0.295916 0.100000
vt 0.025000 0.076339
vt 0.091068 0.025000
vt 0.045926 0.025000
vt 0.100000 0.060002
vt 0.076339 0.100000
vt 0.025000 0.033932
vt 0.025000 0.079074
vt 0.060002 0.025000
vt 0.100000 0.048661
vt 0.033932 0.100000
vt 0.079074 0.100000
vt 0.025000 0.064998
vt 0.048661 0.025000
vt 0.100000 0.091068
vt 0.100000 0.045926
vt 0.064998 0.100000
vt 0.168084 0.100000
vt 0.206916 0.025000
vt 0.225000 0.042725
vt 0.225000 0.043237
vt 0.150000 0.081763
vt 0.207425 0.025000
vt 0.215624 0.025000
vt 0.159376 0.100000
vt 0.150000 0.069425
vt 0.213978 0.025000
vt 0.161022 0.100000
vt 0.150000 0.072748
vt 0.150000 0.042725
vt 0.225000 0.082275
vt 0.206916 0.100000
vt 0.150000 0.043237
vt 0.225000 0.081763
vt 0.207425 0.100000
vt 0.225000 0.069425
vt 0.150000 0.055575
vt 0.159376 0.025000
vt 0.161022 0.025000
vt 0.213978 0.100000
vt 0.150000 0.052252
vt 0.158932 0.025000
vt 0.225000 0.076339
vt 0.150000 0.060002
vt 0.204074 0.025000
vt 0.225000 0.100000
vt 0.150000 0.025000
vt 0.225000 0.033932
vt 0.173661 0.100000
vt 0.189998 0.025000
vt 0.225000 0.079074
vt 0.216068 0.100000
vt 0.150000 0.048661
vt 0.225000 0.064998
vt 0.170926 0.100000
vt 0.150000 0.091068
vt 0.201339 0.025000
vt 0.185002 0.100000
vt 0.150000 0.045926
vt 0.025000 0.065471
vt 0.072565 0.025000
vt 0.100000 0.067665
vt 0.028463 0.025000
vt 0.065471 0.100000
vt 0.025000 0.052435
vt 0.067665 0.025000
vt 0.025000 0.096537
vt 0.100000 0.059529
vt 0.052435 0.100000
vt 0.025000 0.057335
vt 0.096537 0.100000
vt 0.059529 0.025000
vt 0.100000 0.072565
vt 0.057335 0.100000
vt 0.100000 0.028463
vt 0.208189 0.025000
vt 0.166811 0.100000
vt 0.150000 0.080956
vt 0.211685 0.025000
vt 0.163315 0.100000
vt 0.150000 0.076528
vt 0.150000 0.042884
vt 0.225000 0.082116
vt 0.207076 0.100000
vt 0.211188 0.100000
vt 0.163812 0.025000
vt 0.225000 0.077242
vt 0.225000 0.080955
vt 0.150000 0.044045
vt 0.166811 0.025000
vt 0.225000 0.076528
vt 0.150000 0.048472
vt 0.163315 0.025000
vt 0.167924 0.100000
vt 0.207076 0.025000
vt 0.225000 0.042884
vt 0.163812 0.100000
vt 0.211188 0.025000
vt 0.225000 0.047758
vt 0.427435 0.025000
vt 0.475000 0.065471
vt 0.400000 0.100000
vt 0.471537 0.025000
vt 0.475000 0.100000
vt 0.400000 0.067665
vt 0.475000 0.052435
vt 0.434529 0.100000
vt 0.400000 0.025000
vt 0.475000 0.096537
vt 0.432335 0.025000
vt 0.447565 0.100000
vt 0.400000 0.059529
vt 0.475000 0.025000
vt 0.403463 0.100000
vt 0.475000 0.057335
vt 0.400000 0.072565
vt 0.440471 0.025000
vt 0.400000 0.028463
vt 0.442665 0.100000
vt 0.032256 0.100000
vt 0.100000 0.043233
vt 0.025000 0.050701
vt 0.093024 0.025000
vt 0.100000 0.092744
vt 0.043233 0.025000
vt 0.050701 0.100000
vt 0.025000 0.031976
vt 0.092744 0.025000
vt 0.025000 0.081767
vt 0.100000 0.074299
vt 0.031976 0.100000
vt 0.025000 0.032256
vt 0.081767 0.100000
vt 0.074299 0.025000
vt 0.100000 0.093024
vt 0.165976 0.100000
vt 0.209024 0.025000
vt 0.225000 0.044986
vt 0.209704 0.025000
vt 0.165296 0.100000
vt 0.150000 0.079199
vt 0.210415 0.025000
vt 0.164585 0.100000
vt 0.150000 0.078293
vt 0.150000 0.043250
vt 0.225000 0.081750
vt 0.207437 0.100000
vt 0.150000 0.044986
vt 0.225000 0.080014
vt 0.209024 0.100000
vt 0.165296 0.025000
vt 0.209704 0.100000
vt 0.150000 0.045801
vt 0.164585 0.025000
vt 0.210415 0.100000
vt 0.150000 0.046707
vt 0.167563 0.100000
vt 0.207437 0.025000
vt 0.225000 0.043250
vt 0.275000 0.043233
vt 0.342744 0.100000
vt 0.281976 0.025000
vt 0.350000 0.050701
vt 0.331767 0.025000
vt 0.275000 0.092744
vt 0.350000 0.031976
vt 0.324299 0.100000
vt 0.350000 0.081767
vt 0.282256 0.025000
vt 0.343024 0.100000
vt 0.275000 0.074299
vt 0.293233 0.100000
vt 0.350000 0.032256
vt 0.275000 0.093024
vt 0.300701 0.025000
vt 0.025000 0.064504
vt 0.073643 0.025000
vt 0.100000 0.069152
vt 0.029430 0.025000
vt 0.064504 0.100000
vt 0.025000 0.051357
vt 0.069152 0.025000
vt 0.025000 0.095570
vt 0.100000 0.060496
vt 0.051357 0.100000
vt 0.025000 0.055848
vt 0.095570 0.100000
vt 0.060496 0.025000
vt 0.100000 0.073643
vt 0.055848 0.100000
vt 0.100000 0.029430
vt 0.201923 0.025000
vt 0.173077 0.100000
vt 0.150000 0.086413
vt 0.206179 0.025000
vt 0.168821 0.100000
vt 0.150000 0.082982
vt 0.207078 0.100000
vt 0.167922 0.025000
vt 0.225000 0.082114
vt 0.150000 0.044739
vt 0.225000 0.080261
vt 0.208810 0.100000
vt 0.173077 0.025000
vt 0.201923 0.100000
vt 0.150000 0.038587
vt 0.168821 0.025000
vt 0.206179 0.100000
vt 0.150000 0.042018
vt 0.167922 0.100000
vt 0.207078 0.025000
vt 0.225000 0.042886
vt 0.166190 0.100000
vt 0.208810 0.025000
vt 0.225000 0.044739
vt 0.426357 0.025000
vt 0.475000 0.064504
vt 0.470570 0.025000
vt 0.400000 0.069152
vt 0.475000 0.051357
vt 0.435496 0.100000
vt 0.475000 0.095570
vt 0.430848 0.025000
vt 0.448643 0.100000
vt 0.400000 0.060496
vt 0.404430 0.100000
vt 0.475000 0.055848
vt 0.400000 0.073643
vt 0.439504 0.025000
vt 0.400000 0.029430
vt 0.444152 0.100000
vt 0.069742 0.025000
vt 0.100000 0.085660
vt 0.040574 0.100000
vt 0.100000 0.038676
vt 0.025000 0.055258
vt 0.085660 0.025000
vt 0.100000 0.084426
vt 0.038676 0.025000
vt 0.055258 0.100000
vt 0.025000 0.039340
vt 0.084426 0.025000
vt 0.025000 0.086324
vt 0.100000 0.069742
vt 0.039340 0.100000
vt 0.025000 0.040574
vt 0.086324 0.100000
vt 0.168952 0.100000
vt 0.206048 0.025000
vt 0.225000 0.041896
vt 0.163854 0.100000
vt 0.211146 0.025000
vt 0.225000 0.047699
vt 0.214146 0.025000
vt 0.160854 0.100000
vt 0.150000 0.072436
vt 0.215438 0.025000
vt 0.159562 0.100000
vt 0.150000 0.069832
vt 0.150000 0.041896
vt 0.225000 0.083104
vt 0.206048 0.100000
vt 0.150000 0.047699
vt 0.225000 0.077301
vt 0.211146 0.100000
vt 0.225000 0.072436
vt 0.150000 0.052564
vt 0.160854 0.025000
vt 0.159562 0.025000
vt 0.215438 0.100000
vt 0.150000 0.055168
vt 0.275000 0.085660
vt 0.305258 0.025000
vt 0.275000 0.038676
vt 0.334427 0.100000
vt 0.289340 0.025000
vt 0.350000 0.055258
vt 0.336324 0.025000
vt 0.275000 0.084426
vt 0.350000 0.039340
vt 0.319742 0.100000
vt 0.350000 0.086324
vt 0.290574 0.025000
vt 0.335660 0.100000
vt 0.275000 0.069742
vt 0.288676 0.100000
vt 0.350000 0.040574
vt 0.075130 0.100000
vt 0.025000 0.033194
vt 0.025000 0.078133
vt 0.060740 0.025000
vt 0.100000 0.049870
vt 0.033194 0.100000
vt 0.078133 0.100000
vt 0.025000 0.064260
vt 0.049870 0.025000
vt 0.100000 0.091806
vt 0.100000 0.046867
vt 0.064260 0.100000
vt 0.025000 0.075130
vt 0.091806 0.025000
vt 0.046867 0.025000
vt 0.100000 0.060740
vt 0.206943 0.025000
vt 0.168057 0.100000
vt 0.150000 0.082248
vt 0.203865 0.025000
vt 0.171135 0.100000
vt 0.150000 0.084971
vt 0.210944 0.100000
vt 0.164056 0.025000
vt 0.225000 0.077582
vt 0.206918 0.100000
vt 0.168082 0.025000
vt 0.225000 0.082273
vt 0.225000 0.082248
vt 0.150000 0.042752
vt 0.168057 0.025000
vt 0.225000 0.084971
vt 0.150000 0.040029
vt 0.171135 0.025000
vt 0.225000 0.047417
vt 0.150000 0.077583
vt 0.210944 0.025000
vt 0.225000 0.042727
vt 0.150000 0.082273
vt 0.206918 0.025000
vt 0.350000 0.033194
vt 0.299870 0.100000
vt 0.314260 0.025000
vt 0.350000 0.078133
vt 0.341806 0.100000
vt 0.275000 0.049870
vt 0.350000 0.064260
vt 0.296867 0.100000
vt 0.275000 0.091806
vt 0.325130 0.025000
vt 0.310740 0.100000
vt 0.275000 0.046867
vt 0.283194 0.025000
vt 0.350000 0.075130
vt 0.275000 0.060740
vt 0.328133 0.025000
vt 0.025000 0.076170
vt 0.091171 0.025000
vt 0.046059 0.025000
vt 0.100000 0.060105
vt 0.076170 0.100000
vt 0.025000 0.033829
vt 0.025000 0.078941
vt 0.060105 0.025000
vt 0.100000 0.048830
vt 0.033829 0.100000
vt 0.078941 0.100000
vt 0.025000 0.064895
vt 0.048830 0.025000
vt 0.100000 0.091171
vt 0.100000 0.046059
vt 0.064895 0.100000
vt 0.167338 0.100000
vt 0.207662 0.025000
vt 0.225000 0.043483
vt 0.167563 0.100000
vt 0.207437 0.025000
vt 0.225000 0.043249
vt 0.214486 0.025000
vt 0.160514 0.100000
vt 0.150000 0.071785
vt 0.212591 0.025000
vt 0.162409 0.100000
vt 0.150000 0.075135
vt 0.207662 0.100000
vt 0.167338 0.025000
vt 0.225000 0.081517
vt 0.150000 0.043249
vt 0.225000 0.081751
vt 0.207437 0.100000
vt 0.225000 0.071785
vt 0.150000 0.053215
vt 0.160514 0.025000
vt 0.225000 0.075135
vt 0.150000 0.049865
vt 0.162409 0.025000
vt 0.283829 0.025000
vt 0.350000 0.076170
vt 0.275000 0.060105
vt 0.328941 0.025000
vt 0.350000 0.033829
vt 0.298830 0.100000
vt 0.314895 0.025000
vt 0.350000 0.078941
vt 0.341171 0.100000
vt 0.275000 0.048830
vt 0.350000 0.064895
vt 0.296059 0.100000
vt 0.275000 0.091171
vt 0.326170 0.025000
vt 0.310105 0.100000
vt 0.275000 0.046059
vt 0.025000 0.084037
vt 0.056363 0.025000
vt 0.100000 0.042507
vt 0.037571 0.100000
vt 0.084037 0.100000
vt 0.025000 0.068637
vt 0.042507 0.025000
vt 0.100000 0.087429
vt 0.100000 0.040963
vt 0.068637 0.100000
vt 0.025000 0.082493
vt 0.087429 0.025000
vt 0.040963 0.025000
vt 0.100000 0.056363
vt 0.082493 0.100000
vt 0.025000 0.037571
vt 0.150000 0.084789
vt 0.225000 0.040211
vt 0.170907 0.100000
vt 0.210136 0.100000
vt 0.164864 0.025000
vt 0.225000 0.078655
vt 0.150000 0.042799
vt 0.225000 0.082201
vt 0.206990 0.100000
vt 0.225000 0.082966
vt 0.150000 0.042034
vt 0.168804 0.025000
vt 0.225000 0.084789
vt 0.150000 0.040211
vt 0.170907 0.025000
vt 0.164864 0.100000
vt 0.210136 0.025000
vt 0.225000 0.046345
vt 0.168010 0.100000
vt 0.206990 0.025000
vt 0.225000 0.042799
vt 0.206196 0.025000
vt 0.168804 0.100000
vt 0.150000 0.082966
vt 0.318637 0.025000
vt 0.350000 0.084037
vt 0.337429 0.100000
vt 0.275000 0.042507
vt 0.350000 0.068637
vt 0.290963 0.100000
vt 0.275000 0.087429
vt 0.332493 0.025000
vt 0.306363 0.100000
vt 0.275000 0.040963
vt 0.287571 0.025000
vt 0.350000 0.082493
vt 0.275000 0.056363
vt 0.334037 0.025000
vt 0.350000 0.037571
vt 0.292507 0.100000
vt 0.069539 0.100000
vt 0.025000 0.029680
vt 0.025000 0.073925
vt 0.064254 0.025000
vt 0.100000 0.055461
vt 0.029680 0.100000
vt 0.073926 0.100000
vt 0.025000 0.060746
vt 0.055461 0.025000
vt 0.100000 0.095320
vt 0.100000 0.051075
vt 0.060746 0.100000
vt 0.025000 0.069539
vt 0.095320 0.025000
vt 0.051075 0.025000
vt 0.100000 0.064254
vt 0.150000 0.073214
vt 0.225000 0.051786
vt 0.161278 0.100000
vt 0.150000 0.077610
vt 0.225000 0.047390
vt 0.164076 0.100000
vt 0.150000 0.044892
vt 0.225000 0.080108
vt 0.208944 0.100000
vt 0.150000 0.042969
vt 0.225000 0.082031
vt 0.207161 0.100000
vt 0.225000 0.073214
vt 0.150000 0.051786
vt 0.161278 0.025000
vt 0.225000 0.077610
vt 0.150000 0.047390
vt 0.164076 0.025000
vt 0.166056 0.100000
vt 0.208944 0.025000
vt 0.225000 0.044892
vt 0.167839 0.100000
vt 0.207161 0.025000
vt 0.225000 0.042969
vt 0.475000 0.029680
vt 0.430461 0.100000
vt 0.435746 0.025000
vt 0.475000 0.073925
vt 0.470320 0.100000
vt 0.400000 0.055461
vt 0.475000 0.060746
vt 0.426075 0.100000
vt 0.400000 0.095320
vt 0.444539 0.025000
vt 0.439254 0.100000
vt 0.400000 0.051075
vt 0.404680 0.025000
vt 0.475000 0.069539
vt 0.400000 0.064254
vt 0.448925 0.025000
vt 0.400000 0.475000
vt 0.406869 0.400000
vt 0.475000 0.445761
vt 0.525000 0.449463
vt 0.552627 0.400000
vt 0.600000 0.475000
vt 0.278330 0.400000
vt 0.350000 0.442234
vt 0.275000 0.475000
vt 0.350000 0.400000
vt 0.316880 0.475000
vt 0.275000 0.427436
vt 0.525000 0.400000
vt 0.598789 0.410719
vt 0.468213 0.475000
vt 0.400000 0.422711
vt 0.475000 0.400000
vt 0.550489 0.475000
vt 0.600000 0.462130
vt 0.600000 0.421964
vt 0.589647 0.475000
vt 0.525000 0.431073
vt 0.567677 0.400000
vt 0.400000 0.430128
vt 0.450687 0.475000
vt 0.554361 0.475000
vt 0.600000 0.435850
vt 0.311602 0.475000
vt 0.275000 0.400000
vt 0.350000 0.423507
vt 0.313398 0.475000
vt 0.275000 0.423507
vt 0.350000 0.459765
vt 0.288930 0.400000
vt 0.275000 0.448846
vt 0.315708 0.400000
vt 0.350000 0.475000
vt 0.525000 0.426658
vt 0.574824 0.400000
vt 0.434844 0.400000
vt 0.475000 0.456010
vt 0.525000 0.443935
vt 0.549022 0.400000
vt 0.455391 0.475000
vt 0.400000 0.411613
vt 0.525000 0.475000
vt 0.600000 0.400000
vt 0.596077 0.466444
vt 0.413622 0.400000
vt 0.475000 0.456728
vt 0.600000 0.435373
vt 0.536376 0.475000
vt 0.150000 0.600000
vt 0.162359 0.525000
vt 0.225000 0.577957
vt 0.275000 0.570812
vt 0.313573 0.525000
vt 0.350000 0.600000
vt 0.033268 0.525000
vt 0.100000 0.574663
vt 0.025000 0.600000
vt 0.100000 0.525000
vt 0.063479 0.600000
vt 0.025000 0.548602
vt 0.275000 0.525000
vt 0.350000 0.539447
vt 0.345615 0.600000
vt 0.213327 0.600000
vt 0.150000 0.544569
vt 0.225000 0.525000
vt 0.275000 0.600000
vt 0.350000 0.525000
vt 0.334322 0.583981
vt 0.295370 0.600000
vt 0.350000 0.544822
vt 0.275000 0.552965
vt 0.318210 0.525000
vt 0.150000 0.550706
vt 0.196198 0.600000
vt 0.302472 0.600000
vt 0.350000 0.566849
vt 0.097187 0.600000
vt 0.025000 0.546395
vt 0.084985 0.600000
vt 0.025000 0.539307
vt 0.100000 0.581536
vt 0.033232 0.525000
vt 0.025000 0.578498
vt 0.061744 0.525000
vt 0.100000 0.600000
vt 0.275000 0.553252
vt 0.324234 0.525000
vt 0.182821 0.525000
vt 0.225000 0.578654
vt 0.275000 0.568393
vt 0.301943 0.525000
vt 0.207857 0.600000
vt 0.150000 0.540289
vt 0.349812 0.588546
vt 0.164011 0.525000
vt 0.225000 0.581989
vt 0.350000 0.557910
vt 0.297568 0.600000
vt 0.775000 0.475000
vt 0.785110 0.400000
vt 0.850000 0.449940
vt 0.900000 0.447361
vt 0.933658 0.400000
vt 0.975000 0.475000
vt 0.656009 0.400000
vt 0.725000 0.446201
vt 0.650000 0.475000
vt 0.725000 0.400000
vt 0.690173 0.475000
vt 0.650000 0.425556
vt 0.900000 0.400000
vt 0.975000 0.412656
vt 0.973416 0.475000
vt 0.975000 0.431427
vt 0.949046 0.475000
vt 0.840113 0.475000
vt 0.775000 0.420736
vt 0.850000 0.400000
vt 0.931969 0.475000
vt 0.975000 0.446015
vt 0.900000 0.455718
vt 0.954094 0.400000
vt 0.775000 0.427590
vt 0.823056 0.475000
vt 0.928268 0.475000
vt 0.975000 0.439400
vt 0.723497 0.475000
vt 0.650000 0.422084
vt 0.707389 0.475000
vt 0.650000 0.409764
vt 0.725000 0.457890
vt 0.660655 0.400000
vt 0.650000 0.451143
vt 0.688695 0.400000
vt 0.725000 0.475000
vt 0.900000 0.427240
vt 0.949606 0.400000
vt 0.900000 0.475000
vt 0.915338 0.416349
vt 0.975000 0.400000
vt 0.789062 0.400000
vt 0.850000 0.457024
vt 0.808862 0.400000
vt 0.850000 0.454851
vt 0.917559 0.475000
vt 0.975000 0.434064
vt 0.775000 0.413451
vt 0.831613 0.475000
vt 0.972867 0.464979
vt 0.150000 0.034934
vt 0.161450 0.025000
vt 0.213550 0.100000
vt 0.225000 0.090066
vt 0.161450 0.100000
vt 0.150000 0.090066
vt 0.213550 0.025000
vt 0.225000 0.034934
vt 0.100000 0.100000
vt 0.025000 0.062500
vt 0.025000 0.025000
vt 0.100000 0.062500
vt 0.225000 0.090066
vt 0.213550 0.100000
vt 0.161450 0.025000
vt 0.150000 0.034934
vt 0.350000 0.062500
vt 0.275000 0.100000
vt 0.350000 0.025000
vt 0.275000 0.062500
vt 0.213550 0.025000
vt 0.225000 0.034934
vt 0.161450 0.100000
vt 0.150000 0.090066
vt 0.150000 0.027778
vt 0.152885 0.025000
vt 0.222115 0.100000
vt 0.225000 0.097222
vt 0.160385 0.100000
vt 0.150000 0.090878
vt 0.214615 0.025000
vt 0.225000 0.034122
vt 0.295833 0.100000
vt 0.275000 0.083696
vt 0.329167 0.025000
vt 0.350000 0.041304
vt 0.225000 0.090878
vt 0.214615 0.100000
vt 0.160385 0.025000
vt 0.150000 0.034122
vt 0.100000 0.083696
vt 0.079167 0.100000
vt 0.045833 0.025000
vt 0.025000 0.041304
vt 0.222115 0.025000
vt 0.225000 0.027778
vt 0.152885 0.100000
vt 0.150000 0.097222
vt 0.025000 0.043750
vt 0.050000 0.025000
vt 0.075000 0.100000
vt 0.100000 0.081250
vt 0.071875 0.100000
vt 0.025000 0.071154
vt 0.053125 0.025000
vt 0.100000 0.053846
vt 0.065000 0.100000
vt 0.025000 0.073913
vt 0.060000 0.025000
vt 0.100000 0.051087
vt 0.100000 0.071154
vt 0.053125 0.100000
vt 0.071875 0.025000
vt 0.025000 0.053846
vt 0.100000 0.073913
vt 0.060000 0.100000
vt 0.065000 0.025000
vt 0.025000 0.051087
vt 0.200000 0.025000
vt 0.225000 0.043750
vt 0.175000 0.100000
vt 0.150000 0.081250
vt 0.150000 0.027586
vt 0.152679 0.025000
vt 0.222321 0.100000
vt 0.225000 0.097414
vt 0.279568 0.100000
vt 0.275000 0.095695
vt 0.345432 0.025000
vt 0.350000 0.029305
vt 0.193981 0.100000
vt 0.150000 0.072276
vt 0.181019 0.025000
vt 0.225000 0.052724
vt 0.100000 0.095695
vt 0.095432 0.100000
vt 0.029568 0.025000
vt 0.025000 0.029305
vt 0.225000 0.072276
vt 0.181019 0.100000
vt 0.193981 0.025000
vt 0.150000 0.052724
vt 0.222321 0.025000
vt 0.225000 0.027586
vt 0.152679 0.100000
vt 0.150000 0.097414
vt 0.150000 0.029060
vt 0.154292 0.025000
vt 0.220708 0.100000
vt 0.225000 0.095940
vt 0.032319 0.100000
vt 0.025000 0.093332
vt 0.092681 0.025000
vt 0.100000 0.031668
vt 0.350000 0.093332
vt 0.342681 0.100000
vt 0.282319 0.025000
vt 0.275000 0.031668
vt 0.220708 0.025000
vt 0.225000 0.029060
vt 0.154292 0.100000
vt 0.150000 0.095940
vt 0.025000 0.032258
vt 0.033036 0.025000
vt 0.091964 0.100000
vt 0.100000 0.092742
vt 0.342857 0.100000
vt 0.275000 0.064375
vt 0.282143 0.025000
vt 0.350000 0.060625
vt 0.033882 0.100000
vt 0.025000 0.092059
vt 0.091118 0.025000
vt 0.100000 0.032941
vt 0.100000 0.064375
vt 0.032143 0.100000
vt 0.092857 0.025000
vt 0.025000 0.060625
vt 0.100000 0.092059
vt 0.091118 0.100000
vt 0.033882 0.025000
vt 0.025000 0.032941
vt 0.091964 0.025000
vt 0.100000 0.032258
vt 0.033036 0.100000
vt 0.025000 0.092742
vt 0.225000 0.725000
vt 0.150000 0.655000
vt 0.155357 0.650000
vt 0.219643 0.725000
vt 0.150000 0.650000
vt 0.225000 0.720000
vt 0.187500 0.725000
vt 0.150000 0.700000
vt 0.225000 0.650000
vt 0.150000 0.725000
vt 0.187500 0.650000
vt 0.225000 0.675000
vt 0.160714 0.725000
vt 0.150000 0.715625
vt 0.214286 0.650000
vt 0.225000 0.659375
vt 0.225000 0.700000
vt 0.187500 0.725000
vt 0.187500 0.650000
vt 0.150000 0.675000
vt 0.225000 0.715625
vt 0.214286 0.725000
vt 0.160714 0.650000
vt 0.150000 0.659375
vt 0.219643 0.650000
vt 0.225000 0.655000
vt 0.155357 0.725000
vt 0.150000 0.720000
vt 0.225000 0.076424
vt 0.209398 0.100000
vt 0.165906 0.100000
vt 0.167616 0.100000
vt 0.225000 0.048576
vt 0.209398 0.025000
vt 0.165906 0.025000
vt 0.167616 0.025000
vt 0.150000 0.082275
vt 0.167575 0.100000
vt 0.225000 0.055575
vt 0.225000 0.052252
vt 0.168084 0.025000
vt 0.167575 0.025000
vt 0.215624 0.100000
vt 0.225000 0.072748
vt 0.225000 0.044044
vt 0.225000 0.048472
vt 0.167924 0.025000
vt 0.150000 0.047758
vt 0.208189 0.100000
vt 0.211685 0.100000
vt 0.150000 0.082116
vt 0.150000 0.077242
vt 0.150000 0.080014
vt 0.225000 0.045801
vt 0.225000 0.046707
vt 0.167563 0.025000
vt 0.165976 0.025000
vt 0.225000 0.079199
vt 0.225000 0.078293
vt 0.150000 0.081750
vt 0.225000 0.038587
vt 0.225000 0.042018
vt 0.150000 0.042886
vt 0.166190 0.025000
vt 0.225000 0.086413
vt 0.225000 0.082982
vt 0.150000 0.082114
vt 0.150000 0.080261
vt 0.150000 0.083104
vt 0.150000 0.077301
vt 0.225000 0.052564
vt 0.225000 0.055169
vt 0.168952 0.025000
vt 0.163854 0.025000
vt 0.214146 0.100000
vt 0.225000 0.069832
vt 0.225000 0.042752
vt 0.225000 0.040029
vt 0.150000 0.047417
vt 0.150000 0.042727
vt 0.206943 0.100000
vt 0.203865 0.100000
vt 0.164056 0.100000
vt 0.168083 0.100000
vt 0.150000 0.081517
vt 0.150000 0.081751
vt 0.225000 0.053215
vt 0.225000 0.049865
vt 0.150000 0.043483
vt 0.167563 0.025000
vt 0.214486 0.100000
vt 0.212591 0.100000
vt 0.204093 0.025000
vt 0.150000 0.046345
vt 0.168010 0.025000
vt 0.206196 0.100000
vt 0.204093 0.100000
vt 0.150000 0.078655
vt 0.150000 0.082201
vt 0.225000 0.042034
vt 0.213722 0.025000
vt 0.210924 0.025000
vt 0.166056 0.025000
vt 0.167839 0.025000
vt 0.213722 0.100000
vt 0.210924 0.100000
vt 0.150000 0.080108
vt 0.150000 0.082031
s 0
usemtl HoardAtlas
f 3/1/1 7/2/1 5/3/1
f 3/4/1 5/5/1 1/6/1
f 5/7/2 6/8/2 2/9/2
f 5/10/2 2/11/2 1/12/2
f 2/13/3 4/14/3 3/15/3
f 2/16/3 3/17/3 1/18/3
f 4/19/4 8/20/4 7/21/4
f 4/22/4 7/23/4 3/24/4
f 7/5/5 8/25/5 6/26/5
f 7/27/5 6/1/5 5/28/5
f 6/29/6 8/30/6 4/31/6
f 6/32/6 4/33/6 2/34/6
f 11/1/1 15/2/1 13/3/1
f 11/4/1 13/5/1 9/6/1
f 13/35/2 14/36/2 10/37/2
f 13/38/2 10/39/2 9/40/2
f 10/13/3 12/14/3 11/15/3
f 10/16/3 11/17/3 9/18/3
f 12/41/4 16/42/4 15/43/4
f 12/44/4 15/45/4 11/46/4
f 15/5/5 16/25/5 14/26/5
f 15/27/5 14/1/5 13/28/5
f 14/29/6 16/30/6 12/31/6
f 14/32/6 12/33/6 10/34/6
f 20/47/6 18/48/6 22/49/6
f 20/50/6 22/51/6 24/52/6
f 22/53/5 21/54/5 23/37/5
f 22/38/5 23/55/5 24/56/5
f 23/13/4 19/14/4 20/15/4
f 23/16/4 20/17/4 24/18/4
f 19/41/3 17/57/3 18/58/3
f 19/59/3 18/45/3 20/60/3
f 18/5/2 17/25/2 21/26/2
f 18/27/2 21/1/2 22/28/2
f 21/61/1 17/62/1 19/16/1
f 21/15/1 19/63/1 23/64/1
f 28/47/6 26/48/6 30/49/6
f 28/50/6 30/51/6 32/52/6
f 30/65/5 29/66/5 31/9/5
f 30/10/5 31/67/5 32/68/5
f 31/13/4 27/14/4 28/15/4
f 31/16/4 28/17/4 32/18/4
f 27/19/3 25/69/3 26/70/3
f 27/71/3 26/23/3 28/72/3
f 26/5/2 25/25/2 29/26/2
f 26/27/2 29/1/2 30/28/2
f 29/61/1 25/62/1 27/16/1
f 29/15/1 27/63/1 31/64/1
f 35/1/1 39/73/1 37/74/1
f 35/75/1 37/5/1 33/76/1
f 37/77/2 38/78/2 34/9/2
f 37/10/2 34/79/2 33/80/2
f 34/81/3 36/82/3 35/15/3
f 34/16/3 35/83/3 33/84/3
f 36/51/4 40/85/4 39/86/4
f 36/87/4 39/47/4 35/88/4
f 39/5/5 40/89/5 38/90/5
f 39/91/5 38/1/5 37/92/5
f 38/93/6 40/94/6 36/31/6
f 38/32/6 36/95/6 34/96/6
f 43/1/1 47/73/1 45/74/1
f 43/75/1 45/5/1 41/76/1
f 45/97/2 46/98/2 42/32/2
f 45/31/2 42/99/2 41/100/2
f 42/81/3 44/82/3 43/15/3
f 42/16/3 43/83/3 41/84/3
f 44/41/4 48/101/4 47/102/4
f 44/103/4 47/45/4 43/104/4
f 47/5/5 48/89/5 46/90/5
f 47/91/5 46/1/5 45/92/5
f 46/93/6 48/94/6 44/31/6
f 46/32/6 44/95/6 42/96/6
f 52/47/6 50/105/6 54/106/6
f 52/107/6 54/51/6 56/108/6
f 54/109/5 53/110/5 55/32/5
f 54/31/5 55/111/5 56/112/5
f 55/113/4 51/82/4 52/15/4
f 55/16/4 52/114/4 56/84/4
f 51/41/3 49/115/3 50/116/3
f 51/117/3 50/45/3 52/118/3
f 50/5/2 49/89/2 53/119/2
f 50/120/2 53/1/2 54/92/2
f 53/121/1 49/122/1 51/16/1
f 53/15/1 51/123/1 55/124/1
f 60/47/6 58/105/6 62/106/6
f 60/107/6 62/51/6 64/108/6
f 62/125/5 61/126/5 63/9/5
f 62/10/5 63/127/5 64/128/5
f 63/113/4 59/82/4 60/15/4
f 63/16/4 60/114/4 64/84/4
f 59/51/3 57/129/3 58/130/3
f 59/131/3 58/47/3 60/132/3
f 58/5/2 57/89/2 61/119/2
f 58/120/2 61/1/2 62/92/2
f 61/121/1 57/122/1 59/16/1
f 61/15/1 59/123/1 63/124/1
f 67/1/1 71/2/1 69/3/1
f 67/4/1 69/5/1 65/6/1
f 69/7/2 70/8/2 66/9/2
f 69/10/2 66/11/2 65/12/2
f 66/13/3 68/14/3 67/15/3
f 66/16/3 67/17/3 65/18/3
f 68/19/4 72/20/4 71/21/4
f 68/22/4 71/23/4 67/24/4
f 71/5/5 72/25/5 70/26/5
f 71/27/5 70/1/5 69/28/5
f 70/29/6 72/30/6 68/31/6
f 70/32/6 68/33/6 66/34/6
f 75/1/1 79/2/1 77/3/1
f 75/4/1 77/5/1 73/6/1
f 77/35/2 78/36/2 74/37/2
f 77/38/2 74/39/2 73/40/2
f 74/13/3 76/14/3 75/15/3
f 74/16/3 75/17/3 73/18/3
f 76/41/4 80/42/4 79/43/4
f 76/44/4 79/45/4 75/46/4
f 79/5/5 80/25/5 78/26/5
f 79/27/5 78/1/5 77/28/5
f 78/29/6 80/30/6 76/31/6
f 78/32/6 76/33/6 74/34/6
f 84/47/6 82/48/6 86/49/6
f 84/50/6 86/51/6 88/52/6
f 86/53/5 85/54/5 87/37/5
f 86/38/5 87/55/5 88/56/5
f 87/13/4 83/14/4 84/15/4
f 87/16/4 84/17/4 88/18/4
f 83/41/3 81/57/3 82/58/3
f 83/59/3 82/45/3 84/60/3
f 82/5/2 81/25/2 85/26/2
f 82/27/2 85/1/2 86/28/2
f 85/61/1 81/62/1 83/16/1
f 85/15/1 83/63/1 87/64/1
f 92/47/6 90/48/6 94/49/6
f 92/50/6 94/51/6 96/52/6
f 94/65/5 93/66/5 95/9/5
f 94/10/5 95/67/5 96/68/5
f 95/13/4 91/14/4 92/15/4
f 95/16/4 92/17/4 96/18/4
f 91/19/3 89/69/3 90/70/3
f 91/71/3 90/23/3 92/72/3
f 90/5/2 89/25/2 93/26/2
f 90/27/2 93/1/2 94/28/2
f 93/61/1 89/62/1 91/16/1
f 93/15/1 91/63/1 95/64/1
f 103/45/4 99/133/4 100/134/4
f 103/135/4 100/41/4 104/136/4
f 100/137/6 98/138/6 102/9/6
f 100/10/6 102/139/6 104/140/6
f 102/141/5 101/142/5 103/9/5
f 102/10/5 103/143/5 104/144/5
f 101/41/1 97/145/1 99/146/1
f 101/147/1 99/45/1 103/148/1
f 99/41/3 97/149/3 98/150/3
f 99/151/3 98/45/3 100/152/3
f 98/153/2 97/154/2 101/10/2
f 98/9/2 101/155/2 102/156/2
f 111/157/4 107/158/4 108/159/4
f 111/160/4 108/161/4 112/162/4
f 108/163/6 106/164/6 110/165/6
f 108/166/6 110/167/6 112/168/6
f 110/169/5 109/170/5 111/171/5
f 110/172/5 111/173/5 112/174/5
f 109/161/1 105/175/1 107/176/1
f 109/177/1 107/157/1 111/178/1
f 107/161/3 105/179/3 106/180/3
f 107/181/3 106/157/3 108/182/3
f 106/183/2 105/184/2 109/172/2
f 106/171/2 109/185/2 110/186/2
f 113/187/7 115/188/7 114/172/7
f 113/161/7 116/189/7 115/190/7
f 113/191/7 117/192/7 116/157/7
f 113/172/7 118/193/7 117/194/7
f 113/195/7 119/196/7 118/171/7
f 113/157/7 120/197/7 119/198/7
f 113/199/7 121/200/7 120/161/7
f 113/171/7 114/201/7 121/202/7
f 114/203/8 123/204/8 122/205/8
f 116/206/9 123/207/9 115/208/9
f 116/209/10 125/210/10 124/211/10
f 117/212/11 126/213/11 125/214/11
f 119/215/12 126/216/12 118/217/12
f 119/218/13 128/219/13 127/220/13
f 121/221/14 128/222/14 120/223/14
f 114/224/15 129/225/15 121/226/15
f 122/227/16 123/228/16 130/229/16
f 123/230/16 124/231/16 130/232/16
f 124/233/16 125/234/16 130/235/16
f 125/236/16 126/237/16 130/227/16
f 126/238/16 127/239/16 130/240/16
f 127/241/16 128/242/16 130/233/16
f 128/232/16 129/243/16 130/244/16
f 129/245/16 122/246/16 130/238/16
f 131/247/17 133/248/17 132/157/17
f 131/172/17 134/249/17 133/250/17
f 131/251/17 135/252/17 134/171/17
f 131/157/17 136/253/17 135/254/17
f 131/255/17 137/256/17 136/161/17
f 131/171/17 138/257/17 137/258/17
f 131/259/17 139/260/17 138/172/17
f 131/161/17 132/261/17 139/262/17
f 133/263/18 140/264/18 132/265/18
f 133/266/19 142/267/19 141/268/19
f 135/269/20 142/270/20 134/271/20
f 136/272/21 143/273/21 135/274/21
f 137/275/22 144/276/22 136/277/22
f 138/278/23 145/279/23 137/280/23
f 139/281/24 146/282/24 138/283/24
f 139/284/25 140/285/25 147/286/25
f 140/166/26 141/287/26 148/288/26
f 141/289/26 142/290/26 148/291/26
f 142/292/26 143/293/26 148/294/26
f 143/295/26 144/296/26 148/166/26
f 144/165/26 145/297/26 148/298/26
f 145/299/26 146/300/26 148/292/26
f 146/291/26 147/301/26 148/302/26
f 147/303/26 140/304/26 148/165/26
f 149/157/27 151/305/27 150/306/27
f 149/307/27 152/172/27 151/308/27
f 149/171/27 153/309/27 152/310/27
f 149/311/27 154/157/27 153/312/27
f 149/161/27 155/313/27 154/314/27
f 149/315/27 156/171/27 155/316/27
f 149/172/27 157/317/27 156/318/27
f 149/319/27 150/161/27 157/320/27
f 151/321/28 158/322/28 150/323/28
f 152/324/29 159/325/29 151/326/29
f 153/327/30 160/328/30 152/329/30
f 153/330/31 162/331/31 161/332/31
f 155/333/32 162/334/32 154/335/32
f 156/336/33 163/337/33 155/338/33
f 157/339/34 164/340/34 156/341/34
f 150/342/35 165/343/35 157/344/35
f 158/345/36 159/346/36 166/347/36
f 159/348/36 160/349/36 166/350/36
f 160/351/36 161/352/36 166/353/36
f 161/354/36 162/347/36 166/355/36
f 162/356/36 163/357/36 166/358/36
f 163/359/36 164/353/36 166/360/36
f 164/361/36 165/362/36 166/349/36
f 165/363/36 158/358/36 166/364/36
f 167/365/37 169/161/37 168/366/37
f 167/157/37 170/367/37 169/368/37
f 167/369/37 171/172/37 170/370/37
f 167/171/37 172/371/37 171/372/37
f 167/373/37 173/157/37 172/374/37
f 167/161/37 174/375/37 173/376/37
f 167/377/37 175/171/37 174/378/37
f 167/172/37 168/379/37 175/380/37
f 169/381/38 176/382/38 168/383/38
f 170/384/39 177/385/39 169/386/39
f 171/387/40 178/388/40 170/389/40
f 172/390/41 179/391/41 171/392/41
f 173/393/42 180/394/42 172/395/42
f 173/396/43 182/397/43 181/398/43
f 174/399/44 183/400/44 182/401/44
f 168/402/45 183/403/45 175/404/45
f 176/405/46 177/232/46 184/406/46
f 177/407/46 178/408/46 184/233/46
f 178/409/46 179/227/46 184/410/46
f 179/411/46 180/412/46 184/238/46
f 180/413/46 181/233/46 184/414/46
f 181/415/46 182/416/46 184/232/46
f 182/417/46 183/238/46 184/418/46
f 183/419/46 176/420/46 184/227/46
f 185/157/47 187/421/47 186/422/47
f 185/423/47 188/172/47 187/424/47
f 185/171/47 189/425/47 188/426/47
f 185/427/47 190/157/47 189/428/47
f 185/161/47 191/429/47 190/430/47
f 185/431/47 192/171/47 191/432/47
f 185/172/47 193/433/47 192/434/47
f 185/435/47 186/161/47 193/436/47
f 187/437/48 194/438/48 186/439/48
f 188/440/49 195/441/49 187/442/49
f 188/443/50 197/444/50 196/445/50
f 190/446/51 197/447/51 189/448/51
f 190/449/52 199/450/52 198/451/52
f 191/452/53 200/453/53 199/454/53
f 193/455/54 200/456/54 192/457/54
f 186/458/55 201/459/55 193/460/55
f 194/461/56 195/462/56 202/347/56
f 195/463/56 196/349/56 202/464/56
f 196/465/56 197/466/56 202/353/56
f 197/467/56 198/347/56 202/468/56
f 198/469/56 199/470/56 202/358/56
f 199/471/56 200/353/56 202/472/56
f 200/473/56 201/474/56 202/349/56
f 201/475/56 194/358/56 202/476/56
f 203/172/57 205/477/57 204/478/57
f 203/479/57 206/161/57 205/480/57
f 203/157/57 207/481/57 206/482/57
f 203/483/57 208/172/57 207/484/57
f 203/171/57 209/485/57 208/486/57
f 203/487/57 210/157/57 209/488/57
f 203/161/57 211/489/57 210/490/57
f 203/491/57 204/171/57 211/492/57
f 205/493/58 212/494/58 204/495/58
f 206/496/59 213/497/59 205/498/59
f 207/499/60 214/500/60 206/501/60
f 208/502/61 215/503/61 207/504/61
f 209/505/62 216/506/62 208/507/62
f 210/508/63 217/509/63 209/510/63
f 211/511/64 218/512/64 210/513/64
f 211/514/65 212/515/65 219/516/65
f 212/517/66 213/518/66 220/227/66
f 213/519/66 214/232/66 220/520/66
f 214/521/66 215/522/66 220/233/66
f 215/523/66 216/227/66 220/524/66
f 216/525/66 217/526/66 220/238/66
f 217/527/66 218/233/66 220/528/66
f 218/529/66 219/530/66 220/232/66
f 219/531/66 212/238/66 220/532/66
f 221/533/67 223/534/67 222/171/67
f 221/157/67 224/535/67 223/536/67
f 221/537/67 225/538/67 224/161/67
f 221/171/67 226/539/67 225/540/67
f 221/541/67 227/542/67 226/172/67
f 221/161/67 228/543/67 227/544/67
f 221/545/67 229/546/67 228/157/67
f 221/172/67 222/547/67 229/548/67
f 223/549/68 230/550/68 222/551/68
f 224/552/69 231/553/69 223/554/69
f 224/555/70 233/556/70 232/557/70
f 225/558/71 234/559/71 233/560/71
f 227/561/72 234/562/72 226/563/72
f 228/564/73 235/565/73 227/566/73
f 228/567/74 237/568/74 236/569/74
f 229/570/75 230/571/75 237/572/75
f 230/238/76 231/573/76 238/574/76
f 231/575/76 232/576/76 238/233/76
f 232/232/76 233/577/76 238/578/76
f 233/579/76 234/580/76 238/238/76
f 234/227/76 235/581/76 238/582/76
f 235/583/76 236/584/76 238/232/76
f 236/233/76 237/585/76 238/586/76
f 237/587/76 230/588/76 238/227/76
f 239/589/77 241/590/77 240/157/77
f 239/172/77 242/591/77 241/592/77
f 239/593/77 243/594/77 242/171/77
f 239/157/77 244/595/77 243/596/77
f 239/597/77 245/598/77 244/161/77
f 239/171/77 246/599/77 245/600/77
f 239/601/77 247/602/77 246/172/77
f 239/161/77 240/603/77 247/604/77
f 241/605/78 248/606/78 240/607/78
f 242/608/79 249/609/79 241/610/79
f 243/611/80 250/612/80 242/613/80
f 244/614/81 251/615/81 243/616/81
f 244/617/82 253/618/82 252/619/82
f 246/620/83 253/621/83 245/622/83
f 247/623/84 254/624/84 246/625/84
f 240/626/85 255/627/85 247/628/85
f 248/233/86 249/629/86 256/630/86
f 249/631/86 250/632/86 256/227/86
f 250/238/86 251/633/86 256/634/86
f 251/635/86 252/636/86 256/233/86
f 252/232/86 253/637/86 256/638/86
f 253/639/86 254/640/86 256/238/86
f 254/227/86 255/641/86 256/642/86
f 255/643/86 248/644/86 256/232/86
f 257/157/87 259/645/87 258/646/87
f 257/647/87 260/648/87 259/161/87
f 257/171/87 261/649/87 260/650/87
f 257/651/87 262/652/87 261/172/87
f 257/161/87 263/653/87 262/654/87
f 257/655/87 264/656/87 263/157/87
f 257/172/87 265/657/87 264/658/87
f 257/659/87 258/660/87 265/171/87
f 258/661/88 267/662/88 266/663/88
f 259/664/89 268/665/89 267/666/89
f 261/667/90 268/668/90 260/669/90
f 262/670/91 269/671/91 261/672/91
f 263/673/92 270/674/92 262/675/92
f 264/676/93 271/677/93 263/678/93
f 265/679/94 272/680/94 264/681/94
f 258/682/95 273/683/95 265/684/95
f 266/685/96 267/686/96 274/233/96
f 267/232/96 268/687/96 274/688/96
f 268/689/96 269/690/96 274/238/96
f 269/227/96 270/691/96 274/692/96
f 270/693/96 271/694/96 274/232/96
f 271/233/96 272/695/96 274/696/96
f 272/697/96 273/698/96 274/227/96
f 273/238/96 266/699/96 274/700/96
f 275/701/97 277/702/97 276/171/97
f 275/157/97 278/703/97 277/704/97
f 275/705/97 279/706/97 278/161/97
f 275/171/97 280/707/97 279/708/97
f 275/709/97 281/710/97 280/172/97
f 275/161/97 282/711/97 281/712/97
f 275/713/97 283/714/97 282/157/97
f 275/172/97 276/715/97 283/716/97
f 276/717/98 285/718/98 284/719/98
f 277/720/99 286/721/99 285/722/99
f 279/723/100 286/724/100 278/725/100
f 280/726/101 287/727/101 279/728/101
f 281/729/102 288/730/102 280/731/102
f 282/732/103 289/733/103 281/734/103
f 283/735/104 290/736/104 282/737/104
f 276/738/105 291/739/105 283/740/105
f 284/353/106 285/741/106 292/742/106
f 285/743/106 286/744/106 292/347/106
f 286/358/106 287/745/106 292/746/106
f 287/747/106 288/748/106 292/353/106
f 288/349/106 289/749/106 292/750/106
f 289/751/106 290/752/106 292/358/106
f 290/347/106 291/753/106 292/754/106
f 291/755/106 284/756/106 292/349/106
f 295/757/107 293/758/107 296/759/107
f 293/760/108 294/761/108 296/762/108
f 294/763/109 305/764/109 296/765/109
f 305/766/110 298/767/110 296/768/110
f 298/769/111 295/770/111 296/762/111
f 298/771/112 297/772/112 295/773/112
f 297/774/113 301/769/113 295/775/113
f 301/769/113 293/776/113 295/777/113
f 301/778/113 303/779/113 293/762/113
f 303/780/114 294/773/114 293/781/114
f 303/782/115 304/769/115 294/783/115
f 304/784/116 305/785/116 294/786/116
f 302/787/117 300/788/117 305/766/117
f 300/789/118 298/765/118 305/790/118
f 304/791/119 302/792/119 305/793/119
f 300/794/120 297/795/120 298/762/120
f 300/757/121 299/796/121 297/797/121
f 299/798/113 301/799/113 297/762/113
f 299/800/122 302/801/122 301/773/122
f 302/802/123 304/803/123 301/804/123
f 304/805/124 303/806/124 301/757/124
f 299/807/125 300/808/125 302/769/125
f 308/809/126 306/810/126 309/811/126
f 306/812/127 307/813/127 309/814/127
f 307/815/128 318/816/128 309/817/128
f 318/818/129 311/819/129 309/820/129
f 311/821/130 308/822/130 309/823/130
f 311/824/131 310/825/131 308/826/131
f 310/827/132 306/828/132 308/829/132
f 310/830/132 314/821/132 306/831/132
f 314/832/132 316/833/132 306/814/132
f 316/834/133 307/826/133 306/835/133
f 316/836/134 317/821/134 307/837/134
f 317/818/135 318/838/135 307/839/135
f 315/818/136 313/840/136 318/841/136
f 313/842/137 311/817/137 318/843/137
f 317/844/138 315/845/138 318/846/138
f 313/847/139 310/848/139 311/814/139
f 313/809/140 312/849/140 310/850/140
f 312/851/132 314/852/132 310/814/132
f 312/853/141 315/854/141 314/826/141
f 315/827/142 317/828/142 314/855/142
f 317/856/143 316/857/143 314/809/143
f 312/858/144 313/859/144 315/821/144
f 321/860/145 319/861/145 322/862/145
f 319/863/146 320/864/146 322/865/146
f 320/866/147 331/867/147 322/868/147
f 331/869/148 324/870/148 322/871/148
f 324/872/149 321/873/149 322/874/149
f 329/872/150 319/875/150 321/876/150
f 324/877/151 323/878/151 321/879/151
f 323/880/150 325/872/150 321/881/150
f 325/882/150 329/883/150 321/865/150
f 329/884/152 320/879/152 319/885/152
f 329/886/153 330/872/153 320/887/153
f 330/869/154 331/888/154 320/889/154
f 328/869/155 326/890/155 331/891/155
f 326/892/156 324/868/156 331/893/156
f 330/894/157 328/895/157 331/896/157
f 326/897/158 323/898/158 324/865/158
f 325/899/150 327/900/150 329/901/150
f 327/860/159 330/902/159 329/903/159
f 326/860/160 325/904/160 323/905/160
f 326/906/161 328/872/161 325/907/161
f 328/908/162 327/879/162 325/909/162
f 327/910/163 328/899/163 330/901/163
f 336/291/2 337/911/2 333/912/2
f 336/913/2 333/292/2 332/914/2
f 333/915/3 335/916/3 334/165/3
f 333/166/3 334/917/3 332/918/3
f 334/919/1 338/920/1 336/171/1
f 334/172/1 336/921/1 332/922/1
f 338/292/5 339/923/5 337/924/5
f 338/925/5 337/291/5 336/926/5
f 337/238/6 339/927/6 335/928/6
f 337/929/6 335/227/6 333/930/6
f 335/931/4 339/932/4 338/166/4
f 335/165/4 338/933/4 334/934/4
f 344/291/2 345/911/2 341/912/2
f 344/913/2 341/292/2 340/914/2
f 341/915/3 343/916/3 342/165/3
f 341/166/3 342/917/3 340/918/3
f 342/919/1 346/920/1 344/171/1
f 342/172/1 344/921/1 340/922/1
f 346/292/5 347/923/5 345/924/5
f 346/925/5 345/291/5 344/926/5
f 345/238/6 347/927/6 343/928/6
f 345/929/6 343/227/6 341/930/6
f 343/931/4 347/932/4 346/166/4
f 343/165/4 346/933/4 342/934/4
f 352/291/2 353/911/2 349/912/2
f 352/913/2 349/292/2 348/914/2
f 349/915/3 351/916/3 350/165/3
f 349/166/3 350/917/3 348/918/3
f 350/919/1 354/920/1 352/171/1
f 350/172/1 352/921/1 348/922/1
f 354/292/5 355/923/5 353/924/5
f 354/925/5 353/291/5 352/926/5
f 353/238/6 355/927/6 351/928/6
f 353/929/6 351/227/6 349/930/6
f 351/931/4 355/932/4 354/166/4
f 351/165/4 354/933/4 350/934/4
f 360/291/2 361/911/2 357/912/2
f 360/913/2 357/292/2 356/914/2
f 357/915/3 359/916/3 358/165/3
f 357/166/3 358/917/3 356/918/3
f 358/919/1 362/920/1 360/171/1
f 358/172/1 360/921/1 356/922/1
f 362/292/5 363/923/5 361/924/5
f 362/925/5 361/291/5 360/926/5
f 361/238/6 363/927/6 359/928/6
f 361/929/6 359/227/6 357/930/6
f 359/931/4 363/932/4 362/166/4
f 359/165/4 362/933/4 358/934/4
f 369/291/5 368/935/5 370/936/5
f 369/937/5 370/292/5 371/938/5
f 370/939/4 366/940/4 367/165/4
f 370/166/4 367/941/4 371/942/4
f 367/943/6 365/944/6 369/232/6
f 367/233/6 369/945/6 371/946/6
f 365/292/2 364/947/2 368/948/2
f 365/949/2 368/291/2 369/950/2
f 368/161/1 364/951/1 366/952/1
f 368/953/1 366/157/1 370/954/1
f 366/955/3 364/956/3 365/166/3
f 366/165/3 365/957/3 367/958/3
f 377/291/5 376/935/5 378/936/5
f 377/937/5 378/292/5 379/938/5
f 378/939/4 374/940/4 375/165/4
f 378/166/4 375/941/4 379/942/4
f 375/943/6 373/944/6 377/232/6
f 375/233/6 377/945/6 379/946/6
f 373/292/2 372/947/2 376/948/2
f 373/949/2 376/291/2 377/950/2
f 376/161/1 372/951/1 374/952/1
f 376/953/1 374/157/1 378/954/1
f 374/955/3 372/956/3 373/166/3
f 374/165/3 373/957/3 375/958/3
f 382/157/1 386/959/1 384/960/1
f 382/961/1 384/161/1 380/962/1
f 384/963/2 385/964/2 381/171/2
f 384/172/2 381/965/2 380/966/2
f 381/967/3 383/968/3 382/171/3
f 381/172/3 382/969/3 380/970/3
f 383/161/4 387/971/4 386/972/4
f 383/973/4 386/157/4 382/974/4
f 386/161/5 387/975/5 385/976/5
f 386/977/5 385/157/5 384/978/5
f 385/979/6 387/980/6 383/166/6
f 385/165/6 383/981/6 381/982/6
f 393/291/5 392/935/5 394/936/5
f 393/937/5 394/292/5 395/938/5
f 394/939/4 390/940/4 391/165/4
f 394/166/4 391/941/4 395/942/4
f 391/943/6 389/944/6 393/232/6
f 391/233/6 393/945/6 395/946/6
f 389/292/2 388/947/2 392/948/2
f 389/949/2 392/291/2 393/950/2
f 392/161/1 388/951/1 390/952/1
f 392/953/1 390/157/1 394/954/1
f 390/955/3 388/956/3 389/166/3
f 390/165/3 389/957/3 391/958/3
f 401/291/5 400/935/5 402/936/5
f 401/937/5 402/292/5 403/938/5
f 402/939/4 398/940/4 399/165/4
f 402/166/4 399/941/4 403/942/4
f 399/943/6 397/944/6 401/232/6
f 399/233/6 401/945/6 403/946/6
f 397/292/2 396/947/2 400/948/2
f 397/949/2 400/291/2 401/950/2
f 400/161/1 396/951/1 398/952/1
f 400/953/1 398/157/1 402/954/1
f 398/955/3 396/956/3 397/166/3
f 398/165/3 397/957/3 399/958/3
f 406/157/1 410/959/1 408/960/1
f 406/961/1 408/161/1 404/962/1
f 408/963/2 409/964/2 405/171/2
f 408/172/2 405/965/2 404/966/2
f 405/967/3 407/968/3 406/171/3
f 405/172/3 406/969/3 404/970/3
f 407/161/4 411/971/4 410/972/4
f 407/973/4 410/157/4 406/974/4
f 410/161/5 411/975/5 409/976/5
f 410/977/5 409/157/5 408/978/5
f 409/979/6 411/980/6 407/166/6
f 409/165/6 407/981/6 405/982/6
f 418/291/4 414/983/4 415/984/4
f 418/985/4 415/292/4 419/986/4
f 415/987/6 413/988/6 417/232/6
f 415/233/6 417/989/6 419/990/6
f 417/991/5 416/992/5 418/165/5
f 417/166/5 418/993/5 419/994/5
f 416/161/1 412/995/1 414/996/1
f 416/997/1 414/157/1 418/998/1
f 414/292/3 412/999/3 413/1000/3
f 414/1001/3 413/291/3 415/1002/3
f 413/1003/2 412/1004/2 416/166/2
f 413/165/2 416/1005/2 417/1006/2
f 426/291/4 422/983/4 423/984/4
f 426/985/4 423/292/4 427/986/4
f 423/987/6 421/988/6 425/232/6
f 423/233/6 425/989/6 427/990/6
f 425/991/5 424/992/5 426/165/5
f 425/166/5 426/993/5 427/994/5
f 424/161/1 420/995/1 422/996/1
f 424/997/1 422/157/1 426/998/1
f 422/292/3 420/999/3 421/1000/3
f 422/1001/3 421/291/3 423/1002/3
f 421/1003/2 420/1004/2 424/166/2
f 421/165/2 424/1005/2 425/1006/2
f 429/291/3 431/1007/3 430/1008/3
f 429/1009/3 430/292/3 428/1010/3
f 430/1011/1 434/1012/1 432/171/1
f 430/172/1 432/1013/1 428/1014/1
f 432/991/2 433/992/2 429/165/2
f 432/166/2 429/993/2 428/994/2
f 433/238/6 435/1015/6 431/1016/6
f 433/1017/6 431/227/6 429/1018/6
f 431/292/4 435/999/4 434/1000/4
f 431/1001/4 434/291/4 430/1002/4
f 434/1019/5 435/1020/5 433/166/5
f 434/165/5 433/1021/5 432/1022/5
f 437/291/3 439/1007/3 438/1008/3
f 437/1009/3 438/292/3 436/1010/3
f 438/1011/1 442/1012/1 440/171/1
f 438/172/1 440/1013/1 436/1014/1
f 440/991/2 441/992/2 437/165/2
f 440/166/2 437/993/2 436/994/2
f 441/238/6 443/1015/6 439/1016/6
f 441/1017/6 439/227/6 437/1018/6
f 439/292/4 443/999/4 442/1000/4
f 439/1001/4 442/291/4 438/1002/4
f 442/1019/5 443/1020/5 441/166/5
f 442/165/5 441/1021/5 440/1022/5
f 449/157/5 448/1023/5 450/1024/5
f 449/1025/5 450/161/5 451/1026/5
f 450/1027/4 446/1028/4 447/232/4
f 450/233/4 447/1029/4 451/1030/4
f 447/1031/6 445/1032/6 449/171/6
f 447/172/6 449/1033/6 451/1034/6
f 445/161/2 444/1035/2 448/1036/2
f 445/1037/2 448/157/2 449/1038/2
f 448/161/1 444/1039/1 446/1040/1
f 448/1041/1 446/157/1 450/1042/1
f 446/1043/3 444/1044/3 445/172/3
f 446/171/3 445/1045/3 447/1046/3
f 457/1047/5 456/1048/5 458/1049/5
f 457/1050/5 458/1051/5 459/1052/5
f 458/1053/4 454/1054/4 455/1055/4
f 458/1056/4 455/1057/4 459/1058/4
f 455/1059/6 453/1060/6 457/1055/6
f 455/1056/6 457/1061/6 459/1062/6
f 453/1051/2 452/1063/2 456/1064/2
f 453/1065/2 456/1047/2 457/1066/2
f 456/1051/1 452/1067/1 454/1068/1
f 456/1069/1 454/1047/1 458/1070/1
f 454/1071/3 452/1072/3 453/1056/3
f 454/1055/3 453/1073/3 455/1074/3
f 114/203/8 115/1075/8 123/204/8
f 116/206/9 124/1076/9 123/207/9
f 116/209/10 117/1077/10 125/210/10
f 117/212/11 118/1078/11 126/213/11
f 119/215/12 127/1079/12 126/216/12
f 119/218/13 120/1080/13 128/219/13
f 121/221/14 129/1081/14 128/222/14
f 114/224/15 122/1082/15 129/225/15
f 133/263/18 141/1083/18 140/264/18
f 133/266/19 134/1084/19 142/267/19
f 135/269/20 143/1085/20 142/270/20
f 136/272/21 144/1086/21 143/273/21
f 137/275/22 145/1087/22 144/276/22
f 138/278/164 146/1088/164 145/279/164
f 139/281/24 147/1089/24 146/282/24
f 139/284/25 132/1090/25 140/285/25
f 151/321/28 159/1091/28 158/322/28
f 152/324/29 160/1092/29 159/325/29
f 153/327/30 161/1093/30 160/328/30
f 153/330/31 154/1094/31 162/331/31
f 155/333/32 163/1095/32 162/334/32
f 156/336/33 164/1096/33 163/337/33
f 157/339/34 165/1097/34 164/340/34
f 150/342/35 158/1098/35 165/343/35
f 169/381/38 177/1099/38 176/382/38
f 170/384/39 178/1100/39 177/385/39
f 171/387/40 179/1101/40 178/388/40
f 172/390/41 180/1102/41 179/391/41
f 173/393/42 181/1103/42 180/394/42
f 173/396/43 174/1104/43 182/397/43
f 174/399/44 175/1105/44 183/400/44
f 168/402/45 176/1106/45 183/403/45
f 187/437/48 195/1107/48 194/438/48
f 188/440/49 196/1108/49 195/441/49
f 188/443/50 189/1109/50 197/444/50
f 190/446/51 198/1110/51 197/447/51
f 190/449/52 191/1111/52 199/450/52
f 191/452/53 192/1112/53 200/453/53
f 193/455/54 201/1113/54 200/456/54
f 186/458/55 194/1114/55 201/459/55
f 205/493/58 213/1115/58 212/494/58
f 206/496/59 214/1116/59 213/497/59
f 207/499/60 215/1117/60 214/500/60
f 208/502/61 216/1118/61 215/503/61
f 209/505/62 217/1119/62 216/506/62
f 210/508/63 218/1120/63 217/509/63
f 211/511/64 219/1121/64 218/512/64
f 211/514/65 204/1122/65 212/515/65
f 223/549/68 231/1123/68 230/550/68
f 224/552/69 232/1124/69 231/553/69
f 224/555/70 225/1125/70 233/556/70
f 225/558/165 226/1126/165 234/559/165
f 227/561/72 235/1127/72 234/562/72
f 228/564/73 236/1128/73 235/565/73
f 228/567/74 229/1129/74 237/568/74
f 229/570/75 222/1130/75 230/571/75
f 241/605/78 249/1131/78 248/606/78
f 242/608/79 250/1132/79 249/609/79
f 243/611/80 251/1133/80 250/612/80
f 244/614/81 252/1134/81 251/615/81
f 244/617/82 245/1135/82 253/618/82
f 246/620/83 254/1136/83 253/621/83
f 247/623/84 255/1137/84 254/624/84
f 240/626/166 248/1138/166 255/627/166
f 258/661/88 259/1139/88 267/662/88
f 259/664/89 260/1140/89 268/665/89
f 261/667/90 269/1141/90 268/668/90
f 262/670/91 270/1142/91 269/671/91
f 263/673/92 271/1143/92 270/674/92
f 264/676/93 272/1144/93 271/677/93
f 265/679/94 273/1145/94 272/680/94
f 258/682/95 266/1146/95 273/683/95
f 276/717/98 277/1147/98 285/718/98
f 277/720/99 278/1148/99 286/721/99
f 279/723/100 287/1149/100 286/724/100
f 280/726/101 288/1150/101 287/727/101
f 281/729/102 289/1151/102 288/730/102
f 282/732/103 290/1152/103 289/733/103
f 283/735/104 291/1153/104 290/736/104
f 276/738/105 284/1154/105 291/739/105
