# Blender 5.2.2 LTS
# www.blender.org
mtllib Coin_Gold.mtl
o Coin_Gold
v 0.000000 0.012000 0.000000
v 0.190000 0.012000 0.000000
v 0.153713 0.012000 -0.111679
v 0.058713 0.012000 -0.180701
v -0.058713 0.012000 -0.180701
v -0.153713 0.012000 -0.111679
v -0.190000 0.012000 -0.000000
v -0.153713 0.012000 0.111679
v -0.058713 0.012000 0.180701
v 0.058713 0.012000 0.180701
v 0.153713 0.012000 0.111679
v 0.250000 0.000000 0.000000
v 0.202254 0.000000 -0.146946
v 0.077254 0.000000 -0.237764
v -0.077254 0.000000 -0.237764
v -0.202254 0.000000 -0.146946
v -0.250000 0.000000 -0.000000
v -0.202254 0.000000 0.146946
v -0.077254 0.000000 0.237764
v 0.077254 0.000000 0.237764
v 0.202254 0.000000 0.146946
v 0.250000 0.080000 0.000000
v 0.202254 0.080000 -0.146946
v 0.077254 0.080000 -0.237764
v -0.077254 0.080000 -0.237764
v -0.202254 0.080000 -0.146946
v -0.250000 0.080000 -0.000000
v -0.202254 0.080000 0.146946
v -0.077254 0.080000 0.237764
v 0.077254 0.080000 0.237764
v 0.202254 0.080000 0.146946
v 0.200000 0.068000 0.000000
v 0.161803 0.068000 -0.117557
v 0.061803 0.068000 -0.190211
v -0.061803 0.068000 -0.190211
v -0.161803 0.068000 -0.117557
v -0.200000 0.068000 -0.000000
v -0.161803 0.068000 0.117557
v -0.061803 0.068000 0.190211
v 0.061803 0.068000 0.190211
v 0.161803 0.068000 0.117557
v 0.000000 0.068000 0.000000
v 0.080000 0.066000 0.000000
v -0.080000 0.066000 0.000000
v 0.000000 0.066000 -0.110000
v 0.000000 0.066000 0.110000
v 0.045000 0.086000 0.000000
v -0.045000 0.086000 0.000000
v 0.000000 0.086000 -0.065000
v 0.000000 0.086000 0.065000
vn -0.0000 -1.0000 -0.0000
vn -0.1957 -0.9786 0.0636
vn -0.1210 -0.9786 0.1665
vn -0.0000 -0.9786 0.2058
vn 0.1210 -0.9786 0.1665
vn 0.1957 -0.9786 0.0636
vn 0.1957 -0.9786 -0.0636
vn 0.1210 -0.9786 -0.1665
vn -0.0000 -0.9786 -0.2058
vn -0.1210 -0.9786 -0.1665
vn -0.1957 -0.9786 -0.0636
vn 0.9511 -0.0000 -0.3090
vn 0.5878 -0.0000 -0.8090
vn -0.0000 -0.0000 -1.0000
vn -0.5878 -0.0000 -0.8090
vn -0.9511 -0.0000 -0.3090
vn -0.9511 -0.0000 0.3090
vn -0.5878 -0.0000 0.8090
vn -0.0000 -0.0000 1.0000
vn 0.5878 -0.0000 0.8090
vn 0.9511 -0.0000 0.3090
vn -0.2327 0.9696 0.0756
vn -0.1438 0.9696 0.1980
vn -0.0000 0.9696 0.2447
vn 0.1438 0.9696 0.1980
vn 0.2327 0.9696 0.0756
vn 0.2327 0.9696 -0.0756
vn 0.1438 0.9696 -0.1980
vn -0.0000 0.9696 -0.2447
vn -0.1438 0.9696 -0.1980
vn -0.2327 0.9696 -0.0756
vn -0.0000 1.0000 -0.0000
vn -0.4692 0.8212 -0.3249
vn -0.4876 0.7978 -0.3546
vn -0.4876 0.7978 0.3546
vn -0.4692 0.8212 0.3249
vn 0.4692 0.8212 -0.3249
vn 0.4876 0.7978 -0.3546
vn 0.4876 0.7978 0.3546
vn 0.4692 0.8212 0.3249
vt 0.100000 0.100000
vt 0.025000 0.083408
vt 0.046306 0.025000
vt 0.100000 0.044220
vt 0.032342 0.100000
vt 0.025000 0.025000
vt 0.100000 0.025000
vt 0.061786 0.100000
vt 0.025000 0.063214
vt 0.080780 0.025000
vt 0.025000 0.092658
vt 0.100000 0.078694
vt 0.041592 0.100000
vt 0.100000 0.041592
vt 0.078694 0.100000
vt 0.025000 0.080780
vt 0.092658 0.025000
vt 0.025000 0.100000
vt 0.063214 0.025000
vt 0.100000 0.061786
vt 0.044220 0.100000
vt 0.100000 0.032342
vt 0.025000 0.046306
vt 0.083408 0.025000
vt 0.100000 0.046638
vt 0.025000 0.095213
vt 0.070819 0.025000
vt 0.100000 0.086613
vt 0.082805 0.029613
vt 0.100000 0.070625
vt 0.025000 0.039967
vt 0.054964 0.025000
vt 0.038581 0.025000
vt 0.025000 0.076649
vt 0.077949 0.025000
vt 0.030330 0.100000
vt 0.025000 0.060518
vt 0.025000 0.078362
vt 0.100000 0.029787
vt 0.054181 0.100000
vt 0.025000 0.038387
vt 0.042195 0.095387
vt 0.025000 0.054375
vt 0.100000 0.085033
vt 0.070036 0.100000
vt 0.086419 0.100000
vt 0.100000 0.048351
vt 0.047051 0.100000
vt 0.094670 0.025000
vt 0.100000 0.064482
vt 0.200254 0.025000
vt 0.174746 0.100000
vt 0.150000 0.073562
vt 0.150000 0.054268
vt 0.225000 0.070732
vt 0.202858 0.100000
vt 0.150000 0.050585
vt 0.225000 0.074415
vt 0.199415 0.100000
vt 0.225000 0.073562
vt 0.150000 0.051438
vt 0.174746 0.025000
vt 0.172142 0.100000
vt 0.202858 0.025000
vt 0.225000 0.054268
vt 0.175585 0.100000
vt 0.199415 0.025000
vt 0.225000 0.050585
vt 0.350000 0.095968
vt 0.275000 0.043226
vt 0.301377 0.025000
vt 0.350000 0.025000
vt 0.275000 0.088844
vt 0.295223 0.028844
vt 0.288894 0.100000
vt 0.323885 0.025000
vt 0.350000 0.037902
vt 0.350000 0.073621
vt 0.278611 0.046103
vt 0.338611 0.025000
vt 0.275000 0.050134
vt 0.350000 0.064893
vt 0.345304 0.100000
vt 0.275000 0.029032
vt 0.350000 0.081774
vt 0.323623 0.100000
vt 0.275000 0.100000
vt 0.350000 0.036156
vt 0.329777 0.096156
vt 0.336106 0.025000
vt 0.301115 0.100000
vt 0.275000 0.087098
vt 0.275000 0.051379
vt 0.346389 0.078897
vt 0.286389 0.100000
vt 0.350000 0.074866
vt 0.275000 0.060107
vt 0.279696 0.025000
vt 0.203694 0.025000
vt 0.225000 0.083408
vt 0.150000 0.100000
vt 0.225000 0.025000
vt 0.217658 0.100000
vt 0.150000 0.044220
vt 0.225000 0.063214
vt 0.188214 0.100000
vt 0.150000 0.025000
vt 0.225000 0.092658
vt 0.169220 0.025000
vt 0.208408 0.100000
vt 0.150000 0.078694
vt 0.171306 0.100000
vt 0.150000 0.041592
vt 0.157342 0.025000
vt 0.225000 0.080780
vt 0.150000 0.061786
vt 0.186786 0.025000
vt 0.225000 0.100000
vt 0.150000 0.032342
vt 0.205780 0.100000
vt 0.166592 0.025000
vt 0.225000 0.046306
vt 0.419451 0.025000
vt 0.475000 0.067857
vt 0.400000 0.100000
vt 0.458553 0.025000
vt 0.475000 0.100000
vt 0.400000 0.050000
vt 0.160227 0.035227
vt 0.214773 0.089773
vt 0.400000 0.025000
vt 0.475000 0.042763
vt 0.434034 0.100000
vt 0.447396 0.025000
vt 0.475000 0.081897
vt 0.463462 0.036538
vt 0.411538 0.088462
vt 0.400000 0.043103
vt 0.475000 0.025000
vt 0.427604 0.100000
vt 0.440966 0.025000
vt 0.400000 0.082237
vt 0.475000 0.075000
vt 0.416447 0.100000
vt 0.455549 0.100000
vt 0.400000 0.057143
vt 0.065178 0.100000
vt 0.047625 0.100000
vt 0.084258 0.100000
vt 0.095581 0.042747
vt 0.100000 0.053266
vt 0.059822 0.025000
vt 0.077375 0.025000
vt 0.040742 0.025000
vt 0.029419 0.082253
vt 0.025000 0.071734
vt 0.225000 0.051438
vt 0.172142 0.025000
vt 0.175585 0.025000
vt 0.200254 0.100000
vt 0.150000 0.070732
vt 0.150000 0.074415
vt 0.313898 0.100000
vt 0.324721 0.100000
vt 0.275000 0.074678
vt 0.293757 0.025000
vt 0.311102 0.025000
vt 0.300279 0.025000
vt 0.350000 0.050322
vt 0.331243 0.100000
s 0
usemtl HoardAtlas
f 1/1/1 3/2/1 2/3/1
f 1/4/1 4/5/1 3/6/1
f 1/7/1 5/8/1 4/9/1
f 1/10/1 6/1/1 5/11/1
f 1/6/1 7/12/1 6/13/1
f 1/6/1 8/14/1 7/15/1
f 1/16/1 9/17/1 8/1/1
f 1/18/1 10/19/1 9/20/1
f 1/21/1 11/6/1 10/22/1
f 1/1/1 2/23/1 11/24/1
f 2/25/2 13/26/2 12/27/2
f 4/28/3 13/6/3 3/29/3
f 5/30/4 14/31/4 4/32/4
f 5/33/5 16/1/5 15/34/5
f 7/35/6 16/36/6 6/37/6
f 7/38/7 18/39/7 17/40/7
f 9/41/8 18/1/8 8/42/8
f 10/43/9 19/44/9 9/45/9
f 10/46/10 21/6/10 20/47/10
f 2/48/11 21/49/11 11/50/11
f 13/51/12 22/52/12 12/53/12
f 14/54/13 23/55/13 13/56/13
f 15/57/14 24/58/14 14/59/14
f 16/54/15 25/55/15 15/56/15
f 17/60/16 26/61/16 16/62/16
f 18/60/17 27/61/17 17/62/17
f 19/63/18 28/64/18 18/65/18
f 20/66/19 29/67/19 19/68/19
f 21/63/20 30/64/20 20/65/20
f 12/51/21 31/52/21 21/53/21
f 23/69/22 32/70/22 22/71/22
f 23/72/23 34/73/23 33/74/23
f 25/75/24 34/76/24 24/77/24
f 25/78/25 36/79/25 35/80/25
f 27/81/26 36/82/26 26/83/26
f 28/84/27 37/85/27 27/86/27
f 28/87/28 39/88/28 38/89/28
f 30/90/29 39/91/29 29/92/29
f 30/93/30 41/94/30 40/95/30
f 22/96/31 41/97/31 31/98/31
f 32/99/32 33/100/32 42/101/32
f 33/102/32 34/103/32 42/104/32
f 34/105/32 35/106/32 42/107/32
f 35/108/32 36/101/32 42/109/32
f 36/110/32 37/111/32 42/102/32
f 37/112/32 38/113/32 42/102/32
f 38/101/32 39/114/32 42/115/32
f 39/116/32 40/117/32 42/118/32
f 40/119/32 41/102/32 42/120/32
f 41/121/32 32/122/32 42/101/32
f 48/123/33 49/124/33 44/125/33
f 49/126/34 45/127/34 44/128/34
f 45/101/1 43/129/1 46/102/1
f 45/101/1 46/102/1 44/130/1
f 46/131/35 50/132/35 44/133/35
f 50/134/36 48/135/36 44/125/36
f 50/131/32 47/136/32 49/127/32
f 50/131/32 49/127/32 48/137/32
f 47/138/37 43/139/37 49/140/37
f 43/141/38 45/127/38 49/142/38
f 43/143/39 50/144/39 46/131/39
f 43/139/40 47/145/40 50/146/40
f 2/25/2 3/147/2 13/26/2
f 4/28/3 14/148/3 13/6/3
f 5/30/4 15/149/4 14/31/4
f 5/33/5 6/150/5 16/1/5
f 7/35/6 17/151/6 16/36/6
f 7/38/7 8/152/7 18/39/7
f 9/41/8 19/153/8 18/1/8
f 10/43/9 20/154/9 19/44/9
f 10/46/10 11/155/10 21/6/10
f 2/48/11 12/156/11 21/49/11
f 13/51/12 23/157/12 22/52/12
f 14/54/13 24/158/13 23/55/13
f 15/57/14 25/159/14 24/58/14
f 16/54/15 26/158/15 25/55/15
f 17/60/16 27/160/16 26/61/16
f 18/60/17 28/160/17 27/61/17
f 19/63/18 29/161/18 28/64/18
f 20/66/19 30/162/19 29/67/19
f 21/63/20 31/161/20 30/64/20
f 12/51/21 22/157/21 31/52/21
f 23/69/22 33/163/22 32/70/22
f 23/72/23 24/164/23 34/73/23
f 25/75/24 35/165/24 34/76/24
f 25/78/25 26/87/25 36/79/25
f 27/81/26 37/166/26 36/82/26
f 28/84/27 38/167/27 37/85/27
f 28/87/28 29/168/28 39/88/28
f 30/90/29 40/169/29 39/91/29
f 30/93/30 31/72/30 41/94/30
f 22/96/31 32/170/31 41/97/31
