# Blender 5.2.2 LTS
# www.blender.org
mtllib Crown_Gold.mtl
o Crown_Gold
v 0.500000 0.000000 0.000000
v 0.461940 0.000000 -0.191342
v 0.353553 0.000000 -0.353553
v 0.191342 0.000000 -0.461940
v 0.000000 0.000000 -0.500000
v -0.191342 0.000000 -0.461940
v -0.353553 0.000000 -0.353553
v -0.461940 0.000000 -0.191342
v -0.500000 0.000000 -0.000000
v -0.461940 0.000000 0.191342
v -0.353553 0.000000 0.353553
v -0.191342 0.000000 0.461940
v -0.000000 0.000000 0.500000
v 0.191342 0.000000 0.461940
v 0.353553 0.000000 0.353553
v 0.461940 0.000000 0.191342
v 0.560000 0.000000 0.000000
v 0.517373 0.000000 -0.214303
v 0.395980 0.000000 -0.395980
v 0.214303 0.000000 -0.517373
v 0.000000 0.000000 -0.560000
v -0.214303 0.000000 -0.517373
v -0.395980 0.000000 -0.395980
v -0.517373 0.000000 -0.214303
v -0.560000 0.000000 -0.000000
v -0.517373 0.000000 0.214303
v -0.395980 0.000000 0.395980
v -0.214303 0.000000 0.517373
v -0.000000 0.000000 0.560000
v 0.214303 0.000000 0.517373
v 0.395980 0.000000 0.395980
v 0.517373 0.000000 0.214303
v 0.560000 0.280000 0.000000
v 0.517373 0.280000 -0.214303
v 0.395980 0.280000 -0.395980
v 0.214303 0.280000 -0.517373
v 0.000000 0.280000 -0.560000
v -0.214303 0.280000 -0.517373
v -0.395980 0.280000 -0.395980
v -0.517373 0.280000 -0.214303
v -0.560000 0.280000 -0.000000
v -0.517373 0.280000 0.214303
v -0.395980 0.280000 0.395980
v -0.214303 0.280000 0.517373
v -0.000000 0.280000 0.560000
v 0.214303 0.280000 0.517373
v 0.395980 0.280000 0.395980
v 0.517373 0.280000 0.214303
v 0.500000 0.280000 0.000000
v 0.461940 0.280000 -0.191342
v 0.353553 0.280000 -0.353553
v 0.191342 0.280000 -0.461940
v 0.000000 0.280000 -0.500000
v -0.191342 0.280000 -0.461940
v -0.353553 0.280000 -0.353553
v -0.461940 0.280000 -0.191342
v -0.500000 0.280000 -0.000000
v -0.461940 0.280000 0.191342
v -0.353553 0.280000 0.353553
v -0.191342 0.280000 0.461940
v -0.000000 0.280000 0.500000
v 0.191342 0.280000 0.461940
v 0.353553 0.280000 0.353553
v 0.461940 0.280000 0.191342
v 0.555000 0.000000 0.000000
v 0.512753 0.000000 -0.212389
v 0.392444 0.000000 -0.392444
v 0.212389 0.000000 -0.512753
v 0.000000 0.000000 -0.555000
v -0.212389 0.000000 -0.512753
v -0.392444 0.000000 -0.392444
v -0.512753 0.000000 -0.212389
v -0.555000 0.000000 -0.000000
v -0.512753 0.000000 0.212389
v -0.392444 0.000000 0.392444
v -0.212389 0.000000 0.512753
v -0.000000 0.000000 0.555000
v 0.212389 0.000000 0.512753
v 0.392444 0.000000 0.392444
v 0.512753 0.000000 0.212389
v 0.600000 0.000000 0.000000
v 0.554328 0.000000 -0.229610
v 0.424264 0.000000 -0.424264
v 0.229610 0.000000 -0.554328
v 0.000000 0.000000 -0.600000
v -0.229610 0.000000 -0.554328
v -0.424264 0.000000 -0.424264
v -0.554328 0.000000 -0.229610
v -0.600000 0.000000 -0.000000
v -0.554328 0.000000 0.229610
v -0.424264 0.000000 0.424264
v -0.229610 0.000000 0.554328
v -0.000000 0.000000 0.600000
v 0.229610 0.000000 0.554328
v 0.424264 0.000000 0.424264
v 0.554328 0.000000 0.229610
v 0.600000 0.070000 0.000000
v 0.554328 0.070000 -0.229610
v 0.424264 0.070000 -0.424264
v 0.229610 0.070000 -0.554328
v 0.000000 0.070000 -0.600000
v -0.229610 0.070000 -0.554328
v -0.424264 0.070000 -0.424264
v -0.554328 0.070000 -0.229610
v -0.600000 0.070000 -0.000000
v -0.554328 0.070000 0.229610
v -0.424264 0.070000 0.424264
v -0.229610 0.070000 0.554328
v -0.000000 0.070000 0.600000
v 0.229610 0.070000 0.554328
v 0.424264 0.070000 0.424264
v 0.554328 0.070000 0.229610
v 0.555000 0.070000 0.000000
v 0.512753 0.070000 -0.212389
v 0.392444 0.070000 -0.392444
v 0.212389 0.070000 -0.512753
v 0.000000 0.070000 -0.555000
v -0.212389 0.070000 -0.512753
v -0.392444 0.070000 -0.392444
v -0.512753 0.070000 -0.212389
v -0.555000 0.070000 -0.000000
v -0.512753 0.070000 0.212389
v -0.392444 0.070000 0.392444
v -0.212389 0.070000 0.512753
v -0.000000 0.070000 0.555000
v 0.212389 0.070000 0.512753
v 0.392444 0.070000 0.392444
v 0.512753 0.070000 0.212389
v 0.555000 0.235000 0.000000
v 0.512753 0.235000 -0.212389
v 0.392444 0.235000 -0.392444
v 0.212389 0.235000 -0.512753
v 0.000000 0.235000 -0.555000
v -0.212389 0.235000 -0.512753
v -0.392444 0.235000 -0.392444
v -0.512753 0.235000 -0.212389
v -0.555000 0.235000 -0.000000
v -0.512753 0.235000 0.212389
v -0.392444 0.235000 0.392444
v -0.212389 0.235000 0.512753
v -0.000000 0.235000 0.555000
v 0.212389 0.235000 0.512753
v 0.392444 0.235000 0.392444
v 0.512753 0.235000 0.212389
v 0.590000 0.235000 0.000000
v 0.545089 0.235000 -0.225783
v 0.417193 0.235000 -0.417193
v 0.225783 0.235000 -0.545089
v 0.000000 0.235000 -0.590000
v -0.225783 0.235000 -0.545089
v -0.417193 0.235000 -0.417193
v -0.545089 0.235000 -0.225783
v -0.590000 0.235000 -0.000000
v -0.545089 0.235000 0.225783
v -0.417193 0.235000 0.417193
v -0.225783 0.235000 0.545089
v -0.000000 0.235000 0.590000
v 0.225783 0.235000 0.545089
v 0.417193 0.235000 0.417193
v 0.545089 0.235000 0.225783
v 0.590000 0.295000 0.000000
v 0.545089 0.295000 -0.225783
v 0.417193 0.295000 -0.417193
v 0.225783 0.295000 -0.545089
v 0.000000 0.295000 -0.590000
v -0.225783 0.295000 -0.545089
v -0.417193 0.295000 -0.417193
v -0.545089 0.295000 -0.225783
v -0.590000 0.295000 -0.000000
v -0.545089 0.295000 0.225783
v -0.417193 0.295000 0.417193
v -0.225783 0.295000 0.545089
v -0.000000 0.295000 0.590000
v 0.225783 0.295000 0.545089
v 0.417193 0.295000 0.417193
v 0.545089 0.295000 0.225783
v 0.555000 0.295000 0.000000
v 0.512753 0.295000 -0.212389
v 0.392444 0.295000 -0.392444
v 0.212389 0.295000 -0.512753
v 0.000000 0.295000 -0.555000
v -0.212389 0.295000 -0.512753
v -0.392444 0.295000 -0.392444
v -0.512753 0.295000 -0.212389
v -0.555000 0.295000 -0.000000
v -0.512753 0.295000 0.212389
v -0.392444 0.295000 0.392444
v -0.212389 0.295000 0.512753
v -0.000000 0.295000 0.555000
v 0.212389 0.295000 0.512753
v 0.392444 0.295000 0.392444
v 0.512753 0.295000 0.212389
v 0.500000 0.060000 0.000000
v 0.433013 0.060000 -0.250000
v 0.250000 0.060000 -0.433013
v 0.000000 0.060000 -0.500000
v -0.250000 0.060000 -0.433013
v -0.433013 0.060000 -0.250000
v -0.500000 0.060000 -0.000000
v -0.433013 0.060000 0.250000
v -0.250000 0.060000 0.433013
v -0.000000 0.060000 0.500000
v 0.250000 0.060000 0.433013
v 0.433013 0.060000 0.250000
v 0.460000 0.200000 0.000000
v 0.398372 0.200000 -0.230000
v 0.230000 0.200000 -0.398372
v 0.000000 0.200000 -0.460000
v -0.230000 0.200000 -0.398372
v -0.398372 0.200000 -0.230000
v -0.460000 0.200000 -0.000000
v -0.398372 0.200000 0.230000
v -0.230000 0.200000 0.398372
v -0.000000 0.200000 0.460000
v 0.230000 0.200000 0.398372
v 0.398372 0.200000 0.230000
v 0.360000 0.300000 0.000000
v 0.311769 0.300000 -0.180000
v 0.180000 0.300000 -0.311769
v 0.000000 0.300000 -0.360000
v -0.180000 0.300000 -0.311769
v -0.311769 0.300000 -0.180000
v -0.360000 0.300000 -0.000000
v -0.311769 0.300000 0.180000
v -0.180000 0.300000 0.311769
v -0.000000 0.300000 0.360000
v 0.180000 0.300000 0.311769
v 0.311769 0.300000 0.180000
v 0.200000 0.355000 0.000000
v 0.173205 0.355000 -0.100000
v 0.100000 0.355000 -0.173205
v 0.000000 0.355000 -0.200000
v -0.100000 0.355000 -0.173205
v -0.173205 0.355000 -0.100000
v -0.200000 0.355000 -0.000000
v -0.173205 0.355000 0.100000
v -0.100000 0.355000 0.173205
v -0.000000 0.355000 0.200000
v 0.100000 0.355000 0.173205
v 0.173205 0.355000 0.100000
v 0.000000 0.375000 0.000000
v -0.050000 0.360000 0.050000
v -0.050000 0.430000 0.050000
v -0.050000 0.360000 -0.050000
v -0.050000 0.430000 -0.050000
v 0.050000 0.360000 0.050000
v 0.050000 0.430000 0.050000
v 0.050000 0.360000 -0.050000
v 0.050000 0.430000 -0.050000
v 0.000000 0.490000 0.000000
v 0.483195 0.280000 0.128540
v 0.541178 0.280000 0.143965
v 0.483195 0.280000 -0.128540
v 0.541178 0.280000 -0.143965
v 0.515000 0.600000 0.000000
v 0.545000 0.600000 0.000000
v 0.501421 0.654200 0.016500
v 0.470000 0.638000 0.000000
v 0.530000 0.654200 0.033000
v 0.500000 0.638000 0.051962
v 0.558579 0.654200 0.016500
v 0.560000 0.638000 0.051962
v 0.558579 0.654200 -0.016500
v 0.590000 0.638000 -0.000000
v 0.530000 0.654200 -0.033000
v 0.560000 0.638000 -0.051962
v 0.501421 0.654200 -0.016500
v 0.500000 0.638000 -0.051962
v 0.530000 0.590000 0.000000
v 0.584200 0.166500 -0.028579
v 0.568000 0.150000 -0.060000
v 0.584200 0.183000 -0.000000
v 0.568000 0.201962 -0.030000
v 0.584200 0.166500 0.028579
v 0.568000 0.201962 0.030000
v 0.584200 0.133500 0.028579
v 0.568000 0.150000 0.060000
v 0.584200 0.117000 0.000000
v 0.568000 0.098038 0.030000
v 0.584200 0.133500 -0.028579
v 0.568000 0.098038 -0.030000
v 0.520000 0.150000 0.000000
v 0.432562 0.280000 -0.250779
v 0.484470 0.280000 -0.280872
v 0.250779 0.280000 -0.432562
v 0.280872 0.280000 -0.484470
v 0.364160 0.460000 -0.364160
v 0.385373 0.460000 -0.385373
v 0.409767 0.495000 -0.374767
v 0.339767 0.495000 -0.374767
v 0.374767 0.495000 -0.409767
v 0.374767 0.495000 -0.339767
v 0.374767 0.530000 -0.374767
v 0.374767 0.460000 -0.374767
v 0.392883 0.166500 -0.433300
v 0.359210 0.150000 -0.444063
v 0.413092 0.183000 -0.413092
v 0.380423 0.201962 -0.422850
v 0.433300 0.166500 -0.392883
v 0.422850 0.201962 -0.380423
v 0.433300 0.133500 -0.392884
v 0.444063 0.150000 -0.359210
v 0.413092 0.117000 -0.413092
v 0.422850 0.098038 -0.380423
v 0.392883 0.133500 -0.433300
v 0.380423 0.098038 -0.422850
v 0.367696 0.150000 -0.367696
v 0.128540 0.280000 -0.483195
v 0.143965 0.280000 -0.541178
v -0.128540 0.280000 -0.483195
v -0.143965 0.280000 -0.541178
v 0.000000 0.600000 -0.515000
v 0.000000 0.600000 -0.545000
v -0.028579 0.654200 -0.513500
v -0.060000 0.638000 -0.530000
v 0.000000 0.654200 -0.497000
v -0.030000 0.638000 -0.478038
v 0.028579 0.654200 -0.513500
v 0.030000 0.638000 -0.478038
v 0.028579 0.654200 -0.546500
v 0.060000 0.638000 -0.530000
v -0.000000 0.654200 -0.563000
v 0.030000 0.638000 -0.581962
v -0.028579 0.654200 -0.546500
v -0.030000 0.638000 -0.581962
v 0.000000 0.590000 -0.530000
v 0.016500 0.178579 -0.584200
v 0.000000 0.210000 -0.568000
v 0.033000 0.150000 -0.584200
v 0.051962 0.180000 -0.568000
v 0.016500 0.121421 -0.584200
v 0.051962 0.120000 -0.568000
v -0.016500 0.121421 -0.584200
v -0.000000 0.090000 -0.568000
v -0.033000 0.150000 -0.584200
v -0.051962 0.120000 -0.568000
v -0.016500 0.178579 -0.584200
v -0.051962 0.180000 -0.568000
v 0.000000 0.150000 -0.520000
v -0.250779 0.280000 -0.432562
v -0.280872 0.280000 -0.484470
v -0.432562 0.280000 -0.250779
v -0.484470 0.280000 -0.280872
v -0.364160 0.460000 -0.364160
v -0.385373 0.460000 -0.385373
v -0.339767 0.495000 -0.374767
v -0.409767 0.495000 -0.374767
v -0.374767 0.495000 -0.409767
v -0.374767 0.495000 -0.339767
v -0.374767 0.530000 -0.374767
v -0.374767 0.460000 -0.374767
v -0.433300 0.166500 -0.392883
v -0.444063 0.150000 -0.359210
v -0.413092 0.183000 -0.413092
v -0.422850 0.201962 -0.380423
v -0.392883 0.166500 -0.433300
v -0.380423 0.201962 -0.422850
v -0.392883 0.133500 -0.433300
v -0.359210 0.150000 -0.444063
v -0.413092 0.117000 -0.413092
v -0.380423 0.098038 -0.422850
v -0.433300 0.133500 -0.392884
v -0.422850 0.098038 -0.380423
v -0.367696 0.150000 -0.367696
v -0.483195 0.280000 -0.128540
v -0.541178 0.280000 -0.143965
v -0.483195 0.280000 0.128540
v -0.541178 0.280000 0.143965
v -0.515000 0.600000 -0.000000
v -0.545000 0.600000 -0.000000
v -0.558579 0.654200 0.016500
v -0.590000 0.638000 0.000000
v -0.530000 0.654200 0.033000
v -0.560000 0.638000 0.051962
v -0.501421 0.654200 0.016500
v -0.500000 0.638000 0.051962
v -0.501421 0.654200 -0.016500
v -0.470000 0.638000 -0.000000
v -0.530000 0.654200 -0.033000
v -0.500000 0.638000 -0.051962
v -0.558579 0.654200 -0.016500
v -0.560000 0.638000 -0.051962
v -0.530000 0.590000 -0.000000
v -0.584200 0.166500 0.028579
v -0.568000 0.150000 0.060000
v -0.584200 0.183000 -0.000000
v -0.568000 0.201962 0.030000
v -0.584200 0.166500 -0.028579
v -0.568000 0.201962 -0.030000
v -0.584200 0.133500 -0.028579
v -0.568000 0.150000 -0.060000
v -0.584200 0.117000 0.000000
v -0.568000 0.098038 -0.030000
v -0.584200 0.133500 0.028579
v -0.568000 0.098038 0.030000
v -0.520000 0.150000 -0.000000
v -0.432562 0.280000 0.250779
v -0.484470 0.280000 0.280872
v -0.250779 0.280000 0.432562
v -0.280872 0.280000 0.484470
v -0.364160 0.460000 0.364160
v -0.385373 0.460000 0.385373
v -0.339767 0.495000 0.374767
v -0.409767 0.495000 0.374767
v -0.374767 0.495000 0.339767
v -0.374767 0.495000 0.409767
v -0.374767 0.530000 0.374767
v -0.374767 0.460000 0.374767
v -0.392883 0.166500 0.433300
v -0.359210 0.150000 0.444063
v -0.413092 0.183000 0.413092
v -0.380423 0.201962 0.422850
v -0.433300 0.166500 0.392883
v -0.422850 0.201962 0.380423
v -0.433300 0.133500 0.392883
v -0.444063 0.150000 0.359210
v -0.413092 0.117000 0.413092
v -0.422850 0.098038 0.380423
v -0.392883 0.133500 0.433300
v -0.380423 0.098038 0.422850
v -0.367696 0.150000 0.367696
v -0.128540 0.280000 0.483195
v -0.143965 0.280000 0.541178
v 0.128540 0.280000 0.483195
v 0.143965 0.280000 0.541178
v -0.000000 0.600000 0.515000
v -0.000000 0.600000 0.545000
v -0.028579 0.654200 0.546500
v -0.060000 0.638000 0.530000
v 0.000000 0.654200 0.563000
v -0.030000 0.638000 0.581962
v 0.028579 0.654200 0.546500
v 0.030000 0.638000 0.581962
v 0.028579 0.654200 0.513500
v 0.060000 0.638000 0.530000
v -0.000000 0.654200 0.497000
v 0.030000 0.638000 0.478038
v -0.028579 0.654200 0.513500
v -0.030000 0.638000 0.478038
v -0.000000 0.590000 0.530000
v -0.016500 0.178579 0.584200
v 0.000000 0.210000 0.568000
v -0.033000 0.150000 0.584200
v -0.051962 0.180000 0.568000
v -0.016500 0.121421 0.584200
v -0.051962 0.120000 0.568000
v 0.016500 0.121421 0.584200
v -0.000000 0.090000 0.568000
v 0.033000 0.150000 0.584200
v 0.051962 0.120000 0.568000
v 0.016500 0.178579 0.584200
v 0.051962 0.180000 0.568000
v -0.000000 0.150000 0.520000
v 0.250779 0.280000 0.432562
v 0.280872 0.280000 0.484470
v 0.432562 0.280000 0.250779
v 0.484470 0.280000 0.280872
v 0.364160 0.460000 0.364160
v 0.385373 0.460000 0.385373
v 0.409767 0.495000 0.374767
v 0.339767 0.495000 0.374767
v 0.374767 0.495000 0.339767
v 0.374767 0.495000 0.409767
v 0.374767 0.530000 0.374767
v 0.374767 0.460000 0.374767
v 0.433300 0.166500 0.392883
v 0.444063 0.150000 0.359210
v 0.413092 0.183000 0.413092
v 0.422850 0.201962 0.380423
v 0.392883 0.166500 0.433300
v 0.380423 0.201962 0.422850
v 0.392883 0.133500 0.433300
v 0.359210 0.150000 0.444063
v 0.413092 0.117000 0.413092
v 0.380423 0.098038 0.422850
v 0.433300 0.133500 0.392883
v 0.422850 0.098038 0.380423
v 0.367696 0.150000 0.367696
vn -0.0000 -1.0000 -0.0000
vn 0.9808 -0.0000 -0.1951
vn 0.8315 -0.0000 -0.5556
vn 0.5556 -0.0000 -0.8315
vn 0.1951 -0.0000 -0.9808
vn -0.1951 -0.0000 -0.9808
vn -0.5556 -0.0000 -0.8315
vn -0.8315 -0.0000 -0.5556
vn -0.9808 -0.0000 -0.1951
vn -0.9808 -0.0000 0.1951
vn -0.8315 -0.0000 0.5556
vn -0.5556 -0.0000 0.8315
vn -0.1951 -0.0000 0.9808
vn 0.1951 -0.0000 0.9808
vn 0.5556 -0.0000 0.8315
vn 0.8315 -0.0000 0.5556
vn 0.9808 -0.0000 0.1951
vn -0.0000 1.0000 -0.0000
vn 0.9311 0.2660 -0.2495
vn 0.6816 0.2660 -0.6816
vn 0.2495 0.2660 -0.9311
vn -0.2495 0.2660 -0.9311
vn -0.6816 0.2660 -0.6816
vn -0.9311 0.2660 -0.2495
vn -0.9311 0.2660 0.2495
vn -0.6816 0.2660 0.6816
vn -0.2495 0.2660 0.9311
vn 0.2495 0.2660 0.9311
vn 0.6816 0.2660 0.6816
vn 0.9311 0.2660 0.2495
vn 0.6947 0.6947 -0.1862
vn 0.5086 0.6947 -0.5086
vn 0.1862 0.6947 -0.6947
vn -0.1862 0.6947 -0.6947
vn -0.5086 0.6947 -0.5086
vn -0.6947 0.6947 -0.1862
vn -0.6947 0.6947 0.1862
vn -0.5086 0.6947 0.5086
vn -0.1862 0.6947 0.6947
vn 0.1862 0.6947 0.6947
vn 0.5086 0.6947 0.5086
vn 0.6947 0.6947 0.1862
vn 0.3239 0.9421 -0.0868
vn 0.2371 0.9421 -0.2371
vn 0.0868 0.9421 -0.3239
vn -0.0868 0.9421 -0.3239
vn -0.2371 0.9421 -0.2371
vn -0.3239 0.9421 -0.0868
vn -0.3239 0.9421 0.0868
vn -0.2371 0.9421 0.2371
vn -0.0868 0.9421 0.3239
vn 0.0868 0.9421 0.3239
vn 0.2371 0.9421 0.2371
vn 0.3239 0.9421 0.0868
vn 0.0995 0.9947 -0.0267
vn 0.0728 0.9947 -0.0728
vn 0.0267 0.9947 -0.0995
vn -0.0267 0.9947 -0.0995
vn -0.0728 0.9947 -0.0728
vn -0.0995 0.9947 -0.0267
vn -0.0995 0.9947 0.0267
vn -0.0728 0.9947 0.0728
vn -0.0267 0.9947 0.0995
vn 0.0267 0.9947 0.0995
vn 0.0728 0.9947 0.0728
vn 0.0995 0.9947 0.0267
vn 0.7682 0.6402 -0.0000
vn 1.0000 -0.0000 -0.0000
vn -0.0000 -0.0000 -1.0000
vn -0.0000 0.6402 -0.7682
vn -0.7682 0.6402 -0.0000
vn -0.0000 0.6402 0.7682
vn -0.0000 -0.0000 1.0000
vn -1.0000 -0.0000 -0.0000
vn 0.9999 -0.0119 -0.0000
vn -0.0000 0.4103 0.9120
vn -0.2376 0.3823 0.8930
vn -0.9951 0.0989 -0.0000
vn -0.2376 0.3823 -0.8930
vn -0.0000 0.4103 -0.9120
vn 0.2291 0.8888 -0.3969
vn 0.5625 0.7603 -0.3248
vn 0.5876 -0.7346 -0.3393
vn -0.0000 -0.7346 -0.6786
vn -0.0000 0.7603 -0.6496
vn -0.2291 0.8888 -0.3969
vn 0.4583 0.8888 -0.0000
vn 0.5626 0.7603 0.3248
vn 0.5876 -0.7346 0.3393
vn -0.5876 -0.7346 0.3393
vn -0.5876 -0.7346 -0.3393
vn -0.0000 -0.7346 0.6786
vn -0.5625 0.7603 -0.3248
vn -0.4583 0.8888 -0.0000
vn 0.2291 0.8888 0.3969
vn -0.0000 0.7603 0.6496
vn -0.2291 0.8888 0.3969
vn -0.5625 0.7603 0.3248
vn 0.8888 0.3969 -0.2291
vn 0.7603 0.3248 -0.5625
vn -0.7346 0.3393 -0.5876
vn -0.7346 0.6786 -0.0000
vn 0.7603 0.6496 -0.0000
vn 0.8888 0.3969 0.2291
vn 0.8888 -0.0000 -0.4583
vn 0.7603 -0.3248 -0.5625
vn -0.7346 -0.3393 -0.5876
vn -0.7346 -0.3393 0.5876
vn -0.7346 0.3393 0.5876
vn -0.7346 -0.6786 -0.0000
vn 0.7603 0.3248 0.5625
vn 0.8888 -0.0000 0.4583
vn 0.8888 -0.3969 0.2291
vn 0.7603 -0.6496 -0.0000
vn 0.8888 -0.3969 -0.2291
vn 0.7603 -0.3248 0.5625
vn -0.6969 0.5925 -0.4040
vn -0.5522 0.6246 -0.5522
vn 0.7069 -0.0212 -0.7069
vn -0.6963 0.1740 0.6963
vn 0.4040 0.5925 0.6969
vn 0.5522 0.6246 0.5522
vn 0.5774 0.5773 -0.5774
vn 0.5774 0.5773 0.5774
vn 0.5773 -0.5774 0.5774
vn 0.5773 -0.5774 -0.5774
vn -0.5773 -0.5774 -0.5774
vn -0.5774 0.5773 -0.5774
vn -0.5774 0.5773 0.5774
vn -0.5773 -0.5774 0.5774
vn 0.9354 0.3248 -0.1398
vn -0.1039 0.3393 0.9349
vn -0.1039 -0.3393 0.9349
vn 0.9354 -0.3248 -0.1398
vn 0.9525 -0.0000 -0.3045
vn 0.7071 -0.0000 -0.7071
vn 0.7905 0.3969 -0.4665
vn 0.5376 0.6496 -0.5376
vn -0.5194 0.6786 0.5194
vn -0.9349 -0.3393 0.1039
vn -0.5194 -0.6786 0.5194
vn -0.9349 0.3393 0.1039
vn 0.5376 -0.6496 -0.5376
vn 0.7905 -0.3969 -0.4665
vn 0.4665 0.3969 -0.7905
vn 0.3045 -0.0000 -0.9525
vn 0.1398 0.3248 -0.9354
vn 0.1398 -0.3248 -0.9354
vn 0.4665 -0.3969 -0.7905
vn 0.8930 0.3823 0.2376
vn -0.0000 -0.0119 -0.9999
vn 0.9120 0.4103 -0.0000
vn -0.9120 0.4103 -0.0000
vn -0.8930 0.3823 0.2376
vn -0.0000 0.0989 0.9951
vn 0.5625 0.7603 0.3248
vn 0.3969 0.2291 -0.8888
vn 0.3248 0.5625 -0.7603
vn 0.3393 0.5876 0.7346
vn 0.6786 -0.0000 0.7346
vn 0.6496 -0.0000 -0.7603
vn 0.3969 -0.2291 -0.8888
vn -0.0000 0.4583 -0.8888
vn -0.3248 0.5625 -0.7603
vn -0.3393 0.5876 0.7346
vn -0.3393 -0.5876 0.7346
vn 0.3393 -0.5876 0.7346
vn -0.6786 -0.0000 0.7346
vn 0.3248 -0.5625 -0.7603
vn -0.0000 -0.4583 -0.8888
vn -0.3969 -0.2291 -0.8888
vn -0.6496 -0.0000 -0.7603
vn -0.3969 0.2291 -0.8888
vn -0.3248 -0.5625 -0.7603
vn 0.6969 0.5925 -0.4040
vn -0.7069 -0.0212 -0.7069
vn 0.5522 0.6246 -0.5522
vn -0.5522 0.6246 0.5522
vn -0.4040 0.5925 0.6969
vn 0.6963 0.1740 0.6963
vn -0.1398 0.3248 -0.9354
vn 0.9349 0.3393 0.1039
vn 0.9349 -0.3393 0.1039
vn -0.1398 -0.3248 -0.9354
vn -0.3045 -0.0000 -0.9525
vn -0.7071 -0.0000 -0.7071
vn -0.4665 0.3969 -0.7905
vn -0.5376 0.6496 -0.5376
vn 0.5194 0.6786 0.5194
vn 0.1039 -0.3393 0.9349
vn 0.5194 -0.6786 0.5194
vn 0.1039 0.3393 0.9349
vn -0.5376 -0.6496 -0.5376
vn -0.4665 -0.3969 -0.7905
vn -0.7905 0.3969 -0.4665
vn -0.9525 -0.0000 -0.3045
vn -0.9354 0.3248 -0.1398
vn -0.9354 -0.3248 -0.1398
vn -0.7905 -0.3969 -0.4665
vn 0.2376 0.3823 0.8930
vn -0.9999 -0.0119 -0.0000
vn 0.9951 0.0989 -0.0000
vn 0.2376 0.3823 -0.8930
vn -0.7603 0.3248 -0.5625
vn -0.8888 0.3969 -0.2291
vn -0.7603 0.6496 -0.0000
vn 0.7346 0.6786 -0.0000
vn 0.7346 0.3393 -0.5876
vn 0.7346 -0.3393 -0.5876
vn -0.7603 -0.3248 -0.5625
vn -0.8888 -0.0000 -0.4583
vn -0.8888 0.3969 0.2291
vn -0.7603 0.3248 0.5625
vn 0.7346 0.3393 0.5876
vn 0.7346 -0.3393 0.5876
vn 0.7346 -0.6786 -0.0000
vn -0.7603 -0.6496 -0.0000
vn -0.8888 -0.3969 -0.2291
vn -0.8888 -0.3969 0.2291
vn -0.8888 -0.0000 0.4583
vn -0.7603 -0.3248 0.5625
vn -0.4040 0.5925 -0.6969
vn 0.6963 0.1740 -0.6963
vn -0.7069 -0.0212 0.7069
vn 0.6969 0.5925 0.4040
vn -0.1398 0.3248 0.9354
vn -0.3045 -0.0000 0.9525
vn -0.1398 -0.3248 0.9354
vn 0.9349 -0.3393 -0.1039
vn 0.9349 0.3393 -0.1039
vn -0.4665 0.3969 0.7905
vn 0.5194 0.6786 -0.5194
vn -0.5376 0.6496 0.5376
vn -0.7071 -0.0000 0.7071
vn -0.4665 -0.3969 0.7905
vn -0.5376 -0.6496 0.5376
vn 0.5194 -0.6786 -0.5194
vn 0.1039 -0.3393 -0.9349
vn 0.1039 0.3393 -0.9349
vn -0.7905 0.3969 0.4665
vn -0.9354 0.3248 0.1398
vn -0.9525 -0.0000 0.3045
vn -0.7905 -0.3969 0.4665
vn -0.9354 -0.3248 0.1398
vn -0.0000 -0.0119 0.9999
vn 0.8930 0.3823 -0.2376
vn -0.8930 0.3823 -0.2376
vn -0.0000 0.0989 -0.9951
vn 0.3248 0.5625 0.7603
vn 0.3969 0.2291 0.8888
vn 0.6496 -0.0000 0.7603
vn 0.6786 -0.0000 -0.7346
vn 0.3393 0.5876 -0.7346
vn -0.3393 0.5876 -0.7346
vn -0.3248 0.5625 0.7603
vn -0.0000 0.4583 0.8888
vn 0.3969 -0.2291 0.8888
vn 0.3248 -0.5625 0.7603
vn 0.3393 -0.5876 -0.7346
vn -0.3393 -0.5876 -0.7346
vn -0.6786 -0.0000 -0.7346
vn -0.6496 -0.0000 0.7603
vn -0.3969 0.2291 0.8888
vn -0.3969 -0.2291 0.8888
vn -0.0000 -0.4583 0.8888
vn -0.3248 -0.5625 0.7603
vn -0.6963 0.1740 -0.6963
vn 0.4040 0.5925 -0.6969
vn 0.7069 -0.0212 0.7069
vn -0.6969 0.5925 0.4040
vn 0.9354 0.3248 0.1398
vn 0.9525 -0.0000 0.3045
vn 0.9354 -0.3248 0.1398
vn -0.1039 -0.3393 -0.9349
vn -0.1039 0.3393 -0.9349
vn 0.7905 0.3969 0.4665
vn -0.5194 0.6786 -0.5194
vn 0.5376 0.6496 0.5376
vn 0.7071 -0.0000 0.7071
vn 0.7905 -0.3969 0.4665
vn 0.5376 -0.6496 0.5376
vn -0.5194 -0.6786 -0.5194
vn -0.9349 -0.3393 -0.1039
vn -0.9349 0.3393 -0.1039
vn 0.4665 0.3969 0.7905
vn 0.1398 0.3248 0.9354
vn 0.3045 -0.0000 0.9525
vn 0.4665 -0.3969 0.7905
vn 0.1398 -0.3248 0.9354
vt 0.050378 0.100000
vt 0.080576 0.025000
vt 0.100000 0.040549
vt 0.100000 0.033036
vt 0.025000 0.100000
vt 0.057603 0.025000
vt 0.100000 0.091964
vt 0.025000 0.025000
vt 0.070890 0.025000
vt 0.100000 0.084451
vt 0.025000 0.033415
vt 0.050378 0.025000
vt 0.100000 0.074622
vt 0.025000 0.044424
vt 0.040549 0.025000
vt 0.033036 0.025000
vt 0.100000 0.100000
vt 0.025000 0.067397
vt 0.091964 0.025000
vt 0.025000 0.054110
vt 0.084451 0.025000
vt 0.033415 0.100000
vt 0.025000 0.074622
vt 0.074622 0.025000
vt 0.044424 0.100000
vt 0.025000 0.084451
vt 0.025000 0.091964
vt 0.100000 0.025000
vt 0.067397 0.100000
vt 0.025000 0.033036
vt 0.054110 0.100000
vt 0.025000 0.040549
vt 0.100000 0.091585
vt 0.074622 0.100000
vt 0.025000 0.050378
vt 0.100000 0.080576
vt 0.084451 0.100000
vt 0.091964 0.100000
vt 0.100000 0.057603
vt 0.033036 0.100000
vt 0.100000 0.070890
vt 0.040549 0.100000
vt 0.091585 0.025000
vt 0.100000 0.050378
vt 0.183232 0.025000
vt 0.191768 0.100000
vt 0.150000 0.057516
vt 0.186311 0.025000
vt 0.188689 0.100000
vt 0.150000 0.054514
vt 0.150000 0.070486
vt 0.225000 0.054514
vt 0.186311 0.100000
vt 0.150000 0.067484
vt 0.225000 0.057516
vt 0.183232 0.100000
vt 0.188689 0.025000
vt 0.191768 0.025000
vt 0.225000 0.070486
vt 0.225000 0.067484
vt 0.350000 0.091585
vt 0.275000 0.040549
vt 0.294424 0.025000
vt 0.350000 0.100000
vt 0.275000 0.033036
vt 0.317397 0.025000
vt 0.350000 0.025000
vt 0.275000 0.091964
vt 0.304110 0.025000
vt 0.350000 0.033415
vt 0.275000 0.084451
vt 0.324622 0.025000
vt 0.283415 0.100000
vt 0.334451 0.025000
vt 0.350000 0.044424
vt 0.275000 0.100000
vt 0.341964 0.025000
vt 0.350000 0.067397
vt 0.283036 0.025000
vt 0.350000 0.054110
vt 0.341585 0.100000
vt 0.290549 0.025000
vt 0.350000 0.074622
vt 0.275000 0.033415
vt 0.350000 0.084451
vt 0.330576 0.100000
vt 0.275000 0.025000
vt 0.350000 0.091964
vt 0.307603 0.100000
vt 0.350000 0.033036
vt 0.320890 0.100000
vt 0.275000 0.091585
vt 0.350000 0.040549
vt 0.300378 0.100000
vt 0.341585 0.025000
vt 0.290549 0.100000
vt 0.275000 0.080576
vt 0.283036 0.100000
vt 0.275000 0.057603
vt 0.341964 0.100000
vt 0.275000 0.070890
vt 0.283415 0.025000
vt 0.334451 0.100000
vt 0.275000 0.050378
vt 0.025000 0.069554
vt 0.100000 0.055446
vt 0.056151 0.100000
vt 0.025000 0.072489
vt 0.100000 0.052511
vt 0.059194 0.100000
vt 0.059194 0.025000
vt 0.065806 0.100000
vt 0.025000 0.052511
vt 0.056151 0.025000
vt 0.068849 0.100000
vt 0.025000 0.055446
vt 0.100000 0.072489
vt 0.100000 0.069554
vt 0.065806 0.025000
vt 0.068849 0.025000
vt 0.044261 0.100000
vt 0.085258 0.025000
vt 0.100000 0.036264
vt 0.063683 0.100000
vt 0.064261 0.025000
vt 0.100000 0.030625
vt 0.100000 0.094375
vt 0.063683 0.025000
vt 0.100000 0.088736
vt 0.025000 0.031096
vt 0.044261 0.025000
vt 0.100000 0.080739
vt 0.025000 0.039742
vt 0.036264 0.025000
vt 0.100000 0.061317
vt 0.025000 0.060739
vt 0.030625 0.025000
vt 0.094375 0.025000
vt 0.025000 0.061317
vt 0.088736 0.025000
vt 0.031096 0.100000
vt 0.025000 0.080739
vt 0.080739 0.025000
vt 0.039742 0.100000
vt 0.025000 0.088736
vt 0.061317 0.025000
vt 0.060739 0.100000
vt 0.025000 0.094375
vt 0.025000 0.030625
vt 0.061317 0.100000
vt 0.025000 0.036264
vt 0.100000 0.093904
vt 0.080739 0.100000
vt 0.025000 0.044261
vt 0.100000 0.085258
vt 0.088736 0.100000
vt 0.025000 0.063683
vt 0.100000 0.064261
vt 0.094375 0.100000
vt 0.030625 0.100000
vt 0.100000 0.063683
vt 0.036264 0.100000
vt 0.093904 0.025000
vt 0.100000 0.044261
vt 0.332993 0.025000
vt 0.292007 0.100000
vt 0.275000 0.082477
vt 0.335067 0.025000
vt 0.289933 0.100000
vt 0.275000 0.080163
vt 0.275000 0.044837
vt 0.350000 0.080163
vt 0.335067 0.100000
vt 0.275000 0.042523
vt 0.350000 0.082477
vt 0.332993 0.100000
vt 0.289933 0.025000
vt 0.292007 0.025000
vt 0.350000 0.044837
vt 0.350000 0.042523
vt 0.350000 0.093904
vt 0.275000 0.036264
vt 0.289742 0.025000
vt 0.310739 0.025000
vt 0.311317 0.100000
vt 0.275000 0.030625
vt 0.310739 0.100000
vt 0.311317 0.025000
vt 0.289742 0.100000
vt 0.330739 0.025000
vt 0.350000 0.031096
vt 0.281096 0.100000
vt 0.338736 0.025000
vt 0.350000 0.039742
vt 0.350000 0.060739
vt 0.275000 0.061317
vt 0.344375 0.025000
vt 0.275000 0.060739
vt 0.350000 0.061317
vt 0.275000 0.039742
vt 0.350000 0.080739
vt 0.343904 0.100000
vt 0.275000 0.031096
vt 0.350000 0.088736
vt 0.335258 0.100000
vt 0.314261 0.100000
vt 0.313683 0.025000
vt 0.350000 0.094375
vt 0.314261 0.025000
vt 0.313683 0.100000
vt 0.335258 0.025000
vt 0.294261 0.100000
vt 0.275000 0.093904
vt 0.343904 0.025000
vt 0.286264 0.100000
vt 0.275000 0.085258
vt 0.275000 0.064261
vt 0.350000 0.063683
vt 0.280625 0.100000
vt 0.350000 0.064261
vt 0.275000 0.063683
vt 0.350000 0.085258
vt 0.275000 0.044261
vt 0.281096 0.025000
vt 0.025000 0.043591
vt 0.100000 0.081409
vt 0.081946 0.100000
vt 0.025000 0.045995
vt 0.100000 0.079005
vt 0.084112 0.100000
vt 0.084112 0.025000
vt 0.040888 0.100000
vt 0.025000 0.079005
vt 0.081946 0.025000
vt 0.043054 0.100000
vt 0.025000 0.081409
vt 0.100000 0.045995
vt 0.100000 0.043591
vt 0.040888 0.025000
vt 0.043054 0.025000
vt 0.040888 0.100000
vt 0.087840 0.025000
vt 0.100000 0.034063
vt 0.058982 0.100000
vt 0.068605 0.025000
vt 0.100000 0.029449
vt 0.100000 0.095551
vt 0.058982 0.025000
vt 0.100000 0.090937
vt 0.025000 0.029905
vt 0.040888 0.025000
vt 0.100000 0.084112
vt 0.025000 0.037160
vt 0.034063 0.025000
vt 0.100000 0.066018
vt 0.025000 0.056395
vt 0.029449 0.025000
vt 0.095551 0.025000
vt 0.025000 0.066018
vt 0.090937 0.025000
vt 0.029905 0.100000
vt 0.025000 0.084112
vt 0.084112 0.025000
vt 0.037160 0.100000
vt 0.025000 0.090937
vt 0.066018 0.025000
vt 0.056395 0.100000
vt 0.025000 0.095551
vt 0.025000 0.029449
vt 0.066018 0.100000
vt 0.025000 0.034063
vt 0.100000 0.095095
vt 0.084112 0.100000
vt 0.025000 0.040888
vt 0.100000 0.087840
vt 0.090937 0.100000
vt 0.025000 0.058982
vt 0.100000 0.068605
vt 0.095551 0.100000
vt 0.029449 0.100000
vt 0.100000 0.058982
vt 0.034063 0.100000
vt 0.095095 0.025000
vt 0.100000 0.040888
vt 0.334731 0.025000
vt 0.290269 0.100000
vt 0.275000 0.084254
vt 0.336642 0.025000
vt 0.288358 0.100000
vt 0.275000 0.082101
vt 0.275000 0.042899
vt 0.350000 0.082101
vt 0.336642 0.100000
vt 0.275000 0.040746
vt 0.350000 0.084254
vt 0.334731 0.100000
vt 0.288358 0.025000
vt 0.290269 0.025000
vt 0.350000 0.042899
vt 0.350000 0.040746
vt 0.475000 0.095095
vt 0.400000 0.034063
vt 0.412160 0.025000
vt 0.475000 0.100000
vt 0.400000 0.029449
vt 0.431395 0.025000
vt 0.431395 0.100000
vt 0.441018 0.025000
vt 0.475000 0.025000
vt 0.412160 0.100000
vt 0.459112 0.025000
vt 0.475000 0.029905
vt 0.404905 0.100000
vt 0.465937 0.025000
vt 0.475000 0.037160
vt 0.400000 0.100000
vt 0.470551 0.025000
vt 0.475000 0.056395
vt 0.400000 0.056395
vt 0.475000 0.066018
vt 0.400000 0.037160
vt 0.475000 0.084112
vt 0.470095 0.100000
vt 0.400000 0.029905
vt 0.475000 0.090937
vt 0.462840 0.100000
vt 0.400000 0.025000
vt 0.475000 0.095551
vt 0.443605 0.100000
vt 0.443605 0.025000
vt 0.433982 0.100000
vt 0.462840 0.025000
vt 0.415888 0.100000
vt 0.400000 0.095095
vt 0.470095 0.025000
vt 0.409063 0.100000
vt 0.400000 0.087840
vt 0.404449 0.100000
vt 0.400000 0.068605
vt 0.475000 0.068605
vt 0.400000 0.058982
vt 0.475000 0.087840
vt 0.400000 0.040888
vt 0.404905 0.025000
vt 0.025000 0.041520
vt 0.100000 0.083480
vt 0.083974 0.100000
vt 0.025000 0.043746
vt 0.100000 0.081254
vt 0.085957 0.100000
vt 0.085957 0.025000
vt 0.039043 0.100000
vt 0.025000 0.081254
vt 0.083974 0.025000
vt 0.041026 0.100000
vt 0.025000 0.083480
vt 0.100000 0.043746
vt 0.100000 0.041520
vt 0.039043 0.025000
vt 0.041026 0.025000
vt 0.950512 0.525000
vt 0.928529 0.600000
vt 0.900000 0.573077
vt 0.900000 0.559984
vt 0.975000 0.561815
vt 0.957497 0.600000
vt 0.900000 0.551923
vt 0.975000 0.569231
vt 0.950512 0.600000
vt 0.900000 0.549324
vt 0.975000 0.571622
vt 0.947907 0.600000
vt 0.900000 0.552402
vt 0.975000 0.568790
vt 0.950971 0.600000
vt 0.975000 0.573077
vt 0.900000 0.555769
vt 0.924488 0.525000
vt 0.975000 0.575676
vt 0.900000 0.553378
vt 0.927093 0.525000
vt 0.924029 0.600000
vt 0.946893 0.525000
vt 0.975000 0.552402
vt 0.927093 0.600000
vt 0.944074 0.525000
vt 0.975000 0.549324
vt 0.924488 0.600000
vt 0.946471 0.525000
vt 0.975000 0.551923
vt 0.917503 0.600000
vt 0.952898 0.525000
vt 0.975000 0.559984
vt 0.947907 0.525000
vt 0.930926 0.600000
vt 0.900000 0.575676
vt 0.824387 0.525000
vt 0.811349 0.600000
vt 0.775000 0.577273
vt 0.850000 0.600000
vt 0.775000 0.533152
vt 0.850000 0.525000
vt 0.775000 0.547727
vt 0.850000 0.565909
vt 0.824387 0.600000
vt 0.775000 0.538393
vt 0.850000 0.573214
vt 0.813723 0.600000
vt 0.775000 0.600000
vt 0.841848 0.525000
vt 0.850000 0.577273
vt 0.775000 0.559091
vt 0.800613 0.525000
vt 0.850000 0.586607
vt 0.775000 0.551786
vt 0.811277 0.525000
vt 0.775000 0.525000
vt 0.850000 0.591848
vt 0.811277 0.600000
vt 0.805305 0.525000
vt 0.850000 0.538393
vt 0.800613 0.600000
vt 0.813651 0.525000
vt 0.850000 0.547727
vt 0.783152 0.600000
vt 0.813723 0.525000
vt 0.819695 0.600000
vt 0.775000 0.586607
vt 0.850000 0.584685
vt 0.775000 0.566842
vt 0.818700 0.525000
vt 0.775000 0.541667
vt 0.818700 0.600000
vt 0.792389 0.525000
vt 0.850000 0.540315
vt 0.793063 0.600000
vt 0.806632 0.525000
vt 0.850000 0.566128
vt 0.833333 0.525000
vt 0.775000 0.566128
vt 0.850000 0.543818
vt 0.831937 0.600000
vt 0.775000 0.540315
vt 0.850000 0.558158
vt 0.806300 0.600000
vt 0.850000 0.583333
vt 0.806300 0.525000
vt 0.832611 0.600000
vt 0.775000 0.584685
vt 0.831937 0.525000
vt 0.818368 0.600000
vt 0.775000 0.558872
vt 0.791667 0.600000
vt 0.850000 0.558872
vt 0.775000 0.581182
vt 0.793063 0.525000
vt 0.830089 0.525000
vt 0.850000 0.572548
vt 0.775000 0.562500
vt 0.850000 0.552452
vt 0.830089 0.600000
vt 0.850000 0.579904
vt 0.802797 0.600000
vt 0.812500 0.525000
vt 0.822203 0.600000
vt 0.775000 0.579904
vt 0.794911 0.600000
vt 0.775000 0.552452
vt 0.850000 0.562500
vt 0.775000 0.572548
vt 0.794911 0.525000
vt 0.775000 0.545096
vt 0.822203 0.525000
vt 0.812500 0.600000
vt 0.802797 0.525000
vt 0.850000 0.545096
vt 0.400000 0.093182
vt 0.449451 0.025000
vt 0.202500 0.100000
vt 0.150000 0.069118
vt 0.225000 0.025000
vt 0.150000 0.100000
vt 0.172500 0.025000
vt 0.225000 0.055882
vt 0.225000 0.100000
vt 0.150000 0.055882
vt 0.202500 0.025000
vt 0.172500 0.100000
vt 0.150000 0.025000
vt 0.225000 0.069118
vt 0.400000 0.031818
vt 0.449451 0.100000
vt 0.425549 0.025000
vt 0.475000 0.093182
vt 0.475000 0.031818
vt 0.425549 0.100000
vt 0.225000 0.062500
vt 0.150000 0.062500
vt 0.291659 0.100000
vt 0.275000 0.087584
vt 0.350000 0.044121
vt 0.340342 0.025000
vt 0.196539 0.025000
vt 0.150000 0.071544
vt 0.275000 0.031500
vt 0.280790 0.025000
vt 0.350000 0.087438
vt 0.338833 0.100000
vt 0.057315 0.025000
vt 0.100000 0.067986
vt 0.275000 0.087438
vt 0.286167 0.100000
vt 0.344210 0.025000
vt 0.350000 0.031500
vt 0.400000 0.475000
vt 0.415006 0.400000
vt 0.475000 0.456635
vt 0.525000 0.443851
vt 0.570476 0.400000
vt 0.600000 0.475000
vt 0.286556 0.400000
vt 0.350000 0.454904
vt 0.275000 0.475000
vt 0.350000 0.400000
vt 0.310629 0.475000
vt 0.275000 0.420096
vt 0.528346 0.475000
vt 0.525000 0.413798
vt 0.600000 0.400000
vt 0.461721 0.475000
vt 0.400000 0.418503
vt 0.475000 0.400000
vt 0.525000 0.443301
vt 0.552452 0.400000
vt 0.559808 0.475000
vt 0.525000 0.410048
vt 0.525000 0.475000
vt 0.556699 0.400000
vt 0.600000 0.427452
vt 0.584151 0.459151
vt 0.400000 0.423353
vt 0.443982 0.475000
vt 0.551513 0.475000
vt 0.525000 0.400000
vt 0.600000 0.444658
vt 0.344755 0.475000
vt 0.338444 0.475000
vt 0.275000 0.420096
vt 0.350000 0.454904
vt 0.280245 0.400000
vt 0.314371 0.400000
vt 0.350000 0.454904
vt 0.525000 0.430342
vt 0.573487 0.400000
vt 0.431018 0.400000
vt 0.475000 0.451647
vt 0.413279 0.400000
vt 0.475000 0.456497
vt 0.600000 0.461202
vt 0.596654 0.400000
vt 0.459994 0.475000
vt 0.400000 0.418365
vt 0.600000 0.431149
vt 0.554524 0.475000
vt 0.775000 0.475000
vt 0.790006 0.400000
vt 0.850000 0.456635
vt 0.900000 0.443851
vt 0.945476 0.400000
vt 0.975000 0.475000
vt 0.661556 0.400000
vt 0.725000 0.454904
vt 0.650000 0.475000
vt 0.725000 0.400000
vt 0.685629 0.475000
vt 0.650000 0.420096
vt 0.903346 0.475000
vt 0.900000 0.413798
vt 0.975000 0.400000
vt 0.836721 0.475000
vt 0.775000 0.418503
vt 0.850000 0.400000
vt 0.900000 0.443301
vt 0.927452 0.400000
vt 0.923774 0.475000
vt 0.900000 0.400000
vt 0.975000 0.463397
vt 0.900000 0.427452
vt 0.943301 0.400000
vt 0.975000 0.423774
vt 0.963397 0.475000
vt 0.775000 0.423353
vt 0.818982 0.475000
vt 0.926513 0.475000
vt 0.975000 0.444658
vt 0.719755 0.475000
vt 0.713444 0.475000
vt 0.655245 0.400000
vt 0.689371 0.400000
vt 0.900000 0.430342
vt 0.948487 0.400000
vt 0.806018 0.400000
vt 0.850000 0.451647
vt 0.834994 0.475000
vt 0.775000 0.418365
vt 0.900000 0.475000
vt 0.971654 0.400000
vt 0.975000 0.461202
vt 0.788279 0.400000
vt 0.850000 0.456497
vt 0.975000 0.431149
vt 0.929524 0.475000
vt 0.350000 0.037963
vt 0.323987 0.025000
vt 0.340446 0.100000
vt 0.221174 0.025000
vt 0.150000 0.045288
vt 0.350000 0.029245
vt 0.350000 0.095982
vt 0.030777 0.100000
vt 0.100000 0.045114
vt 0.350000 0.087037
vt 0.323987 0.100000
vt 0.340446 0.025000
vt 0.275000 0.062500
vt 0.350000 0.062500
vt 0.312500 0.100000
vt 0.275000 0.025000
vt 0.350000 0.062500
vt 0.312500 0.025000
vt 0.275000 0.100000
vt 0.275000 0.025000
vt 0.312500 0.100000
vt 0.350000 0.025000
vt 0.275000 0.062500
vt 0.324742 0.525000
vt 0.350000 0.600000
vt 0.275000 0.551877
vt 0.025000 0.528136
vt 0.100000 0.525000
vt 0.049535 0.600000
vt 0.097441 0.525000
vt 0.100000 0.600000
vt 0.025000 0.578471
vt 0.275000 0.525000
vt 0.350000 0.548575
vt 0.327427 0.600000
vt 0.178836 0.525000
vt 0.225000 0.574329
vt 0.150000 0.600000
vt 0.275000 0.558712
vt 0.305619 0.525000
vt 0.319381 0.600000
vt 0.350000 0.566288
vt 0.327809 0.531881
vt 0.225000 0.525000
vt 0.193912 0.600000
vt 0.150000 0.530387
vt 0.350000 0.562500
vt 0.275000 0.600000
vt 0.025000 0.562500
vt 0.025000 0.546529
vt 0.097441 0.600000
vt 0.025000 0.600000
vt 0.025000 0.525000
vt 0.100000 0.562500
vt 0.025000 0.596864
vt 0.049535 0.525000
vt 0.350000 0.600000
vt 0.275000 0.562500
vt 0.350000 0.525000
vt 0.217159 0.600000
vt 0.150000 0.553005
vt 0.297191 0.593119
vt 0.193912 0.525000
vt 0.225000 0.600000
vt 0.150000 0.594613
vt 0.178836 0.600000
vt 0.150000 0.525000
vt 0.225000 0.550671
vt 0.275000 0.573123
vt 0.324742 0.600000
vt 0.350000 0.576425
vt 0.327427 0.525000
vt 0.217159 0.525000
vt 0.150000 0.571995
vt 0.275000 0.037562
vt 0.286167 0.025000
vt 0.350000 0.083341
vt 0.337584 0.100000
vt 0.294121 0.025000
vt 0.275000 0.034658
vt 0.150000 0.053456
vt 0.196539 0.100000
vt 0.350000 0.093500
vt 0.344210 0.100000
vt 0.275000 0.093500
vt 0.280790 0.100000
vt 0.338833 0.025000
vt 0.350000 0.037562
vt 0.100000 0.057014
vt 0.057315 0.100000
vt 0.850000 0.456635
vt 0.900000 0.443851
vt 0.725000 0.454904
vt 0.685629 0.475000
vt 0.903346 0.475000
vt 0.900000 0.413798
vt 0.836721 0.475000
vt 0.775000 0.418503
vt 0.934808 0.475000
vt 0.900000 0.410048
vt 0.931699 0.400000
vt 0.975000 0.427452
vt 0.959151 0.459151
vt 0.775000 0.423353
vt 0.926513 0.475000
vt 0.655245 0.400000
vt 0.850000 0.451647
vt 0.788279 0.400000
vt 0.975000 0.461202
vt 0.971654 0.400000
vt 0.834994 0.475000
vt 0.775000 0.418365
vt 0.975000 0.431149
vt 0.929524 0.475000
vt 0.525000 0.600000
vt 0.540006 0.525000
vt 0.600000 0.581635
vt 0.650000 0.568851
vt 0.695476 0.525000
vt 0.725000 0.600000
vt 0.411556 0.525000
vt 0.475000 0.579904
vt 0.400000 0.600000
vt 0.475000 0.525000
vt 0.435629 0.600000
vt 0.400000 0.545096
vt 0.653346 0.600000
vt 0.650000 0.538798
vt 0.725000 0.525000
vt 0.586721 0.600000
vt 0.525000 0.543503
vt 0.600000 0.525000
vt 0.650000 0.600000
vt 0.709151 0.584151
vt 0.670096 0.600000
vt 0.650000 0.525000
vt 0.725000 0.545096
vt 0.650000 0.552452
vt 0.693301 0.525000
vt 0.525000 0.548353
vt 0.568982 0.600000
vt 0.676513 0.600000
vt 0.725000 0.569658
vt 0.469755 0.600000
vt 0.400000 0.545096
vt 0.463444 0.600000
vt 0.405245 0.525000
vt 0.439371 0.525000
vt 0.650000 0.555342
vt 0.698487 0.525000
vt 0.556018 0.525000
vt 0.600000 0.576647
vt 0.650000 0.568301
vt 0.677452 0.525000
vt 0.584994 0.600000
vt 0.525000 0.543365
vt 0.721654 0.525000
vt 0.725000 0.586202
vt 0.538279 0.525000
vt 0.600000 0.581497
vt 0.725000 0.556149
vt 0.679524 0.600000
vt 0.275000 0.037963
vt 0.301013 0.025000
vt 0.345755 0.025000
vt 0.279018 0.025000
vt 0.150000 0.046328
vt 0.220178 0.025000
vt 0.350000 0.090446
vt 0.275000 0.090446
vt 0.350000 0.065115
vt 0.339832 0.100000
vt 0.100000 0.053529
vt 0.028461 0.025000
vt 0.275000 0.062500
vt 0.350000 0.062500
vt 0.275000 0.100000
vt 0.312500 0.025000
vt 0.350000 0.100000
vt 0.525000 0.423575
vt 0.547573 0.475000
vt 0.350000 0.471864
vt 0.325465 0.400000
vt 0.277559 0.475000
vt 0.275000 0.400000
vt 0.350000 0.421529
vt 0.550258 0.400000
vt 0.600000 0.426877
vt 0.400000 0.449329
vt 0.446164 0.400000
vt 0.475000 0.475000
vt 0.525000 0.433712
vt 0.555619 0.400000
vt 0.569381 0.475000
vt 0.600000 0.441288
vt 0.577809 0.406881
vt 0.400000 0.400000
vt 0.475000 0.428005
vt 0.407841 0.475000
vt 0.562500 0.475000
vt 0.312500 0.400000
vt 0.350000 0.475000
vt 0.350000 0.471864
vt 0.525000 0.400000
vt 0.475000 0.405387
vt 0.431088 0.475000
vt 0.547191 0.468119
vt 0.446164 0.400000
vt 0.400000 0.449329
vt 0.600000 0.426877
vt 0.525000 0.423575
vt 0.547573 0.475000
vt 0.407841 0.475000
vt 0.475000 0.428005
vt 0.338452 0.100000
vt 0.350000 0.087639
vt 0.275000 0.031948
vt 0.280475 0.025000
vt 0.178461 0.025000
vt 0.225000 0.071544
vt 0.287416 0.100000
vt 0.275000 0.083341
vt 0.330879 0.025000
vt 0.350000 0.034658
vt 0.067685 0.025000
vt 0.025000 0.067986
vt 0.286548 0.100000
vt 0.275000 0.087639
vt 0.344525 0.025000
vt 0.350000 0.031948
vt 0.165006 0.525000
vt 0.225000 0.581635
vt 0.275000 0.568851
vt 0.320476 0.525000
vt 0.036556 0.525000
vt 0.100000 0.579904
vt 0.025000 0.600000
vt 0.060629 0.600000
vt 0.025000 0.545096
vt 0.278346 0.600000
vt 0.275000 0.538798
vt 0.211721 0.600000
vt 0.150000 0.543503
vt 0.275000 0.568301
vt 0.302452 0.525000
vt 0.309808 0.600000
vt 0.275000 0.535048
vt 0.306699 0.525000
vt 0.350000 0.552452
vt 0.334151 0.584151
vt 0.150000 0.548353
vt 0.193982 0.600000
vt 0.301513 0.600000
vt 0.350000 0.569658
vt 0.094755 0.600000
vt 0.088444 0.600000
vt 0.030245 0.525000
vt 0.064371 0.525000
vt 0.275000 0.555342
vt 0.323487 0.525000
vt 0.181018 0.525000
vt 0.225000 0.576647
vt 0.163279 0.525000
vt 0.225000 0.581497
vt 0.350000 0.586202
vt 0.346654 0.525000
vt 0.209994 0.600000
vt 0.150000 0.543365
vt 0.350000 0.556149
vt 0.304524 0.600000
vt 0.929524 0.400000
vt 0.975000 0.443851
vt 0.834994 0.400000
vt 0.850000 0.475000
vt 0.775000 0.456635
vt 0.975000 0.413798
vt 0.971654 0.475000
vt 0.689371 0.475000
vt 0.650000 0.400000
vt 0.725000 0.420096
vt 0.650000 0.454904
vt 0.713444 0.400000
vt 0.725000 0.475000
vt 0.655245 0.475000
vt 0.948487 0.475000
vt 0.900000 0.444658
vt 0.850000 0.423353
vt 0.806018 0.475000
vt 0.775000 0.400000
vt 0.923774 0.400000
vt 0.975000 0.411603
vt 0.927452 0.475000
vt 0.900000 0.431699
vt 0.947548 0.400000
vt 0.975000 0.443301
vt 0.951226 0.475000
vt 0.900000 0.463397
vt 0.850000 0.418503
vt 0.788279 0.475000
vt 0.926513 0.400000
vt 0.975000 0.430342
vt 0.719755 0.400000
vt 0.661556 0.475000
vt 0.685629 0.400000
vt 0.900000 0.461202
vt 0.903346 0.400000
vt 0.775000 0.456497
vt 0.836721 0.400000
vt 0.850000 0.418365
vt 0.790006 0.475000
vt 0.818982 0.400000
vt 0.775000 0.451647
vt 0.900000 0.431149
vt 0.945476 0.475000
vt 0.275000 0.065115
vt 0.285168 0.100000
vt 0.096539 0.025000
vt 0.025000 0.053529
vt 0.275000 0.029018
vt 0.275000 0.095755
vt 0.154822 0.025000
vt 0.225000 0.046328
vt 0.284554 0.100000
vt 0.275000 0.059885
vt 0.285168 0.025000
vt 0.284554 0.025000
vt 0.350000 0.100000
vt 0.350000 0.025000
vt 0.312500 0.100000
vt 0.312500 0.025000
vt 0.350000 0.100000
vt 0.327427 0.600000
vt 0.178836 0.525000
vt 0.225000 0.574329
vt 0.275000 0.551877
vt 0.025000 0.528136
vt 0.049535 0.600000
vt 0.097441 0.525000
vt 0.025000 0.578471
vt 0.217159 0.600000
vt 0.025000 0.525000
vt 0.275000 0.562500
vt 0.350000 0.525000
vt 0.297191 0.531881
vt 0.319381 0.525000
vt 0.350000 0.558712
vt 0.305619 0.600000
vt 0.275000 0.566288
vt 0.327809 0.593119
vt 0.193912 0.600000
vt 0.150000 0.530387
vt 0.275000 0.600000
vt 0.025000 0.562500
vt 0.100000 0.525000
vt 0.049535 0.525000
vt 0.025000 0.546529
vt 0.150000 0.571995
vt 0.217159 0.525000
vt 0.327427 0.525000
vt 0.350000 0.576425
vt 0.178836 0.600000
vt 0.193912 0.525000
vt 0.275000 0.573123
vt 0.225000 0.053456
vt 0.178461 0.100000
vt 0.350000 0.087584
vt 0.333341 0.100000
vt 0.275000 0.044121
vt 0.284658 0.025000
vt 0.286548 0.025000
vt 0.275000 0.037361
vt 0.350000 0.093052
vt 0.344525 0.100000
vt 0.275000 0.093052
vt 0.280475 0.100000
vt 0.338452 0.025000
vt 0.350000 0.037361
vt 0.025000 0.057014
vt 0.067685 0.100000
vt 0.540006 0.525000
vt 0.600000 0.581635
vt 0.650000 0.568851
vt 0.475000 0.579904
vt 0.653346 0.600000
vt 0.684808 0.600000
vt 0.650000 0.535048
vt 0.681699 0.525000
vt 0.725000 0.552452
vt 0.525000 0.548353
vt 0.469755 0.600000
vt 0.405245 0.525000
vt 0.538279 0.525000
vt 0.600000 0.581497
vt 0.721654 0.525000
vt 0.525000 0.543365
vt 0.725000 0.556149
vt 0.679524 0.600000
vt 0.679524 0.525000
vt 0.725000 0.568851
vt 0.584994 0.525000
vt 0.600000 0.600000
vt 0.525000 0.581635
vt 0.725000 0.538798
vt 0.721654 0.600000
vt 0.439371 0.600000
vt 0.400000 0.525000
vt 0.475000 0.545096
vt 0.400000 0.579904
vt 0.463444 0.525000
vt 0.475000 0.600000
vt 0.405245 0.600000
vt 0.475000 0.545096
vt 0.698487 0.600000
vt 0.650000 0.569658
vt 0.600000 0.548353
vt 0.556018 0.600000
vt 0.525000 0.525000
vt 0.725000 0.552452
vt 0.704904 0.600000
vt 0.650000 0.545096
vt 0.665849 0.584151
vt 0.600000 0.543503
vt 0.538279 0.600000
vt 0.676513 0.525000
vt 0.725000 0.555342
vt 0.400000 0.579904
vt 0.469755 0.525000
vt 0.411556 0.600000
vt 0.435629 0.525000
vt 0.650000 0.586202
vt 0.653346 0.525000
vt 0.525000 0.581497
vt 0.586721 0.525000
vt 0.600000 0.543365
vt 0.540006 0.600000
vt 0.725000 0.568301
vt 0.697548 0.525000
vt 0.568982 0.525000
vt 0.525000 0.576647
vt 0.650000 0.556149
vt 0.695476 0.600000
vt 0.345982 0.100000
vt 0.279245 0.100000
vt 0.025000 0.045114
vt 0.094223 0.100000
vt 0.301013 0.100000
vt 0.275000 0.087037
vt 0.350000 0.034554
vt 0.153826 0.025000
vt 0.225000 0.045288
vt 0.350000 0.059885
vt 0.339832 0.025000
vt 0.275000 0.034554
vt 0.350000 0.062500
vt 0.275000 0.025000
vt 0.275000 0.062500
vt 0.350000 0.025000
vt 0.525000 0.451425
vt 0.547573 0.400000
vt 0.446164 0.475000
vt 0.400000 0.425671
vt 0.550258 0.475000
vt 0.600000 0.448123
vt 0.277559 0.400000
vt 0.350000 0.453471
vt 0.350000 0.403136
vt 0.325465 0.475000
vt 0.407841 0.400000
vt 0.475000 0.446995
vt 0.312500 0.475000
vt 0.562500 0.400000
vt 0.547191 0.406881
vt 0.569381 0.400000
vt 0.600000 0.433712
vt 0.555619 0.475000
vt 0.525000 0.441288
vt 0.577809 0.468119
vt 0.431088 0.400000
vt 0.475000 0.469613
vt 0.525000 0.475000
vt 0.350000 0.400000
vt 0.350000 0.403136
vt 0.325465 0.475000
vt 0.431088 0.400000
vt 0.475000 0.469613
vt 0.400000 0.425671
vt 0.407841 0.400000
vt 0.525000 0.451425
vt 0.025000 0.091585
vt 0.070890 0.100000
vt 0.057603 0.100000
vt 0.080576 0.100000
vt 0.091585 0.100000
vt 0.100000 0.054110
vt 0.100000 0.067397
vt 0.100000 0.044424
vt 0.100000 0.033415
vt 0.054110 0.025000
vt 0.067397 0.025000
vt 0.044424 0.025000
vt 0.033415 0.025000
vt 0.025000 0.070890
vt 0.025000 0.057603
vt 0.025000 0.080576
vt 0.324622 0.100000
vt 0.304110 0.100000
vt 0.317397 0.100000
vt 0.294424 0.100000
vt 0.275000 0.074622
vt 0.275000 0.054110
vt 0.275000 0.067397
vt 0.275000 0.044424
vt 0.300378 0.025000
vt 0.320890 0.025000
vt 0.307603 0.025000
vt 0.330576 0.025000
vt 0.350000 0.050378
vt 0.350000 0.070890
vt 0.350000 0.057603
vt 0.350000 0.080576
vt 0.025000 0.093904
vt 0.064261 0.100000
vt 0.085258 0.100000
vt 0.093904 0.100000
vt 0.100000 0.060739
vt 0.100000 0.039742
vt 0.100000 0.031096
vt 0.060739 0.025000
vt 0.039742 0.025000
vt 0.031096 0.025000
vt 0.025000 0.064261
vt 0.025000 0.085258
vt 0.330739 0.100000
vt 0.275000 0.094375
vt 0.275000 0.088736
vt 0.275000 0.080739
vt 0.280625 0.025000
vt 0.286264 0.025000
vt 0.294261 0.025000
vt 0.350000 0.030625
vt 0.350000 0.036264
vt 0.350000 0.044261
vt 0.344375 0.100000
vt 0.338736 0.100000
vt 0.025000 0.095095
vt 0.068605 0.100000
vt 0.087840 0.100000
vt 0.095095 0.100000
vt 0.100000 0.056395
vt 0.100000 0.037160
vt 0.100000 0.029905
vt 0.056395 0.025000
vt 0.037160 0.025000
vt 0.029905 0.025000
vt 0.025000 0.068605
vt 0.025000 0.087840
vt 0.459112 0.100000
vt 0.441018 0.100000
vt 0.400000 0.095551
vt 0.400000 0.090937
vt 0.400000 0.084112
vt 0.400000 0.066018
vt 0.404449 0.025000
vt 0.409063 0.025000
vt 0.415888 0.025000
vt 0.433982 0.025000
vt 0.475000 0.029449
vt 0.475000 0.034063
vt 0.475000 0.040888
vt 0.475000 0.058982
vt 0.470551 0.100000
vt 0.465937 0.100000
vt 0.975000 0.555769
vt 0.922102 0.525000
vt 0.928529 0.525000
vt 0.930926 0.525000
vt 0.928107 0.525000
vt 0.946471 0.600000
vt 0.944074 0.600000
vt 0.900000 0.568790
vt 0.900000 0.571622
vt 0.900000 0.569231
vt 0.900000 0.561815
vt 0.975000 0.553378
vt 0.850000 0.559091
vt 0.775000 0.591848
vt 0.811349 0.525000
vt 0.819695 0.525000
vt 0.783152 0.525000
vt 0.813651 0.600000
vt 0.805305 0.600000
vt 0.850000 0.533152
vt 0.775000 0.573214
vt 0.775000 0.565909
vt 0.841848 0.600000
vt 0.850000 0.551786
vt 0.792389 0.600000
vt 0.775000 0.583333
vt 0.775000 0.558158
vt 0.775000 0.543818
vt 0.791667 0.525000
vt 0.818368 0.525000
vt 0.832611 0.525000
vt 0.850000 0.541667
vt 0.850000 0.566842
vt 0.850000 0.581182
vt 0.833333 0.600000
vt 0.806632 0.600000
s 0
usemtl HoardAtlas
f 2/1/1 17/2/1 1/3/1
f 2/4/1 19/5/1 18/6/1
f 4/7/1 19/8/1 3/9/1
f 5/10/1 20/11/1 4/12/1
f 6/13/1 21/14/1 5/15/1
f 6/16/1 23/17/1 22/18/1
f 8/19/1 23/5/1 7/20/1
f 9/21/1 24/22/1 8/23/1
f 10/24/1 25/25/1 9/26/1
f 10/27/1 27/28/1 26/29/1
f 12/30/1 27/17/1 11/31/1
f 13/32/1 28/33/1 12/34/1
f 14/35/1 29/36/1 13/37/1
f 14/38/1 31/8/1 30/39/1
f 16/40/1 31/28/1 15/41/1
f 1/42/1 32/43/1 16/44/1
f 18/45/2 33/46/2 17/47/2
f 19/48/3 34/49/3 18/50/3
f 20/51/4 35/52/4 19/53/4
f 21/54/5 36/55/5 20/56/5
f 22/54/6 37/55/6 21/56/6
f 23/51/7 38/52/7 22/53/7
f 24/52/8 39/51/8 23/57/8
f 25/55/9 40/54/9 24/58/9
f 26/55/10 41/54/10 25/58/10
f 27/52/11 42/51/11 26/57/11
f 28/49/12 43/48/12 27/59/12
f 29/46/13 44/45/13 28/60/13
f 30/46/14 45/45/14 29/60/14
f 31/49/15 46/48/15 30/59/15
f 32/48/16 47/49/16 31/50/16
f 17/45/17 48/46/17 32/47/17
f 34/61/18 49/62/18 33/63/18
f 35/64/18 50/65/18 34/66/18
f 35/67/18 52/68/18 51/69/18
f 36/70/18 53/71/18 52/72/18
f 38/73/18 53/74/18 37/75/18
f 39/76/18 54/77/18 38/78/18
f 39/64/18 56/79/18 55/80/18
f 40/81/18 57/82/18 56/83/18
f 42/84/18 57/85/18 41/86/18
f 43/87/18 58/88/18 42/89/18
f 43/76/18 60/90/18 59/91/18
f 44/92/18 61/93/18 60/94/18
f 46/95/18 61/96/18 45/97/18
f 47/67/18 62/98/18 46/99/18
f 47/87/18 64/100/18 63/101/18
f 48/102/18 49/103/18 64/104/18
f 50/105/10 1/106/10 49/107/10
f 51/108/11 2/109/11 50/110/11
f 52/111/12 3/112/12 51/113/12
f 53/114/13 4/115/13 52/116/13
f 54/114/14 5/115/14 53/116/14
f 55/111/15 6/112/15 54/113/15
f 56/112/16 7/111/16 55/117/16
f 57/115/17 8/114/17 56/118/17
f 58/115/2 9/114/2 57/118/2
f 59/112/3 10/111/3 58/117/3
f 60/109/4 11/108/4 59/119/4
f 61/106/5 12/105/5 60/120/5
f 62/106/6 13/105/6 61/120/6
f 63/109/7 14/108/7 62/119/7
f 64/108/8 15/109/8 63/110/8
f 49/105/9 16/106/9 64/107/9
f 66/121/1 81/122/1 65/123/1
f 67/124/1 82/125/1 66/126/1
f 68/127/1 83/8/1 67/128/1
f 69/129/1 84/130/1 68/131/1
f 70/132/1 85/133/1 69/134/1
f 71/135/1 86/136/1 70/137/1
f 72/138/1 87/5/1 71/139/1
f 73/140/1 88/141/1 72/142/1
f 74/143/1 89/144/1 73/145/1
f 75/146/1 90/147/1 74/148/1
f 76/149/1 91/17/1 75/150/1
f 77/151/1 92/152/1 76/153/1
f 78/154/1 93/155/1 77/156/1
f 79/157/1 94/158/1 78/159/1
f 80/160/1 95/28/1 79/161/1
f 65/162/1 96/163/1 80/164/1
f 82/165/2 97/166/2 81/167/2
f 83/168/3 98/169/3 82/170/3
f 84/171/4 99/172/4 83/173/4
f 85/174/5 100/175/5 84/176/5
f 86/174/6 101/175/6 85/176/6
f 87/171/7 102/172/7 86/173/7
f 88/172/8 103/171/8 87/177/8
f 89/175/9 104/174/9 88/178/9
f 90/175/10 105/174/10 89/178/10
f 91/172/11 106/171/11 90/177/11
f 92/169/12 107/168/12 91/179/12
f 93/166/13 108/165/13 92/180/13
f 94/166/14 109/165/14 93/180/14
f 95/169/15 110/168/15 94/179/15
f 96/168/16 111/169/16 95/170/16
f 81/165/17 112/166/17 96/167/17
f 98/181/18 113/182/18 97/183/18
f 98/184/18 115/185/18 114/186/18
f 100/187/18 115/188/18 99/67/18
f 101/189/18 116/190/18 100/191/18
f 102/192/18 117/193/18 101/194/18
f 102/195/18 119/196/18 118/197/18
f 104/198/18 119/199/18 103/64/18
f 105/200/18 120/201/18 104/202/18
f 106/203/18 121/204/18 105/205/18
f 106/206/18 123/207/18 122/208/18
f 108/209/18 123/210/18 107/76/18
f 109/211/18 124/212/18 108/213/18
f 110/214/18 125/215/18 109/216/18
f 110/217/18 127/218/18 126/219/18
f 112/220/18 127/221/18 111/87/18
f 97/222/18 128/223/18 112/224/18
f 114/225/10 65/226/10 113/227/10
f 115/228/11 66/229/11 114/230/11
f 116/231/12 67/232/12 115/233/12
f 117/234/13 68/235/13 116/236/13
f 118/234/14 69/235/14 117/236/14
f 119/231/15 70/232/15 118/233/15
f 120/232/16 71/231/16 119/237/16
f 121/235/17 72/234/17 120/238/17
f 122/235/2 73/234/2 121/238/2
f 123/232/3 74/231/3 122/237/3
f 124/229/4 75/228/4 123/239/4
f 125/226/5 76/225/5 124/240/5
f 126/226/6 77/225/6 125/240/6
f 127/229/7 78/228/7 126/239/7
f 128/228/8 79/229/8 127/230/8
f 113/225/9 80/226/9 128/227/9
f 130/241/1 145/242/1 129/243/1
f 131/244/1 146/245/1 130/246/1
f 132/247/1 147/8/1 131/248/1
f 133/249/1 148/250/1 132/251/1
f 134/252/1 149/253/1 133/254/1
f 135/255/1 150/256/1 134/257/1
f 136/258/1 151/5/1 135/259/1
f 137/260/1 152/261/1 136/262/1
f 138/263/1 153/264/1 137/265/1
f 139/266/1 154/267/1 138/268/1
f 140/269/1 155/17/1 139/270/1
f 141/271/1 156/272/1 140/273/1
f 142/274/1 157/275/1 141/276/1
f 143/277/1 158/278/1 142/279/1
f 144/280/1 159/28/1 143/281/1
f 129/282/1 160/283/1 144/284/1
f 146/285/2 161/286/2 145/287/2
f 147/288/3 162/289/3 146/290/3
f 148/291/4 163/292/4 147/293/4
f 149/294/5 164/295/5 148/296/5
f 150/294/6 165/295/6 149/296/6
f 151/291/7 166/292/7 150/293/7
f 152/292/8 167/291/8 151/297/8
f 153/295/9 168/294/9 152/298/9
f 154/295/10 169/294/10 153/298/10
f 155/292/11 170/291/11 154/297/11
f 156/289/12 171/288/12 155/299/12
f 157/286/13 172/285/13 156/300/13
f 158/286/14 173/285/14 157/300/14
f 159/289/15 174/288/15 158/299/15
f 160/288/16 175/289/16 159/290/16
f 145/285/17 176/286/17 160/287/17
f 162/301/18 177/302/18 161/303/18
f 163/304/18 178/305/18 162/306/18
f 164/307/18 179/308/18 163/309/18
f 165/310/18 180/311/18 164/312/18
f 166/313/18 181/314/18 165/315/18
f 167/316/18 182/317/18 166/318/18
f 168/319/18 183/320/18 167/304/18
f 169/321/18 184/322/18 168/323/18
f 170/324/18 185/325/18 169/326/18
f 171/327/18 186/328/18 170/329/18
f 172/330/18 187/331/18 171/316/18
f 173/332/18 188/333/18 172/334/18
f 174/335/18 189/336/18 173/337/18
f 175/309/18 190/338/18 174/339/18
f 176/340/18 191/341/18 175/327/18
f 161/342/18 192/343/18 176/344/18
f 178/345/10 129/346/10 177/347/10
f 179/348/11 130/349/11 178/350/11
f 180/351/12 131/352/12 179/353/12
f 181/354/13 132/355/13 180/356/13
f 182/354/14 133/355/14 181/356/14
f 183/351/15 134/352/15 182/353/15
f 184/352/16 135/351/16 183/357/16
f 185/355/17 136/354/17 184/358/17
f 186/355/2 137/354/2 185/358/2
f 187/352/3 138/351/3 186/357/3
f 188/349/4 139/348/4 187/359/4
f 189/346/5 140/345/5 188/360/5
f 190/346/6 141/345/6 189/360/6
f 191/349/7 142/348/7 190/359/7
f 192/348/8 143/349/8 191/350/8
f 177/345/9 144/346/9 192/347/9
f 194/361/19 205/362/19 193/363/19
f 195/364/20 206/365/20 194/366/20
f 196/367/21 207/368/21 195/369/21
f 197/370/22 208/371/22 196/372/22
f 198/373/23 209/374/23 197/375/23
f 199/376/24 210/377/24 198/378/24
f 200/379/25 211/380/25 199/381/25
f 201/382/26 212/383/26 200/384/26
f 202/385/27 213/386/27 201/387/27
f 203/388/28 214/389/28 202/390/28
f 204/391/29 215/392/29 203/393/29
f 193/394/30 216/395/30 204/396/30
f 206/397/31 217/398/31 205/399/31
f 207/400/32 218/401/32 206/402/32
f 208/403/33 219/404/33 207/405/33
f 209/406/34 220/407/34 208/408/34
f 210/409/35 221/410/35 209/400/35
f 211/411/36 222/412/36 210/413/36
f 212/414/37 223/415/37 211/416/37
f 213/417/38 224/418/38 212/409/38
f 214/419/39 225/420/39 213/421/39
f 215/422/40 226/423/40 214/424/40
f 216/402/41 227/425/41 215/417/41
f 205/426/42 228/427/42 216/428/42
f 218/429/43 229/430/43 217/431/43
f 219/400/44 230/432/44 218/402/44
f 220/433/45 231/434/45 219/435/45
f 221/436/46 232/437/46 220/438/46
f 222/409/47 233/439/47 221/400/47
f 223/440/48 234/441/48 222/442/48
f 224/443/49 235/444/49 223/445/49
f 225/417/50 236/446/50 224/409/50
f 226/447/51 237/448/51 225/449/51
f 227/450/52 238/451/52 226/452/52
f 228/402/53 239/453/53 227/417/53
f 217/454/54 240/455/54 228/456/54
f 229/457/55 230/458/55 241/409/55
f 230/402/56 231/400/56 241/459/56
f 231/460/57 232/461/57 241/417/57
f 232/462/58 233/463/58 241/417/58
f 233/400/59 234/409/59 241/464/59
f 234/465/60 235/466/60 241/402/60
f 235/467/61 236/468/61 241/402/61
f 236/409/62 237/417/62 241/469/62
f 237/470/63 238/471/63 241/400/63
f 238/472/64 239/473/64 241/400/64
f 239/417/65 240/402/65 241/474/65
f 240/475/66 229/476/66 241/409/66
f 250/304/67 247/477/67 249/478/67
f 247/479/68 246/480/68 248/481/68
f 247/482/68 248/483/68 249/484/68
f 248/485/69 244/486/69 245/487/69
f 248/488/69 245/489/69 249/490/69
f 245/491/70 250/309/70 249/492/70
f 245/493/71 243/494/71 250/316/71
f 243/495/72 247/496/72 250/327/72
f 243/483/73 242/484/73 246/482/73
f 243/481/73 246/479/73 247/480/73
f 246/489/1 242/497/1 244/482/1
f 246/481/1 244/485/1 248/498/1
f 244/489/74 242/490/74 243/488/74
f 244/487/74 243/485/74 245/486/74
f 251/67/1 253/499/1 254/500/1
f 251/501/1 254/76/1 252/502/1
f 254/503/75 256/485/75 252/504/75
f 256/505/76 255/506/76 252/64/76
f 255/87/77 251/507/77 252/508/77
f 255/5/78 253/509/78 251/510/78
f 253/511/79 255/67/79 254/512/79
f 255/513/80 256/514/80 254/76/80
f 265/515/81 263/516/81 266/517/81
f 263/518/82 264/519/82 266/520/82
f 264/521/83 269/522/83 266/523/83
f 269/524/84 268/525/84 266/526/84
f 268/527/85 265/528/85 266/529/85
f 268/530/86 267/531/86 265/532/86
f 267/520/18 257/533/18 259/534/18
f 267/535/18 259/536/18 261/529/18
f 267/537/18 261/538/18 263/539/18
f 267/537/18 263/529/18 265/540/18
f 261/541/87 264/532/87 263/542/87
f 261/543/88 262/544/88 264/545/88
f 262/524/89 269/546/89 264/526/89
f 260/524/90 258/547/90 269/548/90
f 258/549/91 268/523/91 269/550/91
f 262/551/92 260/552/92 269/523/92
f 258/553/93 267/554/93 268/520/93
f 258/515/94 257/555/94 267/556/94
f 259/515/95 262/557/95 261/558/95
f 259/559/96 260/537/96 262/560/96
f 259/532/97 257/561/97 260/562/97
f 257/563/98 258/564/98 260/544/98
f 272/565/99 270/566/99 273/567/99
f 270/568/100 271/569/100 273/570/100
f 271/571/101 282/572/101 273/573/101
f 282/574/102 275/575/102 273/576/102
f 275/577/103 272/578/103 273/579/103
f 275/580/104 274/581/104 272/582/104
f 274/570/68 276/583/68 278/584/68
f 274/585/68 278/586/68 272/587/68
f 278/588/68 280/589/68 270/570/68
f 278/586/68 270/590/68 272/591/68
f 280/592/105 271/582/105 270/593/105
f 280/594/106 281/586/106 271/595/106
f 281/574/107 282/596/107 271/576/107
f 279/574/108 277/597/108 282/576/108
f 277/572/109 275/573/109 282/598/109
f 281/599/110 279/572/110 282/573/110
f 277/600/111 274/601/111 275/570/111
f 277/565/112 276/602/112 274/603/112
f 276/604/113 279/605/113 278/582/113
f 279/606/114 281/607/114 278/608/114
f 281/609/115 280/610/115 278/565/115
f 276/611/116 277/612/116 279/586/116
f 285/613/117 287/76/117 286/614/117
f 287/87/118 288/67/118 286/615/118
f 288/616/119 284/485/119 286/617/119
f 284/87/1 283/618/1 285/64/1
f 284/87/1 285/619/1 286/76/1
f 283/620/120 287/8/120 285/621/120
f 283/622/121 284/623/121 287/87/121
f 284/624/122 288/64/122 287/76/122
f 291/625/123 293/67/123 289/64/123
f 293/87/124 292/626/124 289/76/124
f 292/67/125 294/627/125 289/628/125
f 294/629/126 291/76/126 289/87/126
f 294/630/127 290/64/127 291/631/127
f 290/632/128 293/67/128 291/633/128
f 290/634/129 292/633/129 293/87/129
f 290/64/130 294/635/130 292/67/130
f 299/636/131 300/637/131 302/638/131
f 300/639/132 307/640/132 302/641/132
f 307/642/133 304/643/133 302/644/133
f 304/645/134 301/646/134 302/647/134
f 301/648/135 299/649/135 302/650/135
f 301/637/136 305/651/136 295/652/136
f 301/653/136 295/645/136 299/654/136
f 295/645/136 297/655/136 299/637/136
f 297/656/137 300/657/137 299/658/137
f 297/659/138 298/660/138 300/645/138
f 298/643/139 307/661/139 300/640/139
f 296/662/140 306/640/140 307/663/140
f 306/664/141 304/665/141 307/666/141
f 298/667/142 296/668/142 307/643/142
f 306/669/143 303/670/143 304/671/143
f 303/656/144 301/672/144 304/673/144
f 303/674/136 305/645/136 301/637/136
f 298/675/145 297/676/145 295/677/145
f 305/678/146 296/679/146 295/680/146
f 296/681/147 298/671/147 295/682/147
f 305/683/148 306/660/148 296/684/148
f 305/685/149 303/676/149 306/686/149
f 312/64/150 308/687/150 309/688/150
f 308/87/1 310/689/1 311/690/1
f 308/691/1 311/64/1 309/692/1
f 311/693/151 313/481/151 309/694/151
f 313/695/152 312/696/152 309/87/152
f 313/697/153 311/67/153 312/698/153
f 311/699/154 310/700/154 312/76/154
f 310/701/155 308/702/155 312/8/155
f 322/565/81 320/566/81 323/703/81
f 320/704/82 321/569/82 323/570/82
f 321/571/83 326/705/83 323/573/83
f 326/574/84 325/706/84 323/576/84
f 325/707/85 322/708/85 323/579/85
f 325/709/86 324/710/86 322/582/86
f 324/570/18 314/583/18 316/584/18
f 324/711/18 316/712/18 318/579/18
f 324/606/18 318/713/18 320/714/18
f 324/606/18 320/579/18 322/715/18
f 318/716/87 321/582/87 320/593/87
f 318/717/156 319/586/156 321/595/156
f 319/574/89 326/596/89 321/576/89
f 317/574/90 315/597/90 326/576/90
f 315/572/91 325/573/91 326/718/91
f 319/599/92 317/572/92 326/573/92
f 315/600/93 324/601/93 325/570/93
f 315/565/94 314/602/94 324/719/94
f 316/565/95 319/720/95 318/610/95
f 316/721/96 317/606/96 319/722/96
f 316/582/97 314/723/97 317/724/97
f 314/725/98 315/726/98 317/586/98
f 329/727/157 327/728/157 330/729/157
f 327/730/158 328/731/158 330/732/158
f 328/733/159 339/734/159 330/735/159
f 339/736/160 332/737/160 330/738/160
f 332/739/161 329/740/161 330/741/161
f 332/742/162 331/743/162 329/744/162
f 331/745/69 327/741/69 329/746/69
f 331/747/69 335/748/69 327/749/69
f 335/750/69 337/751/69 327/732/69
f 337/752/163 328/744/163 327/753/163
f 337/754/164 338/748/164 328/755/164
f 338/736/165 339/756/165 328/757/165
f 336/736/166 334/758/166 339/757/166
f 334/734/167 332/735/167 339/759/167
f 338/760/168 336/734/168 339/735/168
f 334/761/169 331/762/169 332/732/169
f 334/727/170 333/763/170 331/764/170
f 333/765/69 335/766/69 331/732/69
f 333/767/171 336/768/171 335/744/171
f 336/745/172 338/769/172 335/770/172
f 338/771/173 337/772/173 335/727/173
f 333/773/174 334/774/174 336/748/174
f 344/64/175 340/775/175 341/776/175
f 340/87/1 342/777/1 343/64/1
f 340/778/1 343/64/1 341/76/1
f 343/779/176 345/780/176 341/485/176
f 345/76/177 344/87/177 341/781/177
f 345/64/178 343/782/178 344/67/178
f 343/783/179 342/784/179 344/87/179
f 342/785/180 340/5/180 344/786/180
f 348/787/123 350/67/123 346/64/123
f 350/87/124 349/788/124 346/76/124
f 349/67/125 351/633/125 346/87/125
f 351/788/126 348/789/126 346/87/126
f 351/790/127 347/64/127 348/76/127
f 347/632/128 350/67/128 348/633/128
f 347/634/129 349/633/129 350/87/129
f 347/791/130 351/787/130 349/67/130
f 356/792/181 357/529/181 359/793/181
f 357/794/182 364/523/182 359/795/182
f 364/796/183 361/797/183 359/798/183
f 361/537/184 358/799/184 359/800/184
f 358/801/185 356/802/185 359/803/185
f 358/520/186 362/804/186 352/805/186
f 358/806/186 352/544/186 356/807/186
f 352/544/186 354/808/186 356/520/186
f 354/809/187 357/810/187 356/811/187
f 354/812/188 355/544/188 357/529/188
f 355/523/189 364/813/189 357/814/189
f 353/795/190 363/815/190 364/523/190
f 363/814/191 361/523/191 364/813/191
f 355/797/192 353/798/192 364/796/192
f 363/529/193 360/812/193 361/816/193
f 360/809/194 358/817/194 361/818/194
f 360/819/186 362/544/186 358/520/186
f 355/818/195 354/809/195 352/817/195
f 362/820/196 353/803/196 352/821/196
f 353/822/197 355/537/197 352/799/197
f 362/823/198 363/529/198 353/824/198
f 362/825/199 360/809/199 363/826/199
f 367/827/200 369/87/200 368/828/200
f 369/829/76 370/830/76 368/64/76
f 370/482/201 366/831/201 368/832/201
f 366/833/1 365/834/1 367/67/1
f 366/76/1 367/835/1 368/836/1
f 365/837/202 369/17/202 367/838/202
f 365/839/203 366/840/203 369/67/203
f 366/76/80 370/841/80 369/842/80
f 379/650/81 377/843/81 380/844/81
f 377/845/82 378/846/82 380/637/82
f 378/847/83 383/848/83 380/849/83
f 383/640/84 382/850/84 380/851/84
f 382/852/85 379/853/85 380/671/85
f 382/854/86 381/855/86 379/656/86
f 381/637/18 371/856/18 373/857/18
f 381/858/18 373/859/18 375/671/18
f 381/660/18 375/860/18 377/861/18
f 381/660/18 377/671/18 379/862/18
f 375/863/87 378/656/87 377/864/87
f 375/865/88 376/645/88 378/866/88
f 376/640/89 383/867/89 378/851/89
f 374/640/90 372/868/90 383/851/90
f 372/848/91 382/849/91 383/869/91
f 376/870/92 374/848/92 383/849/92
f 372/871/93 381/872/93 382/637/93
f 372/650/94 371/873/94 381/874/94
f 373/650/95 376/875/95 375/876/95
f 373/877/96 374/660/96 376/878/96
f 373/656/97 371/879/97 374/880/97
f 371/881/98 372/882/98 374/645/98
f 391/883/204 388/884/204 389/606/204
f 388/885/205 386/886/205 389/887/205
f 386/888/206 387/889/206 389/586/206
f 387/890/207 396/891/207 389/892/207
f 396/893/208 391/894/208 389/895/208
f 396/896/209 393/891/209 391/892/209
f 393/579/210 390/897/210 391/898/210
f 390/899/211 388/900/211 391/901/211
f 390/902/74 392/903/74 386/606/74
f 390/579/74 386/904/74 388/905/74
f 392/906/74 394/907/74 384/606/74
f 392/579/74 384/908/74 386/909/74
f 384/910/212 387/911/212 386/901/212
f 384/912/213 385/913/213 387/606/213
f 385/893/214 396/914/214 387/895/214
f 385/915/215 395/891/215 396/892/215
f 395/893/216 393/916/216 396/895/216
f 395/570/217 392/917/217 393/918/217
f 392/886/218 390/919/218 393/920/218
f 395/921/219 394/922/219 392/901/219
f 394/923/220 385/886/220 384/924/220
f 394/925/221 395/579/221 385/926/221
f 398/927/222 401/67/222 397/928/222
f 401/929/223 399/17/223 397/930/223
f 399/931/1 400/67/1 398/64/1
f 399/87/1 398/64/1 397/932/1
f 400/482/224 402/933/224 398/934/224
f 402/87/118 401/67/118 398/935/118
f 400/936/225 399/937/225 401/64/225
f 402/76/122 400/938/122 401/939/122
f 405/787/123 407/67/123 403/64/123
f 407/87/124 406/788/124 403/76/124
f 406/940/125 408/941/125 403/87/125
f 408/629/126 405/76/126 403/87/126
f 408/942/127 404/943/127 405/76/127
f 404/632/128 407/67/128 405/633/128
f 404/634/129 406/633/129 407/87/129
f 404/64/130 408/635/130 406/67/130
f 412/645/226 409/646/226 410/944/226
f 409/945/227 419/946/227 410/650/227
f 419/636/228 420/637/228 410/947/228
f 420/948/229 421/640/229 410/949/229
f 421/950/230 412/643/230 410/951/230
f 411/656/231 409/952/231 412/673/231
f 421/666/232 414/849/232 412/953/232
f 414/637/233 411/954/233 412/955/233
f 411/956/234 413/671/234 409/660/234
f 413/957/234 415/958/234 419/660/234
f 413/671/234 419/959/234 409/960/234
f 415/671/234 417/961/234 419/660/234
f 417/656/235 420/962/235 419/963/235
f 417/659/236 418/964/236 420/645/236
f 418/643/237 421/965/237 420/966/237
f 418/667/238 416/967/238 421/643/238
f 416/968/239 414/640/239 421/663/239
f 414/969/240 413/970/240 411/676/240
f 416/971/241 413/972/241 414/660/241
f 416/679/242 415/680/242 413/973/242
f 418/974/243 417/676/243 415/677/243
f 416/975/244 418/671/244 415/682/244
f 427/489/245 423/976/245 425/977/245
f 423/978/1 422/979/1 424/87/1
f 423/64/1 424/980/1 425/981/1
f 424/982/246 426/64/246 425/983/246
f 426/984/152 427/985/152 425/87/152
f 426/986/153 423/67/153 427/987/153
f 426/76/247 422/988/247 423/989/247
f 422/990/248 426/28/248 424/991/248
f 436/727/81 434/992/81 437/993/81
f 434/994/82 435/731/82 437/732/82
f 435/733/83 440/995/83 437/735/83
f 440/736/84 439/737/84 437/738/84
f 439/996/85 436/740/85 437/741/85
f 439/742/86 438/743/86 436/744/86
f 438/732/18 428/765/18 430/766/18
f 438/997/18 430/998/18 432/741/18
f 438/745/18 432/999/18 434/1000/18
f 438/745/18 434/741/18 436/746/18
f 432/1001/87 435/744/87 434/753/87
f 432/754/156 433/748/156 435/755/156
f 433/736/89 440/1002/89 435/757/89
f 431/736/90 429/758/90 440/757/90
f 429/734/91 439/735/91 440/1003/91
f 433/760/92 431/734/92 440/735/92
f 429/761/93 438/762/93 439/732/93
f 429/727/94 428/763/94 438/764/94
f 430/727/95 433/1004/95 432/1005/95
f 430/770/96 431/745/96 433/1006/96
f 430/744/97 428/767/97 431/1007/97
f 428/1008/98 429/1009/98 431/748/98
f 442/1010/249 451/1011/249 452/745/249
f 451/1012/250 449/1013/250 452/1014/250
f 449/1015/251 450/1016/251 452/748/251
f 450/1017/252 453/1018/252 452/1019/252
f 453/1020/253 442/1021/253 452/1022/253
f 453/1023/254 444/1018/254 442/1024/254
f 444/741/255 441/1025/255 442/1026/255
f 441/1027/256 451/1028/256 442/1029/256
f 441/999/73 443/1030/73 451/745/73
f 443/741/73 447/1031/73 451/1032/73
f 447/732/73 449/1033/73 451/748/73
f 447/1034/257 450/1035/257 449/1029/257
f 447/1036/258 448/1037/258 450/745/258
f 448/1038/259 453/1039/259 450/1022/259
f 448/1040/260 446/1018/260 453/1024/260
f 446/1038/261 444/1041/261 453/1022/261
f 446/732/262 443/1042/262 444/1043/262
f 443/1013/263 441/1044/263 444/1045/263
f 446/1046/264 445/1047/264 443/1029/264
f 445/1048/73 447/745/73 443/1049/73
f 445/1050/265 448/1013/265 447/1051/265
f 445/1052/266 446/741/266 448/1053/266
f 457/87/1 455/67/1 454/1054/1
f 457/87/1 454/64/1 456/1055/1
f 454/1056/267 458/28/267 456/1057/267
f 458/67/268 457/1058/268 456/1059/268
f 458/76/177 459/87/177 457/1060/177
f 459/1061/269 455/1062/269 457/482/269
f 455/1063/270 458/76/270 454/1064/270
f 455/1065/178 459/67/178 458/64/178
f 462/625/123 464/67/123 460/64/123
f 464/87/124 463/626/124 460/76/124
f 463/67/125 465/633/125 460/87/125
f 465/1066/126 462/76/126 460/1067/126
f 465/790/127 461/64/127 462/76/127
f 461/632/128 464/67/128 462/633/128
f 461/634/129 463/633/129 464/87/129
f 461/64/130 465/1068/130 463/1069/130
f 469/520/271 466/1070/271 467/1071/271
f 466/1072/272 476/1073/272 467/532/272
f 476/1074/273 477/544/273 467/1075/273
f 477/523/274 478/1076/274 467/1077/274
f 478/797/275 469/1078/275 467/1079/275
f 468/515/276 466/1080/276 469/1081/276
f 478/1082/277 471/797/277 469/524/277
f 471/537/278 468/1083/278 469/520/278
f 468/1084/279 470/529/279 466/537/279
f 470/1085/279 472/1086/279 476/537/279
f 470/529/279 476/1087/279 466/1088/279
f 472/529/279 474/1089/279 476/537/279
f 474/515/280 477/1090/280 476/1091/280
f 474/1083/281 475/520/281 477/1092/281
f 475/1093/282 478/1082/282 477/797/282
f 475/1094/283 473/1095/283 478/797/283
f 473/1077/284 471/523/284 478/1076/284
f 471/1096/285 470/1097/285 468/515/285
f 473/1075/286 470/1074/286 471/544/286
f 473/532/287 472/1072/287 470/1098/287
f 475/1081/288 474/515/288 472/1099/288
f 473/1071/289 475/520/289 472/1100/289
f 2/1/1 18/1101/1 17/2/1
f 2/4/1 3/1102/1 19/5/1
f 4/7/1 20/1103/1 19/8/1
f 5/10/1 21/1104/1 20/11/1
f 6/13/1 22/1105/1 21/14/1
f 6/16/1 7/1106/1 23/17/1
f 8/19/1 24/1107/1 23/5/1
f 9/21/1 25/1108/1 24/22/1
f 10/24/1 26/1109/1 25/25/1
f 10/27/1 11/1110/1 27/28/1
f 12/30/1 28/1111/1 27/17/1
f 13/32/1 29/1112/1 28/33/1
f 14/35/1 30/1113/1 29/36/1
f 14/38/1 15/1114/1 31/8/1
f 16/40/1 32/1115/1 31/28/1
f 1/42/1 17/1116/1 32/43/1
f 18/45/2 34/60/2 33/46/2
f 19/48/3 35/59/3 34/49/3
f 20/51/4 36/57/4 35/52/4
f 21/54/5 37/58/5 36/55/5
f 22/54/6 38/58/6 37/55/6
f 23/51/7 39/57/7 38/52/7
f 24/52/8 40/53/8 39/51/8
f 25/55/9 41/56/9 40/54/9
f 26/55/10 42/56/10 41/54/10
f 27/52/11 43/53/11 42/51/11
f 28/49/12 44/50/12 43/48/12
f 29/46/13 45/47/13 44/45/13
f 30/46/14 46/47/14 45/45/14
f 31/49/15 47/50/15 46/48/15
f 32/48/16 48/59/16 47/49/16
f 17/45/17 33/60/17 48/46/17
f 34/61/18 50/1117/18 49/62/18
f 35/64/18 51/1118/18 50/65/18
f 35/67/18 36/1119/18 52/68/18
f 36/70/18 37/1120/18 53/71/18
f 38/73/18 54/1121/18 53/74/18
f 39/76/18 55/1122/18 54/77/18
f 39/64/18 40/1123/18 56/79/18
f 40/81/18 41/1124/18 57/82/18
f 42/84/18 58/1125/18 57/85/18
f 43/87/18 59/1126/18 58/88/18
f 43/76/18 44/1127/18 60/90/18
f 44/92/18 45/1128/18 61/93/18
f 46/95/18 62/1129/18 61/96/18
f 47/67/18 63/1130/18 62/98/18
f 47/87/18 48/1131/18 64/100/18
f 48/102/18 33/1132/18 49/103/18
f 50/105/10 2/120/10 1/106/10
f 51/108/11 3/119/11 2/109/11
f 52/111/12 4/117/12 3/112/12
f 53/114/13 5/118/13 4/115/13
f 54/114/14 6/118/14 5/115/14
f 55/111/15 7/117/15 6/112/15
f 56/112/16 8/113/16 7/111/16
f 57/115/17 9/116/17 8/114/17
f 58/115/2 10/116/2 9/114/2
f 59/112/3 11/113/3 10/111/3
f 60/109/4 12/110/4 11/108/4
f 61/106/5 13/107/5 12/105/5
f 62/106/6 14/107/6 13/105/6
f 63/109/7 15/110/7 14/108/7
f 64/108/8 16/119/8 15/109/8
f 49/105/9 1/120/9 16/106/9
f 66/121/1 82/1133/1 81/122/1
f 67/124/1 83/5/1 82/125/1
f 68/127/1 84/1134/1 83/8/1
f 69/129/1 85/1135/1 84/130/1
f 70/132/1 86/1136/1 85/133/1
f 71/135/1 87/17/1 86/136/1
f 72/138/1 88/1137/1 87/5/1
f 73/140/1 89/1138/1 88/141/1
f 74/143/1 90/1139/1 89/144/1
f 75/146/1 91/28/1 90/147/1
f 76/149/1 92/1140/1 91/17/1
f 77/151/1 93/1141/1 92/152/1
f 78/154/1 94/1142/1 93/155/1
f 79/157/1 95/8/1 94/158/1
f 80/160/1 96/1143/1 95/28/1
f 65/162/1 81/1144/1 96/163/1
f 82/165/2 98/180/2 97/166/2
f 83/168/3 99/179/3 98/169/3
f 84/171/4 100/177/4 99/172/4
f 85/174/5 101/178/5 100/175/5
f 86/174/6 102/178/6 101/175/6
f 87/171/7 103/177/7 102/172/7
f 88/172/8 104/173/8 103/171/8
f 89/175/9 105/176/9 104/174/9
f 90/175/10 106/176/10 105/174/10
f 91/172/11 107/173/11 106/171/11
f 92/169/12 108/170/12 107/168/12
f 93/166/13 109/167/13 108/165/13
f 94/166/14 110/167/14 109/165/14
f 95/169/15 111/170/15 110/168/15
f 96/168/16 112/179/16 111/169/16
f 81/165/17 97/180/17 112/166/17
f 98/181/18 114/1145/18 113/182/18
f 98/184/18 99/64/18 115/185/18
f 100/187/18 116/1146/18 115/188/18
f 101/189/18 117/1147/18 116/190/18
f 102/192/18 118/1148/18 117/193/18
f 102/195/18 103/76/18 119/196/18
f 104/198/18 120/1149/18 119/199/18
f 105/200/18 121/1150/18 120/201/18
f 106/203/18 122/1151/18 121/204/18
f 106/206/18 107/87/18 123/207/18
f 108/209/18 124/1152/18 123/210/18
f 109/211/18 125/1153/18 124/212/18
f 110/214/18 126/1154/18 125/215/18
f 110/217/18 111/67/18 127/218/18
f 112/220/18 128/1155/18 127/221/18
f 97/222/18 113/1156/18 128/223/18
f 114/225/10 66/240/10 65/226/10
f 115/228/11 67/239/11 66/229/11
f 116/231/12 68/237/12 67/232/12
f 117/234/13 69/238/13 68/235/13
f 118/234/14 70/238/14 69/235/14
f 119/231/15 71/237/15 70/232/15
f 120/232/16 72/233/16 71/231/16
f 121/235/17 73/236/17 72/234/17
f 122/235/2 74/236/2 73/234/2
f 123/232/3 75/233/3 74/231/3
f 124/229/4 76/230/4 75/228/4
f 125/226/5 77/227/5 76/225/5
f 126/226/6 78/227/6 77/225/6
f 127/229/7 79/230/7 78/228/7
f 128/228/8 80/239/8 79/229/8
f 113/225/9 65/240/9 80/226/9
f 130/241/1 146/1157/1 145/242/1
f 131/244/1 147/5/1 146/245/1
f 132/247/1 148/1158/1 147/8/1
f 133/249/1 149/1159/1 148/250/1
f 134/252/1 150/1160/1 149/253/1
f 135/255/1 151/17/1 150/256/1
f 136/258/1 152/1161/1 151/5/1
f 137/260/1 153/1162/1 152/261/1
f 138/263/1 154/1163/1 153/264/1
f 139/266/1 155/28/1 154/267/1
f 140/269/1 156/1164/1 155/17/1
f 141/271/1 157/1165/1 156/272/1
f 142/274/1 158/1166/1 157/275/1
f 143/277/1 159/8/1 158/278/1
f 144/280/1 160/1167/1 159/28/1
f 129/282/1 145/1168/1 160/283/1
f 146/285/2 162/300/2 161/286/2
f 147/288/3 163/299/3 162/289/3
f 148/291/4 164/297/4 163/292/4
f 149/294/5 165/298/5 164/295/5
f 150/294/6 166/298/6 165/295/6
f 151/291/7 167/297/7 166/292/7
f 152/292/8 168/293/8 167/291/8
f 153/295/9 169/296/9 168/294/9
f 154/295/10 170/296/10 169/294/10
f 155/292/11 171/293/11 170/291/11
f 156/289/12 172/290/12 171/288/12
f 157/286/13 173/287/13 172/285/13
f 158/286/14 174/287/14 173/285/14
f 159/289/15 175/290/15 174/288/15
f 160/288/16 176/299/16 175/289/16
f 145/285/17 161/300/17 176/286/17
f 162/301/18 178/1169/18 177/302/18
f 163/304/18 179/1170/18 178/305/18
f 164/307/18 180/1171/18 179/308/18
f 165/310/18 181/1172/18 180/311/18
f 166/313/18 182/1173/18 181/314/18
f 167/316/18 183/1174/18 182/317/18
f 168/319/18 184/1175/18 183/320/18
f 169/321/18 185/1176/18 184/322/18
f 170/324/18 186/1177/18 185/325/18
f 171/327/18 187/1178/18 186/328/18
f 172/330/18 188/1179/18 187/331/18
f 173/332/18 189/1180/18 188/333/18
f 174/335/18 190/1181/18 189/336/18
f 175/309/18 191/1182/18 190/338/18
f 176/340/18 192/1183/18 191/341/18
f 161/342/18 177/1184/18 192/343/18
f 178/345/10 130/360/10 129/346/10
f 179/348/11 131/359/11 130/349/11
f 180/351/12 132/357/12 131/352/12
f 181/354/13 133/358/13 132/355/13
f 182/354/14 134/358/14 133/355/14
f 183/351/15 135/357/15 134/352/15
f 184/352/16 136/353/16 135/351/16
f 185/355/17 137/356/17 136/354/17
f 186/355/2 138/356/2 137/354/2
f 187/352/3 139/353/3 138/351/3
f 188/349/4 140/350/4 139/348/4
f 189/346/5 141/347/5 140/345/5
f 190/346/6 142/347/6 141/345/6
f 191/349/7 143/350/7 142/348/7
f 192/348/8 144/359/8 143/349/8
f 177/345/9 129/360/9 144/346/9
f 194/361/19 206/1185/19 205/362/19
f 195/364/20 207/1186/20 206/365/20
f 196/367/21 208/1187/21 207/368/21
f 197/370/22 209/1188/22 208/371/22
f 198/373/23 210/1189/23 209/374/23
f 199/376/24 211/1190/24 210/377/24
f 200/379/25 212/1191/25 211/380/25
f 201/382/26 213/1192/26 212/383/26
f 202/385/27 214/1193/27 213/386/27
f 203/388/28 215/1194/28 214/389/28
f 204/391/29 216/1195/29 215/392/29
f 193/394/30 205/1196/30 216/395/30
f 206/397/31 218/1197/31 217/398/31
f 207/400/32 219/1198/32 218/401/32
f 208/403/33 220/1199/33 219/404/33
f 209/406/34 221/1200/34 220/407/34
f 210/409/35 222/1201/35 221/410/35
f 211/411/36 223/1202/36 222/412/36
f 212/414/37 224/1203/37 223/415/37
f 213/417/38 225/1204/38 224/418/38
f 214/419/39 226/1205/39 225/420/39
f 215/422/40 227/1206/40 226/423/40
f 216/402/41 228/1207/41 227/425/41
f 205/426/42 217/1208/42 228/427/42
f 218/429/43 230/1209/43 229/430/43
f 219/400/44 231/1210/44 230/432/44
f 220/433/45 232/1211/45 231/434/45
f 221/436/46 233/1212/46 232/437/46
f 222/409/47 234/1213/47 233/439/47
f 223/440/48 235/1214/48 234/441/48
f 224/443/49 236/1215/49 235/444/49
f 225/417/50 237/1216/50 236/446/50
f 226/447/51 238/1217/51 237/448/51
f 227/450/52 239/1218/52 238/451/52
f 228/402/53 240/1219/53 239/453/53
f 217/454/54 229/1220/54 240/455/54
