# Blender 5.2.2 LTS
# www.blender.org
mtllib Sword_Ornate.mtl
o Sword_Ornate
v 0.000000 0.000000 0.000000
v 0.150000 0.400000 0.000000
v -0.150000 0.400000 0.000000
v 0.090000 0.400000 -0.045000
v -0.090000 0.400000 -0.045000
v 0.090000 0.400000 0.045000
v -0.090000 0.400000 0.045000
v 0.190000 3.020000 0.000000
v -0.190000 3.020000 0.000000
v 0.120000 3.020000 -0.050000
v -0.120000 3.020000 -0.050000
v 0.120000 3.020000 0.050000
v -0.120000 3.020000 0.050000
v -0.025000 0.600000 0.041200
v -0.025000 0.600000 0.051200
v 0.025000 0.600000 0.041200
v 0.025000 0.600000 0.051200
v -0.025000 2.850000 0.045700
v -0.025000 2.850000 0.055700
v 0.025000 2.850000 0.045700
v 0.025000 2.850000 0.055700
v -0.025000 0.600000 -0.041200
v -0.025000 0.600000 -0.051200
v 0.025000 0.600000 -0.041200
v 0.025000 0.600000 -0.051200
v -0.025000 2.850000 -0.045700
v -0.025000 2.850000 -0.055700
v 0.025000 2.850000 -0.045700
v 0.025000 2.850000 -0.055700
v -0.240000 3.000000 0.090000
v -0.240000 3.170000 0.090000
v -0.240000 3.000000 -0.090000
v -0.240000 3.170000 -0.090000
v 0.240000 3.000000 0.090000
v 0.240000 3.170000 0.090000
v 0.240000 3.000000 -0.090000
v 0.240000 3.170000 -0.090000
v -0.220000 3.020000 0.070000
v -0.220000 3.160000 0.070000
v -0.220000 3.020000 -0.070000
v -0.220000 3.160000 -0.070000
v -0.500000 3.080000 0.060000
v -0.500000 3.240000 0.060000
v -0.500000 3.080000 -0.060000
v -0.500000 3.240000 -0.060000
v -0.500000 3.080000 0.060000
v -0.500000 3.240000 0.060000
v -0.500000 3.080000 -0.060000
v -0.500000 3.240000 -0.060000
v -0.780000 3.330000 0.030000
v -0.780000 3.410000 0.030000
v -0.780000 3.330000 -0.030000
v -0.780000 3.410000 -0.030000
v -0.016500 3.113579 0.109200
v 0.000000 3.145000 0.093000
v -0.033000 3.085000 0.109200
v -0.051962 3.115000 0.093000
v -0.016500 3.056421 0.109200
v -0.051962 3.055000 0.093000
v 0.016500 3.056421 0.109200
v -0.000000 3.025000 0.093000
v 0.033000 3.085000 0.109200
v 0.051962 3.055000 0.093000
v 0.016500 3.113579 0.109200
v 0.051962 3.115000 0.093000
v 0.000000 3.085000 0.045000
v 0.220000 3.020000 0.070000
v 0.220000 3.160000 0.070000
v 0.220000 3.020000 -0.070000
v 0.220000 3.160000 -0.070000
v 0.500000 3.080000 0.060000
v 0.500000 3.240000 0.060000
v 0.500000 3.080000 -0.060000
v 0.500000 3.240000 -0.060000
v 0.500000 3.080000 0.060000
v 0.500000 3.240000 0.060000
v 0.500000 3.080000 -0.060000
v 0.500000 3.240000 -0.060000
v 0.780000 3.330000 0.030000
v 0.780000 3.410000 0.030000
v 0.780000 3.330000 -0.030000
v 0.780000 3.410000 -0.030000
v 0.016500 3.113579 -0.109200
v 0.000000 3.145000 -0.093000
v 0.033000 3.085000 -0.109200
v 0.051962 3.115000 -0.093000
v 0.016500 3.056421 -0.109200
v 0.051962 3.055000 -0.093000
v -0.016500 3.056421 -0.109200
v -0.000000 3.025000 -0.093000
v -0.033000 3.085000 -0.109200
v -0.051962 3.055000 -0.093000
v -0.016500 3.113579 -0.109200
v -0.051962 3.115000 -0.093000
v 0.000000 3.085000 -0.045000
v 0.057158 3.160000 -0.033000
v 0.000000 3.160000 -0.066000
v -0.057158 3.160000 -0.033000
v -0.057158 3.160000 0.033000
v -0.000000 3.160000 0.066000
v 0.057158 3.160000 0.033000
v 0.067550 3.288000 -0.039000
v 0.000000 3.288000 -0.078000
v -0.067550 3.288000 -0.039000
v -0.067550 3.288000 0.039000
v -0.000000 3.288000 0.078000
v 0.067550 3.288000 0.039000
v 0.057158 3.416000 -0.033000
v 0.000000 3.416000 -0.066000
v -0.057158 3.416000 -0.033000
v -0.057158 3.416000 0.033000
v -0.000000 3.416000 0.066000
v 0.057158 3.416000 0.033000
v 0.067550 3.544000 -0.039000
v 0.000000 3.544000 -0.078000
v -0.067550 3.544000 -0.039000
v -0.067550 3.544000 0.039000
v -0.000000 3.544000 0.078000
v 0.067550 3.544000 0.039000
v 0.057158 3.672000 -0.033000
v 0.000000 3.672000 -0.066000
v -0.057158 3.672000 -0.033000
v -0.057158 3.672000 0.033000
v -0.000000 3.672000 0.066000
v 0.057158 3.672000 0.033000
v 0.067550 3.800000 -0.039000
v 0.000000 3.800000 -0.078000
v -0.067550 3.800000 -0.039000
v -0.067550 3.800000 0.039000
v -0.000000 3.800000 0.078000
v 0.067550 3.800000 0.039000
v 0.057158 3.928000 -0.033000
v 0.000000 3.928000 -0.066000
v -0.057158 3.928000 -0.033000
v -0.057158 3.928000 0.033000
v -0.000000 3.928000 0.066000
v 0.057158 3.928000 0.033000
v 0.067550 4.056000 -0.039000
v 0.000000 4.056000 -0.078000
v -0.067550 4.056000 -0.039000
v -0.067550 4.056000 0.039000
v -0.000000 4.056000 0.078000
v 0.067550 4.056000 0.039000
v 0.000000 4.030000 0.000000
v 0.092388 4.040000 -0.038268
v 0.038268 4.040000 -0.092388
v -0.038268 4.040000 -0.092388
v -0.092388 4.040000 -0.038268
v -0.092388 4.040000 0.038268
v -0.038268 4.040000 0.092388
v 0.038268 4.040000 0.092388
v 0.092388 4.040000 0.038268
v 0.120104 4.150000 -0.049749
v 0.049749 4.150000 -0.120104
v -0.049749 4.150000 -0.120104
v -0.120104 4.150000 -0.049749
v -0.120104 4.150000 0.049749
v -0.049749 4.150000 0.120104
v 0.049749 4.150000 0.120104
v 0.120104 4.150000 0.049749
v 0.110866 4.280000 -0.045922
v 0.045922 4.280000 -0.110866
v -0.045922 4.280000 -0.110866
v -0.110866 4.280000 -0.045922
v -0.110866 4.280000 0.045922
v -0.045922 4.280000 0.110866
v 0.045922 4.280000 0.110866
v 0.110866 4.280000 0.045922
v 0.073910 4.380000 -0.030615
v 0.030615 4.380000 -0.073910
v -0.030615 4.380000 -0.073910
v -0.073910 4.380000 -0.030615
v -0.073910 4.380000 0.030615
v -0.030615 4.380000 0.073910
v 0.030615 4.380000 0.073910
v 0.073910 4.380000 0.030615
v 0.000000 4.440000 0.000000
v -0.017875 4.230960 0.145800
v 0.000000 4.265000 0.128250
v -0.035750 4.200000 0.145800
v -0.056292 4.232500 0.128250
v -0.017875 4.169039 0.145800
v -0.056292 4.167500 0.128250
v 0.017875 4.169039 0.145800
v -0.000000 4.135000 0.128250
v 0.035750 4.200000 0.145800
v 0.056292 4.167500 0.128250
v 0.017875 4.230960 0.145800
v 0.056292 4.232500 0.128250
v 0.000000 4.200000 0.076250
v 0.017875 4.230960 -0.145800
v 0.000000 4.265000 -0.128250
v 0.035750 4.200000 -0.145800
v 0.056292 4.232500 -0.128250
v 0.017875 4.169039 -0.145800
v 0.056292 4.167500 -0.128250
v -0.017875 4.169039 -0.145800
v -0.000000 4.135000 -0.128250
v -0.035750 4.200000 -0.145800
v -0.056292 4.167500 -0.128250
v -0.017875 4.230960 -0.145800
v -0.056292 4.232500 -0.128250
v 0.000000 4.200000 -0.076250
vn 0.5812 -0.0082 0.8137
vn 0.6000 -0.0092 0.8000
vn 0.6000 -0.0092 -0.8000
vn 0.5812 -0.0082 -0.8137
vn -0.0000 1.0000 -0.0000
vn -0.0000 -0.0019 1.0000
vn -0.0000 -0.1118 0.9937
vn 0.5854 -0.2195 0.7805
vn 0.5854 -0.2195 -0.7805
vn -0.0000 -0.1118 -0.9937
vn -0.0000 -0.0019 -1.0000
vn -0.5812 -0.0082 0.8137
vn -0.5854 -0.2195 0.7805
vn -0.6000 -0.0092 0.8000
vn -0.5854 -0.2195 -0.7805
vn -0.6000 -0.0092 -0.8000
vn -0.5812 -0.0082 -0.8137
vn 1.0000 -0.0000 -0.0000
vn -0.0000 0.0020 -1.0000
vn -0.0000 -0.0020 1.0000
vn -0.0000 -1.0000 -0.0000
vn -1.0000 -0.0000 -0.0000
vn -0.0000 -0.0020 -1.0000
vn -0.0000 0.0020 1.0000
vn -0.0000 -0.0000 -1.0000
vn -0.0000 -0.0000 1.0000
vn -0.0357 -0.0000 0.9994
vn -0.2095 -0.9778 -0.0000
vn -0.0357 -0.0000 -0.9994
vn 0.2747 0.9615 -0.0000
vn -0.1065 -0.0000 -0.9943
vn 0.5190 0.8548 -0.0000
vn -0.1065 -0.0000 0.9943
vn -0.6660 -0.7459 -0.0000
vn 0.3248 0.5625 0.7603
vn 0.3969 0.2291 0.8888
vn 0.6496 -0.0000 0.7603
vn 0.6785 -0.0000 -0.7346
vn 0.3393 0.5876 -0.7346
vn -0.3393 0.5876 -0.7346
vn -0.3248 0.5625 0.7603
vn -0.0000 0.4583 0.8888
vn 0.3969 -0.2291 0.8888
vn 0.3248 -0.5625 0.7603
vn 0.3393 -0.5876 -0.7346
vn -0.3393 -0.5876 -0.7346
vn -0.6785 -0.0000 -0.7346
vn -0.6496 -0.0000 0.7603
vn -0.3969 0.2291 0.8888
vn -0.3969 -0.2291 0.8888
vn -0.0000 -0.4583 0.8888
vn -0.3248 -0.5625 0.7603
vn 0.2095 -0.9778 -0.0000
vn 0.0357 -0.0000 0.9994
vn 0.0357 -0.0000 -0.9994
vn -0.2747 0.9615 -0.0000
vn 0.1065 -0.0000 -0.9943
vn -0.5190 0.8548 -0.0000
vn 0.1065 -0.0000 0.9943
vn 0.6660 -0.7459 -0.0000
vn 0.3969 0.2291 -0.8888
vn 0.3248 0.5625 -0.7603
vn 0.3393 0.5876 0.7346
vn 0.6785 -0.0000 0.7346
vn 0.6496 -0.0000 -0.7603
vn 0.3969 -0.2291 -0.8888
vn -0.0000 0.4583 -0.8888
vn -0.3248 0.5625 -0.7603
vn -0.3393 0.5876 0.7346
vn -0.3393 -0.5876 0.7345
vn 0.3393 -0.5876 0.7346
vn -0.6785 -0.0000 0.7346
vn 0.3248 -0.5625 -0.7603
vn -0.0000 -0.4583 -0.8888
vn -0.3969 -0.2291 -0.8888
vn -0.6496 -0.0000 -0.7603
vn -0.3969 0.2291 -0.8888
vn -0.3248 -0.5625 -0.7603
vn 0.4984 -0.0809 -0.8632
vn -0.4984 -0.0809 -0.8632
vn -0.9967 -0.0809 -0.0000
vn -0.4984 -0.0809 0.8632
vn 0.4984 -0.0809 0.8632
vn 0.9967 -0.0809 -0.0000
vn 0.4984 0.0809 -0.8632
vn -0.4984 0.0809 -0.8632
vn -0.9967 0.0809 -0.0000
vn -0.4984 0.0809 0.8632
vn 0.4984 0.0809 0.8632
vn 0.9967 0.0809 -0.0000
vn 0.0761 -0.9942 -0.0761
vn -0.0000 -0.9942 -0.1076
vn -0.0761 -0.9942 -0.0761
vn -0.1076 -0.9942 -0.0000
vn -0.0761 -0.9942 0.0761
vn -0.0000 -0.9942 0.1076
vn 0.0761 -0.9942 0.0761
vn 0.1076 -0.9942 -0.0000
vn 0.6857 -0.2443 -0.6857
vn -0.0000 -0.2443 -0.9697
vn -0.6857 -0.2443 -0.6857
vn -0.9697 -0.2443 -0.0000
vn -0.6857 -0.2443 0.6857
vn -0.0000 -0.2443 0.9697
vn 0.6857 -0.2443 0.6857
vn 0.9697 -0.2443 -0.0000
vn 0.7053 0.0709 -0.7053
vn -0.0000 0.0709 -0.9975
vn -0.7053 0.0709 -0.7053
vn -0.9975 0.0709 -0.0000
vn -0.7053 0.0709 0.7053
vn -0.0000 0.0709 0.9975
vn 0.7053 0.0709 0.7053
vn 0.9975 0.0709 -0.0000
vn 0.6633 0.3466 -0.6633
vn -0.0000 0.3466 -0.9380
vn -0.6633 0.3466 -0.6633
vn -0.9380 0.3466 -0.0000
vn -0.6633 0.3466 0.6633
vn -0.0000 0.3466 0.9380
vn 0.6633 0.3466 0.6633
vn 0.9380 0.3466 -0.0000
vn 0.4457 0.7764 -0.4457
vn -0.0000 0.7764 -0.6303
vn -0.4457 0.7764 -0.4457
vn -0.6303 0.7764 -0.0000
vn -0.4457 0.7764 0.4457
vn -0.0000 0.7764 0.6303
vn 0.4457 0.7764 0.4457
vn 0.6303 0.7764 -0.0000
vn -0.3393 -0.5876 0.7346
vt 0.902868 0.275000
vt 0.975000 0.350000
vt 0.900000 0.277027
vt 0.975000 0.348256
vt 0.972460 0.350000
vt 0.900000 0.275000
vt 0.902540 0.350000
vt 0.900000 0.348256
vt 0.975000 0.275000
vt 0.900000 0.350000
vt 0.972132 0.275000
vt 0.975000 0.277027
vt 0.850000 0.275000
vt 0.800000 0.344231
vt 0.775000 0.350000
vt 0.779167 0.315385
vt 0.850000 0.306250
vt 0.827941 0.275000
vt 0.837500 0.350000
vt 0.775000 0.287500
vt 0.775000 0.275000
vt 0.850000 0.345230
vt 0.844788 0.350000
vt 0.781792 0.275000
vt 0.850000 0.350000
vt 0.775000 0.281360
vt 0.802269 0.275000
vt 0.775000 0.302551
vt 0.900000 0.289516
vt 0.911058 0.275000
vt 0.963942 0.275000
vt 0.975000 0.289516
vt 0.822731 0.275000
vt 0.850000 0.302551
vt 0.843640 0.275000
vt 0.850000 0.281792
vt 0.775000 0.344788
vt 0.779770 0.350000
vt 0.903072 0.275000
vt 0.900000 0.276930
vt 0.922391 0.275000
vt 0.900000 0.283182
vt 0.975000 0.348346
vt 0.972260 0.350000
vt 0.952609 0.275000
vt 0.975000 0.283182
vt 0.900000 0.348346
vt 0.902740 0.350000
vt 0.971928 0.275000
vt 0.975000 0.276930
vt 0.725000 0.350000
vt 0.650000 0.275331
vt 0.650334 0.275000
vt 0.724666 0.350000
vt 0.650000 0.275000
vt 0.725000 0.349669
vt 0.651667 0.350000
vt 0.650000 0.348370
vt 0.725000 0.275000
vt 0.650000 0.350000
vt 0.723333 0.275000
vt 0.725000 0.276630
vt 0.665000 0.350000
vt 0.650000 0.337500
vt 0.710000 0.275000
vt 0.725000 0.287500
vt 0.725000 0.348370
vt 0.723333 0.350000
vt 0.651667 0.275000
vt 0.650000 0.276630
vt 0.725000 0.337500
vt 0.710000 0.350000
vt 0.665000 0.275000
vt 0.650000 0.287500
vt 0.724666 0.275000
vt 0.725000 0.275331
vt 0.650334 0.350000
vt 0.650000 0.349669
vt 0.650000 0.275333
vt 0.650333 0.275000
vt 0.724667 0.350000
vt 0.725000 0.349667
vt 0.724667 0.275000
vt 0.725000 0.275333
vt 0.650333 0.350000
vt 0.650000 0.349667
vt 0.225000 0.100000
vt 0.150000 0.044615
vt 0.176563 0.025000
vt 0.198437 0.100000
vt 0.150000 0.025000
vt 0.225000 0.080385
vt 0.303125 0.100000
vt 0.275000 0.079545
vt 0.350000 0.025000
vt 0.275000 0.100000
vt 0.321875 0.025000
vt 0.350000 0.045455
vt 0.220833 0.100000
vt 0.150000 0.063571
vt 0.225000 0.025000
vt 0.150000 0.100000
vt 0.154167 0.025000
vt 0.225000 0.061429
vt 0.025000 0.025000
vt 0.100000 0.079545
vt 0.071875 0.100000
vt 0.053125 0.025000
vt 0.100000 0.100000
vt 0.025000 0.045455
vt 0.225000 0.063571
vt 0.154167 0.100000
vt 0.220833 0.025000
vt 0.150000 0.061429
vt 0.198437 0.025000
vt 0.225000 0.044615
vt 0.176563 0.100000
vt 0.150000 0.080385
vt 0.225000 0.062500
vt 0.150000 0.100000
vt 0.225000 0.025000
vt 0.150000 0.062500
vt 0.191700 0.025000
vt 0.225000 0.058333
vt 0.150000 0.069118
vt 0.179138 0.100000
vt 0.100000 0.066667
vt 0.078716 0.100000
vt 0.025000 0.061207
vt 0.049831 0.025000
vt 0.150000 0.058333
vt 0.183300 0.025000
vt 0.225000 0.069118
vt 0.195862 0.100000
vt 0.295792 0.100000
vt 0.275000 0.066667
vt 0.350000 0.061207
vt 0.325743 0.025000
vt 0.206250 0.100000
vt 0.150000 0.067857
vt 0.168750 0.025000
vt 0.225000 0.057143
vt 0.150000 0.057143
vt 0.206250 0.025000
vt 0.168750 0.100000
vt 0.225000 0.067857
vt 0.181138 0.100000
vt 0.150000 0.034836
vt 0.171931 0.025000
vt 0.225000 0.080328
vt 0.287740 0.100000
vt 0.275000 0.087838
vt 0.328220 0.025000
vt 0.350000 0.049324
vt 0.225000 0.034836
vt 0.193862 0.100000
vt 0.203069 0.025000
vt 0.150000 0.080328
vt 0.100000 0.087838
vt 0.090491 0.100000
vt 0.041879 0.025000
vt 0.025000 0.049324
vt 0.168750 0.025000
vt 0.225000 0.057143
vt 0.206250 0.100000
vt 0.150000 0.067857
vt 0.554524 0.400000
vt 0.600000 0.443851
vt 0.525000 0.475000
vt 0.459994 0.400000
vt 0.475000 0.475000
vt 0.400000 0.456635
vt 0.600000 0.413798
vt 0.596653 0.475000
vt 0.525000 0.400000
vt 0.314371 0.475000
vt 0.275000 0.400000
vt 0.350000 0.420096
vt 0.275000 0.454904
vt 0.338444 0.400000
vt 0.350000 0.475000
vt 0.280245 0.475000
vt 0.350000 0.420096
vt 0.600000 0.400000
vt 0.573487 0.475000
vt 0.525000 0.444658
vt 0.475000 0.423353
vt 0.431018 0.475000
vt 0.400000 0.400000
vt 0.556699 0.400000
vt 0.600000 0.427452
vt 0.579904 0.475000
vt 0.525000 0.420096
vt 0.600000 0.475000
vt 0.540850 0.459151
vt 0.475000 0.418502
vt 0.413279 0.475000
vt 0.551513 0.400000
vt 0.600000 0.430342
vt 0.275000 0.454904
vt 0.344755 0.400000
vt 0.286556 0.475000
vt 0.350000 0.420096
vt 0.275000 0.454904
vt 0.310629 0.400000
vt 0.525000 0.461202
vt 0.528347 0.400000
vt 0.400000 0.456498
vt 0.461721 0.400000
vt 0.475000 0.418365
vt 0.415006 0.475000
vt 0.600000 0.443301
vt 0.572549 0.400000
vt 0.443982 0.400000
vt 0.400000 0.451647
vt 0.525000 0.431149
vt 0.570476 0.475000
vt 0.025000 0.046951
vt 0.056818 0.025000
vt 0.065330 0.100000
vt 0.100000 0.074390
vt 0.183300 0.100000
vt 0.150000 0.066667
vt 0.194150 0.025000
vt 0.225000 0.054167
vt 0.225000 0.100000
vt 0.150000 0.062500
vt 0.150000 0.025000
vt 0.225000 0.062500
vt 0.225000 0.066667
vt 0.191700 0.100000
vt 0.180850 0.025000
vt 0.150000 0.054167
vt 0.319268 0.025000
vt 0.350000 0.046951
vt 0.308562 0.100000
vt 0.275000 0.074390
vt 0.150000 0.057143
vt 0.206250 0.025000
vt 0.168750 0.100000
vt 0.225000 0.067857
vt 0.150000 0.088158
vt 0.172505 0.025000
vt 0.211761 0.100000
vt 0.225000 0.068421
vt 0.296780 0.100000
vt 0.275000 0.075676
vt 0.337260 0.025000
vt 0.350000 0.037162
vt 0.202495 0.025000
vt 0.225000 0.088158
vt 0.163239 0.100000
vt 0.150000 0.068421
vt 0.100000 0.075676
vt 0.083121 0.100000
vt 0.034509 0.025000
vt 0.025000 0.037162
vt 0.400000 0.475000
vt 0.415006 0.400000
vt 0.475000 0.456635
vt 0.525000 0.443851
vt 0.570476 0.400000
vt 0.286556 0.400000
vt 0.350000 0.454904
vt 0.275000 0.475000
vt 0.350000 0.400000
vt 0.310629 0.475000
vt 0.275000 0.420096
vt 0.528347 0.475000
vt 0.525000 0.413798
vt 0.461721 0.475000
vt 0.400000 0.418502
vt 0.475000 0.400000
vt 0.584150 0.459151
vt 0.545096 0.475000
vt 0.600000 0.420096
vt 0.525000 0.427452
vt 0.568301 0.400000
vt 0.400000 0.423353
vt 0.443982 0.475000
vt 0.551513 0.475000
vt 0.600000 0.444658
vt 0.344755 0.475000
vt 0.275000 0.420096
vt 0.338444 0.475000
vt 0.275000 0.420096
vt 0.350000 0.454904
vt 0.280245 0.400000
vt 0.314371 0.400000
vt 0.350000 0.454904
vt 0.525000 0.430342
vt 0.573487 0.400000
vt 0.431018 0.400000
vt 0.475000 0.451647
vt 0.525000 0.443301
vt 0.552451 0.400000
vt 0.459994 0.475000
vt 0.400000 0.418365
vt 0.596653 0.400000
vt 0.600000 0.461202
vt 0.413279 0.400000
vt 0.475000 0.456498
vt 0.600000 0.431149
vt 0.554524 0.475000
vt 0.025000 0.451848
vt 0.100000 0.427362
vt 0.051287 0.475000
vt 0.025000 0.453078
vt 0.100000 0.425908
vt 0.052618 0.475000
vt 0.075354 0.400000
vt 0.054127 0.475000
vt 0.025000 0.445750
vt 0.072382 0.475000
vt 0.057640 0.400000
vt 0.100000 0.453078
vt 0.073713 0.475000
vt 0.056067 0.400000
vt 0.100000 0.451848
vt 0.025000 0.424750
vt 0.100000 0.445750
vt 0.070873 0.475000
vt 0.150000 0.449092
vt 0.225000 0.421922
vt 0.182640 0.475000
vt 0.150000 0.447638
vt 0.225000 0.423152
vt 0.181067 0.475000
vt 0.195873 0.400000
vt 0.174646 0.475000
vt 0.150000 0.450250
vt 0.193933 0.475000
vt 0.176287 0.400000
vt 0.225000 0.447638
vt 0.192360 0.475000
vt 0.177618 0.400000
vt 0.225000 0.449092
vt 0.150000 0.429250
vt 0.225000 0.450250
vt 0.200354 0.475000
vt 0.025000 0.445750
vt 0.025000 0.424750
vt 0.100000 0.445750
vt 0.150000 0.449092
vt 0.225000 0.421922
vt 0.182640 0.475000
vt 0.150000 0.447638
vt 0.225000 0.423152
vt 0.181067 0.475000
vt 0.150000 0.450250
vt 0.193933 0.475000
vt 0.176287 0.400000
vt 0.225000 0.447638
vt 0.192360 0.475000
vt 0.177618 0.400000
vt 0.225000 0.449092
vt 0.150000 0.429250
vt 0.225000 0.450250
vt 0.025000 0.453078
vt 0.100000 0.425908
vt 0.100000 0.453078
vt 0.150000 0.449092
vt 0.225000 0.421922
vt 0.225000 0.449092
vt 0.025000 0.451848
vt 0.100000 0.427362
vt 0.052618 0.475000
vt 0.100000 0.424750
vt 0.075354 0.400000
vt 0.072382 0.475000
vt 0.057640 0.400000
vt 0.100000 0.451848
vt 0.049646 0.400000
vt 0.070873 0.475000
vt 0.100000 0.062500
vt 0.025000 0.100000
vt 0.100000 0.025000
vt 0.068573 0.100000
vt 0.025000 0.056066
vt 0.062500 0.025000
vt 0.100000 0.056066
vt 0.056427 0.100000
vt 0.025000 0.062500
vt 0.056427 0.025000
vt 0.100000 0.068934
vt 0.062500 0.100000
vt 0.025000 0.068934
vt 0.068573 0.025000
vt 0.150000 0.073408
vt 0.225000 0.059569
vt 0.180425 0.100000
vt 0.150000 0.071011
vt 0.225000 0.062685
vt 0.178001 0.100000
vt 0.150000 0.078841
vt 0.225000 0.052506
vt 0.186278 0.100000
vt 0.225000 0.053989
vt 0.150000 0.062315
vt 0.196999 0.025000
vt 0.188722 0.100000
vt 0.197162 0.025000
vt 0.225000 0.078841
vt 0.196999 0.100000
vt 0.186401 0.025000
vt 0.225000 0.071011
vt 0.194575 0.100000
vt 0.189552 0.025000
vt 0.225000 0.073408
vt 0.178001 0.025000
vt 0.188599 0.100000
vt 0.150000 0.053989
vt 0.275000 0.074157
vt 0.350000 0.048855
vt 0.315636 0.100000
vt 0.275000 0.066933
vt 0.350000 0.055524
vt 0.307971 0.100000
vt 0.275000 0.072390
vt 0.350000 0.050486
vt 0.313675 0.100000
vt 0.350000 0.058067
vt 0.275000 0.069476
vt 0.317029 0.025000
vt 0.311325 0.100000
vt 0.310700 0.025000
vt 0.350000 0.072390
vt 0.317029 0.100000
vt 0.305435 0.025000
vt 0.350000 0.066933
vt 0.309364 0.100000
vt 0.312510 0.025000
vt 0.350000 0.074157
vt 0.307971 0.025000
vt 0.319565 0.100000
vt 0.275000 0.058067
vt 0.150000 0.072978
vt 0.225000 0.043015
vt 0.199113 0.100000
vt 0.150000 0.060981
vt 0.225000 0.051013
vt 0.186217 0.100000
vt 0.150000 0.061944
vt 0.225000 0.050371
vt 0.187167 0.100000
vt 0.225000 0.064019
vt 0.150000 0.073987
vt 0.188783 0.025000
vt 0.187833 0.100000
vt 0.174778 0.025000
vt 0.225000 0.061944
vt 0.188783 0.100000
vt 0.174145 0.025000
vt 0.225000 0.060981
vt 0.175887 0.100000
vt 0.182742 0.025000
vt 0.225000 0.072978
vt 0.186217 0.025000
vt 0.200855 0.100000
vt 0.150000 0.064019
vt 0.475000 0.025000
vt 0.475000 0.100000
vt 0.400000 0.062500
vt 0.475000 0.056066
vt 0.445031 0.100000
vt 0.400000 0.025000
vt 0.400000 0.100000
vt 0.437500 0.025000
vt 0.429969 0.100000
vt 0.400000 0.056066
vt 0.475000 0.062500
vt 0.400000 0.068934
vt 0.429969 0.025000
vt 0.437500 0.100000
vt 0.445031 0.025000
vt 0.475000 0.068934
vt 0.600000 0.443851
vt 0.459994 0.400000
vt 0.400000 0.456635
vt 0.600000 0.413798
vt 0.596653 0.475000
vt 0.314371 0.475000
vt 0.275000 0.454904
vt 0.338444 0.400000
vt 0.350000 0.420096
vt 0.573486 0.475000
vt 0.525000 0.444658
vt 0.475000 0.423353
vt 0.431018 0.475000
vt 0.552452 0.475000
vt 0.525000 0.431699
vt 0.548774 0.400000
vt 0.600000 0.411603
vt 0.588397 0.400000
vt 0.600000 0.451226
vt 0.568301 0.475000
vt 0.525000 0.447547
vt 0.475000 0.418503
vt 0.413279 0.475000
vt 0.551514 0.400000
vt 0.600000 0.430342
vt 0.275000 0.454904
vt 0.344755 0.400000
vt 0.286556 0.475000
vt 0.350000 0.420096
vt 0.275000 0.454904
vt 0.310629 0.400000
vt 0.525000 0.461202
vt 0.528347 0.400000
vt 0.400000 0.456497
vt 0.461721 0.400000
vt 0.475000 0.418365
vt 0.415006 0.475000
vt 0.525000 0.431149
vt 0.400000 0.451647
vt 0.443982 0.400000
vt 0.415006 0.400000
vt 0.475000 0.456635
vt 0.525000 0.443851
vt 0.570476 0.400000
vt 0.286556 0.400000
vt 0.350000 0.454904
vt 0.310629 0.475000
vt 0.528347 0.475000
vt 0.525000 0.413798
vt 0.600000 0.431699
vt 0.572548 0.475000
vt 0.461721 0.475000
vt 0.400000 0.418503
vt 0.556699 0.475000
vt 0.600000 0.447547
vt 0.525000 0.451226
vt 0.536603 0.400000
vt 0.525000 0.411603
vt 0.576226 0.400000
vt 0.400000 0.423353
vt 0.443982 0.475000
vt 0.551514 0.475000
vt 0.600000 0.444658
vt 0.275000 0.420096
vt 0.338444 0.475000
vt 0.275000 0.420096
vt 0.350000 0.454904
vt 0.280245 0.400000
vt 0.314371 0.400000
vt 0.350000 0.454904
vt 0.525000 0.430342
vt 0.573486 0.400000
vt 0.413279 0.400000
vt 0.475000 0.456497
vt 0.431018 0.400000
vt 0.475000 0.451647
vt 0.554524 0.475000
vt 0.600000 0.431149
vt 0.400000 0.418365
vt 0.459994 0.475000
vt 0.596653 0.400000
vt 0.600000 0.461202
vt 0.068933 0.400000
vt 0.067360 0.400000
vt 0.025000 0.425908
vt 0.025000 0.427362
vt 0.049646 0.400000
vt 0.197382 0.400000
vt 0.198713 0.400000
vt 0.225000 0.429250
vt 0.150000 0.423152
vt 0.150000 0.421922
vt 0.179127 0.400000
vt 0.100000 0.424750
vt 0.197382 0.400000
vt 0.198713 0.400000
vt 0.225000 0.429250
vt 0.150000 0.423152
vt 0.150000 0.421922
vt 0.025000 0.425908
vt 0.150000 0.421922
vt 0.067360 0.400000
vt 0.054127 0.475000
vt 0.025000 0.427362
vt 0.185448 0.025000
vt 0.188599 0.025000
vt 0.177838 0.025000
vt 0.186401 0.100000
vt 0.150000 0.052506
vt 0.150000 0.062685
vt 0.150000 0.059569
vt 0.225000 0.062315
vt 0.312490 0.025000
vt 0.319565 0.025000
vt 0.314300 0.025000
vt 0.305435 0.100000
vt 0.275000 0.050486
vt 0.275000 0.055524
vt 0.275000 0.048855
vt 0.350000 0.069476
vt 0.192258 0.025000
vt 0.200855 0.025000
vt 0.200222 0.025000
vt 0.174145 0.100000
vt 0.150000 0.050371
vt 0.150000 0.051013
vt 0.150000 0.043015
vt 0.225000 0.073987
s 0
usemtl HoardAtlas
f 12/1/1 6/2/1 8/3/1
f 6/4/2 2/5/2 8/6/2
f 2/7/3 4/8/3 8/9/3
f 4/10/4 10/11/4 8/12/4
f 10/13/5 11/14/5 9/15/5
f 10/13/5 9/15/5 13/16/5
f 10/17/5 13/15/5 12/18/5
f 10/19/5 12/20/5 8/13/5
f 13/21/6 7/22/6 6/23/6
f 13/24/6 6/25/6 12/26/6
f 7/27/7 1/25/7 6/28/7
f 1/2/8 2/29/8 6/30/8
f 1/10/9 4/31/9 2/32/9
f 1/15/10 5/33/10 4/34/10
f 5/15/11 11/35/11 10/36/11
f 5/37/11 10/13/11 4/38/11
f 9/39/12 7/2/12 13/40/12
f 3/41/13 1/2/13 7/42/13
f 9/6/14 3/43/14 7/44/14
f 3/45/15 5/46/15 1/10/15
f 3/47/16 9/9/16 5/48/16
f 9/49/17 11/50/17 5/10/17
f 21/51/18 17/52/18 16/53/18
f 21/54/18 16/55/18 20/56/18
f 16/57/19 14/58/19 18/59/19
f 16/60/19 18/61/19 20/62/19
f 18/63/5 19/64/5 21/59/5
f 18/60/5 21/65/5 20/66/5
f 19/55/20 15/67/20 17/68/20
f 19/69/20 17/51/20 21/70/20
f 17/55/21 15/71/21 14/72/21
f 17/73/21 14/51/21 16/74/21
f 14/75/22 15/76/22 19/60/22
f 14/59/22 19/77/22 18/78/22
f 28/51/18 24/79/18 25/80/18
f 28/81/18 25/55/18 29/82/18
f 25/57/23 23/58/23 27/59/23
f 25/60/23 27/61/23 29/62/23
f 27/63/5 26/64/5 28/59/5
f 27/60/5 28/65/5 29/66/5
f 26/55/24 22/67/24 24/68/24
f 26/69/24 24/51/24 28/70/24
f 24/55/21 22/71/21 23/72/21
f 24/73/21 23/51/21 25/74/21
f 23/83/22 22/84/22 26/60/22
f 23/59/22 26/85/22 27/86/22
f 36/87/25 32/88/25 33/89/25
f 36/90/25 33/91/25 37/92/25
f 33/93/5 31/94/5 35/95/5
f 33/96/5 35/97/5 37/98/5
f 35/99/18 34/100/18 36/101/18
f 35/102/18 36/103/18 37/104/18
f 34/105/21 30/106/21 32/107/21
f 34/108/21 32/109/21 36/110/21
f 32/91/22 30/111/22 31/112/22
f 32/113/22 31/87/22 33/114/22
f 31/115/26 30/116/26 34/102/26
f 31/101/26 34/117/26 35/118/26
f 40/91/18 41/119/18 39/120/18
f 40/121/18 39/87/18 38/122/18
f 39/102/27 43/123/27 42/124/27
f 39/125/27 42/101/27 38/126/27
f 42/127/28 44/128/28 40/105/28
f 42/109/28 40/129/28 38/130/28
f 44/131/29 45/132/29 41/87/29
f 44/91/29 41/133/29 40/134/29
f 41/95/30 45/135/30 43/136/30
f 41/137/30 43/96/30 39/138/30
f 43/139/22 45/140/22 44/101/22
f 43/102/22 44/141/22 42/142/22
f 47/87/18 46/143/18 48/144/18
f 47/145/18 48/91/18 49/146/18
f 48/147/31 52/148/31 53/101/31
f 48/102/31 53/149/31 49/150/31
f 53/151/32 51/152/32 47/95/32
f 53/96/32 47/153/32 49/154/32
f 51/91/33 50/155/33 46/156/33
f 51/157/33 46/87/33 47/158/33
f 46/105/34 50/159/34 52/160/34
f 46/161/34 52/109/34 48/162/34
f 52/163/22 50/164/22 51/102/22
f 52/101/22 51/165/22 53/166/22
f 55/167/35 64/168/35 65/169/35
f 64/170/36 62/171/36 65/172/36
f 62/173/37 63/174/37 65/175/37
f 63/176/38 66/177/38 65/178/38
f 66/179/39 55/180/39 65/181/39
f 66/182/40 57/177/40 55/183/40
f 57/184/41 54/185/41 55/186/41
f 54/187/42 64/188/42 55/189/42
f 54/190/26 56/191/26 64/169/26
f 56/184/26 60/192/26 64/193/26
f 60/194/26 62/195/26 64/175/26
f 60/196/43 63/197/43 62/189/43
f 60/198/44 61/199/44 63/169/44
f 61/200/45 66/201/45 63/181/45
f 61/202/46 59/177/46 66/203/46
f 59/204/47 57/205/47 66/181/47
f 59/194/48 56/206/48 57/207/48
f 56/171/49 54/208/49 57/209/49
f 59/210/50 58/211/50 56/189/50
f 58/212/26 60/169/26 56/213/26
f 58/214/51 61/171/51 60/215/51
f 58/216/52 59/184/52 61/217/52
f 69/109/53 73/218/53 71/219/53
f 69/220/53 71/105/53 67/221/53
f 71/222/54 72/223/54 68/101/54
f 71/102/54 68/224/54 67/225/54
f 68/226/22 70/227/22 69/101/22
f 68/102/22 69/228/22 67/229/22
f 70/91/55 74/230/55 73/231/55
f 70/232/55 73/87/55 69/233/55
f 73/91/18 74/146/18 72/145/18
f 73/144/18 72/87/18 71/143/18
f 72/234/56 74/235/56 70/96/56
f 72/95/56 70/236/56 68/237/56
f 80/87/18 79/238/18 81/239/18
f 80/240/18 81/91/18 82/241/18
f 81/87/57 77/242/57 78/243/57
f 81/244/57 78/91/57 82/245/57
f 78/246/58 76/247/58 80/95/58
f 78/96/58 80/248/58 82/249/58
f 76/250/59 75/251/59 79/102/59
f 76/101/59 79/252/59 80/253/59
f 79/105/60 75/254/60 77/255/60
f 79/256/60 77/109/60 81/257/60
f 77/141/22 75/142/22 76/102/22
f 77/101/22 76/139/22 78/140/22
f 85/258/61 83/259/61 86/260/61
f 83/261/62 84/262/62 86/194/62
f 84/263/63 95/264/63 86/265/63
f 95/266/64 88/267/64 86/268/64
f 88/269/65 85/270/65 86/184/65
f 88/271/66 87/272/66 85/273/66
f 87/169/25 83/184/25 85/274/25
f 87/275/25 91/175/25 83/276/25
f 91/277/25 93/278/25 83/194/25
f 93/279/67 84/273/67 83/280/67
f 93/281/68 94/175/68 84/282/68
f 94/266/69 95/283/69 84/284/69
f 92/266/70 90/285/70 95/286/70
f 90/287/71 88/265/71 95/288/71
f 94/289/72 92/290/72 95/265/72
f 90/291/73 87/292/73 88/194/73
f 90/258/74 89/293/74 87/294/74
f 89/295/25 91/296/25 87/194/25
f 89/297/75 92/298/75 91/273/75
f 92/169/76 94/299/76 91/300/76
f 94/301/77 93/302/77 91/258/77
f 89/303/78 90/304/78 92/175/78
f 97/305/79 102/306/79 96/307/79
f 98/308/80 103/309/80 97/310/80
f 98/311/81 105/312/81 104/313/81
f 100/314/82 105/315/82 99/316/82
f 101/317/83 106/318/83 100/319/83
f 101/320/84 102/321/84 107/322/84
f 103/323/85 108/324/85 102/325/85
f 104/326/86 109/327/86 103/328/86
f 104/329/87 111/330/87 110/331/87
f 106/332/88 111/333/88 105/334/88
f 107/335/89 112/336/89 106/337/89
f 107/338/90 108/339/90 113/340/90
f 109/305/79 114/306/79 108/307/79
f 110/308/80 115/309/80 109/310/80
f 110/311/81 117/312/81 116/341/81
f 112/314/82 117/315/82 111/316/82
f 113/317/83 118/318/83 112/319/83
f 113/342/84 114/343/84 119/322/84
f 115/344/85 120/345/85 114/346/85
f 116/347/86 121/348/86 115/349/86
f 116/329/87 123/330/87 122/350/87
f 118/351/88 123/352/88 117/353/88
f 119/354/89 124/355/89 118/356/89
f 119/357/90 120/358/90 125/340/90
f 121/305/79 126/306/79 120/307/79
f 122/359/80 127/360/80 121/310/80
f 122/311/81 129/312/81 128/341/81
f 124/314/82 129/315/82 123/361/82
f 125/317/83 130/318/83 124/319/83
f 125/342/84 126/343/84 131/322/84
f 127/362/85 132/363/85 126/346/85
f 128/347/86 133/348/86 127/349/86
f 128/329/87 135/330/87 134/350/87
f 130/351/88 135/352/88 129/353/88
f 131/354/89 136/355/89 130/364/89
f 131/357/90 132/358/90 137/340/90
f 133/365/79 138/366/79 132/307/79
f 134/308/80 139/309/80 133/367/80
f 135/368/81 140/313/81 134/369/81
f 136/370/82 141/371/82 135/316/82
f 137/317/83 142/318/83 136/372/83
f 132/373/84 143/374/84 137/320/84
f 144/375/91 146/376/91 145/105/91
f 144/377/92 147/378/92 146/379/92
f 144/380/93 148/109/93 147/376/93
f 144/105/94 149/381/94 148/382/94
f 144/383/95 150/377/95 149/109/95
f 144/376/96 151/384/96 150/385/96
f 144/386/97 152/105/97 151/377/97
f 144/109/98 145/387/98 152/388/98
f 146/389/99 153/390/99 145/391/99
f 147/392/100 154/393/100 146/394/100
f 148/395/101 155/396/101 147/397/101
f 149/398/102 156/399/102 148/400/102
f 150/401/103 157/402/103 149/403/103
f 151/404/104 158/405/104 150/406/104
f 152/407/105 159/408/105 151/409/105
f 145/410/106 160/411/106 152/412/106
f 154/413/107 161/414/107 153/415/107
f 155/416/108 162/417/108 154/418/108
f 156/419/109 163/420/109 155/421/109
f 157/422/110 164/423/110 156/424/110
f 158/425/111 165/426/111 157/427/111
f 159/428/112 166/429/112 158/430/112
f 160/431/113 167/432/113 159/433/113
f 153/434/114 168/435/114 160/436/114
f 162/437/115 169/438/115 161/439/115
f 163/440/116 170/441/116 162/442/116
f 164/443/117 171/444/117 163/445/117
f 165/446/118 172/447/118 164/448/118
f 166/449/119 173/450/119 165/451/119
f 167/452/120 174/453/120 166/454/120
f 168/455/121 175/456/121 167/457/121
f 161/458/122 176/459/122 168/460/122
f 169/461/123 170/462/123 177/463/123
f 170/464/124 171/465/124 177/466/124
f 171/462/125 172/467/125 177/468/125
f 172/469/126 173/470/126 177/461/126
f 173/467/127 174/466/127 177/471/127
f 174/472/128 175/473/128 177/462/128
f 175/466/129 176/461/129 177/474/129
f 176/475/130 169/476/130 177/467/130
f 179/167/35 188/477/35 189/169/35
f 188/478/36 186/171/36 189/479/36
f 186/480/37 187/481/37 189/175/37
f 187/482/38 190/177/38 189/203/38
f 190/483/39 179/484/39 189/181/39
f 190/182/40 181/177/40 179/485/40
f 181/184/41 178/486/41 179/487/41
f 178/488/42 188/489/42 179/189/42
f 178/184/26 186/490/26 188/491/26
f 178/492/26 180/493/26 186/169/26
f 180/494/26 182/495/26 186/169/26
f 182/184/26 184/496/26 186/497/26
f 184/498/43 187/499/43 186/189/43
f 184/500/44 185/501/44 187/169/44
f 185/502/45 190/503/45 187/181/45
f 185/504/46 183/177/46 190/505/46
f 183/506/47 181/507/47 190/181/47
f 183/194/48 180/508/48 181/509/48
f 180/171/49 178/510/49 181/511/49
f 183/512/50 182/513/50 180/189/50
f 183/184/52 185/217/52 182/514/52
f 185/171/51 184/515/51 182/516/51
f 193/258/61 191/517/61 194/518/61
f 191/519/62 192/520/62 194/194/62
f 192/521/63 203/522/63 194/265/63
f 203/266/64 196/523/64 194/286/64
f 196/524/65 193/525/65 194/184/65
f 201/175/25 191/526/25 193/527/25
f 196/528/66 195/529/66 193/273/66
f 195/530/25 197/175/25 193/531/25
f 197/532/25 199/533/25 193/194/25
f 199/534/25 201/535/25 193/194/25
f 201/536/67 192/273/67 191/537/67
f 201/538/68 202/175/68 192/539/68
f 202/266/69 203/283/69 192/540/69
f 200/266/131 198/541/131 203/542/131
f 198/543/71 196/265/71 203/544/71
f 202/545/72 200/546/72 203/265/72
f 198/547/73 195/548/73 196/194/73
f 199/258/77 202/549/77 201/550/77
f 198/258/74 197/551/74 195/552/74
f 198/553/78 200/175/78 197/554/78
f 200/555/75 199/273/75 197/556/75
f 200/169/76 202/557/76 199/558/76
f 97/305/79 103/559/79 102/306/79
f 98/308/80 104/560/80 103/309/80
f 98/311/81 99/368/81 105/312/81
f 100/314/82 106/561/82 105/315/82
f 101/317/83 107/562/83 106/318/83
f 101/320/84 96/563/84 102/321/84
f 103/323/85 109/564/85 108/324/85
f 104/326/86 110/565/86 109/327/86
f 104/329/87 105/566/87 111/330/87
f 106/332/88 112/567/88 111/333/88
f 107/335/89 113/568/89 112/336/89
f 107/338/90 102/569/90 108/339/90
f 109/305/79 115/559/79 114/306/79
f 110/308/80 116/560/80 115/309/80
f 110/311/81 111/570/81 117/312/81
f 112/314/82 118/561/82 117/315/82
f 113/317/83 119/562/83 118/318/83
f 113/342/84 108/563/84 114/343/84
f 115/344/85 121/571/85 120/345/85
f 116/347/86 122/572/86 121/348/86
f 116/329/87 117/573/87 123/330/87
f 118/351/88 124/574/88 123/352/88
f 119/354/89 125/575/89 124/355/89
f 119/357/90 114/569/90 120/358/90
f 121/305/79 127/559/79 126/306/79
f 122/359/80 128/560/80 127/360/80
f 122/311/81 123/570/81 129/312/81
f 124/314/82 130/576/82 129/315/82
f 125/317/83 131/562/83 130/318/83
f 125/342/84 120/563/84 126/343/84
f 127/362/85 133/571/85 132/363/85
f 128/347/86 134/572/86 133/348/86
f 128/329/87 129/573/87 135/330/87
f 130/351/88 136/574/88 135/352/88
f 131/354/89 137/577/89 136/355/89
f 131/357/90 126/569/90 132/358/90
f 133/365/79 139/559/79 138/366/79
f 134/308/80 140/578/80 139/309/80
f 135/368/81 141/579/81 140/313/81
f 136/370/82 142/561/82 141/371/82
f 137/317/83 143/580/83 142/318/83
f 132/373/84 138/321/84 143/374/84
f 146/389/99 154/581/99 153/390/99
f 147/392/100 155/582/100 154/393/100
f 148/395/101 156/583/101 155/396/101
f 149/398/102 157/584/102 156/399/102
f 150/401/103 158/585/103 157/402/103
f 151/404/104 159/586/104 158/405/104
f 152/407/105 160/587/105 159/408/105
f 145/410/106 153/588/106 160/411/106
f 154/413/107 162/589/107 161/414/107
f 155/416/108 163/590/108 162/417/108
f 156/419/109 164/591/109 163/420/109
f 157/422/110 165/592/110 164/423/110
f 158/425/111 166/593/111 165/426/111
f 159/428/112 167/594/112 166/429/112
f 160/431/113 168/595/113 167/432/113
f 153/434/114 161/596/114 168/435/114
f 162/437/115 170/597/115 169/438/115
f 163/440/116 171/598/116 170/441/116
f 164/443/117 172/599/117 171/444/117
f 165/446/118 173/600/118 172/447/118
f 166/449/119 174/601/119 173/450/119
f 167/452/120 175/602/120 174/453/120
f 168/455/121 176/603/121 175/456/121
f 161/458/122 169/604/122 176/459/122
